<svg width="277" height="224" viewBox="0 0 277 224" fill="none" xmlns="http://www.w3.org/2000/svg">
<path fill-rule="evenodd" clip-rule="evenodd" d="M21.1483 112.416C20.2487 113.756 20.0249 113.803 20.2048 114.756C20.3847 115.708 20.6053 116.177 19.9547 116.622C18.853 117.344 17.3832 115.863 17.0076 114.462C16.9878 114.597 16.9416 114.726 16.8715 114.842C16.8014 114.959 16.7089 115.06 16.5994 115.141C16.4898 115.222 16.3654 115.28 16.2333 115.312C16.1012 115.344 15.964 115.35 15.8297 115.329C15.1176 115.146 14.5044 114.694 14.12 114.068C12.9293 112.523 13.9803 110.664 15.4221 109.37C12.5928 107.757 9.93502 105.86 7.48979 103.709C7.35567 104.283 7.64518 104.973 7.66698 105.508C7.67137 106.422 6.63873 106.93 5.55665 106.095C4.94784 105.606 4.51265 104.934 4.31553 104.179C4.29572 104.314 4.24943 104.443 4.17935 104.559C4.10928 104.676 4.0168 104.777 3.90726 104.858C3.79772 104.938 3.67329 104.997 3.54117 105.029C3.40906 105.061 3.27187 105.067 3.13754 105.046C2.42549 104.863 1.81233 104.411 1.42784 103.784C1.17125 103.456 1.00418 103.067 0.942923 102.654C0.881664 102.242 0.928311 101.821 1.0783 101.432C1.4928 100.412 2.16236 99.5149 3.02284 98.8276C2.46767 98.0524 1.96274 97.2425 1.51118 96.4027C1.51118 96.4027 0.895302 94.8898 3.17115 95.5542C3.17115 95.5542 1.78845 95.0134 1.01676 94.7399C0.245071 94.4665 1.8619 92.8795 3.1175 92.8621C2.22683 92.6675 1.36043 92.375 0.534085 91.9899C0.489672 91.4573 2.85813 89.7344 4.4553 89.7041C4.4553 89.7041 2.05653 89.8299 1.85574 89.005C2.62792 88.144 3.5716 87.454 4.62619 86.9793C5.68077 86.5045 6.82298 86.2555 7.97949 86.2482C7.20183 86.1527 6.43626 85.9763 5.69525 85.7218C4.55527 85.3155 10.6992 84.1683 13.574 85.4215C13.0993 85.1633 12.6758 84.8203 12.3248 84.4094C11.5326 83.3951 17.6067 84.1985 19.7109 87.0414C19.7109 87.0414 19.5305 85.7572 19.2158 85.4816C20.2935 85.4028 28.6422 92.7463 28.8398 98.5554C32.3597 99.8553 33.9709 107.7 34.791 110.288C35.8114 112.252 37.2226 113.987 38.9378 115.386C41.2865 116.855 41.0432 118.023 39.9419 119.076C39.6082 119.363 39.1981 119.547 38.7616 119.605C38.3252 119.663 37.8813 119.592 37.4842 119.402C32.4971 119.045 25.277 115.161 21.1483 112.416ZM18.0702 110.75C17.3818 110.399 16.6084 110 15.7452 109.508C14.733 110.757 13.7082 112.43 14.6878 113.597C14.9769 113.955 15.6627 114.717 16.1055 114.58C16.5483 114.442 16.0951 113.826 16.3394 112.886C16.6885 112.016 17.2917 111.272 18.0702 110.75ZM3.2477 99.0098C2.12316 100.168 0.986401 102.082 2.00585 103.301C2.29514 103.675 2.66717 103.976 3.09268 104.181C3.52343 104.365 3.72348 104.092 3.69977 103.866C3.57834 103.423 3.58016 102.955 3.70502 102.513C3.82988 102.071 4.07305 101.671 4.40832 101.357L4.878 100.931C4.26889 100.354 3.73062 99.6908 3.2477 99.0098ZM19.1417 111.266C18.5951 111.941 17.4312 113.377 17.7046 114.24C17.8047 114.63 17.9917 114.992 18.2516 115.3C18.5115 115.607 18.8375 115.851 19.2052 116.015C20.0876 116.254 19.4614 115.188 19.5677 114.239C19.674 113.291 20.0739 113.18 20.8705 112.274C20.3119 111.907 19.7311 111.574 19.1315 111.279L19.1417 111.266ZM5.69045 101.92C5.29573 102.407 4.84073 103.301 4.97733 103.95C5.34336 105.26 6.47905 105.953 6.86476 105.706C7.25046 105.46 6.5321 104.278 7.05557 103.274C6.61123 102.852 6.16452 102.408 5.69045 101.92ZM18.7686 111.088L18.4081 110.92C17.2644 112.332 16.7805 112.623 16.9335 113.864C17.2304 112.764 17.8848 111.795 18.7936 111.108L18.7686 111.088ZM5.13668 101.327C4.54965 102.051 4.10798 102.417 4.27176 103.543C4.41944 102.787 4.78814 102.092 5.33118 101.546L5.13668 101.327ZM38.4831 115.411C37.5792 114.707 36.7334 113.932 35.9539 113.093C33.7388 110.719 34.2246 110.119 32.5611 105.047C30.4702 98.8417 28.8045 98.9821 28.5827 98.7196C27.7359 98.8198 23.7665 99.5561 27.4012 103.805C26.1291 103.306 24.7283 103.24 23.4149 103.617L25.1514 105.023C24.0465 104.702 22.8735 104.698 21.7667 105.013C22.4763 105.582 23.2988 105.995 24.1797 106.223C22.9849 106.317 21.8048 106.548 20.6626 106.912C19.7734 107.371 21.5981 108.311 22.8987 108.723C21.9861 108.616 21.0627 108.793 20.2541 109.229C19.072 109.948 21.1895 110.629 22.0904 110.717C22.9913 110.805 20.2254 111.027 21.0873 111.725C21.662 112.191 31.1188 117.784 37.0614 118.749C36.3996 117.344 37.7944 115.929 38.5081 115.431L38.4831 115.411Z" fill="#090915"/>
<path fill-rule="evenodd" clip-rule="evenodd" d="M128.549 190.223C128.395 191.072 129.382 191.906 130.6 191.328C130.618 191.328 130.635 191.325 130.651 191.317C130.667 191.31 130.681 191.298 130.692 191.285C130.703 191.271 130.711 191.255 130.715 191.238C130.718 191.22 130.718 191.203 130.714 191.185C130.71 191.168 130.702 191.152 130.691 191.139C130.68 191.125 130.666 191.114 130.65 191.107C130.634 191.1 130.616 191.096 130.599 191.096C130.581 191.097 130.564 191.101 130.548 191.109L129.978 191.006C129.65 190.983 129.341 190.843 129.107 190.612C128.976 190.491 128.865 190.352 128.776 190.198C128.777 190.181 128.774 190.164 128.768 190.149C128.762 190.133 128.753 190.118 128.741 190.107C128.728 190.095 128.714 190.086 128.698 190.08C128.682 190.075 128.665 190.073 128.648 190.075C128.631 190.077 128.615 190.082 128.6 190.091C128.586 190.1 128.573 190.112 128.564 190.126C128.554 190.14 128.548 190.156 128.545 190.172C128.543 190.189 128.544 190.206 128.549 190.223ZM52.4238 145.058C52.0437 144.413 51.9152 143.65 52.063 142.915C52.2108 142.181 52.6244 141.527 53.2246 141.079C53.5449 141.753 53.6691 142.504 53.5831 143.246C53.4971 143.987 53.2044 144.689 52.7384 145.272C52.711 146.001 52.7147 146.918 52.753 147.789C53.1878 145.393 54.9693 145.389 54.9693 145.389C55.1255 147.486 54.1118 148.599 52.8097 148.847C52.8976 149.95 53.0501 151.129 53.2394 152.251C53.446 149.381 55.5028 149.375 55.5028 149.375C55.6717 151.474 54.628 152.607 53.3306 152.83C53.5325 153.954 53.7899 155.205 54.0806 156.345C54.1765 153.219 56.3647 153.211 56.3647 153.211C56.5151 155.268 55.5371 156.399 54.2708 156.667C54.1442 156.69 54.0135 156.667 53.9032 156.6C53.1175 156.286 52.4404 155.75 51.9546 155.057C51.4688 154.364 51.1953 153.545 51.1677 152.699C51.6296 152.82 52.0621 153.034 52.4388 153.328C52.8155 153.621 53.1285 153.988 53.3587 154.407C53.1695 153.718 53.0484 153.159 52.9456 152.643C52.1907 152.26 51.5576 151.674 51.1174 150.951C50.6773 150.228 50.4476 149.397 50.4543 148.55C50.9601 148.748 51.4184 149.051 51.7993 149.438C52.1802 149.826 52.4752 150.289 52.6651 150.798C52.5693 150.099 52.4896 149.457 52.4548 148.782C51.7122 148.381 51.0956 147.782 50.6734 147.051C50.2513 146.32 50.0402 145.487 50.0637 144.643C50.6292 144.884 51.131 145.253 51.53 145.721C51.929 146.189 52.2142 146.742 52.3634 147.339C52.3386 146.578 52.3587 145.816 52.4238 145.058ZM87.7807 148.137C85.5938 144.676 87.6443 142.613 87.6443 142.613C88.0546 142.91 88.3998 143.288 88.6585 143.724C88.9172 144.159 89.0839 144.643 89.1485 145.145C89.2131 145.648 89.1742 146.158 89.034 146.645C88.8939 147.132 88.6556 147.585 88.3338 147.976C88.3444 148.949 88.2772 149.922 88.133 150.885C88.5507 150.19 89.1411 149.615 89.8469 149.215C90.5526 148.816 91.3498 148.605 92.1608 148.605C92.0501 149.697 91.5501 150.714 90.7521 151.468C89.9541 152.222 88.9113 152.664 87.8143 152.713C87.6648 153.537 87.4265 154.345 87.164 155.214C87.6061 154.649 88.1708 154.193 88.8153 153.879C89.4598 153.565 90.1673 153.402 90.8843 153.401C90.7606 154.52 90.2337 155.554 89.402 156.312C88.5703 157.07 87.491 157.498 86.3661 157.517C86.1151 158.179 85.8261 158.834 85.4702 159.568C85.9608 159.118 86.5409 158.776 87.1725 158.566C87.8041 158.356 88.473 158.281 89.1354 158.347C88.9041 159.427 88.2945 160.388 87.4166 161.057C86.5388 161.726 85.4506 162.059 84.3486 161.996C84.1418 161.986 83.9373 161.949 83.7401 161.885C82.7089 161.474 81.8594 160.706 81.3462 159.722C80.8329 158.737 80.6899 157.601 80.9431 156.52C81.9567 156.878 82.8174 157.572 83.3824 158.487C83.9475 159.402 84.183 160.482 84.05 161.549C84.6807 160.218 85.2426 158.856 85.7335 157.468C84.6639 157.083 83.7731 156.318 83.2302 155.319C82.6874 154.32 82.5304 153.157 82.789 152.05C83.7378 152.402 84.5484 153.05 85.1017 153.897C85.6549 154.745 85.9215 155.748 85.8624 156.758C86.3301 155.412 86.7149 154.039 87.0146 152.646C85.9699 152.243 85.1062 151.476 84.5832 150.486C84.0602 149.495 83.9131 148.349 84.1692 147.259C85.0475 147.545 85.8222 148.084 86.3964 148.807C86.9706 149.531 87.319 150.408 87.398 151.328C87.5855 150.223 87.7234 149.03 87.7807 148.137ZM70.8161 130.655C69.7699 126.969 71.1195 123.718 75.3307 122.086C75.3307 122.086 77.4845 126.811 71.6448 131.211C71.1878 132.791 70.6952 134.784 70.3373 136.683C71.0246 135.23 72.1171 134.007 73.4833 133.161C74.8495 132.315 76.4312 131.881 78.0379 131.913C77.4009 136.433 73.9815 138.824 69.9313 139.136C69.5783 141.615 69.3697 144.113 69.3066 146.617C69.859 144.904 70.9488 143.414 72.4145 142.368C73.8802 141.323 75.6437 140.778 77.4436 140.814C76.7916 145.344 73.3699 147.747 69.284 148.04C69.2343 150.824 69.332 153.608 69.5768 156.382C69.9694 154.447 71.0277 152.712 72.5676 151.477C74.1075 150.242 76.0316 149.586 78.005 149.623C77.3507 154.166 73.9037 156.565 69.835 156.834C69.5889 156.884 69.3338 156.86 69.101 156.767C67.9343 156.329 66.8537 155.69 65.9085 154.878C64.8491 153.98 64.0509 152.814 63.598 151.501C63.145 150.189 63.054 148.778 63.3344 147.418C65.4846 148.057 67.295 149.52 68.37 151.488C68.2441 150.234 68.178 148.939 68.1581 147.679C64.4322 145.915 62.0954 142.414 63.1681 137.948C64.3745 138.401 65.461 139.125 66.3438 140.063C67.2267 141.002 67.8824 142.131 68.2605 143.363C68.3569 141.823 68.5143 140.306 68.7305 138.826C65.1394 136.97 62.9859 133.541 64.0033 129.235C65.3831 129.732 66.6076 130.584 67.5534 131.705C68.4993 132.826 69.1331 134.177 69.391 135.621C69.7456 133.911 70.2258 132.23 70.8276 130.591L70.8161 130.655ZM70.4277 178.167C70.7592 176.918 72.5845 177.249 73.6184 177.973C73.7046 178.009 73.7793 178.068 73.8346 178.144C73.8899 178.219 73.9237 178.308 73.9324 178.401C73.9411 178.494 73.9243 178.588 73.8838 178.672C73.8434 178.756 73.7808 178.828 73.7027 178.879C73.3748 179.138 73.0061 179.341 72.6117 179.48C74.5165 179.734 75.5688 180.645 73.9581 181.439C73.5219 181.696 73.0082 181.787 72.5104 181.697C72.0126 181.606 71.5638 181.34 71.2455 180.947C71.2066 182.027 70.5477 182.627 69.2582 182.301C68.4077 182.082 68.176 181.699 68.2127 181.352C68.2823 181.041 68.4479 180.76 68.6861 180.548C67.6399 180.829 66.2779 180.975 65.9538 179.947C65.6297 178.919 66.6241 178.851 67.6163 178.94C66.3117 178.192 67.1618 177.26 68.6609 177.152C69.0272 177.092 69.4032 177.16 69.7252 177.344C70.0471 177.529 70.2953 177.82 70.4277 178.167ZM70.8189 180.267C70.4815 180.265 70.147 180.204 69.8302 180.088C69.7185 180.198 68.1297 181.088 68.7256 181.629C69.046 181.883 70.2272 182.229 70.6569 181.665C70.8846 181.236 70.9425 180.737 70.8189 180.267ZM68.8874 179.367C68.0001 179.206 66.0169 178.95 66.2926 179.812C66.5682 180.674 68.4475 180.203 69.3923 179.904C69.1713 179.793 68.9924 179.613 68.8828 179.392L68.8874 179.367ZM71.2199 180.222C71.3521 180.513 71.5569 180.766 71.8146 180.955C72.0724 181.145 72.3745 181.265 72.692 181.304C73.0094 181.343 73.3317 181.301 73.6278 181.179C73.9239 181.058 74.184 180.863 74.3831 180.613C74.4061 180.486 74.2067 180.358 74.0892 180.285C73.4315 179.942 72.7034 179.756 71.9619 179.741C71.8922 179.871 71.7936 179.982 71.6737 180.067C71.5538 180.152 71.4158 180.209 71.2706 180.231L71.2199 180.222ZM70.5247 178.787C71.0571 178.883 71.941 179.423 71.5551 179.746C71.1731 179.905 70.7535 179.95 70.3466 179.876C69.9397 179.802 69.5627 179.612 69.2608 179.33C68.9034 178.846 69.9416 178.681 70.5316 178.749L70.5247 178.787ZM70.3748 178.602C69.9905 176.464 66.9418 177.534 67.2831 178.251C67.4676 178.677 68.4633 178.962 68.862 179.074C69.0312 178.502 69.8367 178.465 70.3817 178.564L70.3748 178.602ZM71.9664 179.428C72.5569 179.28 73.1099 179.011 73.5897 178.636C73.6934 178.498 73.7015 178.381 73.4686 178.221C72.3657 177.445 70.5496 177.207 70.5189 178.602C70.671 178.63 71.6724 178.812 71.9525 179.36L71.9664 179.428ZM59.5604 170.302C59.7185 170.024 59.9742 169.815 60.2778 169.715C60.5815 169.616 60.9114 169.632 61.2034 169.762C62.3777 170.146 62.923 171.109 61.7777 171.503C62.589 171.65 63.2909 172.04 62.8613 172.747C62.4317 173.455 61.3634 173.209 60.5544 172.761C61.004 173.602 60.6285 174.083 59.6709 174.093C58.7134 174.102 58.1267 173.511 58.2647 172.607C57.9271 172.864 57.5076 172.99 57.0842 172.961C56.6607 172.933 56.2621 172.751 55.9623 172.451C54.8259 171.498 55.7141 170.861 57.4023 171.01C57.0565 170.751 56.4514 170.261 56.5908 169.855C56.8464 169.168 59.4874 168.901 59.5673 170.264L59.5604 170.302ZM59.6335 172.135C59.365 172.163 59.0938 172.145 58.8315 172.081C58.6459 172.446 58.5978 172.864 58.6958 173.261C58.9184 173.839 59.9128 173.77 60.2412 173.62C60.5695 173.47 60.324 173.164 60.226 172.911C60.0664 172.64 59.8744 172.389 59.6542 172.165L59.6335 172.135ZM57.9624 171.387C57.2526 171.258 55.5414 171.235 55.9288 171.842C56.096 172.083 56.3228 172.275 56.5868 172.401C56.8509 172.527 57.1432 172.582 57.435 172.561C57.8308 172.471 58.1868 172.256 58.45 171.947C58.3274 171.893 58.2196 171.811 58.1359 171.707C58.0522 171.603 57.995 171.48 57.9693 171.349L57.9624 171.387ZM60.1094 172.038C60.7928 172.529 62.1458 173.298 62.6308 172.575C63.1157 171.851 61.3826 171.733 60.6416 171.703C60.5011 171.853 60.3177 171.957 60.1163 172L60.1094 172.038ZM59.3473 170.826C59.8152 170.846 60.5827 171.234 60.2521 171.54C59.96 171.707 59.6266 171.786 59.291 171.769C58.9555 171.752 58.6317 171.64 58.3577 171.445C58.0603 171.064 58.8634 170.752 59.3542 170.788L59.3473 170.826ZM59.3749 170.674C59.4325 170.357 59.4496 169.902 58.9022 169.672C58.3548 169.442 56.9133 169.664 56.8673 169.918C56.8213 170.171 57.756 170.865 58.0372 171.047C58.3839 170.507 59.2378 170.636 59.3819 170.636L59.3749 170.674ZM60.6738 171.381C61.0552 171.372 61.8653 171.31 62.0541 170.99C62.243 170.671 61.5941 170.134 61.1009 169.966C60.7924 169.855 60.453 169.865 60.152 169.996C59.851 170.126 59.611 170.366 59.481 170.667C60.0064 170.658 60.6368 170.864 60.6784 171.356L60.6738 171.381ZM72.0057 168.031C72.0427 168.404 71.492 168.697 71.1487 168.857C72.8472 169.165 72.9085 169.91 71.9926 170.411C71.6897 170.593 71.3312 170.658 70.9837 170.595C70.6362 170.532 70.3235 170.345 70.1039 170.068C69.9658 170.829 69.5442 171.276 68.62 171.03C67.6958 170.784 67.6541 170.292 68.0942 169.743C67.7344 169.863 67.3516 169.896 66.9764 169.841C66.8501 169.829 66.7282 169.788 66.6207 169.72C66.5132 169.653 66.423 169.561 66.3575 169.452C66.2919 169.344 66.2527 169.221 66.2431 169.095C66.2334 168.968 66.2536 168.841 66.302 168.724C66.4805 168.389 66.9852 168.35 67.377 168.356C66.9367 168.04 66.9378 167.674 67.1935 167.419C67.3844 167.26 67.6054 167.141 67.8434 167.069C68.0815 166.998 68.3315 166.975 68.5785 167.003C68.7758 167.037 68.96 167.125 69.1114 167.256C69.2628 167.388 69.3758 167.557 69.4383 167.748C69.801 166.688 71.9491 167.405 72.0126 167.993L72.0057 168.031ZM69.7027 169.537C69.4862 169.537 69.2716 169.498 69.0689 169.422C68.6951 169.624 68.3979 169.942 68.2234 170.329C68.1843 170.545 68.5046 170.655 68.7178 170.707C69.5579 170.912 69.847 170.402 69.7096 169.499L69.7027 169.537ZM68.3405 168.819C67.9475 168.747 66.8194 168.543 66.5959 168.908C66.5683 169.06 66.6053 169.433 67.0363 169.512C67.5894 169.537 68.1402 169.425 68.6402 169.187C68.5068 169.096 68.4027 168.968 68.3405 168.819ZM71.0062 170.219C71.2098 170.241 71.4156 170.219 71.6101 170.155C71.8046 170.091 71.9833 169.986 72.1342 169.848C72.2908 169.706 72.2413 169.618 72.0649 169.508C71.6228 169.247 71.1203 169.106 70.6071 169.099C70.5539 169.192 70.482 169.272 70.3962 169.335C70.3103 169.399 70.2123 169.443 70.1083 169.467C70.1897 169.652 70.3136 169.816 70.47 169.944C70.6264 170.073 70.8109 170.163 71.0085 170.206L71.0062 170.219ZM69.5088 168.297C69.1285 168.228 68.4567 168.395 68.6493 168.704C68.8091 168.864 69.0049 168.983 69.2202 169.052C69.4355 169.121 69.6641 169.137 69.887 169.099C70.6935 168.984 70.1691 168.483 69.5088 168.297ZM69.3716 168.115C69.0784 166.556 67.0564 167.381 67.2398 167.886C67.4231 168.39 67.9866 168.388 68.2989 168.471C68.5407 168.004 69.2448 168.092 69.4223 168.125L69.3716 168.115ZM70.5702 168.726C71.0299 168.574 71.9804 168.17 71.6058 167.853C70.8221 167.266 69.5937 167.108 69.5617 168.15C69.7679 168.157 69.9695 168.213 70.1494 168.314C70.3293 168.415 70.4823 168.558 70.5955 168.73L70.5702 168.726ZM173.831 188.177C174.091 187.321 175.364 187.525 176.123 188.03C176.186 188.063 176.241 188.112 176.281 188.171C176.321 188.23 176.346 188.298 176.354 188.37C176.362 188.441 176.352 188.513 176.325 188.579C176.299 188.646 176.256 188.705 176.202 188.751C176 188.938 175.769 189.091 175.517 189.203C177.115 189.493 177.325 190.212 176.39 190.671C176.097 190.87 175.741 190.954 175.389 190.907C175.038 190.86 174.716 190.686 174.485 190.417C174.421 191.204 173.938 191.627 172.988 191.454C172.037 191.282 172.022 190.716 172.449 190.165C171.69 190.381 170.829 190.434 170.601 189.672C170.372 188.911 170.984 188.786 171.692 188.784C170.878 188.217 171.528 187.523 172.554 187.421C172.822 187.375 173.098 187.426 173.331 187.565C173.565 187.703 173.742 187.92 173.831 188.177ZM174.082 189.898C173.861 189.897 173.642 189.857 173.435 189.781C173.076 190.03 172.636 190.434 172.613 190.705C172.59 190.976 172.896 191.019 173.107 191.083C173.589 191.171 173.853 191.087 173.983 190.875C174.11 190.566 174.144 190.227 174.082 189.898ZM172.698 189.228C172.305 189.157 171.163 189.028 170.961 189.345C170.938 189.377 170.922 189.415 170.915 189.454C170.908 189.494 170.909 189.534 170.92 189.573C171.124 190.252 172.327 189.828 172.972 189.592C172.85 189.497 172.755 189.372 172.698 189.228ZM174.47 189.851C174.533 190.014 174.631 190.16 174.758 190.28C174.884 190.4 175.036 190.491 175.202 190.544C175.367 190.598 175.543 190.615 175.716 190.592C175.889 190.569 176.055 190.509 176.201 190.414C176.724 190.129 176.643 189.997 176.434 189.854C175.985 189.608 175.483 189.476 174.971 189.47C174.92 189.566 174.848 189.649 174.762 189.715C174.675 189.781 174.576 189.827 174.47 189.851ZM173.904 188.714C174.284 188.783 174.878 189.192 174.591 189.401C174.336 189.512 174.055 189.544 173.782 189.495C173.509 189.445 173.257 189.316 173.057 189.123C172.85 188.824 173.517 188.683 173.904 188.714ZM173.767 188.532C173.459 186.983 171.432 187.833 171.63 188.327C171.829 188.822 172.39 188.832 172.692 188.9C172.839 188.52 173.361 188.458 173.767 188.532ZM174.97 189.117C175.417 188.962 176.385 188.536 175.993 188.242C175.184 187.65 173.961 187.533 173.944 188.564C174.144 188.571 174.34 188.624 174.516 188.72C174.692 188.815 174.843 188.95 174.957 189.114L174.97 189.117ZM166.473 182.979C166.624 182.675 166.882 182.438 167.197 182.313C167.512 182.189 167.863 182.187 168.18 182.306C169.422 182.676 170.075 183.698 168.83 184.205C169.163 184.248 169.486 184.346 169.786 184.496C169.878 184.536 169.961 184.596 170.029 184.671C170.097 184.745 170.148 184.834 170.179 184.93C170.21 185.026 170.22 185.128 170.208 185.228C170.197 185.328 170.164 185.425 170.112 185.511C169.658 186.424 168.54 186.09 167.645 185.614C168.171 186.468 167.927 187.092 166.813 187.165C166.596 187.217 166.369 187.212 166.154 187.15C165.939 187.087 165.744 186.97 165.588 186.81C165.433 186.65 165.321 186.451 165.265 186.235C165.209 186.018 165.21 185.791 165.269 185.575C164.933 185.885 164.491 186.054 164.034 186.047C163.577 186.039 163.14 185.856 162.815 185.535C161.55 184.494 162.579 183.804 164.314 183.909C163.981 183.697 163.688 183.427 163.451 183.111C163.393 183.048 163.352 182.971 163.332 182.888C163.312 182.805 163.313 182.718 163.336 182.636C163.359 182.554 163.402 182.478 163.462 182.418C163.522 182.357 163.597 182.312 163.679 182.288C164.731 181.759 166.357 181.818 166.461 182.976L166.473 182.979ZM166.658 184.989C166.368 185.023 166.074 185.01 165.788 184.949C165.638 185.364 165.61 185.814 165.71 186.244C165.835 186.568 166.15 186.782 166.798 186.743C167.447 186.704 167.731 186.441 167.34 185.781C167.135 185.494 166.902 185.228 166.646 184.987L166.658 184.989ZM164.818 184.236C164.164 184.109 163.489 184.154 162.857 184.365C162.714 184.43 162.607 184.516 162.599 184.632C162.712 184.899 162.897 185.128 163.133 185.296C163.37 185.464 163.647 185.564 163.936 185.584C164.225 185.604 164.514 185.543 164.771 185.409C165.028 185.275 165.243 185.073 165.392 184.825C165.258 184.777 165.136 184.7 165.036 184.598C164.937 184.496 164.862 184.372 164.818 184.236ZM167.088 184.858C167.856 185.39 169.346 186.197 169.776 185.346C170.205 184.494 168.45 184.424 167.611 184.429C167.49 184.622 167.312 184.773 167.101 184.86L167.088 184.858ZM166.254 183.541C166.773 183.635 167.595 183.942 167.253 184.312C166.957 184.517 166.604 184.626 166.244 184.624C165.883 184.622 165.532 184.508 165.239 184.299C164.878 183.907 165.711 183.573 166.254 183.541ZM166.281 183.389C166.33 183.173 166.305 182.948 166.211 182.748C166.116 182.549 165.958 182.386 165.761 182.286C165.02 181.968 163.627 182.357 163.585 182.664C163.542 182.97 164.565 183.68 164.895 183.884C165.186 183.36 165.98 183.387 166.281 183.389ZM167.694 184.117C168.118 184.089 169.026 183.992 169.186 183.615C169.346 183.238 168.611 182.673 168.08 182.498C167.912 182.44 167.734 182.417 167.557 182.431C167.381 182.445 167.209 182.495 167.052 182.578C166.896 182.662 166.758 182.777 166.648 182.916C166.538 183.055 166.458 183.215 166.413 183.387C166.974 183.397 167.629 183.607 167.694 184.117ZM243.468 217.223C241.884 215.561 244.375 215.686 244.977 216.123C245.1 216.2 245.2 216.31 245.266 216.439C245.332 216.569 245.363 216.714 245.354 216.859C246.524 215.605 248.696 217.78 247.103 218.185C247.472 218.317 247.916 218.542 247.978 218.92C247.976 219.051 247.943 219.18 247.882 219.296C247.821 219.412 247.734 219.512 247.627 219.588C247.52 219.664 247.397 219.714 247.267 219.734C247.137 219.754 247.005 219.743 246.88 219.702C246.53 219.603 246.205 219.432 245.924 219.201C246.128 219.88 245.838 220.325 244.954 220.217C244.07 220.109 243.76 219.581 243.916 218.719C243.712 218.829 243.486 218.89 243.255 218.9C241.991 219.011 240.629 216.63 243.468 217.223ZM244.565 218.392C244.379 218.676 244.29 219.014 244.312 219.354C244.359 219.598 244.56 219.792 245.059 219.856C245.261 219.893 245.591 219.953 245.652 219.689C245.64 219.264 245.483 218.857 245.207 218.534C244.988 218.51 244.773 218.462 244.565 218.392ZM246.086 218.236C245.978 218.357 245.834 218.44 245.676 218.475C246.175 218.972 247.161 219.74 247.601 219.192C248.041 218.643 246.692 218.359 246.086 218.236ZM243.853 217.699C243.369 217.517 242.847 217.463 242.336 217.542C242.235 217.523 242.143 217.598 242.116 217.672C242.167 217.885 242.275 218.079 242.428 218.236C242.581 218.392 242.773 218.504 242.984 218.56C243.196 218.616 243.418 218.613 243.628 218.553C243.838 218.492 244.028 218.376 244.178 218.217C244.092 218.156 244.019 218.08 243.963 217.991C243.907 217.902 243.869 217.803 243.853 217.699ZM245.105 217.364C245.485 217.433 246.064 217.852 245.767 218.047C245.512 218.157 245.231 218.189 244.958 218.14C244.685 218.09 244.432 217.961 244.233 217.768C244.073 217.425 244.75 217.299 245.135 217.343L245.105 217.364ZM246.175 217.964C246.491 218.021 247.156 218.037 247.369 217.801C247.583 217.565 247.08 217.015 246.71 216.817C246.592 216.753 246.462 216.712 246.328 216.699C246.195 216.685 246.06 216.698 245.931 216.736C245.802 216.775 245.682 216.839 245.578 216.924C245.474 217.01 245.388 217.115 245.325 217.233C245.733 217.294 246.202 217.523 246.204 217.943L246.175 217.964ZM245.148 217.201C245.484 216.215 244.281 215.918 243.343 216.18C242.832 216.323 243.616 217.054 243.993 217.358C244.161 217.235 244.357 217.154 244.563 217.123C244.77 217.092 244.981 217.112 245.178 217.18L245.148 217.201ZM251.467 214.918C250.466 214.016 251.413 213.271 252.731 213.366C253.072 213.366 253.401 213.491 253.654 213.718C253.908 213.946 254.069 214.259 254.105 214.598C254.607 213.563 256.14 214.064 256.96 214.88C257.604 215.521 256.686 215.957 255.808 216.177C257.481 216.703 258.15 217.702 256.628 218.224C256.213 218.413 255.741 218.433 255.312 218.279C254.882 218.126 254.53 217.811 254.329 217.401C254.309 217.626 254.23 217.841 254.101 218.026C253.971 218.21 253.796 218.357 253.592 218.453C253.388 218.548 253.162 218.589 252.937 218.57C252.713 218.551 252.497 218.473 252.312 218.344C251.295 217.885 251.299 217.218 252.076 216.613C251.085 216.734 249.911 216.639 249.817 215.64C249.724 214.641 250.645 214.69 251.497 214.897L251.467 214.918ZM253.225 216.415C252.9 216.563 252.59 216.743 252.302 216.955C251.677 217.443 251.791 217.752 252.456 218.056C253.121 218.36 253.419 218.231 253.65 217.972C253.905 217.61 254.039 217.175 254.032 216.732C253.757 216.661 253.495 216.547 253.255 216.394L253.225 216.415ZM254.479 216.721C254.511 216.95 254.596 217.167 254.726 217.358C254.856 217.548 255.028 217.707 255.229 217.82C255.429 217.934 255.653 218 255.884 218.013C256.114 218.027 256.344 217.987 256.557 217.897C256.753 217.828 257.104 217.695 257.164 217.51C257.224 217.324 257.137 217.296 257.016 217.169C256.496 216.755 255.88 216.477 255.225 216.359C255.139 216.466 255.029 216.551 254.905 216.61C254.782 216.669 254.646 216.7 254.509 216.701L254.479 216.721ZM252.553 215.573C251.757 215.271 250.073 214.809 250.205 215.671C250.336 216.532 251.976 216.372 252.892 216.158C252.794 216.085 252.712 215.992 252.651 215.887C252.589 215.781 252.549 215.664 252.532 215.543L252.553 215.573ZM254.138 215.206C254.635 215.427 255.298 216.032 254.822 216.273C254.472 216.364 254.103 216.347 253.763 216.225C253.423 216.102 253.128 215.88 252.917 215.587C252.708 215.078 253.595 215.029 254.118 215.176L254.138 215.206ZM255.303 216.007C255.68 215.944 256.889 215.705 256.971 215.327C257.053 214.949 254.573 213.243 254.194 215.046C254.518 215.145 254.818 215.311 255.074 215.533C255.182 215.657 255.25 215.811 255.269 215.974L255.303 216.007ZM254.044 215.006C254.101 212.96 251.273 213.534 251.38 214.247C251.448 214.665 252.223 215.081 252.611 215.256C252.819 214.757 253.545 214.797 254.01 214.973L254.044 215.006ZM166.544 153.086C165.884 152.324 167.572 152.185 167.72 152.814C168.236 152.28 169.304 153.102 168.818 153.472C169.492 153.725 169.118 154.417 168.568 154.343C168.452 154.341 168.336 154.32 168.226 154.281C168.283 154.907 166.982 154.933 166.942 154.14C166.091 154.43 165.245 153.033 166.544 153.086ZM167.624 153.845L167.409 153.805C167.261 154.185 167.415 154.278 167.662 154.284C167.727 154.295 167.794 154.284 167.851 154.252C167.808 154.094 167.721 153.951 167.599 153.84L167.624 153.845ZM173.87 153.342C173.692 153.165 173.429 152.882 173.526 152.638C173.623 152.393 175.266 152.142 175.351 152.969C176.093 152.056 177.734 153.401 176.767 153.828C177.882 154.175 177.302 155.064 176.56 154.969C176.334 154.933 176.117 154.853 175.921 154.735C176.053 155.165 175.864 155.484 175.224 155.473C174.585 155.462 174.272 155.091 174.346 154.541C174.128 154.661 173.875 154.702 173.631 154.658C173.386 154.613 173.164 154.486 173.002 154.297C172.47 153.768 172.723 153.238 173.844 153.337L173.87 153.342ZM166.921 153.39C166.689 153.348 166.45 153.359 166.222 153.42L166.343 153.547C166.384 153.597 166.435 153.638 166.493 153.667C166.551 153.696 166.615 153.713 166.679 153.716C166.744 153.719 166.809 153.709 166.87 153.685C166.93 153.662 166.985 153.626 167.031 153.58C166.972 153.548 166.922 153.503 166.884 153.448L166.921 153.39ZM168.1 153.604C168.285 153.742 168.696 154 168.824 153.8C168.952 153.601 168.329 153.567 168.165 153.537C168.159 153.572 168.146 153.606 168.127 153.636C168.108 153.666 168.083 153.692 168.054 153.713L168.1 153.604ZM175.261 154.118C175.118 154.118 174.976 154.092 174.842 154.042C174.602 154.574 174.677 154.955 175.276 154.972C175.39 154.992 175.63 154.97 175.653 154.844C175.676 154.717 175.394 154.391 175.262 154.183L175.261 154.118ZM167.209 153.246C167.308 153.303 167.418 153.337 167.532 153.346C167.646 153.356 167.76 153.34 167.867 153.299C167.943 153.313 167.664 153.119 167.565 153.088C167.435 153.1 167.31 153.145 167.201 153.218L167.209 153.246ZM168.197 153.215C168.298 153.234 168.578 153.206 168.647 153.114C168.716 153.022 168.094 152.411 167.722 152.946C167.831 152.951 167.936 152.991 168.02 153.06C168.104 153.13 168.164 153.225 168.189 153.332L168.197 153.215ZM167.542 152.926C167.62 152.495 167.051 152.457 166.67 152.611C166.769 152.759 166.898 152.885 167.048 152.981C167.212 152.94 167.385 152.962 167.534 153.043L167.542 152.926ZM174.256 153.595C173.901 153.531 172.97 153.466 173.114 153.754C173.195 153.899 173.314 154.019 173.458 154.101C173.603 154.183 173.767 154.223 173.933 154.217C174.148 154.183 174.343 154.075 174.486 153.912C174.403 153.866 174.334 153.8 174.286 153.718L174.256 153.595ZM175.696 154.027C176.052 154.301 176.755 154.756 177.009 154.37C177.262 153.984 176.298 153.887 175.923 153.858C175.871 153.972 175.79 154.071 175.688 154.143L175.696 154.027ZM175.157 153.248C175.385 153.289 175.816 153.512 175.644 153.664C175.473 153.816 174.338 153.649 174.592 153.473C174.762 153.381 174.956 153.343 175.149 153.364L175.157 153.248ZM175.182 153.108C175.309 152.411 174.478 152.3 173.858 152.541C173.745 152.586 173.738 152.624 173.83 152.693C173.988 152.934 174.197 153.137 174.442 153.288C174.549 153.23 174.667 153.194 174.788 153.182C174.91 153.17 175.032 153.183 175.149 153.22L175.182 153.108ZM176.016 153.561C176.219 153.598 176.686 153.552 176.809 153.378C176.932 153.204 176.532 152.882 176.278 152.77C176.193 152.73 176.101 152.706 176.007 152.702C175.913 152.698 175.82 152.713 175.732 152.746C175.644 152.779 175.563 152.829 175.495 152.894C175.428 152.959 175.373 153.037 175.336 153.123C175.599 153.263 175.93 153.388 175.983 153.673L176.016 153.561ZM160.565 148.373C159.334 147.22 161.255 147.097 161.837 147.426C161.933 147.477 162.016 147.552 162.077 147.643C162.138 147.734 162.176 147.838 162.187 147.948C162.998 146.942 164.836 148.428 163.756 148.9C163.902 148.919 164.041 148.977 164.158 149.067C164.275 149.157 164.366 149.277 164.422 149.414C164.433 149.523 164.418 149.634 164.378 149.737C164.338 149.84 164.275 149.932 164.192 150.005C164.11 150.078 164.011 150.131 163.905 150.158C163.798 150.186 163.686 150.188 163.579 150.164C163.327 150.119 163.086 150.027 162.869 149.891C163.031 150.366 162.808 150.731 162.118 150.711C161.427 150.69 161.069 150.285 161.152 149.684C160.912 149.821 160.632 149.869 160.361 149.82C160.09 149.77 159.845 149.627 159.669 149.415C159.019 148.957 159.281 148.376 160.531 148.485L160.565 148.373ZM162.114 149.361C161.958 149.359 161.804 149.331 161.657 149.279C161.393 149.872 161.473 150.293 162.126 150.306C162.265 150.332 162.52 150.299 162.545 150.16C162.57 150.02 162.233 149.645 162.08 149.473L162.114 149.361ZM161.004 148.767C160.611 148.696 159.551 148.621 159.739 148.956C159.831 149.116 159.965 149.247 160.127 149.337C160.288 149.426 160.471 149.47 160.655 149.463C160.888 149.427 161.102 149.314 161.263 149.142C161.138 149.092 161.034 148.999 160.971 148.879L161.004 148.767ZM162.592 149.252C162.982 149.558 163.754 150.065 164.042 149.633C164.33 149.201 163.259 149.111 162.836 149.06C162.783 149.191 162.684 149.299 162.559 149.364L162.592 149.252ZM170.68 148.481C171.257 147.682 172.749 148.621 172.054 149.136C172.586 149.233 172.683 149.565 172.539 149.853C172.395 150.141 171.864 150.254 171.426 150.07C171.535 150.404 171.313 150.691 170.819 150.745C170.324 150.799 169.947 150.495 169.937 150.048C169.027 150.59 167.727 149.241 168.991 148.986C169.535 148.875 169.346 149.051 169.048 148.669C169.011 148.634 168.984 148.59 168.968 148.541C168.952 148.493 168.949 148.441 168.958 148.391C168.967 148.341 168.989 148.294 169.02 148.254C169.052 148.214 169.093 148.182 169.14 148.162C169.72 148.071 170.503 148.082 170.646 148.593L170.68 148.481ZM162.001 148.398C162.241 148.442 162.721 148.686 162.534 148.849C162.348 149.011 161.096 148.836 161.381 148.639C161.56 148.54 161.763 148.495 161.967 148.51L162.001 148.398ZM170.711 149.678C170.598 149.692 170.484 149.693 170.37 149.682C170.29 150.125 170.32 150.393 170.797 150.361C170.873 150.375 171.064 150.331 171.078 150.255C171.092 150.179 170.786 149.914 170.678 149.79L170.711 149.678ZM162.003 148.241C162.143 147.468 161.224 147.341 160.531 147.621C160.417 147.6 160.411 147.704 160.501 147.786C160.674 148.047 160.902 148.267 161.17 148.431C161.416 148.302 161.703 148.274 161.969 148.353L162.003 148.241ZM162.919 148.748C163.147 148.79 163.657 148.725 163.795 148.54C163.933 148.356 163.489 147.987 163.209 147.871C163.116 147.825 163.015 147.798 162.911 147.793C162.807 147.788 162.703 147.803 162.606 147.84C162.508 147.876 162.419 147.932 162.344 148.004C162.269 148.076 162.21 148.163 162.17 148.259C162.46 148.39 162.827 148.535 162.886 148.86L162.919 148.748ZM169.762 149.283C169.438 149.234 169.107 149.288 168.817 149.439C168.896 149.562 169.007 149.661 169.139 149.724C169.271 149.788 169.418 149.813 169.564 149.797C169.723 149.748 169.867 149.657 169.978 149.532C169.883 149.514 169.795 149.466 169.728 149.395L169.762 149.283ZM171.143 149.534C171.45 149.721 172.062 150.028 172.221 149.73C172.38 149.431 171.568 149.428 171.28 149.428C171.236 149.508 171.174 149.578 171.1 149.631L171.143 149.534ZM170.546 148.928C170.686 148.953 171.015 149.013 170.998 149.18C170.869 149.269 170.717 149.318 170.561 149.322C170.404 149.326 170.25 149.285 170.117 149.204C169.972 149.204 170.328 149.046 170.515 149.027L170.546 148.928ZM170.574 148.776C170.721 147.965 169.252 148.34 169.306 148.546C169.454 148.73 169.642 148.876 169.857 148.973C169.95 148.914 170.055 148.873 170.164 148.855C170.273 148.837 170.384 148.84 170.492 148.866L170.574 148.776ZM171.383 149.08C171.535 149.107 171.918 149.02 171.996 148.877C172.074 148.734 171.724 148.5 171.515 148.423C171.443 148.395 171.365 148.382 171.288 148.384C171.21 148.386 171.134 148.404 171.063 148.436C170.993 148.469 170.929 148.515 170.877 148.572C170.824 148.63 170.784 148.697 170.758 148.77C170.878 148.777 170.993 148.819 171.089 148.889C171.185 148.96 171.259 149.058 171.301 149.17L171.383 149.08ZM271.012 184.789C271.185 184.47 271.469 184.227 271.81 184.105C272.151 183.983 272.525 183.992 272.86 184.129C274.243 184.589 274.778 185.682 273.296 186.054C274.222 186.222 275.191 186.581 274.728 187.401C274.265 188.22 272.936 187.822 272.014 187.275C272.645 188.201 272.419 188.867 271.224 188.886C270.029 188.905 269.498 188.154 269.742 187.098C269.384 187.428 268.913 187.607 268.426 187.597C267.94 187.587 267.476 187.388 267.133 187.044C265.806 185.912 267.102 185.336 268.883 185.554C268.103 185.02 267.267 184.213 268.155 183.864C269.282 183.427 270.998 183.568 271.012 184.789ZM271.177 186.691C270.848 186.723 270.516 186.699 270.196 186.618C270.098 186.849 270.032 187.092 269.999 187.341C269.849 188.165 270.251 188.618 271.224 188.598C271.554 188.658 272.034 188.536 272.069 188.201C272.172 187.631 271.049 186.602 271.221 186.738L271.177 186.691ZM269.323 185.87C268.626 185.743 266.892 185.704 266.855 186.194C266.975 186.488 267.172 186.743 267.425 186.933C267.679 187.123 267.979 187.241 268.294 187.274C268.609 187.307 268.927 187.254 269.215 187.121C269.502 186.987 269.748 186.778 269.926 186.516C269.767 186.479 269.621 186.398 269.506 186.282C269.39 186.166 269.309 186.02 269.272 185.861L269.323 185.87ZM271.53 186.624C272.349 187.231 273.976 188.155 274.49 187.266C275.005 186.378 273.082 186.225 272.172 186.191C272.019 186.409 271.79 186.564 271.53 186.624ZM270.809 185.184C271.671 185.34 272.454 185.862 271.657 186.215C270.859 186.568 269.586 186.153 269.581 185.747C269.576 185.34 270.391 185.252 270.798 185.247L270.809 185.184ZM270.83 185.07C270.896 184.844 270.876 184.602 270.774 184.391C270.672 184.179 270.496 184.012 270.279 183.922C269.895 183.783 269.483 183.738 269.077 183.789C268.671 183.841 268.284 183.988 267.947 184.219C267.873 184.625 268.97 185.361 269.338 185.571C269.635 185.089 270.452 185.132 270.869 185.142L270.83 185.07ZM272.202 185.882C272.674 185.876 273.615 185.811 273.881 185.427C274.148 185.043 273.345 184.413 272.791 184.221C272.619 184.148 272.433 184.111 272.245 184.113C272.058 184.115 271.873 184.156 271.702 184.233C271.364 184.417 271.098 184.71 270.949 185.065C271.494 185.164 272.244 185.431 272.241 185.954L272.202 185.882ZM259.994 180.065C258.338 178.94 261.038 177.989 261.927 178.936C262.09 179.128 262.206 179.355 262.265 179.6C262.608 178.575 264.06 178.944 264.878 179.629C265.502 180.161 264.696 180.631 263.867 180.873C264.5 180.988 265.691 181.427 265.55 182.056C265.399 182.299 265.187 182.498 264.935 182.635C264.684 182.772 264.401 182.841 264.115 182.837C263.828 182.832 263.548 182.754 263.301 182.609C263.054 182.464 262.848 182.258 262.704 182.01C262.52 183.025 261.985 183.451 260.975 183.098C259.965 182.744 259.953 182.166 260.712 181.518C259.785 181.716 258.664 181.762 258.491 180.84C258.318 179.918 259.234 179.993 260.033 180.138L259.994 180.065ZM261.616 181.224C261.332 181.39 261.065 181.582 260.818 181.799C260.296 182.293 260.425 182.592 261.076 182.828C261.727 183.064 261.99 182.915 262.18 182.662C262.397 182.277 262.478 181.83 262.41 181.394C262.155 181.403 261.9 181.37 261.655 181.296L261.616 181.224ZM262.719 181.424C262.767 181.637 262.863 181.836 263 182.007C263.136 182.178 263.31 182.315 263.507 182.409C263.704 182.503 263.92 182.551 264.139 182.549C264.357 182.547 264.572 182.495 264.768 182.398C264.939 182.324 265.254 182.172 265.287 181.995C265.365 181.564 264.035 181.1 263.377 181.046C263.322 181.168 263.236 181.274 263.127 181.353C263.019 181.432 262.892 181.482 262.758 181.497L262.719 181.424ZM260.919 180.521C260.121 180.298 258.595 179.981 258.75 180.782C258.906 181.583 260.456 181.34 261.32 181.052C261.153 180.942 261.026 180.781 260.958 180.594L260.919 180.521ZM263.15 180.926C263.092 181.243 262.379 181.205 262.044 181.105C261.333 180.91 260.797 180.329 261.503 180.116C262.209 179.904 263.307 180.64 263.194 180.973L263.15 180.926ZM269.62 179.403C270.407 178.237 272.55 179.778 271.232 180.259C271.815 180.365 272.298 180.662 272.011 181.16C271.724 181.658 270.953 181.505 270.382 181.191C270.664 181.727 270.487 182.127 269.739 182.135C268.991 182.143 268.622 181.723 268.714 181.072C268.47 181.242 268.175 181.323 267.879 181.3C267.582 181.277 267.302 181.152 267.087 180.947C266.374 180.333 266.736 179.783 268.077 179.896C267.882 179.761 267.713 179.593 267.578 179.399C267.536 179.357 267.507 179.304 267.494 179.247C267.48 179.189 267.483 179.129 267.501 179.073C267.519 179.017 267.553 178.967 267.597 178.929C267.642 178.89 267.697 178.865 267.755 178.855C268.504 178.624 269.602 178.706 269.663 179.45L269.62 179.403ZM263.408 180.803C263.765 180.71 264.791 180.399 264.855 180.044C264.92 179.689 262.474 178.302 262.253 179.951C262.778 180.164 263.355 180.374 263.452 180.85L263.408 180.803ZM262.249 179.977C262.251 179.81 262.219 179.645 262.155 179.491C262.091 179.337 261.995 179.198 261.875 179.083C261.755 178.968 261.612 178.878 261.455 178.821C261.299 178.763 261.132 178.739 260.966 178.749C260.453 178.76 259.611 179 259.735 179.468C259.86 179.936 260.589 180.173 260.971 180.308C261.186 179.915 261.78 179.892 262.242 180.015L262.249 179.977ZM269.73 180.746C269.539 180.766 269.346 180.753 269.16 180.708C269.036 180.963 269.006 181.255 269.076 181.53C269.23 181.912 269.887 181.9 270.125 181.812C270.364 181.725 270.284 181.514 270.154 181.294C270.041 181.098 269.902 180.918 269.74 180.76L269.73 180.746ZM268.517 180.211C268.035 180.124 266.822 180.1 267.151 180.526C267.267 180.696 267.426 180.833 267.613 180.922C267.799 181.011 268.005 181.049 268.211 181.033C268.488 180.971 268.739 180.824 268.929 180.613C268.838 180.59 268.754 180.548 268.681 180.49C268.608 180.431 268.548 180.358 268.506 180.275L268.517 180.211ZM270.084 180.666C270.573 181.003 271.535 181.545 271.834 180.983C272.132 180.422 270.934 180.388 270.425 180.374C270.352 180.522 270.229 180.639 270.077 180.704L270.084 180.666ZM269.51 179.789C269.84 179.849 270.398 180.094 270.164 180.301C269.961 180.406 269.734 180.455 269.506 180.443C269.278 180.432 269.057 180.36 268.866 180.235C268.602 180.03 269.173 179.846 269.503 179.827L269.51 179.789ZM269.531 179.675C269.685 178.826 268.617 178.724 267.88 179.035C267.456 179.207 268.225 179.726 268.58 179.935C268.709 179.826 268.862 179.749 269.026 179.711C269.19 179.672 269.36 179.673 269.524 179.713L269.531 179.675ZM270.475 180.174C270.741 180.222 271.321 180.131 271.478 179.911C271.636 179.691 270.152 178.491 269.647 179.683C269.992 179.733 270.447 179.894 270.468 180.212L270.475 180.174ZM126.294 188.504L126.448 187.655C126.47 187.596 126.478 187.534 126.473 187.472C126.468 187.41 126.45 187.351 126.419 187.297C126.388 187.243 126.346 187.196 126.295 187.16C126.245 187.124 126.187 187.1 126.126 187.089C126.065 187.078 126.002 187.08 125.942 187.096C125.882 187.112 125.826 187.141 125.778 187.18C125.73 187.22 125.692 187.27 125.665 187.326C125.639 187.382 125.625 187.443 125.625 187.505L125.459 188.418C125.453 188.473 125.458 188.528 125.474 188.581C125.49 188.634 125.516 188.683 125.551 188.726C125.586 188.769 125.628 188.804 125.677 188.83C125.725 188.857 125.779 188.873 125.833 188.879C125.888 188.884 125.944 188.879 125.997 188.863C126.049 188.848 126.099 188.822 126.141 188.787C126.184 188.752 126.22 188.709 126.246 188.661C126.272 188.612 126.289 188.559 126.294 188.504ZM118.876 0.494153C118.817 0.601334 118.821 0.575982 118.876 0.494153ZM268.941 116.417C268.948 116.523 268.95 116.511 268.941 116.417ZM95.5217 99.7211C95.4433 99.5759 95.4307 99.5736 95.5217 99.7211ZM65.0489 102.845C65.012 102.903 64.9993 102.901 65.0489 102.845ZM214.271 24.2524C214.279 24.4241 214.271 24.3964 214.271 24.2524Z" fill="#090915"/>
</svg>
