<svg width="226" height="97" viewBox="0 0 226 97" fill="none" xmlns="http://www.w3.org/2000/svg">
<path d="M211.344 20.1708L208.254 52.3671L199.415 59.9298L201.581 36.2236L179.809 51.0347L182.73 19.116L182.767 19.0891L191.515 11.6035L189.363 35.1265L211.344 20.1708Z" fill="white"/>
<path d="M37.146 82.6359V95.0134H29.9612V89.7763H3.46875V50.9043H10.8984V82.6359H23.5922V50.9043H31.0218V82.6359H37.146Z" fill="white"/>
<path d="M48.7109 72.5896V82.4681H67.685L61.5608 89.7763H41.2812V50.9043H67.8316L61.7074 58.2124H48.7109V65.3046H67.7024L61.557 72.5896H48.7109Z" fill="white"/>
<path d="M101.106 48.4805V88.7041L93.6529 95.4608V72.875H79.3278V88.7041L71.875 95.4608V55.2391L79.3278 48.4805V65.5919H93.6529V55.2391L101.106 48.4805Z" fill="white"/>
<path d="M129.661 50.9043V58.1874H121.689V89.7763H114.186V58.1874H106.215V50.9043H129.661Z" fill="white"/>
<path d="M158.564 55.1446C157.002 53.3011 154.976 52.069 152.544 51.4828C150.952 51.0933 148.098 50.9043 143.821 50.9043H134.771V89.7763H142.201V73.494H142.826C147.458 73.494 150.574 73.2915 152.357 72.8711C154.984 72.2522 157.091 71.0065 158.622 69.1708C160.176 67.3062 160.965 64.9498 160.965 62.1635C160.965 59.3771 160.157 57.0285 158.564 55.1446ZM146.337 66.2822L142.201 66.2321V58.1874H146.592C149.428 58.1874 150.639 58.494 151.108 58.6752C151.796 58.9432 152.338 59.3829 152.764 60.025C153.202 60.6806 153.414 61.3844 153.414 62.175C153.414 62.9656 153.202 63.7176 152.764 64.3733C152.34 65.0134 151.763 65.4647 151.006 65.7558C150.383 65.9949 149.068 66.2803 146.337 66.2822Z" fill="white"/>
<path d="M223.845 31.8456C223.845 36.8668 222.576 41.5891 220.336 45.7156C220.328 45.7291 220.318 45.7445 220.313 45.758L218.731 48.3323L207.989 65.8294L181.296 65.9605L170.556 48.932L168.535 45.7253L168.529 45.7175C166.288 41.5911 165.02 36.8687 165.02 31.8475C165.02 15.6905 178.188 2.59375 194.431 2.59375C210.675 2.59375 223.843 15.6905 223.843 31.8475L223.845 31.8456Z" stroke="white" stroke-width="2.1211" stroke-miterlimit="10"/>
<path d="M211.345 69.3605V70.5386C211.345 72.4187 209.824 73.9401 207.944 73.9401H180.923C179.043 73.9401 177.521 72.4187 177.521 70.5386V69.3605C177.521 67.4823 179.043 65.959 180.923 65.959H207.944C209.824 65.959 211.345 67.4823 211.345 69.3605Z" stroke="white" stroke-width="2.1211" stroke-miterlimit="10"/>
<path d="M211.345 77.3448V78.523C211.345 80.4011 209.824 81.9244 207.944 81.9244H180.923C179.043 81.9244 177.521 80.4011 177.521 78.523V77.3448C177.521 75.4647 179.043 73.9414 180.923 73.9414H207.944C209.824 73.9414 211.345 75.4647 211.345 77.3448Z" stroke="white" stroke-width="2.1211" stroke-miterlimit="10"/>
<path d="M206.878 81.9238C206.878 88.7981 201.306 94.3708 194.431 94.3708C187.557 94.3708 181.984 88.7981 181.984 81.9238H206.876H206.878Z" stroke="white" stroke-width="2.1211" stroke-miterlimit="10"/>
</svg>
