<svg width="277" height="224" viewBox="0 0 277 224" fill="none" xmlns="http://www.w3.org/2000/svg">
<path fill-rule="evenodd" clip-rule="evenodd" d="M22.1483 112.416C21.2487 113.756 21.0249 113.803 21.2048 114.756C21.3847 115.708 21.6053 116.177 20.9547 116.622C19.853 117.344 18.3832 115.863 18.0076 114.462C17.9878 114.597 17.9416 114.726 17.8715 114.842C17.8014 114.959 17.7089 115.06 17.5994 115.141C17.4898 115.222 17.3654 115.28 17.2333 115.312C17.1012 115.344 16.964 115.35 16.8297 115.329C16.1176 115.146 15.5044 114.694 15.12 114.068C13.9293 112.523 14.9803 110.664 16.4221 109.37C13.5928 107.757 10.935 105.86 8.48979 103.709C8.35567 104.283 8.64518 104.973 8.66698 105.508C8.67137 106.422 7.63873 106.93 6.55665 106.095C5.94784 105.606 5.51265 104.934 5.31553 104.179C5.29572 104.314 5.24943 104.443 5.17935 104.559C5.10928 104.676 5.0168 104.777 4.90726 104.858C4.79772 104.938 4.67329 104.997 4.54117 105.029C4.40906 105.061 4.27187 105.067 4.13754 105.046C3.42549 104.863 2.81233 104.411 2.42784 103.784C2.17125 103.456 2.00418 103.067 1.94292 102.654C1.88166 102.242 1.92831 101.821 2.0783 101.432C2.4928 100.412 3.16236 99.5149 4.02284 98.8276C3.46767 98.0524 2.96274 97.2425 2.51118 96.4027C2.51118 96.4027 1.8953 94.8898 4.17115 95.5542C4.17115 95.5542 2.78845 95.0134 2.01676 94.7399C1.24507 94.4665 2.8619 92.8795 4.1175 92.8621C3.22683 92.6675 2.36043 92.375 1.53409 91.9899C1.48967 91.4573 3.85813 89.7344 5.4553 89.7041C5.4553 89.7041 3.05653 89.8299 2.85574 89.005C3.62792 88.144 4.5716 87.454 5.62619 86.9793C6.68077 86.5045 7.82298 86.2555 8.97949 86.2482C8.20183 86.1527 7.43626 85.9763 6.69525 85.7218C5.55527 85.3155 11.6992 84.1683 14.574 85.4215C14.0993 85.1633 13.6758 84.8203 13.3248 84.4094C12.5326 83.3951 18.6067 84.1985 20.7109 87.0414C20.7109 87.0414 20.5305 85.7572 20.2158 85.4816C21.2935 85.4028 29.6422 92.7463 29.8398 98.5554C33.3597 99.8553 34.9709 107.7 35.791 110.288C36.8114 112.252 38.2226 113.987 39.9378 115.386C42.2865 116.855 42.0432 118.023 40.9419 119.076C40.6082 119.363 40.1981 119.547 39.7616 119.605C39.3252 119.663 38.8813 119.592 38.4842 119.402C33.4971 119.045 26.277 115.161 22.1483 112.416ZM19.0702 110.75C18.3818 110.399 17.6084 110 16.7452 109.508C15.733 110.757 14.7082 112.43 15.6878 113.597C15.9769 113.955 16.6627 114.717 17.1055 114.58C17.5483 114.442 17.0951 113.826 17.3394 112.886C17.6885 112.016 18.2917 111.272 19.0702 110.75ZM4.2477 99.0098C3.12316 100.168 1.9864 102.082 3.00585 103.301C3.29514 103.675 3.66717 103.976 4.09268 104.181C4.52343 104.365 4.72348 104.092 4.69977 103.866C4.57834 103.423 4.58016 102.955 4.70502 102.513C4.82988 102.071 5.07305 101.671 5.40832 101.357L5.878 100.931C5.26889 100.354 4.73062 99.6908 4.2477 99.0098ZM20.1417 111.266C19.5951 111.941 18.4312 113.377 18.7046 114.24C18.8047 114.63 18.9917 114.992 19.2516 115.3C19.5115 115.607 19.8375 115.851 20.2052 116.015C21.0876 116.254 20.4614 115.188 20.5677 114.239C20.674 113.291 21.0739 113.18 21.8705 112.274C21.3119 111.907 20.7311 111.574 20.1315 111.279L20.1417 111.266ZM6.69045 101.92C6.29573 102.407 5.84073 103.301 5.97733 103.95C6.34336 105.26 7.47905 105.953 7.86476 105.706C8.25046 105.46 7.5321 104.278 8.05557 103.274C7.61123 102.852 7.16452 102.408 6.69045 101.92ZM19.7686 111.088L19.4081 110.92C18.2644 112.332 17.7805 112.623 17.9335 113.864C18.2304 112.764 18.8848 111.795 19.7936 111.108L19.7686 111.088ZM6.13668 101.327C5.54965 102.051 5.10798 102.417 5.27176 103.543C5.41944 102.787 5.78814 102.092 6.33118 101.546L6.13668 101.327ZM39.4831 115.411C38.5792 114.707 37.7334 113.932 36.9539 113.093C34.7388 110.719 35.2246 110.119 33.5611 105.047C31.4702 98.8417 29.8045 98.9821 29.5827 98.7196C28.7359 98.8198 24.7665 99.5561 28.4012 103.805C27.1291 103.306 25.7283 103.24 24.4149 103.617L26.1514 105.023C25.0465 104.702 23.8735 104.698 22.7667 105.013C23.4763 105.582 24.2988 105.995 25.1797 106.223C23.9849 106.317 22.8048 106.548 21.6626 106.912C20.7734 107.371 22.5981 108.311 23.8987 108.723C22.9861 108.616 22.0627 108.793 21.2541 109.229C20.072 109.948 22.1895 110.629 23.0904 110.717C23.9913 110.805 21.2254 111.027 22.0873 111.725C22.662 112.191 32.1188 117.784 38.0614 118.749C37.3996 117.344 38.7944 115.929 39.5081 115.431L39.4831 115.411Z" fill="#090915"/>
<path fill-rule="evenodd" clip-rule="evenodd" d="M129.549 190.223C129.395 191.072 130.382 191.906 131.6 191.328C131.618 191.328 131.635 191.325 131.651 191.317C131.667 191.31 131.681 191.298 131.692 191.285C131.703 191.271 131.711 191.255 131.715 191.238C131.718 191.22 131.718 191.203 131.714 191.185C131.71 191.168 131.702 191.152 131.691 191.139C131.68 191.125 131.666 191.114 131.65 191.107C131.634 191.1 131.616 191.096 131.599 191.096C131.581 191.097 131.564 191.101 131.548 191.109L130.978 191.006C130.65 190.983 130.341 190.843 130.107 190.612C129.976 190.491 129.865 190.352 129.776 190.198C129.777 190.181 129.774 190.164 129.768 190.149C129.762 190.133 129.753 190.118 129.741 190.107C129.728 190.095 129.714 190.086 129.698 190.08C129.682 190.075 129.665 190.073 129.648 190.075C129.631 190.077 129.615 190.082 129.6 190.091C129.586 190.1 129.573 190.112 129.564 190.126C129.554 190.14 129.548 190.156 129.545 190.172C129.543 190.189 129.544 190.206 129.549 190.223ZM53.4238 145.058C53.0437 144.413 52.9152 143.65 53.063 142.915C53.2108 142.181 53.6244 141.527 54.2246 141.079C54.5449 141.753 54.6691 142.504 54.5831 143.246C54.4971 143.987 54.2044 144.689 53.7384 145.272C53.711 146.001 53.7147 146.918 53.753 147.789C54.1878 145.393 55.9693 145.389 55.9693 145.389C56.1255 147.486 55.1118 148.599 53.8097 148.847C53.8976 149.95 54.0501 151.129 54.2394 152.251C54.446 149.381 56.5028 149.375 56.5028 149.375C56.6717 151.474 55.628 152.607 54.3306 152.83C54.5325 153.954 54.7899 155.205 55.0806 156.345C55.1765 153.219 57.3647 153.211 57.3647 153.211C57.5151 155.268 56.5371 156.399 55.2708 156.667C55.1442 156.69 55.0135 156.667 54.9032 156.6C54.1175 156.286 53.4404 155.75 52.9546 155.057C52.4688 154.364 52.1953 153.545 52.1677 152.699C52.6296 152.82 53.0621 153.034 53.4388 153.328C53.8155 153.621 54.1285 153.988 54.3587 154.407C54.1695 153.718 54.0484 153.159 53.9456 152.643C53.1907 152.26 52.5576 151.674 52.1174 150.951C51.6773 150.228 51.4476 149.397 51.4543 148.55C51.9601 148.748 52.4184 149.051 52.7993 149.438C53.1802 149.826 53.4752 150.289 53.6651 150.798C53.5693 150.099 53.4896 149.457 53.4548 148.782C52.7122 148.381 52.0956 147.782 51.6734 147.051C51.2513 146.32 51.0402 145.487 51.0637 144.643C51.6292 144.884 52.131 145.253 52.53 145.721C52.929 146.189 53.2142 146.742 53.3634 147.339C53.3386 146.578 53.3587 145.816 53.4238 145.058ZM88.7807 148.137C86.5938 144.676 88.6443 142.613 88.6443 142.613C89.0546 142.91 89.3998 143.288 89.6585 143.724C89.9172 144.159 90.0839 144.643 90.1485 145.145C90.2131 145.648 90.1742 146.158 90.034 146.645C89.8939 147.132 89.6556 147.585 89.3338 147.976C89.3444 148.949 89.2772 149.922 89.133 150.885C89.5507 150.19 90.1411 149.615 90.8469 149.215C91.5526 148.816 92.3498 148.605 93.1608 148.605C93.0501 149.697 92.5501 150.714 91.7521 151.468C90.9541 152.222 89.9113 152.664 88.8143 152.713C88.6648 153.537 88.4265 154.345 88.164 155.214C88.6061 154.649 89.1708 154.193 89.8153 153.879C90.4598 153.565 91.1673 153.402 91.8843 153.401C91.7606 154.52 91.2337 155.554 90.402 156.312C89.5703 157.07 88.491 157.498 87.3661 157.517C87.1151 158.179 86.8261 158.834 86.4702 159.568C86.9608 159.118 87.5409 158.776 88.1725 158.566C88.8041 158.356 89.473 158.281 90.1354 158.347C89.9041 159.427 89.2945 160.388 88.4166 161.057C87.5388 161.726 86.4506 162.059 85.3486 161.996C85.1418 161.986 84.9373 161.949 84.7401 161.885C83.7089 161.474 82.8594 160.706 82.3462 159.722C81.8329 158.737 81.6899 157.601 81.9431 156.52C82.9567 156.878 83.8174 157.572 84.3824 158.487C84.9475 159.402 85.183 160.482 85.05 161.549C85.6807 160.218 86.2426 158.856 86.7335 157.468C85.6639 157.083 84.7731 156.318 84.2302 155.319C83.6874 154.32 83.5304 153.157 83.789 152.05C84.7378 152.402 85.5484 153.05 86.1017 153.897C86.6549 154.745 86.9215 155.748 86.8624 156.758C87.3301 155.412 87.7149 154.039 88.0146 152.646C86.9699 152.243 86.1062 151.476 85.5832 150.486C85.0602 149.495 84.9131 148.349 85.1692 147.259C86.0475 147.545 86.8222 148.084 87.3964 148.807C87.9706 149.531 88.319 150.408 88.398 151.328C88.5855 150.223 88.7234 149.03 88.7807 148.137ZM71.8161 130.655C70.7699 126.969 72.1195 123.718 76.3307 122.086C76.3307 122.086 78.4845 126.811 72.6448 131.211C72.1878 132.791 71.6952 134.784 71.3373 136.683C72.0246 135.23 73.1171 134.007 74.4833 133.161C75.8495 132.315 77.4312 131.881 79.0379 131.913C78.4009 136.433 74.9815 138.824 70.9313 139.136C70.5783 141.615 70.3697 144.113 70.3066 146.617C70.859 144.904 71.9488 143.414 73.4145 142.368C74.8802 141.323 76.6437 140.778 78.4436 140.814C77.7916 145.344 74.3699 147.747 70.284 148.04C70.2343 150.824 70.332 153.608 70.5768 156.382C70.9694 154.447 72.0277 152.712 73.5676 151.477C75.1075 150.242 77.0316 149.586 79.005 149.623C78.3507 154.166 74.9037 156.565 70.835 156.834C70.5889 156.884 70.3338 156.86 70.101 156.767C68.9343 156.329 67.8537 155.69 66.9085 154.878C65.8491 153.98 65.0509 152.814 64.598 151.501C64.145 150.189 64.054 148.778 64.3344 147.418C66.4846 148.057 68.295 149.52 69.37 151.488C69.2441 150.234 69.178 148.939 69.1581 147.679C65.4322 145.915 63.0954 142.414 64.1681 137.948C65.3745 138.401 66.461 139.125 67.3438 140.063C68.2267 141.002 68.8824 142.131 69.2605 143.363C69.3569 141.823 69.5143 140.306 69.7305 138.826C66.1394 136.97 63.9859 133.541 65.0033 129.235C66.3831 129.732 67.6076 130.584 68.5534 131.705C69.4993 132.826 70.1331 134.177 70.391 135.621C70.7456 133.911 71.2258 132.23 71.8276 130.591L71.8161 130.655ZM71.4277 178.167C71.7592 176.918 73.5845 177.249 74.6184 177.973C74.7046 178.009 74.7793 178.068 74.8346 178.144C74.8899 178.219 74.9237 178.308 74.9324 178.401C74.9411 178.494 74.9243 178.588 74.8838 178.672C74.8434 178.756 74.7808 178.828 74.7027 178.879C74.3748 179.138 74.0061 179.341 73.6117 179.48C75.5165 179.734 76.5688 180.645 74.9581 181.439C74.5219 181.696 74.0082 181.787 73.5104 181.697C73.0126 181.606 72.5638 181.34 72.2455 180.947C72.2066 182.027 71.5477 182.627 70.2582 182.301C69.4077 182.082 69.176 181.699 69.2127 181.352C69.2823 181.041 69.4479 180.76 69.6861 180.548C68.6399 180.829 67.2779 180.975 66.9538 179.947C66.6297 178.919 67.6241 178.851 68.6163 178.94C67.3117 178.192 68.1618 177.26 69.6609 177.152C70.0272 177.092 70.4032 177.16 70.7252 177.344C71.0471 177.529 71.2953 177.82 71.4277 178.167ZM71.8189 180.267C71.4815 180.265 71.147 180.204 70.8302 180.088C70.7185 180.198 69.1297 181.088 69.7256 181.629C70.046 181.883 71.2272 182.229 71.6569 181.665C71.8846 181.236 71.9425 180.737 71.8189 180.267ZM69.8874 179.367C69.0001 179.206 67.0169 178.95 67.2926 179.812C67.5682 180.674 69.4475 180.203 70.3923 179.904C70.1713 179.793 69.9924 179.613 69.8828 179.392L69.8874 179.367ZM72.2199 180.222C72.3521 180.513 72.5569 180.766 72.8146 180.955C73.0724 181.145 73.3745 181.265 73.692 181.304C74.0094 181.343 74.3317 181.301 74.6278 181.179C74.9239 181.058 75.184 180.863 75.3831 180.613C75.4061 180.486 75.2067 180.358 75.0892 180.285C74.4315 179.942 73.7034 179.756 72.9619 179.741C72.8922 179.871 72.7936 179.982 72.6737 180.067C72.5538 180.152 72.4158 180.209 72.2706 180.231L72.2199 180.222ZM71.5247 178.787C72.0571 178.883 72.941 179.423 72.5551 179.746C72.1731 179.905 71.7535 179.95 71.3466 179.876C70.9397 179.802 70.5627 179.612 70.2608 179.33C69.9034 178.846 70.9416 178.681 71.5316 178.749L71.5247 178.787ZM71.3748 178.602C70.9905 176.464 67.9418 177.534 68.2831 178.251C68.4676 178.677 69.4633 178.962 69.862 179.074C70.0312 178.502 70.8367 178.465 71.3817 178.564L71.3748 178.602ZM72.9664 179.428C73.5569 179.28 74.1099 179.011 74.5897 178.636C74.6934 178.498 74.7015 178.381 74.4686 178.221C73.3657 177.445 71.5496 177.207 71.5189 178.602C71.671 178.63 72.6724 178.812 72.9525 179.36L72.9664 179.428ZM60.5604 170.302C60.7185 170.024 60.9742 169.815 61.2778 169.715C61.5815 169.616 61.9114 169.632 62.2034 169.762C63.3777 170.146 63.923 171.109 62.7777 171.503C63.589 171.65 64.2909 172.04 63.8613 172.747C63.4317 173.455 62.3634 173.209 61.5544 172.761C62.004 173.602 61.6285 174.083 60.6709 174.093C59.7134 174.102 59.1267 173.511 59.2647 172.607C58.9271 172.864 58.5076 172.99 58.0842 172.961C57.6607 172.933 57.2621 172.751 56.9623 172.451C55.8259 171.498 56.7141 170.861 58.4023 171.01C58.0565 170.751 57.4514 170.261 57.5908 169.855C57.8464 169.168 60.4874 168.901 60.5673 170.264L60.5604 170.302ZM60.6335 172.135C60.365 172.163 60.0938 172.145 59.8315 172.081C59.6459 172.446 59.5978 172.864 59.6958 173.261C59.9184 173.839 60.9128 173.77 61.2412 173.62C61.5695 173.47 61.324 173.164 61.226 172.911C61.0664 172.64 60.8744 172.389 60.6542 172.165L60.6335 172.135ZM58.9624 171.387C58.2526 171.258 56.5414 171.235 56.9288 171.842C57.096 172.083 57.3228 172.275 57.5868 172.401C57.8509 172.527 58.1432 172.582 58.435 172.561C58.8308 172.471 59.1868 172.256 59.45 171.947C59.3274 171.893 59.2196 171.811 59.1359 171.707C59.0522 171.603 58.995 171.48 58.9693 171.349L58.9624 171.387ZM61.1094 172.038C61.7928 172.529 63.1458 173.298 63.6308 172.575C64.1157 171.851 62.3826 171.733 61.6416 171.703C61.5011 171.853 61.3177 171.957 61.1163 172L61.1094 172.038ZM60.3473 170.826C60.8152 170.846 61.5827 171.234 61.2521 171.54C60.96 171.707 60.6266 171.786 60.291 171.769C59.9555 171.752 59.6317 171.64 59.3577 171.445C59.0603 171.064 59.8634 170.752 60.3542 170.788L60.3473 170.826ZM60.3749 170.674C60.4325 170.357 60.4496 169.902 59.9022 169.672C59.3548 169.442 57.9133 169.664 57.8673 169.918C57.8213 170.171 58.756 170.865 59.0372 171.047C59.3839 170.507 60.2378 170.636 60.3819 170.636L60.3749 170.674ZM61.6738 171.381C62.0552 171.372 62.8653 171.31 63.0541 170.99C63.243 170.671 62.5941 170.134 62.1009 169.966C61.7924 169.855 61.453 169.865 61.152 169.996C60.851 170.126 60.611 170.366 60.481 170.667C61.0064 170.658 61.6368 170.864 61.6784 171.356L61.6738 171.381ZM73.0057 168.031C73.0427 168.404 72.492 168.697 72.1487 168.857C73.8472 169.165 73.9085 169.91 72.9926 170.411C72.6897 170.593 72.3312 170.658 71.9837 170.595C71.6362 170.532 71.3235 170.345 71.1039 170.068C70.9658 170.829 70.5442 171.276 69.62 171.03C68.6958 170.784 68.6541 170.292 69.0942 169.743C68.7344 169.863 68.3516 169.896 67.9764 169.841C67.8501 169.829 67.7282 169.788 67.6207 169.72C67.5132 169.653 67.423 169.561 67.3575 169.452C67.2919 169.344 67.2527 169.221 67.2431 169.095C67.2334 168.968 67.2536 168.841 67.302 168.724C67.4805 168.389 67.9852 168.35 68.377 168.356C67.9367 168.04 67.9378 167.674 68.1935 167.419C68.3844 167.26 68.6054 167.141 68.8434 167.069C69.0815 166.998 69.3315 166.975 69.5785 167.003C69.7758 167.037 69.96 167.125 70.1114 167.256C70.2628 167.388 70.3758 167.557 70.4383 167.748C70.801 166.688 72.9491 167.405 73.0126 167.993L73.0057 168.031ZM70.7027 169.537C70.4862 169.537 70.2716 169.498 70.0689 169.422C69.6951 169.624 69.3979 169.942 69.2234 170.329C69.1843 170.545 69.5046 170.655 69.7178 170.707C70.5579 170.912 70.847 170.402 70.7096 169.499L70.7027 169.537ZM69.3405 168.819C68.9475 168.747 67.8194 168.543 67.5959 168.908C67.5683 169.06 67.6053 169.433 68.0363 169.512C68.5894 169.537 69.1402 169.425 69.6402 169.187C69.5068 169.096 69.4027 168.968 69.3405 168.819ZM72.0062 170.219C72.2098 170.241 72.4156 170.219 72.6101 170.155C72.8046 170.091 72.9833 169.986 73.1342 169.848C73.2908 169.706 73.2413 169.618 73.0649 169.508C72.6228 169.247 72.1203 169.106 71.6071 169.099C71.5539 169.192 71.482 169.272 71.3962 169.335C71.3103 169.399 71.2123 169.443 71.1083 169.467C71.1897 169.652 71.3136 169.816 71.47 169.944C71.6264 170.073 71.8109 170.163 72.0085 170.206L72.0062 170.219ZM70.5088 168.297C70.1285 168.228 69.4567 168.395 69.6493 168.704C69.8091 168.864 70.0049 168.983 70.2202 169.052C70.4355 169.121 70.6641 169.137 70.887 169.099C71.6935 168.984 71.1691 168.483 70.5088 168.297ZM70.3716 168.115C70.0784 166.556 68.0564 167.381 68.2398 167.886C68.4231 168.39 68.9866 168.388 69.2989 168.471C69.5407 168.004 70.2448 168.092 70.4223 168.125L70.3716 168.115ZM71.5702 168.726C72.0299 168.574 72.9804 168.17 72.6058 167.853C71.8221 167.266 70.5937 167.108 70.5617 168.15C70.7679 168.157 70.9695 168.213 71.1494 168.314C71.3293 168.415 71.4823 168.558 71.5955 168.73L71.5702 168.726ZM174.831 188.177C175.091 187.321 176.364 187.525 177.123 188.03C177.186 188.063 177.241 188.112 177.281 188.171C177.321 188.23 177.346 188.298 177.354 188.37C177.362 188.441 177.352 188.513 177.325 188.579C177.299 188.646 177.256 188.705 177.202 188.751C177 188.938 176.769 189.091 176.517 189.203C178.115 189.493 178.325 190.212 177.39 190.671C177.097 190.87 176.741 190.954 176.389 190.907C176.038 190.86 175.716 190.686 175.485 190.417C175.421 191.204 174.938 191.627 173.988 191.454C173.037 191.282 173.022 190.716 173.449 190.165C172.69 190.381 171.829 190.434 171.601 189.672C171.372 188.911 171.984 188.786 172.692 188.784C171.878 188.217 172.528 187.523 173.554 187.421C173.822 187.375 174.098 187.426 174.331 187.565C174.565 187.703 174.742 187.92 174.831 188.177ZM175.082 189.898C174.861 189.897 174.642 189.857 174.435 189.781C174.076 190.03 173.636 190.434 173.613 190.705C173.59 190.976 173.896 191.019 174.107 191.083C174.589 191.171 174.853 191.087 174.983 190.875C175.11 190.566 175.144 190.227 175.082 189.898ZM173.698 189.228C173.305 189.157 172.163 189.028 171.961 189.345C171.938 189.377 171.922 189.415 171.915 189.454C171.908 189.494 171.909 189.534 171.92 189.573C172.124 190.252 173.327 189.828 173.972 189.592C173.85 189.497 173.755 189.372 173.698 189.228ZM175.47 189.851C175.533 190.014 175.631 190.16 175.758 190.28C175.884 190.4 176.036 190.491 176.202 190.544C176.367 190.598 176.543 190.615 176.716 190.592C176.889 190.569 177.055 190.509 177.201 190.414C177.724 190.129 177.643 189.997 177.434 189.854C176.985 189.608 176.483 189.476 175.971 189.47C175.92 189.566 175.848 189.649 175.762 189.715C175.675 189.781 175.576 189.827 175.47 189.851ZM174.904 188.714C175.284 188.783 175.878 189.192 175.591 189.401C175.336 189.512 175.055 189.544 174.782 189.495C174.509 189.445 174.257 189.316 174.057 189.123C173.85 188.824 174.517 188.683 174.904 188.714ZM174.767 188.532C174.459 186.983 172.432 187.833 172.63 188.327C172.829 188.822 173.39 188.832 173.692 188.9C173.839 188.52 174.361 188.458 174.767 188.532ZM175.97 189.117C176.417 188.962 177.385 188.536 176.993 188.242C176.184 187.65 174.961 187.533 174.944 188.564C175.144 188.571 175.34 188.624 175.516 188.72C175.692 188.815 175.843 188.95 175.957 189.114L175.97 189.117ZM167.473 182.979C167.624 182.675 167.882 182.438 168.197 182.313C168.512 182.189 168.863 182.187 169.18 182.306C170.422 182.676 171.075 183.698 169.83 184.205C170.163 184.248 170.486 184.346 170.786 184.496C170.878 184.536 170.961 184.596 171.029 184.671C171.097 184.745 171.148 184.834 171.179 184.93C171.21 185.026 171.22 185.128 171.208 185.228C171.197 185.328 171.164 185.425 171.112 185.511C170.658 186.424 169.54 186.09 168.645 185.614C169.171 186.468 168.927 187.092 167.813 187.165C167.596 187.217 167.369 187.212 167.154 187.15C166.939 187.087 166.744 186.97 166.588 186.81C166.433 186.65 166.321 186.451 166.265 186.235C166.209 186.018 166.21 185.791 166.269 185.575C165.933 185.885 165.491 186.054 165.034 186.047C164.577 186.039 164.14 185.856 163.815 185.535C162.55 184.494 163.579 183.804 165.314 183.909C164.981 183.697 164.688 183.427 164.451 183.111C164.393 183.048 164.352 182.971 164.332 182.888C164.312 182.805 164.313 182.718 164.336 182.636C164.359 182.554 164.402 182.478 164.462 182.418C164.522 182.357 164.597 182.312 164.679 182.288C165.731 181.759 167.357 181.818 167.461 182.976L167.473 182.979ZM167.658 184.989C167.368 185.023 167.074 185.01 166.788 184.949C166.638 185.364 166.61 185.814 166.71 186.244C166.835 186.568 167.15 186.782 167.798 186.743C168.447 186.704 168.731 186.441 168.34 185.781C168.135 185.494 167.902 185.228 167.646 184.987L167.658 184.989ZM165.818 184.236C165.164 184.109 164.489 184.154 163.857 184.365C163.714 184.43 163.607 184.516 163.599 184.632C163.712 184.899 163.897 185.128 164.133 185.296C164.37 185.464 164.647 185.564 164.936 185.584C165.225 185.604 165.514 185.543 165.771 185.409C166.028 185.275 166.243 185.073 166.392 184.825C166.258 184.777 166.136 184.7 166.036 184.598C165.937 184.496 165.862 184.372 165.818 184.236ZM168.088 184.858C168.856 185.39 170.346 186.197 170.776 185.346C171.205 184.494 169.45 184.424 168.611 184.429C168.49 184.622 168.312 184.773 168.101 184.86L168.088 184.858ZM167.254 183.541C167.773 183.635 168.595 183.942 168.253 184.312C167.957 184.517 167.604 184.626 167.244 184.624C166.883 184.622 166.532 184.508 166.239 184.299C165.878 183.907 166.711 183.573 167.254 183.541ZM167.281 183.389C167.33 183.173 167.305 182.948 167.211 182.748C167.116 182.549 166.958 182.386 166.761 182.286C166.02 181.968 164.627 182.357 164.585 182.664C164.542 182.97 165.565 183.68 165.895 183.884C166.186 183.36 166.98 183.387 167.281 183.389ZM168.694 184.117C169.118 184.089 170.026 183.992 170.186 183.615C170.346 183.238 169.611 182.673 169.08 182.498C168.912 182.44 168.734 182.417 168.557 182.431C168.381 182.445 168.209 182.495 168.052 182.578C167.896 182.662 167.758 182.777 167.648 182.916C167.538 183.055 167.458 183.215 167.413 183.387C167.974 183.397 168.629 183.607 168.694 184.117ZM244.468 217.223C242.884 215.561 245.375 215.686 245.977 216.123C246.1 216.2 246.2 216.31 246.266 216.439C246.332 216.569 246.363 216.714 246.354 216.859C247.524 215.605 249.696 217.78 248.103 218.185C248.472 218.317 248.916 218.542 248.978 218.92C248.976 219.051 248.943 219.18 248.882 219.296C248.821 219.412 248.734 219.512 248.627 219.588C248.52 219.664 248.397 219.714 248.267 219.734C248.137 219.754 248.005 219.743 247.88 219.702C247.53 219.603 247.205 219.432 246.924 219.201C247.128 219.88 246.838 220.325 245.954 220.217C245.07 220.109 244.76 219.581 244.916 218.719C244.712 218.829 244.486 218.89 244.255 218.9C242.991 219.011 241.629 216.63 244.468 217.223ZM245.565 218.392C245.379 218.676 245.29 219.014 245.312 219.354C245.359 219.598 245.56 219.792 246.059 219.856C246.261 219.893 246.591 219.953 246.652 219.689C246.64 219.264 246.483 218.857 246.207 218.534C245.988 218.51 245.773 218.462 245.565 218.392ZM247.086 218.236C246.978 218.357 246.834 218.44 246.676 218.475C247.175 218.972 248.161 219.74 248.601 219.192C249.041 218.643 247.692 218.359 247.086 218.236ZM244.853 217.699C244.369 217.517 243.847 217.463 243.336 217.542C243.235 217.523 243.143 217.598 243.116 217.672C243.167 217.885 243.275 218.079 243.428 218.236C243.581 218.392 243.773 218.504 243.984 218.56C244.196 218.616 244.418 218.613 244.628 218.553C244.838 218.492 245.028 218.376 245.178 218.217C245.092 218.156 245.019 218.08 244.963 217.991C244.907 217.902 244.869 217.803 244.853 217.699ZM246.105 217.364C246.485 217.433 247.064 217.852 246.767 218.047C246.512 218.157 246.231 218.189 245.958 218.14C245.685 218.09 245.432 217.961 245.233 217.768C245.073 217.425 245.75 217.299 246.135 217.343L246.105 217.364ZM247.175 217.964C247.491 218.021 248.156 218.037 248.369 217.801C248.583 217.565 248.08 217.015 247.71 216.817C247.592 216.753 247.462 216.712 247.328 216.699C247.195 216.685 247.06 216.698 246.931 216.736C246.802 216.775 246.682 216.839 246.578 216.924C246.474 217.01 246.388 217.115 246.325 217.233C246.733 217.294 247.202 217.523 247.204 217.943L247.175 217.964ZM246.148 217.201C246.484 216.215 245.281 215.918 244.343 216.18C243.832 216.323 244.616 217.054 244.993 217.358C245.161 217.235 245.357 217.154 245.563 217.123C245.77 217.092 245.981 217.112 246.178 217.18L246.148 217.201ZM252.467 214.918C251.466 214.016 252.413 213.271 253.731 213.366C254.072 213.366 254.401 213.491 254.654 213.718C254.908 213.946 255.069 214.259 255.105 214.598C255.607 213.563 257.14 214.064 257.96 214.88C258.604 215.521 257.686 215.957 256.808 216.177C258.481 216.703 259.15 217.702 257.628 218.224C257.213 218.413 256.741 218.433 256.312 218.279C255.882 218.126 255.53 217.811 255.329 217.401C255.309 217.626 255.23 217.841 255.101 218.026C254.971 218.21 254.796 218.357 254.592 218.453C254.388 218.548 254.162 218.589 253.937 218.57C253.713 218.551 253.497 218.473 253.312 218.344C252.295 217.885 252.299 217.218 253.076 216.613C252.085 216.734 250.911 216.639 250.817 215.64C250.724 214.641 251.645 214.69 252.497 214.897L252.467 214.918ZM254.225 216.415C253.9 216.563 253.59 216.743 253.302 216.955C252.677 217.443 252.791 217.752 253.456 218.056C254.121 218.36 254.419 218.231 254.65 217.972C254.905 217.61 255.039 217.175 255.032 216.732C254.757 216.661 254.495 216.547 254.255 216.394L254.225 216.415ZM255.479 216.721C255.511 216.95 255.596 217.167 255.726 217.358C255.856 217.548 256.028 217.707 256.229 217.82C256.429 217.934 256.653 218 256.884 218.013C257.114 218.027 257.344 217.987 257.557 217.897C257.753 217.828 258.104 217.695 258.164 217.51C258.224 217.324 258.137 217.296 258.016 217.169C257.496 216.755 256.88 216.477 256.225 216.359C256.139 216.466 256.029 216.551 255.905 216.61C255.782 216.669 255.646 216.7 255.509 216.701L255.479 216.721ZM253.553 215.573C252.757 215.271 251.073 214.809 251.205 215.671C251.336 216.532 252.976 216.372 253.892 216.158C253.794 216.085 253.712 215.992 253.651 215.887C253.589 215.781 253.549 215.664 253.532 215.543L253.553 215.573ZM255.138 215.206C255.635 215.427 256.298 216.032 255.822 216.273C255.472 216.364 255.103 216.347 254.763 216.225C254.423 216.102 254.128 215.88 253.917 215.587C253.708 215.078 254.595 215.029 255.118 215.176L255.138 215.206ZM256.303 216.007C256.68 215.944 257.889 215.705 257.971 215.327C258.053 214.949 255.573 213.243 255.194 215.046C255.518 215.145 255.818 215.311 256.074 215.533C256.182 215.657 256.25 215.811 256.269 215.974L256.303 216.007ZM255.044 215.006C255.101 212.96 252.273 213.534 252.38 214.247C252.448 214.665 253.223 215.081 253.611 215.256C253.819 214.757 254.545 214.797 255.01 214.973L255.044 215.006ZM167.544 153.086C166.884 152.324 168.572 152.185 168.72 152.814C169.236 152.28 170.304 153.102 169.818 153.472C170.492 153.725 170.118 154.417 169.568 154.343C169.452 154.341 169.336 154.32 169.226 154.281C169.283 154.907 167.982 154.933 167.942 154.14C167.091 154.43 166.245 153.033 167.544 153.086ZM168.624 153.845L168.409 153.805C168.261 154.185 168.415 154.278 168.662 154.284C168.727 154.295 168.794 154.284 168.851 154.252C168.808 154.094 168.721 153.951 168.599 153.84L168.624 153.845ZM174.87 153.342C174.692 153.165 174.429 152.882 174.526 152.638C174.623 152.393 176.266 152.142 176.351 152.969C177.093 152.056 178.734 153.401 177.767 153.828C178.882 154.175 178.302 155.064 177.56 154.969C177.334 154.933 177.117 154.853 176.921 154.735C177.053 155.165 176.864 155.484 176.224 155.473C175.585 155.462 175.272 155.091 175.346 154.541C175.128 154.661 174.875 154.702 174.631 154.658C174.386 154.613 174.164 154.486 174.002 154.297C173.47 153.768 173.723 153.238 174.844 153.337L174.87 153.342ZM167.921 153.39C167.689 153.348 167.45 153.359 167.222 153.42L167.343 153.547C167.384 153.597 167.435 153.638 167.493 153.667C167.551 153.696 167.615 153.713 167.679 153.716C167.744 153.719 167.809 153.709 167.87 153.685C167.93 153.662 167.985 153.626 168.031 153.58C167.972 153.548 167.922 153.503 167.884 153.448L167.921 153.39ZM169.1 153.604C169.285 153.742 169.696 154 169.824 153.8C169.952 153.601 169.329 153.567 169.165 153.537C169.159 153.572 169.146 153.606 169.127 153.636C169.108 153.666 169.083 153.692 169.054 153.713L169.1 153.604ZM176.261 154.118C176.118 154.118 175.976 154.092 175.842 154.042C175.602 154.574 175.677 154.955 176.276 154.972C176.39 154.992 176.63 154.97 176.653 154.844C176.676 154.717 176.394 154.391 176.262 154.183L176.261 154.118ZM168.209 153.246C168.308 153.303 168.418 153.337 168.532 153.346C168.646 153.356 168.76 153.34 168.867 153.299C168.943 153.313 168.664 153.119 168.565 153.088C168.435 153.1 168.31 153.145 168.201 153.218L168.209 153.246ZM169.197 153.215C169.298 153.234 169.578 153.206 169.647 153.114C169.716 153.022 169.094 152.411 168.722 152.946C168.831 152.951 168.936 152.991 169.02 153.06C169.104 153.13 169.164 153.225 169.189 153.332L169.197 153.215ZM168.542 152.926C168.62 152.495 168.051 152.457 167.67 152.611C167.769 152.759 167.898 152.885 168.048 152.981C168.212 152.94 168.385 152.962 168.534 153.043L168.542 152.926ZM175.256 153.595C174.901 153.531 173.97 153.466 174.114 153.754C174.195 153.899 174.314 154.019 174.458 154.101C174.603 154.183 174.767 154.223 174.933 154.217C175.148 154.183 175.343 154.075 175.486 153.912C175.403 153.866 175.334 153.8 175.286 153.718L175.256 153.595ZM176.696 154.027C177.052 154.301 177.755 154.756 178.009 154.37C178.262 153.984 177.298 153.887 176.923 153.858C176.871 153.972 176.79 154.071 176.688 154.143L176.696 154.027ZM176.157 153.248C176.385 153.289 176.816 153.512 176.644 153.664C176.473 153.816 175.338 153.649 175.592 153.473C175.762 153.381 175.956 153.343 176.149 153.364L176.157 153.248ZM176.182 153.108C176.309 152.411 175.478 152.3 174.858 152.541C174.745 152.586 174.738 152.624 174.83 152.693C174.988 152.934 175.197 153.137 175.442 153.288C175.549 153.23 175.667 153.194 175.788 153.182C175.91 153.17 176.032 153.183 176.149 153.22L176.182 153.108ZM177.016 153.561C177.219 153.598 177.686 153.552 177.809 153.378C177.932 153.204 177.532 152.882 177.278 152.77C177.193 152.73 177.101 152.706 177.007 152.702C176.913 152.698 176.82 152.713 176.732 152.746C176.644 152.779 176.563 152.829 176.495 152.894C176.428 152.959 176.373 153.037 176.336 153.123C176.599 153.263 176.93 153.388 176.983 153.673L177.016 153.561ZM161.565 148.373C160.334 147.22 162.255 147.097 162.837 147.426C162.933 147.477 163.016 147.552 163.077 147.643C163.138 147.734 163.176 147.838 163.187 147.948C163.998 146.942 165.836 148.428 164.756 148.9C164.902 148.919 165.041 148.977 165.158 149.067C165.275 149.157 165.366 149.277 165.422 149.414C165.433 149.523 165.418 149.634 165.378 149.737C165.338 149.84 165.275 149.932 165.192 150.005C165.11 150.078 165.011 150.131 164.905 150.158C164.798 150.186 164.686 150.188 164.579 150.164C164.327 150.119 164.086 150.027 163.869 149.891C164.031 150.366 163.808 150.731 163.118 150.711C162.427 150.69 162.069 150.285 162.152 149.684C161.912 149.821 161.632 149.869 161.361 149.82C161.09 149.77 160.845 149.627 160.669 149.415C160.019 148.957 160.281 148.376 161.531 148.485L161.565 148.373ZM163.114 149.361C162.958 149.359 162.804 149.331 162.657 149.279C162.393 149.872 162.473 150.293 163.126 150.306C163.265 150.332 163.52 150.299 163.545 150.16C163.57 150.02 163.233 149.645 163.08 149.473L163.114 149.361ZM162.004 148.767C161.611 148.696 160.551 148.621 160.739 148.956C160.831 149.116 160.965 149.247 161.127 149.337C161.288 149.426 161.471 149.47 161.655 149.463C161.888 149.427 162.102 149.314 162.263 149.142C162.138 149.092 162.034 148.999 161.971 148.879L162.004 148.767ZM163.592 149.252C163.982 149.558 164.754 150.065 165.042 149.633C165.33 149.201 164.259 149.111 163.836 149.06C163.783 149.191 163.684 149.299 163.559 149.364L163.592 149.252ZM171.68 148.481C172.257 147.682 173.749 148.621 173.054 149.136C173.586 149.233 173.683 149.565 173.539 149.853C173.395 150.141 172.864 150.254 172.426 150.07C172.535 150.404 172.313 150.691 171.819 150.745C171.324 150.799 170.947 150.495 170.937 150.048C170.027 150.59 168.727 149.241 169.991 148.986C170.535 148.875 170.346 149.051 170.048 148.669C170.011 148.634 169.984 148.59 169.968 148.541C169.952 148.493 169.949 148.441 169.958 148.391C169.967 148.341 169.989 148.294 170.02 148.254C170.052 148.214 170.093 148.182 170.14 148.162C170.72 148.071 171.503 148.082 171.646 148.593L171.68 148.481ZM163.001 148.398C163.241 148.442 163.721 148.686 163.534 148.849C163.348 149.011 162.096 148.836 162.381 148.639C162.56 148.54 162.763 148.495 162.967 148.51L163.001 148.398ZM171.711 149.678C171.598 149.692 171.484 149.693 171.37 149.682C171.29 150.125 171.32 150.393 171.797 150.361C171.873 150.375 172.064 150.331 172.078 150.255C172.092 150.179 171.786 149.914 171.678 149.79L171.711 149.678ZM163.003 148.241C163.143 147.468 162.224 147.341 161.531 147.621C161.417 147.6 161.411 147.704 161.501 147.786C161.674 148.047 161.902 148.267 162.17 148.431C162.416 148.302 162.703 148.274 162.969 148.353L163.003 148.241ZM163.919 148.748C164.147 148.79 164.657 148.725 164.795 148.54C164.933 148.356 164.489 147.987 164.209 147.871C164.116 147.825 164.015 147.798 163.911 147.793C163.807 147.788 163.703 147.803 163.606 147.84C163.508 147.876 163.419 147.932 163.344 148.004C163.269 148.076 163.21 148.163 163.17 148.259C163.46 148.39 163.827 148.535 163.886 148.86L163.919 148.748ZM170.762 149.283C170.438 149.234 170.107 149.288 169.817 149.439C169.896 149.562 170.007 149.661 170.139 149.724C170.271 149.788 170.418 149.813 170.564 149.797C170.723 149.748 170.867 149.657 170.978 149.532C170.883 149.514 170.795 149.466 170.728 149.395L170.762 149.283ZM172.143 149.534C172.45 149.721 173.062 150.028 173.221 149.73C173.38 149.431 172.568 149.428 172.28 149.428C172.236 149.508 172.174 149.578 172.1 149.631L172.143 149.534ZM171.546 148.928C171.686 148.953 172.015 149.013 171.998 149.18C171.869 149.269 171.717 149.318 171.561 149.322C171.404 149.326 171.25 149.285 171.117 149.204C170.972 149.204 171.328 149.046 171.515 149.027L171.546 148.928ZM171.574 148.776C171.721 147.965 170.252 148.34 170.306 148.546C170.454 148.73 170.642 148.876 170.857 148.973C170.95 148.914 171.055 148.873 171.164 148.855C171.273 148.837 171.384 148.84 171.492 148.866L171.574 148.776ZM172.383 149.08C172.535 149.107 172.918 149.02 172.996 148.877C173.074 148.734 172.724 148.5 172.515 148.423C172.443 148.395 172.365 148.382 172.288 148.384C172.21 148.386 172.134 148.404 172.063 148.436C171.993 148.469 171.929 148.515 171.877 148.572C171.824 148.63 171.784 148.697 171.758 148.77C171.878 148.777 171.993 148.819 172.089 148.889C172.185 148.96 172.259 149.058 172.301 149.17L172.383 149.08ZM272.012 184.789C272.185 184.47 272.469 184.227 272.81 184.105C273.151 183.983 273.525 183.992 273.86 184.129C275.243 184.589 275.778 185.682 274.296 186.054C275.222 186.222 276.191 186.581 275.728 187.401C275.265 188.22 273.936 187.822 273.014 187.275C273.645 188.201 273.419 188.867 272.224 188.886C271.029 188.905 270.498 188.154 270.742 187.098C270.384 187.428 269.913 187.607 269.426 187.597C268.94 187.587 268.476 187.388 268.133 187.044C266.806 185.912 268.102 185.336 269.883 185.554C269.103 185.02 268.267 184.213 269.155 183.864C270.282 183.427 271.998 183.568 272.012 184.789ZM272.177 186.691C271.848 186.723 271.516 186.699 271.196 186.618C271.098 186.849 271.032 187.092 270.999 187.341C270.849 188.165 271.251 188.618 272.224 188.598C272.554 188.658 273.034 188.536 273.069 188.201C273.172 187.631 272.049 186.602 272.221 186.738L272.177 186.691ZM270.323 185.87C269.626 185.743 267.892 185.704 267.855 186.194C267.975 186.488 268.172 186.743 268.425 186.933C268.679 187.123 268.979 187.241 269.294 187.274C269.609 187.307 269.927 187.254 270.215 187.121C270.502 186.987 270.748 186.778 270.926 186.516C270.767 186.479 270.621 186.398 270.506 186.282C270.39 186.166 270.309 186.02 270.272 185.861L270.323 185.87ZM272.53 186.624C273.349 187.231 274.976 188.155 275.49 187.266C276.005 186.378 274.082 186.225 273.172 186.191C273.019 186.409 272.79 186.564 272.53 186.624ZM271.809 185.184C272.671 185.34 273.454 185.862 272.657 186.215C271.859 186.568 270.586 186.153 270.581 185.747C270.576 185.34 271.391 185.252 271.798 185.247L271.809 185.184ZM271.83 185.07C271.896 184.844 271.876 184.602 271.774 184.391C271.672 184.179 271.496 184.012 271.279 183.922C270.895 183.783 270.483 183.738 270.077 183.789C269.671 183.841 269.284 183.988 268.947 184.219C268.873 184.625 269.97 185.361 270.338 185.571C270.635 185.089 271.452 185.132 271.869 185.142L271.83 185.07ZM273.202 185.882C273.674 185.876 274.615 185.811 274.881 185.427C275.148 185.043 274.345 184.413 273.791 184.221C273.619 184.148 273.433 184.111 273.245 184.113C273.058 184.115 272.873 184.156 272.702 184.233C272.364 184.417 272.098 184.71 271.949 185.065C272.494 185.164 273.244 185.431 273.241 185.954L273.202 185.882ZM260.994 180.065C259.338 178.94 262.038 177.989 262.927 178.936C263.09 179.128 263.206 179.355 263.265 179.6C263.608 178.575 265.06 178.944 265.878 179.629C266.502 180.161 265.696 180.631 264.867 180.873C265.5 180.988 266.691 181.427 266.55 182.056C266.399 182.299 266.187 182.498 265.935 182.635C265.684 182.772 265.401 182.841 265.115 182.837C264.828 182.832 264.548 182.754 264.301 182.609C264.054 182.464 263.848 182.258 263.704 182.01C263.52 183.025 262.985 183.451 261.975 183.098C260.965 182.744 260.953 182.166 261.712 181.518C260.785 181.716 259.664 181.762 259.491 180.84C259.318 179.918 260.234 179.993 261.033 180.138L260.994 180.065ZM262.616 181.224C262.332 181.39 262.065 181.582 261.818 181.799C261.296 182.293 261.425 182.592 262.076 182.828C262.727 183.064 262.99 182.915 263.18 182.662C263.397 182.277 263.478 181.83 263.41 181.394C263.155 181.403 262.9 181.37 262.655 181.296L262.616 181.224ZM263.719 181.424C263.767 181.637 263.863 181.836 264 182.007C264.136 182.178 264.31 182.315 264.507 182.409C264.704 182.503 264.92 182.551 265.139 182.549C265.357 182.547 265.572 182.495 265.768 182.398C265.939 182.324 266.254 182.172 266.287 181.995C266.365 181.564 265.035 181.1 264.377 181.046C264.322 181.168 264.236 181.274 264.127 181.353C264.019 181.432 263.892 181.482 263.758 181.497L263.719 181.424ZM261.919 180.521C261.121 180.298 259.595 179.981 259.75 180.782C259.906 181.583 261.456 181.34 262.32 181.052C262.153 180.942 262.026 180.781 261.958 180.594L261.919 180.521ZM264.15 180.926C264.092 181.243 263.379 181.205 263.044 181.105C262.333 180.91 261.797 180.329 262.503 180.116C263.209 179.904 264.307 180.64 264.194 180.973L264.15 180.926ZM270.62 179.403C271.407 178.237 273.55 179.778 272.232 180.259C272.815 180.365 273.298 180.662 273.011 181.16C272.724 181.658 271.953 181.505 271.382 181.191C271.664 181.727 271.487 182.127 270.739 182.135C269.991 182.143 269.622 181.723 269.714 181.072C269.47 181.242 269.175 181.323 268.879 181.3C268.582 181.277 268.302 181.152 268.087 180.947C267.374 180.333 267.736 179.783 269.077 179.896C268.882 179.761 268.713 179.593 268.578 179.399C268.536 179.357 268.507 179.304 268.494 179.247C268.48 179.189 268.483 179.129 268.501 179.073C268.519 179.017 268.553 178.967 268.597 178.929C268.642 178.89 268.697 178.865 268.755 178.855C269.504 178.624 270.602 178.706 270.663 179.45L270.62 179.403ZM264.408 180.803C264.765 180.71 265.791 180.399 265.855 180.044C265.92 179.689 263.474 178.302 263.253 179.951C263.778 180.164 264.355 180.374 264.452 180.85L264.408 180.803ZM263.249 179.977C263.251 179.81 263.219 179.645 263.155 179.491C263.091 179.337 262.995 179.198 262.875 179.083C262.755 178.968 262.612 178.878 262.455 178.821C262.299 178.763 262.132 178.739 261.966 178.749C261.453 178.76 260.611 179 260.735 179.468C260.86 179.936 261.589 180.173 261.971 180.308C262.186 179.915 262.78 179.892 263.242 180.015L263.249 179.977ZM270.73 180.746C270.539 180.766 270.346 180.753 270.16 180.708C270.036 180.963 270.006 181.255 270.076 181.53C270.23 181.912 270.887 181.9 271.125 181.812C271.364 181.725 271.284 181.514 271.154 181.294C271.041 181.098 270.902 180.918 270.74 180.76L270.73 180.746ZM269.517 180.211C269.035 180.124 267.822 180.1 268.151 180.526C268.267 180.696 268.426 180.833 268.613 180.922C268.799 181.011 269.005 181.049 269.211 181.033C269.488 180.971 269.739 180.824 269.929 180.613C269.838 180.59 269.754 180.548 269.681 180.49C269.608 180.431 269.548 180.358 269.506 180.275L269.517 180.211ZM271.084 180.666C271.573 181.003 272.535 181.545 272.834 180.983C273.132 180.422 271.934 180.388 271.425 180.374C271.352 180.522 271.229 180.639 271.077 180.704L271.084 180.666ZM270.51 179.789C270.84 179.849 271.398 180.094 271.164 180.301C270.961 180.406 270.734 180.455 270.506 180.443C270.278 180.432 270.057 180.36 269.866 180.235C269.602 180.03 270.173 179.846 270.503 179.827L270.51 179.789ZM270.531 179.675C270.685 178.826 269.617 178.724 268.88 179.035C268.456 179.207 269.225 179.726 269.58 179.935C269.709 179.826 269.862 179.749 270.026 179.711C270.19 179.672 270.36 179.673 270.524 179.713L270.531 179.675ZM271.475 180.174C271.741 180.222 272.321 180.131 272.478 179.911C272.636 179.691 271.152 178.491 270.647 179.683C270.992 179.733 271.447 179.894 271.468 180.212L271.475 180.174ZM127.294 188.504L127.448 187.655C127.47 187.596 127.478 187.534 127.473 187.472C127.468 187.41 127.45 187.351 127.419 187.297C127.388 187.243 127.346 187.196 127.295 187.16C127.245 187.124 127.187 187.1 127.126 187.089C127.065 187.078 127.002 187.08 126.942 187.096C126.882 187.112 126.826 187.141 126.778 187.18C126.73 187.22 126.692 187.27 126.665 187.326C126.639 187.382 126.625 187.443 126.625 187.505L126.459 188.418C126.453 188.473 126.458 188.528 126.474 188.581C126.49 188.634 126.516 188.683 126.551 188.726C126.586 188.769 126.628 188.804 126.677 188.83C126.725 188.857 126.779 188.873 126.833 188.879C126.888 188.884 126.944 188.879 126.997 188.863C127.049 188.848 127.099 188.822 127.141 188.787C127.184 188.752 127.22 188.709 127.246 188.661C127.272 188.612 127.289 188.559 127.294 188.504ZM119.876 0.494153C119.817 0.601334 119.821 0.575982 119.876 0.494153ZM269.941 116.417C269.948 116.523 269.95 116.511 269.941 116.417ZM96.5217 99.7211C96.4433 99.5759 96.4307 99.5736 96.5217 99.7211ZM66.0489 102.845C66.012 102.903 65.9993 102.901 66.0489 102.845ZM215.271 24.2524C215.279 24.4241 215.271 24.3964 215.271 24.2524Z" fill="#090915"/>
</svg>
