<svg width="277" height="204" viewBox="0 0 277 204" fill="none" xmlns="http://www.w3.org/2000/svg">
<path fill-rule="evenodd" clip-rule="evenodd" d="M24.0023 179.107C24.0622 180.399 23.9402 180.536 24.5104 181.063C25.0807 181.591 25.4461 181.787 25.2396 182.384C24.8741 183.374 23.2216 183.122 22.3117 182.399C22.3631 182.495 22.395 182.6 22.4054 182.709C22.4159 182.817 22.4047 182.927 22.3726 183.031C22.3405 183.135 22.2881 183.232 22.2183 183.315C22.1486 183.399 22.063 183.468 21.9664 183.519C21.4209 183.741 20.8104 183.742 20.2641 183.522C18.761 183.096 18.5512 181.397 18.8623 179.876C16.2712 180.187 13.6552 180.233 11.0547 180.014C11.2421 180.447 11.7575 180.754 12.0267 181.088C12.4654 181.674 12.0429 182.494 10.9478 182.472C10.3226 182.448 9.72201 182.223 9.23481 181.83C9.28621 181.926 9.31805 182.032 9.3285 182.14C9.33895 182.248 9.3278 182.358 9.29569 182.462C9.26358 182.566 9.21115 182.663 9.14143 182.747C9.07172 182.83 8.98609 182.899 8.88951 182.95C8.34404 183.172 7.73352 183.173 7.18718 182.953C6.86531 182.864 6.57204 182.693 6.33597 182.457C6.09991 182.221 5.92911 181.927 5.84024 181.605C5.62056 180.75 5.62405 179.854 5.85036 179.001C5.12318 178.766 4.41177 178.486 3.72051 178.16C3.72051 178.16 2.60243 177.48 4.38479 176.822C4.38479 176.822 3.23647 177.133 2.60915 177.325C1.98182 177.517 2.26614 175.724 3.06639 175.114C2.40005 175.414 1.70264 175.638 0.986873 175.785C0.704278 175.463 1.40775 173.224 2.42177 172.443C2.42177 172.443 0.937111 173.668 0.414447 173.232C0.501087 172.31 0.779687 171.415 1.23236 170.607C1.68503 169.798 2.30178 169.093 3.04302 168.537C2.49673 168.846 1.91962 169.097 1.32109 169.287C0.393254 169.569 3.80245 165.9 6.25131 165.336C5.82246 165.396 5.38622 165.377 4.96421 165.28C3.97035 165.005 8.26483 162.626 10.9756 163.453C10.9756 163.453 10.247 162.712 9.91287 162.684C10.5693 162.12 19.4475 162.867 22.345 166.513C25.2315 165.672 30.0099 169.955 31.7726 171.231C33.3664 172.009 35.1024 172.453 36.874 172.536C39.0867 172.361 39.4874 173.23 39.2803 174.433C39.2023 174.777 39.0259 175.091 38.7725 175.336C38.5191 175.582 38.1996 175.748 37.8533 175.815C34.4715 177.963 27.97 178.905 24.0023 179.107ZM21.2256 179.502C20.615 179.604 19.9267 179.716 19.136 179.811C19.08 181.098 19.2182 182.664 20.4051 182.948C20.7621 183.041 21.5674 183.205 21.7868 182.905C22.0062 182.605 21.4208 182.425 21.1298 181.703C20.9398 180.976 20.9732 180.209 21.2256 179.502ZM6.08204 179.011C5.91021 180.293 6.09093 182.067 7.32877 182.366C7.69324 182.469 8.07655 182.486 8.44855 182.415C8.81342 182.328 8.8123 182.057 8.68919 181.922C8.39968 181.695 8.17774 181.393 8.04728 181.049C7.91682 180.704 7.88279 180.331 7.94887 179.969L8.04793 179.47C7.38088 179.39 6.71775 179.219 6.08204 179.011ZM22.1618 179.323C22.1316 180.018 22.0672 181.499 22.6548 181.924C22.9051 182.127 23.1982 182.271 23.5121 182.345C23.826 182.419 24.1525 182.421 24.4673 182.351C25.1495 182.084 24.2379 181.696 23.854 181.035C23.4701 180.373 23.675 180.111 23.7556 179.148C23.2207 179.178 22.6883 179.241 22.1612 179.336L22.1618 179.323ZM9.04291 179.72C9.02107 180.222 9.15424 181.014 9.55156 181.367C10.4122 182.036 11.4738 181.94 11.6048 181.598C11.7357 181.255 10.7094 180.837 10.5678 179.941C10.0804 179.881 9.58069 179.808 9.04291 179.72ZM21.8367 179.387L21.5244 179.45C21.4611 180.905 21.2882 181.323 21.9787 182.049C21.6455 181.2 21.6046 180.263 21.8624 179.388L21.8367 179.387ZM8.40328 179.602C8.3708 180.348 8.26111 180.795 8.90353 181.442C8.63813 180.885 8.54407 180.261 8.63327 179.65L8.40328 179.602ZM36.5931 172.768C35.6754 172.746 34.7611 172.651 33.8588 172.482C31.3003 172.009 31.3272 171.392 27.837 168.919C23.5314 165.92 22.5258 166.805 22.2577 166.742C21.7602 167.21 19.5553 169.577 23.9219 170.58C22.865 170.865 21.9315 171.491 21.2654 172.36L23.0545 172.437C22.1898 172.757 21.4326 173.314 20.8698 174.045C21.5984 174.073 22.3247 173.946 23.0008 173.673C22.2763 174.304 21.6266 175.015 21.0645 175.794C20.7108 176.514 22.3342 176.249 23.3684 175.894C22.7296 176.26 22.2192 176.814 21.9066 177.481C21.488 178.507 23.1764 177.936 23.7987 177.563C24.421 177.191 22.7455 178.652 23.6336 178.691C24.2256 178.717 32.9824 177.808 37.2696 175.596C36.1733 175.007 36.3966 173.43 36.6188 172.77L36.5931 172.768Z" fill="#090915"/>
<path fill-rule="evenodd" clip-rule="evenodd" d="M141.207 186.895C141.379 187.741 142.606 188.148 143.522 187.159C143.539 187.152 143.553 187.142 143.565 187.129C143.577 187.116 143.586 187.101 143.591 187.084C143.596 187.067 143.598 187.049 143.595 187.032C143.592 187.015 143.585 186.998 143.575 186.984C143.565 186.969 143.552 186.957 143.536 186.949C143.521 186.94 143.504 186.936 143.486 186.935C143.468 186.934 143.451 186.937 143.435 186.944C143.419 186.951 143.404 186.961 143.393 186.975L142.825 187.091C142.511 187.191 142.173 187.176 141.869 187.049C141.704 186.985 141.548 186.897 141.408 186.788C141.403 186.772 141.395 186.757 141.383 186.745C141.372 186.732 141.357 186.723 141.342 186.716C141.326 186.71 141.309 186.707 141.292 186.708C141.275 186.709 141.259 186.713 141.244 186.721C141.229 186.729 141.216 186.74 141.206 186.754C141.195 186.767 141.188 186.783 141.185 186.799C141.181 186.816 141.181 186.833 141.185 186.85C141.189 186.866 141.196 186.882 141.207 186.895ZM53.7466 173.273C53.1538 172.816 52.7508 172.155 52.615 171.418C52.4791 170.682 52.62 169.921 53.0105 169.282C53.5585 169.789 53.953 170.439 54.1489 171.16C54.3447 171.88 54.3342 172.641 54.1183 173.355C54.3637 174.042 54.7082 174.892 55.0676 175.686C54.5805 173.3 56.2328 172.634 56.2328 172.634C57.1575 174.523 56.63 175.932 55.5136 176.647C56.0052 177.638 56.5854 178.677 57.178 179.647C56.3029 176.907 58.21 176.136 58.21 176.136C59.1473 178.022 58.5998 179.462 57.4782 180.151C58.0834 181.119 58.7875 182.185 59.4811 183.135C58.4082 180.198 60.4363 179.376 60.4363 179.376C61.3406 181.23 60.8536 182.644 59.7776 183.363C59.6688 183.432 59.5386 183.459 59.4116 183.438C58.5654 183.439 57.7375 183.193 57.0289 182.73C56.3203 182.268 55.7619 181.609 55.4217 180.834C55.8955 180.774 56.3765 180.812 56.8353 180.944C57.2941 181.077 57.7211 181.301 58.0904 181.604C57.6586 181.035 57.3383 180.561 57.0511 180.12C56.208 180.045 55.4024 179.737 54.725 179.229C54.0476 178.722 53.5253 178.036 53.2168 177.247C53.76 177.243 54.2979 177.354 54.7955 177.572C55.2931 177.79 55.7392 178.11 56.1047 178.512C55.7561 177.899 55.4431 177.332 55.1602 176.719C54.3217 176.623 53.5264 176.296 52.8627 175.774C52.1991 175.253 51.6932 174.557 51.4014 173.765C52.016 173.779 52.619 173.935 53.1633 174.221C53.7076 174.507 54.1782 174.915 54.5384 175.413C54.2326 174.716 53.9682 174.002 53.7466 173.273ZM87.7135 162.985C84.3966 160.586 85.5329 157.908 85.5329 157.908C86.0243 158.031 86.4852 158.254 86.8873 158.562C87.2893 158.87 87.6241 159.257 87.8708 159.699C88.1176 160.142 88.2712 160.63 88.3221 161.134C88.373 161.638 88.3202 162.147 88.1669 162.63C88.5387 163.53 88.8382 164.458 89.0624 165.405C89.1916 164.605 89.5258 163.851 90.0324 163.218C90.539 162.585 91.2008 162.093 91.9535 161.791C92.2569 162.846 92.1706 163.976 91.7103 164.972C91.2499 165.969 90.4462 166.767 89.4461 167.221C89.6136 168.041 89.6928 168.88 89.7722 169.784C89.9727 169.095 90.3272 168.462 90.8088 167.931C91.2903 167.399 91.8864 166.985 92.5518 166.718C92.8528 167.802 92.7484 168.959 92.2581 169.971C91.7678 170.984 90.9252 171.783 89.8881 172.219C89.901 172.926 89.8761 173.642 89.8187 174.455C90.1068 173.855 90.5184 173.323 91.0266 172.893C91.5347 172.463 92.1279 172.145 92.7674 171.96C92.954 173.048 92.7454 174.166 92.1792 175.114C91.6131 176.062 90.7268 176.775 89.6803 177.126C89.4846 177.194 89.2809 177.236 89.0744 177.25C87.9641 177.252 86.8901 176.855 86.0476 176.132C85.205 175.409 84.6499 174.407 84.483 173.309C85.5572 173.265 86.6142 173.59 87.4788 174.229C88.3435 174.867 88.9638 175.783 89.237 176.823C89.3277 175.353 89.3429 173.88 89.2824 172.408C88.1463 172.448 87.035 172.07 86.1596 171.344C85.2843 170.619 84.7059 169.597 84.5343 168.473C85.5462 168.448 86.5395 168.748 87.3683 169.329C88.197 169.91 88.8174 170.742 89.1381 171.702C89.072 170.278 88.9186 168.861 88.6789 167.456C87.5592 167.47 86.4721 167.079 85.6184 166.354C84.7647 165.629 84.2021 164.62 84.0344 163.513C84.9562 163.452 85.8755 163.664 86.6776 164.122C87.4797 164.58 88.1291 165.265 88.5446 166.09C88.3078 164.994 87.9924 163.836 87.7135 162.985ZM65.4649 153.064C63.1232 150.031 63.1672 146.512 66.4698 143.431C66.4698 143.431 70.226 147.017 66.441 153.272C66.6042 154.909 66.8877 156.942 67.2617 158.838C67.3595 157.234 67.9189 155.692 68.8726 154.399C69.8262 153.105 71.1335 152.115 72.6369 151.547C73.7259 155.98 71.4407 159.47 67.797 161.266C68.3912 163.699 69.1263 166.095 69.9986 168.443C69.8743 166.647 70.332 164.859 71.304 163.344C72.276 161.828 73.7104 160.667 75.3946 160.031C76.4736 164.478 74.1909 167.982 70.5067 169.773C71.4957 172.375 72.6217 174.924 73.88 177.407C73.5253 175.465 73.8624 173.461 74.8328 171.742C75.8032 170.023 77.3454 168.699 79.1912 167.999C80.2728 172.46 77.9649 175.968 74.2881 177.731C74.0781 177.869 73.8325 177.942 73.5815 177.941C72.3358 177.969 71.095 177.777 69.9157 177.375C68.5984 176.936 67.4239 176.15 66.5153 175.1C65.6068 174.05 64.9979 172.774 64.7526 171.408C66.9859 171.201 69.2104 171.886 70.9403 173.313C70.3573 172.196 69.8144 171.018 69.3271 169.856C65.2128 169.604 61.7418 167.223 61.0768 162.678C62.3652 162.65 63.6429 162.918 64.8115 163.461C65.9802 164.004 67.0086 164.808 67.8177 165.812C67.3343 164.346 66.9166 162.879 66.5671 161.425C62.5432 161.037 59.2693 158.655 58.6125 154.279C60.0783 154.228 61.5318 154.563 62.8267 155.252C64.1215 155.941 65.212 156.959 65.9883 158.204C65.6819 156.485 65.5026 154.746 65.452 153.001L65.4649 153.064ZM82.7701 197.314C82.6134 196.031 84.431 195.66 85.6601 195.948C85.7536 195.95 85.8448 195.976 85.9242 196.026C86.0035 196.075 86.068 196.145 86.1106 196.228C86.1532 196.311 86.1725 196.405 86.1663 196.498C86.16 196.591 86.1285 196.681 86.0752 196.758C85.8672 197.12 85.6004 197.446 85.2857 197.721C87.1485 197.248 88.4641 197.703 87.2643 199.039C86.9547 199.439 86.5117 199.715 86.016 199.816C85.5203 199.918 85.0047 199.838 84.563 199.591C84.9284 200.608 84.54 201.41 83.2218 201.587C82.3506 201.699 81.9933 201.43 81.8984 201.095C81.8473 200.78 81.8964 200.457 82.0388 200.172C81.1722 200.822 79.962 201.464 79.279 200.63C78.596 199.797 79.4937 199.364 80.4476 199.077C78.9586 198.868 79.4011 197.686 80.7527 197.029C81.0703 196.837 81.4446 196.76 81.8122 196.812C82.1799 196.864 82.5183 197.041 82.7701 197.314ZM83.9143 199.118C83.6002 199.242 83.2671 199.31 82.9298 199.319C82.8672 199.464 81.7232 200.881 82.4773 201.161C82.8694 201.278 84.0943 201.159 84.2836 200.476C84.3355 199.993 84.2037 199.509 83.9143 199.118ZM81.7864 199.001C80.9029 199.181 78.967 199.682 79.5433 200.379C80.1196 201.077 81.6892 199.941 82.4547 199.311C82.2085 199.291 81.9756 199.191 81.7916 199.026L81.7864 199.001ZM84.2698 198.928C84.5008 199.149 84.7848 199.307 85.0945 199.387C85.4042 199.467 85.7293 199.466 86.0386 199.385C86.3479 199.303 86.6311 199.143 86.861 198.921C87.0909 198.698 87.2598 198.421 87.3515 198.114C87.3258 197.988 87.0931 197.944 86.9566 197.919C86.2186 197.845 85.4736 197.943 84.7798 198.205C84.7633 198.351 84.7132 198.492 84.6335 198.615C84.5538 198.739 84.4466 198.842 84.3203 198.917L84.2698 198.928ZM83.0906 197.853C83.6208 197.745 84.6422 197.918 84.404 198.361C84.1083 198.65 83.7355 198.848 83.3303 198.931C82.9251 199.013 82.5046 198.978 82.1193 198.828C81.6076 198.511 82.51 197.972 83.0829 197.816L83.0906 197.853ZM82.883 197.738C81.7311 195.896 79.2989 198.023 79.8822 198.561C80.2119 198.888 81.2424 198.783 81.654 198.738C81.5986 198.145 82.3325 197.811 82.8753 197.7L82.883 197.738ZM84.6675 197.913C85.1608 197.556 85.5738 197.1 85.8799 196.574C85.9247 196.407 85.8889 196.296 85.6133 196.234C84.3007 195.923 82.5263 196.378 83.0167 197.684C83.1682 197.654 84.1654 197.45 84.6293 197.855L84.6675 197.913ZM69.7576 194.054C69.8012 193.737 69.9608 193.448 70.2056 193.243C70.4504 193.037 70.7628 192.93 71.0822 192.942C72.3148 192.861 73.1792 193.552 72.2627 194.344C73.0705 194.179 73.8668 194.28 73.7311 195.096C73.5954 195.913 72.5122 196.082 71.5946 195.967C72.3247 196.58 72.1552 197.167 71.2699 197.532C70.3845 197.897 69.6201 197.566 69.4119 196.675C69.1942 197.04 68.8516 197.313 68.4479 197.443C68.0441 197.574 67.6066 197.554 67.2166 197.386C65.8074 196.925 66.395 196.003 68.0176 195.514C67.6003 195.402 66.8565 195.172 66.8346 194.743C66.8165 194.01 69.1689 192.78 69.7499 194.016L69.7576 194.054ZM70.5072 195.728C70.2682 195.854 70.0097 195.938 69.7426 195.977C69.7058 196.384 69.8168 196.79 70.0554 197.122C70.4767 197.576 71.3744 197.142 71.6235 196.881C71.8726 196.62 71.5307 196.427 71.3455 196.228C71.0967 196.036 70.8254 195.875 70.5376 195.749L70.5072 195.728ZM68.6776 195.655C67.9707 195.799 66.3739 196.415 66.9592 196.834C67.2037 196.995 67.4858 197.089 67.7778 197.108C68.0698 197.127 68.3616 197.069 68.6247 196.941C68.9586 196.711 69.209 196.378 69.3384 195.993C69.2048 195.99 69.0742 195.953 68.9577 195.888C68.8413 195.822 68.7425 195.729 68.6699 195.617L68.6776 195.655ZM70.9129 195.462C71.7298 195.663 73.2719 195.874 73.4529 195.022C73.6339 194.17 71.9811 194.704 71.2823 194.952C71.2079 195.144 71.0762 195.309 70.9052 195.424L70.9129 195.462ZM69.7549 194.62C70.1964 194.464 71.0532 194.539 70.8603 194.946C70.6509 195.209 70.3709 195.407 70.0531 195.516C69.7353 195.625 69.393 195.641 69.0663 195.562C68.6485 195.319 69.2778 194.73 69.7471 194.582L69.7549 194.62ZM69.7239 194.468C69.6595 194.153 69.5062 193.724 68.9124 193.714C68.3186 193.703 67.0633 194.446 67.1149 194.699C67.1664 194.951 68.2919 195.247 68.6207 195.312C68.7419 194.682 69.5825 194.484 69.7162 194.43L69.7239 194.468ZM71.1926 194.642C71.5432 194.491 72.2719 194.132 72.3286 193.766C72.3852 193.399 71.5833 193.142 71.0629 193.169C70.7351 193.181 70.424 193.317 70.193 193.549C69.962 193.782 69.8285 194.095 69.8198 194.422C70.3041 194.218 70.9658 194.175 71.1874 194.617L71.1926 194.642ZM80.4662 187.318C80.6394 187.651 80.237 188.127 79.9779 188.404C81.6693 188.058 82.003 188.727 81.3392 189.533C81.1256 189.814 80.8171 190.008 80.4711 190.079C80.125 190.149 79.7651 190.092 79.4584 189.917C79.613 190.674 79.3879 191.246 78.4384 191.361C77.4888 191.476 77.2673 191.035 77.4717 190.362C77.1823 190.607 76.8395 190.78 76.4707 190.869C76.349 190.905 76.2205 190.911 76.0956 190.889C75.9707 190.866 75.8529 190.814 75.7516 190.738C75.6503 190.661 75.5683 190.562 75.5123 190.448C75.4563 190.334 75.4278 190.209 75.4291 190.082C75.4706 189.705 75.9245 189.481 76.2902 189.341C75.7642 189.211 75.6289 188.871 75.7716 188.539C75.8896 188.321 76.0505 188.128 76.2449 187.973C76.4392 187.818 76.6629 187.704 76.9025 187.638C77.0986 187.597 77.3022 187.61 77.4915 187.675C77.6809 187.741 77.8489 187.857 77.9777 188.01C77.9202 186.891 80.181 186.758 80.4585 187.28L80.4662 187.318ZM78.8885 189.573C78.6876 189.653 78.4738 189.697 78.2574 189.702C77.9852 190.028 77.8279 190.434 77.8098 190.858C77.8536 191.073 78.1921 191.056 78.4092 191.025C79.2653 190.903 79.3438 190.321 78.8808 189.535L78.8885 189.573ZM77.3568 189.412C76.9655 189.492 75.842 189.722 75.7705 190.144C75.8014 190.295 75.9745 190.628 76.4037 190.54C76.9265 190.358 77.3965 190.05 77.7721 189.643C77.6143 189.608 77.47 189.528 77.3568 189.412ZM80.352 189.721C80.5491 189.666 80.7321 189.569 80.8888 189.437C81.0456 189.305 81.1725 189.142 81.2611 188.957C81.3538 188.767 81.2752 188.704 81.0704 188.667C80.5631 188.59 80.0443 188.646 79.5652 188.83C79.5501 188.935 79.5133 189.037 79.4572 189.127C79.401 189.218 79.3267 189.296 79.2389 189.357C79.3833 189.498 79.5592 189.604 79.7521 189.665C79.9451 189.726 80.1497 189.741 80.3495 189.709L80.352 189.721ZM78.2475 188.494C77.8688 188.571 77.307 188.975 77.601 189.191C77.8088 189.28 78.0348 189.318 78.2602 189.302C78.4856 189.286 78.7039 189.216 78.8967 189.098C79.6026 188.691 78.9294 188.421 78.2475 188.494ZM78.0525 188.376C77.2007 187.038 75.6302 188.555 75.988 188.955C76.3459 189.356 76.8681 189.144 77.1888 189.105C77.2397 188.581 77.9263 188.402 78.103 188.366L78.0525 188.376ZM79.3921 188.497C79.7622 188.185 80.4946 187.457 80.029 187.302C79.0831 187.048 77.8842 187.359 78.2418 188.337C78.4358 188.267 78.6438 188.245 78.8484 188.271C79.053 188.298 79.2481 188.374 79.4173 188.492L79.3921 188.497ZM182.482 168.159C182.405 167.267 183.662 166.984 184.555 167.17C184.626 167.178 184.695 167.203 184.754 167.243C184.813 167.283 184.862 167.337 184.896 167.4C184.929 167.463 184.947 167.534 184.947 167.605C184.947 167.677 184.93 167.748 184.896 167.811C184.779 168.06 184.621 168.287 184.429 168.485C186.019 168.16 186.482 168.749 185.785 169.523C185.587 169.817 185.287 170.027 184.944 170.114C184.6 170.201 184.236 170.159 183.922 169.995C184.155 170.75 183.864 171.322 182.918 171.515C181.971 171.708 181.746 171.189 181.938 170.519C181.314 171.001 180.534 171.371 180.039 170.748C179.544 170.126 180.066 169.783 180.722 169.518C179.755 169.294 180.101 168.409 181.016 167.932C181.247 167.79 181.522 167.735 181.791 167.777C182.059 167.818 182.304 167.954 182.482 168.159ZM183.355 169.664C183.149 169.745 182.932 169.789 182.711 169.795C182.47 170.16 182.212 170.699 182.291 170.959C182.371 171.219 182.671 171.145 182.891 171.126C183.37 171.028 183.584 170.853 183.626 170.608C183.629 170.273 183.535 169.946 183.355 169.664ZM181.821 169.556C181.429 169.636 180.321 169.941 180.252 170.311C180.243 170.349 180.242 170.39 180.25 170.429C180.258 170.469 180.275 170.506 180.299 170.538C180.74 171.092 181.7 170.252 182.211 169.792C182.062 169.75 181.927 169.669 181.821 169.556ZM183.698 169.476C183.816 169.603 183.962 169.703 184.124 169.767C184.286 169.832 184.461 169.859 184.635 169.847C184.809 169.836 184.978 169.786 185.13 169.7C185.282 169.615 185.413 169.497 185.514 169.355C185.894 168.896 185.769 168.803 185.522 168.748C185.014 168.687 184.498 168.751 184.021 168.936C184.009 169.044 183.974 169.148 183.918 169.241C183.862 169.334 183.787 169.414 183.698 169.476ZM182.749 168.63C183.128 168.553 183.831 168.712 183.643 169.013C183.447 169.21 183.198 169.345 182.926 169.401C182.655 169.456 182.372 169.43 182.115 169.325C181.811 169.124 182.378 168.746 182.749 168.63ZM182.554 168.512C181.693 167.189 180.127 168.732 180.495 169.117C180.863 169.502 181.388 169.303 181.693 169.254C181.689 168.847 182.15 168.595 182.554 168.512ZM183.889 168.608C184.246 168.299 184.986 167.543 184.513 167.416C183.542 167.167 182.363 167.513 182.731 168.476C182.919 168.408 183.121 168.385 183.319 168.408C183.518 168.432 183.709 168.501 183.876 168.611L183.889 168.608ZM173.719 166.069C173.746 165.731 173.897 165.415 174.143 165.183C174.39 164.95 174.714 164.818 175.053 164.811C176.344 164.692 177.329 165.398 176.363 166.332C176.688 166.248 177.024 166.219 177.358 166.247C177.459 166.249 177.558 166.274 177.649 166.318C177.74 166.362 177.82 166.425 177.885 166.503C177.949 166.581 177.996 166.671 178.023 166.769C178.049 166.866 178.055 166.968 178.039 167.068C177.957 168.084 176.795 168.189 175.786 168.08C176.592 168.678 176.597 169.347 175.591 169.829C175.409 169.958 175.196 170.038 174.973 170.06C174.751 170.082 174.526 170.046 174.322 169.955C174.118 169.864 173.941 169.722 173.808 169.541C173.676 169.361 173.592 169.15 173.566 168.927C173.37 169.34 173.022 169.662 172.595 169.825C172.168 169.988 171.695 169.98 171.273 169.803C169.712 169.307 170.411 168.283 172.061 167.736C171.672 167.663 171.3 167.521 170.962 167.316C170.885 167.279 170.819 167.223 170.769 167.154C170.72 167.084 170.689 167.003 170.679 166.918C170.67 166.833 170.682 166.747 170.715 166.668C170.748 166.589 170.801 166.52 170.868 166.467C171.648 165.585 173.179 165.036 173.706 166.072L173.719 166.069ZM174.638 167.867C174.382 168.006 174.104 168.103 173.816 168.153C173.83 168.595 173.972 169.023 174.225 169.385C174.461 169.639 174.833 169.721 175.42 169.443C176.008 169.165 176.173 168.816 175.565 168.348C175.268 168.159 174.954 167.998 174.626 167.87L174.638 167.867ZM172.65 167.852C171.996 167.978 171.385 168.27 170.877 168.701C170.769 168.815 170.701 168.934 170.737 169.045C170.942 169.25 171.199 169.395 171.48 169.463C171.762 169.531 172.057 169.52 172.332 169.431C172.608 169.342 172.854 169.179 173.043 168.959C173.231 168.739 173.356 168.471 173.402 168.185C173.259 168.191 173.117 168.164 172.987 168.107C172.856 168.049 172.741 167.962 172.65 167.852ZM174.988 167.585C175.899 167.794 177.582 167.989 177.664 167.039C177.747 166.089 176.091 166.676 175.315 166.993C175.274 167.217 175.164 167.423 175.001 167.583L174.988 167.585ZM173.724 166.673C174.242 166.567 175.118 166.546 174.938 167.017C174.74 167.318 174.453 167.55 174.118 167.682C173.782 167.814 173.414 167.839 173.064 167.755C172.583 167.524 173.232 166.905 173.724 166.673ZM173.693 166.522C173.658 166.304 173.551 166.104 173.389 165.953C173.228 165.803 173.02 165.711 172.8 165.691C171.994 165.672 170.846 166.551 170.92 166.851C170.995 167.151 172.209 167.43 172.59 167.496C172.666 166.902 173.413 166.631 173.693 166.522ZM175.275 166.672C175.659 166.489 176.465 166.061 176.474 165.651C176.482 165.242 175.59 164.99 175.031 165.026C174.854 165.034 174.681 165.079 174.522 165.158C174.363 165.236 174.222 165.347 174.107 165.482C173.993 165.618 173.908 165.776 173.858 165.946C173.807 166.116 173.792 166.295 173.814 166.471C174.339 166.271 175.026 166.223 175.275 166.672ZM257.926 169.231C255.838 168.277 258.197 167.466 258.918 167.648C259.061 167.674 259.194 167.739 259.304 167.834C259.414 167.93 259.496 168.053 259.541 168.191C260.162 166.592 262.986 167.804 261.658 168.771C262.05 168.757 262.545 168.801 262.744 169.128C262.791 169.251 262.808 169.383 262.795 169.513C262.781 169.644 262.737 169.769 262.666 169.88C262.596 169.99 262.5 170.083 262.387 170.149C262.274 170.216 262.147 170.255 262.016 170.263C261.654 170.301 261.288 170.264 260.941 170.154C261.383 170.708 261.279 171.229 260.419 171.457C259.558 171.686 259.074 171.311 258.899 170.453C258.75 170.63 258.563 170.772 258.352 170.867C257.22 171.44 255.07 169.735 257.926 169.231ZM259.379 169.907C259.312 170.241 259.355 170.588 259.502 170.895C259.636 171.104 259.895 171.209 260.382 171.083C260.584 171.042 260.912 170.975 260.87 170.708C260.702 170.318 260.404 169.998 260.028 169.801C259.816 169.86 259.598 169.896 259.379 169.907ZM260.733 169.197C260.678 169.35 260.576 169.481 260.441 169.572C261.089 169.848 262.291 170.194 262.495 169.521C262.7 168.848 261.341 169.086 260.733 169.197ZM258.46 169.53C257.944 169.54 257.439 169.684 256.994 169.947C256.893 169.968 256.835 170.072 256.838 170.15C256.965 170.328 257.137 170.469 257.337 170.557C257.537 170.646 257.757 170.678 257.974 170.651C258.191 170.625 258.397 170.54 258.57 170.405C258.742 170.271 258.875 170.093 258.954 169.889C258.852 169.865 258.756 169.821 258.671 169.759C258.586 169.698 258.515 169.62 258.46 169.53ZM259.498 168.752C259.877 168.675 260.57 168.849 260.366 169.141C260.171 169.338 259.922 169.472 259.65 169.528C259.378 169.583 259.096 169.557 258.839 169.452C258.563 169.193 259.145 168.825 259.518 168.722L259.498 168.752ZM260.714 168.912C261.03 168.847 261.653 168.615 261.763 168.316C261.873 168.018 261.202 167.694 260.785 167.648C260.651 167.632 260.516 167.643 260.387 167.68C260.257 167.717 260.137 167.779 260.031 167.863C259.926 167.947 259.839 168.051 259.774 168.169C259.709 168.286 259.668 168.416 259.654 168.55C260.055 168.455 260.576 168.493 260.734 168.881L260.714 168.912ZM259.477 168.586C259.423 167.545 258.195 167.717 257.422 168.308C257.001 168.631 258.001 169.019 258.464 169.161C258.574 168.984 258.726 168.836 258.906 168.731C259.086 168.625 259.289 168.565 259.497 168.555L259.477 168.586ZM264.495 164.116C263.23 163.651 263.832 162.608 265.091 162.206C265.407 162.079 265.759 162.073 266.079 162.19C266.399 162.306 266.665 162.538 266.824 162.839C266.906 161.691 268.515 161.586 269.58 162.039C270.415 162.395 269.726 163.14 268.993 163.671C270.741 163.538 271.734 164.216 270.515 165.267C270.2 165.597 269.769 165.791 269.314 165.807C268.858 165.824 268.414 165.663 268.075 165.358C268.14 165.574 268.147 165.803 268.095 166.022C268.044 166.241 267.935 166.444 267.781 166.608C267.627 166.773 267.433 166.894 267.217 166.96C267.002 167.026 266.773 167.034 266.553 166.983C265.439 166.935 265.193 166.314 265.69 165.463C264.816 165.944 263.69 166.292 263.232 165.4C262.773 164.507 263.646 164.211 264.515 164.086L264.495 164.116ZM266.683 164.853C266.436 165.111 266.216 165.393 266.027 165.697C265.628 166.383 265.849 166.627 266.579 166.662C267.31 166.697 267.539 166.466 267.656 166.14C267.759 165.709 267.722 165.256 267.55 164.847C267.268 164.883 266.983 164.875 266.703 164.822L266.683 164.853ZM267.961 164.671C268.076 164.871 268.236 165.041 268.427 165.17C268.619 165.298 268.837 165.381 269.066 165.412C269.294 165.443 269.527 165.421 269.746 165.348C269.964 165.274 270.163 165.152 270.327 164.99C270.483 164.853 270.76 164.599 270.747 164.404C270.733 164.21 270.643 164.215 270.483 164.143C269.846 163.952 269.171 163.923 268.52 164.057C268.479 164.188 268.409 164.308 268.316 164.409C268.223 164.51 268.108 164.589 267.981 164.64L267.961 164.671ZM265.746 164.321C264.895 164.337 263.16 164.533 263.603 165.285C264.045 166.036 265.508 165.277 266.279 164.738C266.161 164.706 266.05 164.651 265.954 164.576C265.857 164.501 265.776 164.407 265.716 164.301L265.746 164.321ZM267.082 163.391C267.625 163.411 268.465 163.726 268.113 164.127C267.822 164.342 267.473 164.463 267.112 164.476C266.751 164.489 266.395 164.392 266.09 164.198C265.706 163.803 266.511 163.428 267.051 163.371L267.082 163.391ZM268.46 163.701C268.788 163.503 269.821 162.832 269.756 162.45C269.692 162.069 266.755 161.406 267.074 163.222C267.411 163.192 267.752 163.235 268.072 163.346C268.219 163.421 268.339 163.539 268.417 163.684L268.46 163.701ZM266.919 163.24C266.212 161.32 263.8 162.904 264.164 163.526C264.383 163.889 265.257 163.987 265.682 164.005C265.69 163.465 266.379 163.232 266.876 163.222L266.919 163.24ZM162.67 138.293C161.774 137.832 163.289 137.075 163.66 137.604C163.94 136.916 165.238 137.282 164.924 137.806C165.644 137.791 165.554 138.572 165.016 138.708C164.907 138.749 164.792 138.773 164.676 138.778C164.961 139.337 163.763 139.845 163.431 139.124C162.749 139.71 161.444 138.727 162.67 138.293ZM163.955 138.596L163.74 138.64C163.744 139.047 163.921 139.076 164.153 138.99C164.218 138.976 164.276 138.941 164.317 138.89C164.218 138.759 164.084 138.659 163.93 138.601L163.955 138.596ZM169.565 135.807C169.335 135.709 168.986 135.544 168.985 135.281C168.984 135.019 170.415 134.174 170.802 134.91C171.152 133.787 173.175 134.426 172.436 135.182C173.6 135.088 173.392 136.13 172.668 136.318C172.444 136.368 172.214 136.375 171.988 136.338C172.27 136.688 172.213 137.055 171.615 137.282C171.017 137.509 170.589 137.281 170.453 136.743C170.296 136.936 170.077 137.068 169.833 137.118C169.589 137.167 169.336 137.132 169.115 137.017C168.424 136.724 168.463 136.137 169.54 135.812L169.565 135.807ZM163.133 138.435C162.902 138.483 162.684 138.582 162.495 138.723L162.654 138.796C162.711 138.827 162.774 138.846 162.839 138.852C162.903 138.857 162.969 138.849 163.03 138.828C163.091 138.807 163.147 138.773 163.195 138.729C163.242 138.685 163.28 138.631 163.305 138.571C163.239 138.563 163.176 138.54 163.121 138.503L163.133 138.435ZM164.307 138.196C164.53 138.255 165.007 138.342 165.052 138.109C165.096 137.877 164.506 138.076 164.342 138.109C164.35 138.144 164.35 138.18 164.344 138.216C164.338 138.251 164.324 138.284 164.305 138.314L164.307 138.196ZM171.145 136.01C171.013 136.064 170.872 136.093 170.729 136.095C170.703 136.679 170.914 137.004 171.477 136.797C171.59 136.774 171.805 136.665 171.779 136.538C171.753 136.412 171.371 136.214 171.171 136.071L171.145 136.01ZM163.347 138.194C163.46 138.21 163.575 138.201 163.684 138.168C163.793 138.134 163.893 138.077 163.978 138C164.053 137.984 163.722 137.907 163.619 137.915C163.502 137.975 163.403 138.063 163.329 138.172L163.347 138.194ZM164.252 137.799C164.353 137.778 164.603 137.649 164.633 137.537C164.663 137.426 163.858 137.091 163.711 137.725C163.814 137.689 163.927 137.688 164.031 137.721C164.135 137.754 164.225 137.821 164.288 137.91L164.252 137.799ZM163.537 137.774C163.45 137.345 162.907 137.521 162.61 137.806C162.757 137.906 162.923 137.975 163.098 138.008C163.236 137.91 163.405 137.866 163.573 137.885L163.537 137.774ZM170.018 135.899C169.665 135.971 168.776 136.257 169.017 136.471C169.146 136.576 169.301 136.643 169.466 136.665C169.631 136.687 169.798 136.663 169.95 136.596C170.136 136.485 170.278 136.312 170.35 136.107C170.256 136.096 170.167 136.059 170.092 136.002L170.018 135.899ZM171.516 135.764C171.948 135.886 172.77 136.047 172.862 135.594C172.953 135.142 172.022 135.411 171.664 135.523C171.658 135.648 171.619 135.77 171.552 135.875L171.516 135.764ZM170.725 135.241C170.953 135.195 171.435 135.241 171.333 135.446C171.23 135.651 170.114 135.919 170.285 135.66C170.409 135.512 170.575 135.404 170.761 135.352L170.725 135.241ZM170.697 135.103C170.555 134.408 169.742 134.614 169.257 135.068C169.169 135.152 169.176 135.19 169.288 135.219C169.524 135.384 169.793 135.495 170.077 135.545C170.155 135.451 170.251 135.373 170.359 135.317C170.467 135.261 170.586 135.228 170.708 135.219L170.697 135.103ZM171.64 135.213C171.842 135.171 172.258 134.955 172.308 134.747C172.357 134.54 171.866 134.39 171.588 134.381C171.495 134.375 171.401 134.388 171.312 134.419C171.223 134.45 171.142 134.498 171.072 134.562C171.003 134.625 170.947 134.702 170.908 134.787C170.869 134.873 170.848 134.965 170.846 135.059C171.142 135.091 171.495 135.084 171.65 135.329L171.64 135.213ZM155.367 136.142C153.796 135.529 155.533 134.701 156.195 134.789C156.304 134.801 156.409 134.84 156.499 134.902C156.59 134.963 156.664 135.046 156.715 135.143C157.094 133.909 159.353 134.605 158.525 135.444C158.668 135.408 158.819 135.41 158.961 135.45C159.103 135.49 159.232 135.567 159.335 135.674C159.386 135.771 159.413 135.88 159.414 135.99C159.415 136.1 159.39 136.209 159.341 136.308C159.292 136.406 159.22 136.492 159.131 136.557C159.043 136.623 158.94 136.666 158.831 136.684C158.58 136.736 158.322 136.739 158.07 136.694C158.398 137.075 158.326 137.497 157.678 137.734C157.029 137.972 156.546 137.729 156.399 137.141C156.228 137.357 155.986 137.505 155.716 137.56C155.446 137.615 155.165 137.574 154.923 137.442C154.149 137.258 154.176 136.622 155.378 136.258L155.367 136.142ZM157.172 136.483C157.027 136.539 156.874 136.57 156.718 136.576C156.693 137.226 156.924 137.586 157.535 137.356C157.674 137.328 157.898 137.203 157.87 137.064C157.841 136.925 157.388 136.702 157.183 136.599L157.172 136.483ZM155.921 136.344C155.53 136.424 154.518 136.749 154.817 136.99C154.962 137.104 155.136 137.176 155.319 137.199C155.502 137.222 155.687 137.195 155.856 137.12C156.059 137 156.216 136.815 156.301 136.595C156.166 136.596 156.035 136.548 155.932 136.46L155.921 136.344ZM157.576 136.204C158.051 136.343 158.956 136.527 159.063 136.018C159.17 135.51 158.143 135.825 157.731 135.935C157.73 136.077 157.679 136.213 157.586 136.32L157.576 136.204ZM164.797 132.481C165.036 131.525 166.77 131.841 166.316 132.578C166.846 132.47 167.059 132.742 167.033 133.063C167.006 133.384 166.555 133.687 166.08 133.678C166.306 133.948 166.206 134.297 165.768 134.531C165.329 134.765 164.866 134.623 164.69 134.212C164.047 135.053 162.338 134.285 163.417 133.578C163.88 133.273 163.77 133.506 163.352 133.262C163.305 133.243 163.263 133.213 163.231 133.173C163.198 133.134 163.175 133.088 163.165 133.038C163.155 132.988 163.157 132.936 163.172 132.887C163.187 132.838 163.213 132.794 163.249 132.757C163.753 132.457 164.485 132.176 164.807 132.597L164.797 132.481ZM156.709 135.631C156.949 135.582 157.485 135.631 157.372 135.851C157.259 136.071 156.033 136.374 156.223 136.085C156.353 135.927 156.525 135.81 156.72 135.747L156.709 135.631ZM165.271 133.581C165.171 133.636 165.066 133.679 164.956 133.711C165.046 134.153 165.173 134.39 165.605 134.183C165.68 134.168 165.842 134.056 165.826 133.98C165.811 133.904 165.429 133.772 165.282 133.697L165.271 133.581ZM156.653 135.485C156.496 134.715 155.595 134.938 155.056 135.456C154.943 135.479 154.976 135.577 155.09 135.62C155.347 135.798 155.641 135.918 155.95 135.97C156.131 135.759 156.387 135.627 156.664 135.601L156.653 135.485ZM157.692 135.615C157.919 135.568 158.368 135.319 158.428 135.096C158.487 134.874 157.938 134.696 157.635 134.693C157.532 134.684 157.427 134.697 157.329 134.731C157.231 134.765 157.14 134.818 157.063 134.888C156.986 134.958 156.925 135.043 156.882 135.138C156.839 135.232 156.816 135.335 156.815 135.439C157.133 135.453 157.527 135.451 157.703 135.731L157.692 135.615ZM164.243 133.567C163.924 133.641 163.637 133.815 163.424 134.063C163.543 134.148 163.683 134.198 163.829 134.208C163.975 134.218 164.121 134.187 164.25 134.118C164.38 134.013 164.479 133.875 164.537 133.717C164.441 133.736 164.342 133.724 164.253 133.683L164.243 133.567ZM165.619 133.286C165.973 133.345 166.655 133.403 166.692 133.067C166.728 132.731 165.974 133.03 165.707 133.137C165.696 133.228 165.664 133.315 165.614 133.392L165.619 133.286ZM164.839 132.946C164.978 132.917 165.306 132.85 165.352 133.012C165.265 133.142 165.143 133.244 164.999 133.306C164.855 133.368 164.697 133.387 164.543 133.361C164.409 133.415 164.681 133.136 164.847 133.049L164.839 132.946ZM164.808 132.794C164.643 131.986 163.419 132.881 163.546 133.052C163.751 133.168 163.981 133.234 164.216 133.244C164.281 133.154 164.363 133.078 164.457 133.02C164.551 132.962 164.656 132.924 164.766 132.908L164.808 132.794ZM165.672 132.776C165.824 132.745 166.146 132.521 166.166 132.359C166.185 132.197 165.773 132.111 165.551 132.117C165.473 132.117 165.397 132.134 165.325 132.165C165.254 132.196 165.19 132.241 165.136 132.297C165.083 132.353 165.041 132.42 165.014 132.492C164.986 132.565 164.974 132.643 164.977 132.72C165.091 132.682 165.213 132.678 165.329 132.708C165.444 132.738 165.549 132.801 165.63 132.889L165.672 132.776ZM271.436 128.88C271.477 128.52 271.651 128.189 271.922 127.949C272.193 127.709 272.544 127.578 272.906 127.581C274.361 127.494 275.264 128.309 274.027 129.206C274.948 129.018 275.982 128.991 275.856 129.924C275.731 130.856 274.35 130.981 273.29 130.816C274.22 131.441 274.258 132.143 273.156 132.605C272.054 133.067 271.281 132.567 271.115 131.496C270.906 131.936 270.535 132.277 270.08 132.448C269.624 132.62 269.12 132.608 268.673 132.416C267.021 131.859 268.01 130.842 269.744 130.383C268.821 130.177 267.745 129.739 268.44 129.084C269.324 128.259 270.969 127.753 271.436 128.88ZM272.297 130.585C272.003 130.737 271.686 130.838 271.358 130.881C271.353 131.133 271.382 131.383 271.444 131.626C271.612 132.447 272.154 132.718 273.049 132.338C273.377 132.271 273.778 131.978 273.685 131.655C273.569 131.087 272.145 130.55 272.355 130.612L272.297 130.585ZM270.27 130.512C269.576 130.654 267.951 131.261 268.099 131.731C268.32 131.958 268.598 132.122 268.904 132.204C269.21 132.287 269.532 132.284 269.837 132.198C270.142 132.111 270.417 131.944 270.634 131.713C270.851 131.482 271.002 131.197 271.07 130.888C270.908 130.912 270.743 130.891 270.592 130.826C270.442 130.762 270.313 130.656 270.219 130.522L270.27 130.512ZM272.599 130.391C273.585 130.65 275.438 130.903 275.586 129.887C275.733 128.87 273.891 129.444 273.034 129.75C272.973 130.01 272.818 130.239 272.599 130.391ZM271.395 129.322C272.253 129.147 273.173 129.341 272.564 129.965C271.956 130.589 270.619 130.677 270.464 130.301C270.308 129.926 271.032 129.541 271.407 129.386L271.395 129.322ZM271.371 129.209C271.348 128.975 271.24 128.758 271.067 128.599C270.894 128.44 270.668 128.351 270.433 128.348C270.025 128.362 269.625 128.473 269.268 128.672C268.911 128.871 268.606 129.151 268.378 129.491C268.461 129.895 269.753 130.17 270.173 130.229C270.269 129.671 271.044 129.407 271.435 129.262L271.371 129.209ZM272.946 129.453C273.383 129.271 274.233 128.861 274.337 128.406C274.441 127.951 273.462 127.664 272.876 127.692C272.689 127.688 272.503 127.722 272.329 127.794C272.156 127.866 272 127.972 271.87 128.108C271.624 128.404 271.487 128.775 271.48 129.16C272.023 129.05 272.818 129.019 273.01 129.505L272.946 129.453ZM259.451 128.592C257.496 128.163 259.649 126.277 260.826 126.826C261.049 126.942 261.241 127.11 261.386 127.316C261.324 126.237 262.809 126.039 263.823 126.371C264.6 126.634 264.027 127.369 263.347 127.902C263.978 127.773 265.246 127.738 265.35 128.374C265.299 128.656 265.177 128.92 264.994 129.14C264.811 129.361 264.575 129.531 264.307 129.633C264.04 129.735 263.75 129.767 263.467 129.724C263.184 129.681 262.916 129.566 262.691 129.39C262.897 130.4 262.558 130.995 261.49 131.042C260.421 131.09 260.194 130.557 260.658 129.674C259.872 130.202 258.848 130.661 258.344 129.87C257.841 129.079 258.719 128.807 259.514 128.645L259.451 128.592ZM261.388 129.064C261.186 129.324 261.01 129.602 260.861 129.895C260.56 130.548 260.791 130.777 261.483 130.754C262.176 130.731 262.364 130.496 262.446 130.19C262.504 129.752 262.413 129.307 262.189 128.927C261.955 129.03 261.706 129.094 261.452 129.117L261.388 129.064ZM262.486 128.84C262.61 129.02 262.774 129.17 262.964 129.277C263.154 129.385 263.366 129.448 263.584 129.462C263.802 129.475 264.02 129.439 264.222 129.356C264.425 129.273 264.605 129.146 264.751 128.983C264.882 128.851 265.118 128.592 265.082 128.415C264.994 127.986 263.587 128.05 262.956 128.245C262.951 128.379 262.91 128.509 262.839 128.623C262.768 128.736 262.668 128.829 262.55 128.893L262.486 128.84ZM260.48 128.671C259.656 128.761 258.121 129.035 258.564 129.72C259.006 130.405 260.354 129.604 261.049 129.015C260.854 128.975 260.676 128.873 260.543 128.724L260.48 128.671ZM262.701 128.218C262.766 128.533 262.089 128.763 261.741 128.795C261.008 128.879 260.295 128.538 260.871 128.079C261.448 127.619 262.74 127.894 262.759 128.245L262.701 128.218ZM268.141 124.398C268.438 123.023 271 123.657 269.956 124.593C270.536 124.475 271.095 124.571 271.014 125.14C270.933 125.709 270.16 125.853 269.513 125.775C269.975 126.167 269.959 126.604 269.268 126.89C268.576 127.176 268.078 126.923 267.921 126.284C267.758 126.533 267.514 126.717 267.23 126.807C266.946 126.896 266.64 126.884 266.364 126.773C265.473 126.468 265.605 125.824 266.892 125.429C266.661 125.377 266.442 125.283 266.244 125.154C266.19 125.13 266.143 125.092 266.109 125.044C266.075 124.996 266.055 124.939 266.051 124.88C266.047 124.821 266.06 124.762 266.087 124.71C266.114 124.657 266.156 124.614 266.206 124.583C266.816 124.09 267.865 123.758 268.199 124.426L268.141 124.398ZM262.895 128.007C263.192 127.789 264.028 127.118 263.956 126.765C263.884 126.412 261.098 126.034 261.506 127.646C262.072 127.649 262.686 127.629 262.953 128.035L262.895 128.007ZM261.511 127.672C261.452 127.516 261.361 127.374 261.244 127.255C261.127 127.136 260.987 127.043 260.832 126.981C260.678 126.918 260.512 126.889 260.345 126.894C260.179 126.899 260.015 126.938 259.864 127.009C259.392 127.21 258.7 127.746 258.989 128.134C259.279 128.522 260.044 128.471 260.448 128.454C260.502 128.009 261.044 127.767 261.519 127.71L261.511 127.672ZM268.742 125.604C268.572 125.693 268.389 125.753 268.199 125.78C268.179 126.064 268.259 126.346 268.427 126.575C268.712 126.872 269.317 126.617 269.506 126.447C269.695 126.277 269.542 126.111 269.34 125.955C269.162 125.815 268.966 125.7 268.757 125.614L268.742 125.604ZM267.418 125.559C266.938 125.656 265.803 126.085 266.266 126.359C266.438 126.474 266.637 126.541 266.842 126.555C267.048 126.568 267.254 126.527 267.439 126.435C267.673 126.275 267.852 126.045 267.949 125.779C267.857 125.791 267.762 125.783 267.673 125.756C267.584 125.729 267.501 125.683 267.431 125.622L267.418 125.559ZM269.042 125.398C269.621 125.53 270.715 125.674 270.784 125.042C270.852 124.41 269.727 124.824 269.25 125C269.237 125.165 269.166 125.319 269.049 125.436L269.042 125.398ZM268.183 124.797C268.511 124.73 269.12 124.751 268.98 125.029C268.831 125.202 268.638 125.332 268.422 125.406C268.206 125.481 267.975 125.496 267.751 125.451C267.43 125.359 267.89 124.976 268.191 124.835L268.183 124.797ZM268.16 124.684C267.987 123.838 266.957 124.14 266.389 124.704C266.059 125.021 266.967 125.217 267.374 125.278C267.453 125.13 267.566 125.002 267.704 124.905C267.842 124.808 268.001 124.745 268.167 124.722L268.16 124.684ZM269.221 124.796C269.486 124.742 269.99 124.442 270.055 124.179C270.12 123.916 268.296 123.354 268.271 124.648C268.609 124.566 269.091 124.546 269.229 124.834L269.221 124.796ZM138.475 186.138L138.302 185.292C138.301 185.23 138.285 185.169 138.258 185.114C138.23 185.058 138.19 185.009 138.142 184.971C138.093 184.932 138.037 184.905 137.976 184.89C137.916 184.876 137.853 184.875 137.792 184.887C137.731 184.9 137.674 184.925 137.624 184.962C137.574 184.999 137.533 185.046 137.504 185.101C137.474 185.156 137.457 185.216 137.453 185.278C137.449 185.34 137.459 185.402 137.482 185.46L137.667 186.369C137.683 186.422 137.708 186.471 137.742 186.514C137.777 186.557 137.819 186.593 137.867 186.62C137.915 186.647 137.968 186.664 138.023 186.67C138.078 186.677 138.133 186.672 138.187 186.657C138.24 186.642 138.289 186.616 138.332 186.582C138.375 186.548 138.411 186.505 138.438 186.457C138.465 186.409 138.482 186.356 138.488 186.301C138.495 186.246 138.49 186.191 138.475 186.138ZM61.6825 14.3658C61.6678 14.4872 61.6627 14.4619 61.6825 14.3658ZM244.092 66.1807C244.137 66.2765 244.135 66.2639 244.092 66.1807ZM76.8975 115.162C76.7707 115.056 76.7581 115.059 76.8975 115.162ZM49.7707 129.392C49.7584 129.46 49.7457 129.463 49.7707 129.392ZM159.073 0.950827C159.144 1.10719 159.126 1.08452 159.073 0.950827Z" fill="#090915"/>
</svg>
