<svg width="255" height="221" viewBox="0 0 255 221" fill="none" xmlns="http://www.w3.org/2000/svg">
<path fill-rule="evenodd" clip-rule="evenodd" d="M180.287 120.01C181.262 120.86 181.277 121.043 182.052 120.995C182.828 120.948 183.222 120.82 183.511 121.382C183.974 122.33 182.649 123.35 181.497 123.507C181.602 123.537 181.701 123.586 181.786 123.654C181.872 123.721 181.943 123.805 181.996 123.9C182.049 123.995 182.083 124.1 182.095 124.208C182.108 124.317 182.098 124.426 182.068 124.531C181.851 125.079 181.43 125.521 180.894 125.763C179.546 126.555 178.174 125.532 177.29 124.256C175.723 126.343 173.948 128.265 171.992 129.993C172.435 130.157 173.013 129.996 173.44 130.033C174.167 130.121 174.468 130.993 173.695 131.77C173.245 132.204 172.667 132.483 172.047 132.564C172.152 132.593 172.25 132.643 172.335 132.71C172.421 132.777 172.492 132.861 172.545 132.956C172.599 133.052 172.632 133.156 172.645 133.265C172.657 133.373 172.648 133.482 172.617 133.587C172.401 134.135 171.98 134.577 171.443 134.82C171.156 134.991 170.83 135.084 170.496 135.091C170.162 135.099 169.832 135.019 169.538 134.861C168.768 134.429 168.123 133.806 167.663 133.053C166.991 133.417 166.296 133.737 165.583 134.011C165.583 134.011 164.318 134.349 165.075 132.606C165.075 132.606 164.506 133.651 164.211 134.237C163.916 134.823 162.817 133.378 162.93 132.378C162.686 133.067 162.366 133.726 161.977 134.344C161.549 134.326 160.417 132.27 160.554 130.997C160.554 130.997 160.413 132.917 159.737 132.994C159.13 132.293 158.676 131.474 158.405 130.588C158.133 129.701 158.05 128.768 158.161 127.848C158.007 128.457 157.789 129.048 157.513 129.611C157.075 130.477 156.781 125.477 158.066 123.318C157.813 123.669 157.498 123.971 157.136 124.209C156.25 124.737 157.499 119.989 159.971 118.602C159.971 118.602 158.932 118.616 158.681 118.839C158.727 117.974 165.404 112.075 170.042 112.502C171.429 109.835 177.827 109.342 179.967 108.951C181.631 108.337 183.152 107.389 184.437 106.167C185.84 104.447 186.745 104.758 187.471 105.739C187.666 106.033 187.771 106.378 187.773 106.731C187.775 107.083 187.674 107.429 187.483 107.726C186.698 111.654 182.884 117.004 180.287 120.01ZM178.653 122.29C178.305 122.802 177.91 123.376 177.432 124.013C178.323 124.943 179.551 125.926 180.576 125.265C180.89 125.071 181.565 124.602 181.5 124.236C181.435 123.871 180.9 124.169 180.177 123.88C179.521 123.515 178.99 122.961 178.653 122.29ZM167.83 132.893C168.638 133.903 170.045 134.999 171.117 134.311C171.443 134.119 171.72 133.854 171.926 133.536C172.115 133.212 171.919 133.026 171.736 133.022C171.372 133.074 171 133.025 170.661 132.881C170.322 132.738 170.029 132.504 169.813 132.206L169.521 131.79C169.002 132.216 168.42 132.577 167.83 132.893ZM179.171 121.49C179.653 121.992 180.678 123.062 181.391 122.931C181.711 122.891 182.018 122.778 182.288 122.603C182.559 122.427 182.786 122.192 182.953 121.917C183.232 121.239 182.321 121.63 181.578 121.45C180.834 121.27 180.787 120.941 180.146 120.217C179.798 120.624 179.476 121.052 179.18 121.499L179.171 121.49ZM170.389 131.243C170.737 131.606 171.402 132.058 171.931 132.014C173.01 131.855 173.674 131.022 173.517 130.691C173.36 130.359 172.348 130.811 171.603 130.294C171.223 130.605 170.825 130.916 170.389 131.243ZM178.992 121.768L178.823 122.038C179.83 123.089 180.012 123.503 181.015 123.506C180.17 123.16 179.465 122.542 179.011 121.751L178.992 121.768ZM169.862 131.624C170.379 132.164 170.626 132.551 171.537 132.534C170.951 132.341 170.436 131.978 170.056 131.492L169.862 131.624ZM184.411 106.53C183.76 107.178 183.059 107.773 182.314 108.308C180.204 109.83 179.776 109.384 175.576 110.196C170.433 111.235 170.377 112.573 170.146 112.723C170.141 113.406 170.327 116.636 174.07 114.173C173.546 115.135 173.352 116.242 173.52 117.324L174.813 116.085C174.446 116.931 174.325 117.863 174.464 118.774C174.988 118.267 175.399 117.655 175.668 116.978C175.623 117.937 175.688 118.898 175.862 119.843C176.138 120.596 177.069 119.24 177.528 118.247C177.351 118.962 177.398 119.714 177.664 120.401C178.116 121.413 178.87 119.798 179.031 119.09C179.192 118.383 179.09 120.604 179.732 119.989C180.16 119.579 185.556 112.623 186.922 107.996C185.738 108.381 184.753 107.13 184.429 106.513L184.411 106.53Z" fill="#090915"/>
<path fill-rule="evenodd" clip-rule="evenodd" d="M181.452 158.335C182.191 158.781 183.322 158.154 183.215 156.811C183.222 156.794 183.224 156.777 183.223 156.759C183.221 156.742 183.216 156.725 183.207 156.709C183.198 156.694 183.186 156.681 183.171 156.672C183.156 156.662 183.14 156.656 183.122 156.653C183.105 156.651 183.087 156.653 183.07 156.658C183.054 156.664 183.038 156.673 183.026 156.686C183.013 156.698 183.004 156.713 182.998 156.73C182.992 156.746 182.99 156.764 182.992 156.782L182.692 157.278C182.554 157.576 182.314 157.815 182.014 157.952C181.855 158.031 181.685 158.085 181.51 158.114C181.495 158.107 181.478 158.103 181.461 158.103C181.444 158.104 181.427 158.107 181.412 158.115C181.397 158.122 181.383 158.132 181.372 158.145C181.362 158.158 181.354 158.174 181.349 158.19C181.345 158.206 181.344 158.223 181.347 158.24C181.35 158.257 181.357 158.273 181.367 158.286C181.377 158.3 181.389 158.312 181.404 158.32C181.419 158.329 181.435 158.334 181.452 158.335ZM112.169 213.422C111.43 213.548 110.671 213.397 110.038 212.997C109.404 212.598 108.94 211.979 108.734 211.259C109.478 211.199 110.224 211.35 110.887 211.694C111.549 212.038 112.101 212.561 112.481 213.204C113.152 213.489 114.01 213.812 114.838 214.086C112.754 212.827 113.383 211.161 113.383 211.161C115.399 211.761 116.078 213.104 115.847 214.409C116.909 214.719 118.066 214.996 119.181 215.218C116.573 214.004 117.298 212.08 117.298 212.08C119.32 212.668 120.008 214.047 119.755 215.339C120.877 215.549 122.138 215.754 123.306 215.887C120.42 214.686 121.19 212.638 121.19 212.638C123.166 213.229 123.876 214.546 123.675 215.824C123.652 215.951 123.584 216.065 123.482 216.144C122.909 216.767 122.167 217.209 121.347 217.417C120.527 217.624 119.664 217.589 118.864 217.314C119.141 216.925 119.494 216.597 119.903 216.349C120.311 216.101 120.765 215.939 121.238 215.873C120.527 215.805 119.962 215.719 119.443 215.632C118.817 216.201 118.044 216.585 117.212 216.739C116.379 216.893 115.521 216.812 114.732 216.505C115.097 216.103 115.543 215.782 116.04 215.564C116.538 215.345 117.076 215.234 117.619 215.238C116.932 215.079 116.303 214.925 115.66 214.718C115.021 215.269 114.242 215.632 113.409 215.767C112.576 215.902 111.721 215.802 110.941 215.48C111.368 215.038 111.891 214.7 112.47 214.493C113.049 214.287 113.668 214.217 114.278 214.29C113.559 214.042 112.854 213.753 112.169 213.422ZM127.62 181.472C123.608 182.285 122.409 179.635 122.409 179.635C122.832 179.357 123.308 179.169 123.807 179.082C124.306 178.995 124.818 179.011 125.31 179.129C125.803 179.247 126.266 179.465 126.671 179.769C127.076 180.074 127.415 180.457 127.666 180.897C128.58 181.234 129.465 181.642 130.314 182.12C129.813 181.482 129.485 180.726 129.362 179.924C129.24 179.122 129.327 178.302 129.615 177.544C130.597 178.036 131.369 178.865 131.79 179.879C132.211 180.893 132.253 182.025 131.909 183.067C132.626 183.5 133.296 184.01 134.015 184.565C133.644 183.951 133.419 183.26 133.354 182.546C133.29 181.832 133.389 181.113 133.644 180.443C134.645 180.956 135.425 181.817 135.837 182.863C136.249 183.91 136.266 185.071 135.884 186.129C136.413 186.599 136.922 187.102 137.482 187.696C137.236 187.077 137.123 186.414 137.151 185.749C137.179 185.084 137.347 184.432 137.645 183.836C138.571 184.436 139.252 185.348 139.566 186.406C139.879 187.465 139.803 188.6 139.352 189.608C139.269 189.797 139.162 189.975 139.033 190.137C138.281 190.955 137.262 191.476 136.159 191.605C135.056 191.735 133.944 191.464 133.023 190.843C133.719 190.023 134.673 189.466 135.729 189.263C136.785 189.06 137.878 189.224 138.828 189.728C137.809 188.665 136.736 187.656 135.613 186.703C134.872 187.566 133.841 188.126 132.714 188.279C131.588 188.431 130.444 188.164 129.502 187.528C130.168 186.767 131.062 186.24 132.051 186.024C133.04 185.808 134.072 185.916 134.995 186.33C133.904 185.415 132.757 184.567 131.562 183.791C130.814 184.624 129.789 185.158 128.678 185.295C127.566 185.432 126.443 185.162 125.515 184.535C126.095 183.816 126.874 183.283 127.754 183.004C128.635 182.724 129.578 182.711 130.466 182.964C129.5 182.396 128.434 181.843 127.62 181.472ZM105.247 191.11C101.43 190.777 98.8719 188.36 98.8444 183.843C98.8444 183.843 104.026 183.511 106.062 190.533C107.376 191.522 109.063 192.691 110.711 193.701C109.598 192.542 108.843 191.086 108.538 189.508C108.233 187.931 108.391 186.298 108.992 184.808C112.99 187.011 114.008 191.057 112.86 194.953C115.051 196.165 117.312 197.248 119.629 198.197C118.224 197.072 117.22 195.523 116.764 193.782C116.308 192.04 116.426 190.198 117.099 188.529C121.101 190.749 122.131 194.802 120.951 198.725C123.535 199.761 126.173 200.66 128.852 201.417C127.183 200.362 125.938 198.756 125.331 196.878C124.725 194.999 124.796 192.968 125.532 191.137C129.545 193.364 130.562 197.438 129.367 201.337C129.325 201.585 129.213 201.815 129.042 201.999C128.218 202.934 127.237 203.716 126.142 204.311C124.926 204.982 123.552 205.313 122.164 205.27C120.776 205.226 119.426 204.81 118.255 204.064C119.616 202.281 121.627 201.11 123.849 200.805C122.632 200.477 121.398 200.078 120.213 199.648C117.24 202.504 113.137 203.443 109.344 200.852C110.196 199.885 111.259 199.127 112.451 198.636C113.642 198.145 114.93 197.933 116.216 198.018C114.811 197.38 113.449 196.694 112.143 195.965C109.131 198.661 105.161 199.455 101.498 196.973C102.453 195.86 103.685 195.018 105.069 194.533C106.453 194.048 107.941 193.936 109.382 194.208C107.91 193.269 106.51 192.222 105.192 191.077L105.247 191.11ZM149.515 208.369C148.466 207.615 149.425 206.027 150.469 205.318C150.534 205.251 150.615 205.202 150.705 205.177C150.795 205.152 150.891 205.152 150.981 205.177C151.071 205.202 151.152 205.251 151.217 205.319C151.281 205.386 151.326 205.47 151.346 205.562C151.472 205.96 151.53 206.377 151.519 206.795C152.434 205.105 153.66 204.446 153.83 206.233C153.914 206.732 153.817 207.245 153.555 207.678C153.294 208.111 152.885 208.436 152.405 208.594C153.4 209.014 153.727 209.843 152.964 210.933C152.456 211.65 152.016 211.73 151.705 211.572C151.439 211.397 151.235 211.142 151.122 210.844C151.013 211.922 150.664 213.246 149.588 213.184C148.513 213.121 148.802 212.168 149.238 211.272C148.075 212.225 147.506 211.099 147.939 209.66C148.013 209.296 148.21 208.969 148.497 208.734C148.784 208.498 149.144 208.37 149.515 208.369ZM151.618 208.751C151.496 209.065 151.32 209.356 151.098 209.611C151.162 209.755 151.429 211.556 152.146 211.191C152.498 210.982 153.24 210.001 152.867 209.399C152.547 209.034 152.101 208.802 151.618 208.751ZM150.089 210.236C149.623 211.008 148.679 212.77 149.583 212.819C150.486 212.868 150.715 210.944 150.77 209.955C150.589 210.122 150.357 210.225 150.111 210.249L150.089 210.236ZM151.718 208.36C152.037 208.34 152.346 208.238 152.615 208.065C152.884 207.891 153.103 207.652 153.253 207.369C153.403 207.086 153.477 206.77 153.469 206.45C153.461 206.13 153.372 205.818 153.208 205.542C153.098 205.476 152.908 205.617 152.797 205.7C152.243 206.193 151.81 206.808 151.533 207.495C151.629 207.607 151.698 207.738 151.735 207.881C151.772 208.023 151.775 208.172 151.745 208.316L151.718 208.36ZM150.129 208.499C150.409 208.036 151.228 207.402 151.393 207.877C151.405 208.291 151.298 208.699 151.084 209.053C150.87 209.407 150.559 209.692 150.187 209.874C149.608 210.035 149.823 209.006 150.096 208.479L150.129 208.499ZM149.904 208.574C147.768 208.172 147.684 211.402 148.475 211.338C148.94 211.317 149.56 210.488 149.807 210.155C149.333 209.794 149.584 209.028 149.871 208.554L149.904 208.574ZM151.241 207.38C151.313 206.775 151.258 206.162 151.078 205.581C150.986 205.435 150.88 205.386 150.648 205.547C149.53 206.301 148.662 207.914 149.955 208.439C150.035 208.307 150.561 207.435 151.173 207.369L151.241 207.38ZM138.3 215.729C138.097 215.483 137.992 215.169 138.007 214.85C138.022 214.531 138.155 214.229 138.38 214.002C139.156 213.041 140.25 212.873 140.211 214.084C140.637 213.378 141.251 212.861 141.759 213.514C142.268 214.167 141.658 215.078 140.952 215.675C141.898 215.554 142.214 216.076 141.883 216.974C141.551 217.873 140.79 218.211 139.994 217.76C140.114 218.167 140.083 218.604 139.905 218.989C139.728 219.375 139.416 219.683 139.029 219.856C137.735 220.58 137.455 219.523 138.194 217.998C137.829 218.229 137.157 218.621 136.826 218.346C136.275 217.863 136.965 215.299 138.267 215.709L138.3 215.729ZM140.04 216.313C139.97 216.574 139.856 216.821 139.704 217.043C139.978 217.346 140.353 217.54 140.759 217.59C141.377 217.587 141.667 216.633 141.644 216.273C141.62 215.913 141.247 216.033 140.975 216.035C140.665 216.088 140.363 216.178 140.075 216.304L140.04 216.313ZM138.746 217.609C138.373 218.226 137.743 219.818 138.448 219.671C138.732 219.6 138.993 219.457 139.204 219.255C139.416 219.053 139.572 218.799 139.656 218.519C139.712 218.117 139.638 217.708 139.442 217.352C139.349 217.448 139.234 217.519 139.107 217.56C138.98 217.602 138.844 217.611 138.713 217.589L138.746 217.609ZM140.118 215.834C140.82 215.369 142.02 214.378 141.516 213.668C141.012 212.957 140.285 214.535 139.994 215.217C140.085 215.402 140.117 215.61 140.085 215.814L140.118 215.834ZM138.714 216.115C138.899 215.685 139.535 215.105 139.704 215.523C139.755 215.855 139.711 216.195 139.575 216.503C139.44 216.81 139.22 217.073 138.941 217.26C138.479 217.402 138.472 216.541 138.681 216.095L138.714 216.115ZM138.582 216.035C138.306 215.869 137.887 215.691 137.477 216.12C137.067 216.55 136.763 217.977 136.983 218.11C137.204 218.243 138.184 217.616 138.455 217.418C138.074 216.902 138.498 216.15 138.549 216.015L138.582 216.035ZM139.705 215.073C139.832 214.713 140.061 213.933 139.83 213.643C139.599 213.353 138.867 213.769 138.534 214.17C138.32 214.419 138.21 214.74 138.224 215.068C138.239 215.395 138.378 215.705 138.613 215.933C138.791 215.439 139.208 214.923 139.683 215.059L139.705 215.073ZM140.603 203.29C140.965 203.388 141.043 204.007 141.071 204.385C141.963 202.907 142.68 203.114 142.823 204.149C142.886 204.496 142.819 204.855 142.637 205.157C142.454 205.459 142.168 205.685 141.831 205.792C142.493 206.192 142.761 206.745 142.202 207.521C141.643 208.297 141.169 208.161 140.812 207.555C140.796 207.933 140.692 208.303 140.507 208.634C140.451 208.748 140.369 208.847 140.267 208.924C140.166 209 140.048 209.052 139.923 209.075C139.798 209.097 139.67 209.09 139.548 209.054C139.426 209.018 139.315 208.954 139.222 208.867C138.974 208.581 139.116 208.096 139.261 207.732C138.809 208.031 138.467 207.9 138.32 207.57C138.239 207.335 138.207 207.086 138.224 206.838C138.242 206.59 138.31 206.348 138.423 206.127C138.526 205.955 138.674 205.814 138.85 205.72C139.027 205.625 139.226 205.58 139.426 205.589C138.564 204.873 139.998 203.12 140.57 203.27L140.603 203.29ZM141.192 205.978C141.115 206.18 141.003 206.367 140.859 206.53C140.915 206.951 141.107 207.342 141.406 207.642C141.594 207.756 141.811 207.495 141.935 207.315C142.426 206.602 142.051 206.151 141.159 205.958L141.192 205.978ZM140.036 206.996C139.83 207.338 139.237 208.319 139.499 208.658C139.632 208.738 139.994 208.836 140.22 208.461C140.44 207.953 140.532 207.399 140.487 206.847C140.354 206.939 140.198 206.991 140.036 206.996ZM142.293 205.002C142.386 204.82 142.438 204.62 142.448 204.415C142.457 204.21 142.423 204.006 142.347 203.816C142.27 203.619 142.171 203.634 142.005 203.76C141.604 204.08 141.294 204.5 141.104 204.977C141.172 205.06 141.221 205.155 141.25 205.258C141.279 205.361 141.286 205.468 141.271 205.574C141.473 205.564 141.67 205.506 141.845 205.406C142.021 205.305 142.171 205.165 142.282 204.996L142.293 205.002ZM139.965 205.718C139.765 206.049 139.681 206.736 140.039 206.667C140.245 206.574 140.426 206.433 140.567 206.257C140.708 206.08 140.804 205.872 140.848 205.65C141.027 204.855 140.373 205.167 139.965 205.718ZM139.746 205.782C138.184 205.502 138.236 207.685 138.773 207.693C139.31 207.701 139.508 207.173 139.696 206.911C139.346 206.519 139.679 205.892 139.772 205.738L139.746 205.782ZM140.742 204.879C140.764 204.395 140.724 203.363 140.295 203.601C139.467 204.124 138.883 205.216 139.846 205.617C139.925 205.426 140.05 205.258 140.208 205.126C140.366 204.993 140.554 204.901 140.756 204.857L140.742 204.879ZM195.644 115.285C194.936 114.737 195.58 113.621 196.321 113.091C196.375 113.043 196.44 113.01 196.509 112.994C196.579 112.977 196.652 112.978 196.721 112.996C196.79 113.014 196.854 113.049 196.907 113.097C196.959 113.146 197 113.206 197.023 113.274C197.127 113.529 197.187 113.799 197.202 114.074C198.041 112.684 198.788 112.744 198.885 113.78C198.966 114.125 198.918 114.488 198.749 114.8C198.581 115.111 198.303 115.35 197.97 115.47C198.682 115.81 198.906 116.412 198.407 117.239C197.907 118.066 197.373 117.879 197.01 117.284C196.942 118.07 196.685 118.894 195.892 118.836C195.099 118.779 195.201 118.163 195.45 117.501C194.631 118.06 194.213 117.206 194.483 116.21C194.536 115.943 194.681 115.704 194.894 115.534C195.106 115.365 195.372 115.277 195.644 115.285ZM197.342 115.663C197.262 115.869 197.147 116.059 197.002 116.226C197.107 116.65 197.329 117.205 197.574 117.323C197.818 117.441 197.967 117.169 198.102 116.995C198.356 116.576 198.372 116.3 198.22 116.103C197.976 115.874 197.671 115.722 197.342 115.663ZM196.223 116.718C196.017 117.06 195.49 118.082 195.715 118.383C195.737 118.416 195.766 118.444 195.8 118.465C195.835 118.486 195.873 118.499 195.913 118.503C196.62 118.553 196.652 117.278 196.661 116.591C196.529 116.672 196.378 116.716 196.223 116.718ZM197.435 115.283C197.61 115.283 197.782 115.243 197.939 115.167C198.096 115.092 198.234 114.982 198.344 114.846C198.453 114.71 198.531 114.552 198.571 114.382C198.612 114.213 198.614 114.036 198.577 113.866C198.497 113.276 198.345 113.304 198.136 113.449C197.747 113.781 197.446 114.204 197.258 114.68C197.329 114.762 197.382 114.858 197.412 114.962C197.443 115.066 197.451 115.176 197.435 115.283ZM196.171 115.408C196.371 115.077 196.964 114.668 197.058 115.01C197.071 115.288 197.001 115.562 196.858 115.8C196.714 116.037 196.504 116.227 196.253 116.345C195.899 116.432 196.005 115.759 196.171 115.408ZM195.952 115.471C194.395 115.209 194.469 117.405 195.002 117.395C195.534 117.386 195.743 116.865 195.914 116.607C195.612 116.334 195.739 115.824 195.952 115.471ZM196.927 114.555C196.942 114.082 196.887 113.026 196.473 113.288C195.632 113.833 195.088 114.934 196.046 115.317C196.123 115.132 196.242 114.969 196.394 114.838C196.546 114.708 196.726 114.615 196.92 114.566L196.927 114.555ZM188.169 120.313C187.938 120.065 187.808 119.739 187.804 119.4C187.8 119.061 187.922 118.733 188.147 118.479C188.934 117.45 190.121 117.203 190.153 118.547C190.311 118.251 190.518 117.984 190.765 117.757C190.835 117.685 190.92 117.628 191.015 117.592C191.109 117.555 191.209 117.538 191.31 117.544C191.411 117.549 191.509 117.576 191.599 117.622C191.689 117.669 191.767 117.734 191.83 117.813C192.522 118.562 191.812 119.488 191.048 120.155C192.034 119.968 192.53 120.418 192.202 121.484C192.174 121.706 192.088 121.917 191.953 122.095C191.819 122.274 191.64 122.414 191.435 122.503C191.229 122.592 191.005 122.625 190.782 122.601C190.56 122.576 190.348 122.494 190.167 122.362C190.338 122.787 190.338 123.26 190.169 123.685C189.999 124.109 189.673 124.452 189.257 124.642C187.834 125.454 187.555 124.247 188.27 122.662C187.954 122.898 187.597 123.076 187.217 123.185C187.138 123.217 187.052 123.228 186.967 123.217C186.882 123.206 186.802 123.174 186.733 123.124C186.664 123.073 186.609 123.006 186.573 122.928C186.538 122.85 186.523 122.765 186.529 122.679C186.409 121.508 187.043 120.01 188.162 120.324L188.169 120.313ZM190.114 120.855C190.042 121.139 189.925 121.409 189.767 121.654C190.101 121.943 190.512 122.128 190.95 122.188C191.297 122.187 191.609 121.969 191.803 121.348C191.996 120.728 191.852 120.37 191.096 120.5C190.755 120.59 190.424 120.713 190.107 120.866L190.114 120.855ZM188.755 122.308C188.404 122.874 188.205 123.521 188.178 124.186C188.189 124.343 188.23 124.474 188.336 124.523C188.626 124.511 188.906 124.42 189.147 124.259C189.388 124.098 189.58 123.874 189.701 123.611C189.823 123.348 189.869 123.056 189.835 122.769C189.801 122.481 189.689 122.208 189.51 121.981C189.418 122.089 189.302 122.176 189.171 122.232C189.04 122.289 188.898 122.315 188.755 122.308ZM190.144 120.407C190.914 119.879 192.198 118.773 191.555 118.069C190.912 117.364 190.223 118.98 189.929 119.766C190.067 119.948 190.144 120.168 190.15 120.396L190.144 120.407ZM188.616 120.719C188.889 120.267 189.467 119.608 189.692 120.059C189.778 120.409 189.755 120.777 189.625 121.113C189.494 121.449 189.264 121.737 188.964 121.937C188.469 122.135 188.453 121.238 188.616 120.719ZM188.484 120.639C188.3 120.517 188.08 120.46 187.86 120.477C187.64 120.494 187.431 120.584 187.268 120.733C186.708 121.312 186.576 122.753 186.847 122.901C187.118 123.05 188.145 122.346 188.453 122.11C188.068 121.652 188.375 120.919 188.484 120.639ZM189.666 119.577C189.791 119.171 190.023 118.288 189.728 118.004C189.433 117.721 188.643 118.207 188.29 118.641C188.176 118.777 188.092 118.935 188.042 119.105C187.992 119.275 187.978 119.454 188 119.63C188.023 119.806 188.081 119.975 188.172 120.128C188.263 120.28 188.384 120.412 188.528 120.515C188.737 119.994 189.167 119.456 189.666 119.577ZM247.556 60.5304C245.439 61.4195 246.441 59.1354 247.063 58.7284C247.18 58.641 247.317 58.5865 247.462 58.5705C247.607 58.5546 247.753 58.5778 247.886 58.6378C247.13 57.098 249.935 55.8418 249.747 57.4741C250.002 57.1765 250.369 56.8417 250.745 56.9178C250.867 56.9664 250.976 57.0429 251.062 57.1413C251.149 57.2396 251.212 57.357 251.245 57.4839C251.278 57.6108 251.281 57.7438 251.254 57.8721C251.226 58.0003 251.169 58.1203 251.086 58.2223C250.868 58.5138 250.593 58.7575 250.278 58.9382C250.984 58.9888 251.297 59.4182 250.882 60.2059C250.466 60.9935 249.863 61.0957 249.113 60.6429C249.143 60.8725 249.12 61.1059 249.047 61.3255C248.701 62.5464 245.991 62.972 247.556 60.5304ZM249.038 59.9202C249.238 60.1957 249.522 60.3989 249.847 60.4991C250.092 60.5418 250.344 60.4231 250.582 59.9797C250.688 59.8032 250.862 59.5165 250.637 59.3656C250.236 59.2258 249.799 59.2277 249.399 59.3711C249.299 59.5667 249.178 59.7508 249.038 59.9202ZM249.433 58.4432C249.507 58.5873 249.535 58.7513 249.511 58.9118C250.153 58.6219 251.221 57.973 250.865 57.3667C250.509 56.7603 249.763 57.9205 249.433 58.4432ZM248.137 60.3398C247.795 60.7269 247.559 61.1958 247.451 61.7011C247.398 61.7894 247.435 61.9022 247.494 61.9532C247.711 61.981 247.932 61.9496 248.132 61.8623C248.332 61.775 248.506 61.6351 248.633 61.4574C248.76 61.2797 248.837 61.0708 248.855 60.8529C248.874 60.635 248.832 60.4163 248.736 60.2199C248.65 60.2789 248.552 60.3199 248.449 60.3405C248.346 60.3611 248.24 60.3608 248.137 60.3398ZM248.269 59.0498C248.469 58.719 249.066 58.3273 249.143 58.6744C249.155 58.9516 249.085 59.2262 248.942 59.4637C248.799 59.7012 248.588 59.8909 248.337 60.0089C247.959 60.0366 248.082 59.3587 248.26 59.0145L248.269 59.0498ZM249.21 58.2636C249.377 57.9879 249.628 57.3721 249.483 57.0889C249.338 56.8057 248.645 57.08 248.329 57.3553C248.227 57.4429 248.143 57.5498 248.083 57.6699C248.022 57.79 247.986 57.9209 247.976 58.0551C247.967 58.1892 247.984 58.3239 248.027 58.4514C248.069 58.5789 248.137 58.6966 248.225 58.7978C248.427 58.4383 248.808 58.0814 249.201 58.2283L249.21 58.2636ZM248.132 58.9522C247.33 58.2872 246.624 59.3061 246.536 60.2758C246.488 60.8037 247.45 60.3313 247.868 60.0872C247.813 59.886 247.807 59.6744 247.852 59.4706C247.896 59.2667 247.989 59.0767 248.123 58.9169L248.132 58.9522ZM248.246 52.2336C247.046 52.849 246.687 51.6991 247.245 50.5009C247.365 50.1822 247.599 49.9194 247.902 49.7631C248.205 49.6068 248.555 49.5682 248.884 49.6547C248.096 48.8174 249.109 47.563 250.164 47.0864C250.991 46.7131 251.073 47.7252 250.966 48.6242C252.053 47.2484 253.224 46.9777 253.171 48.586C253.2 49.041 253.051 49.4895 252.755 49.836C252.458 50.1826 252.038 50.4 251.584 50.442C251.787 50.5407 251.96 50.6909 252.087 50.8774C252.213 51.064 252.288 51.2805 252.305 51.5053C252.322 51.7301 252.279 51.9553 252.181 52.1584C252.084 52.3616 251.934 52.5356 251.749 52.663C250.958 53.4496 250.335 53.2093 250.046 52.2673C249.807 53.2365 249.3 54.3001 248.333 54.0323C247.366 53.7646 247.74 52.9216 248.237 52.1982L248.246 52.2336ZM250.27 51.1234C250.292 51.48 250.351 51.8333 250.446 52.1777C250.681 52.9362 251.01 52.9393 251.53 52.426C252.051 51.9126 252.036 51.5877 251.876 51.2802C251.628 50.9122 251.27 50.6326 250.853 50.482C250.689 50.7137 250.489 50.9181 250.261 51.088L250.27 51.1234ZM251.002 50.0604C251.227 50.1111 251.461 50.1096 251.685 50.0558C251.909 50.0021 252.118 49.8976 252.296 49.7504C252.473 49.6032 252.615 49.4172 252.709 49.2067C252.804 48.9963 252.848 48.767 252.84 48.5365C252.845 48.3288 252.846 47.9532 252.694 47.8313C252.542 47.7093 252.484 47.7799 252.323 47.8479C251.751 48.1875 251.272 48.6637 250.929 49.2339C250.998 49.3528 251.039 49.4854 251.05 49.6222C251.061 49.7591 251.042 49.8966 250.993 50.025L251.002 50.0604ZM249.244 51.452C248.679 52.089 247.648 53.498 248.5 53.6815C249.352 53.865 249.785 52.2754 249.912 51.3433C249.808 51.4083 249.693 51.4521 249.572 51.4723C249.451 51.4924 249.328 51.4885 249.209 51.4607L249.244 51.452ZM249.465 49.8397C249.848 49.4541 250.649 49.0497 250.705 49.5802C250.666 49.9394 250.519 50.2784 250.284 50.5526C250.048 50.8268 249.736 51.0234 249.386 51.1165C248.836 51.1305 249.106 50.285 249.43 49.8484L249.465 49.8397ZM250.627 49.0364C250.703 48.661 250.91 47.4464 250.586 47.2356C250.261 47.0248 247.784 48.7348 249.335 49.7311C249.543 49.4628 249.804 49.2414 250.103 49.0814C250.258 49.0244 250.426 49.0156 250.585 49.0562L250.627 49.0364ZM249.244 49.8568C247.353 49.0761 246.883 51.9228 247.588 52.0772C248.003 52.1623 248.667 51.5852 248.968 51.2855C248.576 50.9133 248.872 50.249 249.202 49.8765L249.244 49.8568ZM160.255 109.616C159.308 109.963 159.779 108.336 160.419 108.422C160.103 107.749 161.252 107.043 161.425 107.629C161.901 107.089 162.414 107.685 162.15 108.172C162.106 108.28 162.046 108.381 161.97 108.47C162.575 108.64 162.137 109.865 161.382 109.619C161.35 110.519 159.743 110.813 160.255 109.616ZM161.348 108.877L161.235 109.064C161.537 109.337 161.679 109.227 161.772 108.997C161.806 108.941 161.82 108.875 161.81 108.81C161.647 108.794 161.482 108.825 161.335 108.899L161.348 108.877ZM163.099 102.861C162.871 102.964 162.513 103.109 162.319 102.932C162.125 102.755 162.474 101.129 163.278 101.344C162.688 100.326 164.53 99.2702 164.584 100.326C165.305 99.407 165.93 100.266 165.577 100.926C165.462 101.124 165.311 101.298 165.131 101.439C165.58 101.469 165.811 101.759 165.573 102.353C165.335 102.947 164.877 103.107 164.39 102.842C164.424 103.089 164.373 103.339 164.244 103.552C164.116 103.765 163.918 103.927 163.684 104.012C163 104.321 162.595 103.896 163.086 102.883L163.099 102.861ZM160.673 109.372C160.552 109.575 160.476 109.802 160.453 110.037L160.614 109.969C160.676 109.948 160.732 109.915 160.78 109.871C160.828 109.827 160.866 109.774 160.892 109.714C160.918 109.655 160.931 109.591 160.931 109.526C160.931 109.461 160.916 109.397 160.89 109.338C160.839 109.381 160.779 109.412 160.715 109.428L160.673 109.372ZM161.292 108.347C161.487 108.223 161.875 107.931 161.734 107.74C161.593 107.55 161.339 108.119 161.253 108.263C161.284 108.281 161.311 108.304 161.332 108.333C161.354 108.361 161.369 108.394 161.378 108.429L161.292 108.347ZM164.319 101.837C164.269 101.971 164.194 102.094 164.1 102.201C164.512 102.615 164.894 102.68 165.123 102.126C165.183 102.027 165.247 101.795 165.137 101.729C165.027 101.662 164.622 101.809 164.381 101.859L164.319 101.837ZM160.641 109.052C160.729 108.98 160.801 108.889 160.85 108.786C160.899 108.683 160.925 108.57 160.925 108.456C160.965 108.39 160.684 108.581 160.62 108.663C160.585 108.789 160.582 108.922 160.612 109.05L160.641 109.052ZM160.964 108.118C161.017 108.03 161.091 107.758 161.029 107.661C160.967 107.564 160.176 107.928 160.543 108.466C160.586 108.366 160.661 108.282 160.756 108.228C160.851 108.174 160.961 108.153 161.07 108.167L160.964 108.118ZM160.461 108.627C160.086 108.401 159.848 108.919 159.856 109.33C160.029 109.29 160.193 109.215 160.336 109.108C160.357 108.941 160.439 108.787 160.567 108.676L160.461 108.627ZM163.473 102.59C163.287 102.899 162.896 103.746 163.216 103.714C163.38 103.69 163.535 103.622 163.663 103.516C163.791 103.409 163.887 103.27 163.94 103.113C163.985 102.901 163.953 102.679 163.851 102.487C163.779 102.549 163.692 102.59 163.599 102.606L163.473 102.59ZM164.389 101.397C164.772 101.162 165.447 100.667 165.176 100.293C164.906 99.9185 164.472 100.786 164.312 101.126C164.401 101.214 164.464 101.325 164.495 101.446L164.389 101.397ZM163.469 101.625C163.589 101.426 163.95 101.102 164.031 101.317C164.112 101.531 163.553 102.533 163.479 102.232C163.453 102.041 163.487 101.846 163.575 101.674L163.469 101.625ZM163.348 101.552C162.741 101.185 162.342 101.922 162.346 102.587C162.348 102.709 162.381 102.729 162.479 102.667C162.76 102.605 163.024 102.482 163.253 102.307C163.236 102.186 163.244 102.063 163.277 101.945C163.309 101.828 163.365 101.718 163.441 101.622L163.348 101.552ZM164.068 100.933C164.174 100.756 164.297 100.304 164.178 100.126C164.059 99.9494 163.617 100.209 163.422 100.407C163.354 100.472 163.299 100.55 163.262 100.636C163.225 100.722 163.205 100.815 163.205 100.909C163.204 101.003 163.223 101.096 163.259 101.182C163.296 101.269 163.349 101.347 163.417 101.412C163.641 101.216 163.875 100.952 164.16 101.004L164.068 100.933ZM153.724 113.529C152.209 114.27 152.777 112.431 153.291 112.004C153.373 111.932 153.473 111.881 153.579 111.856C153.686 111.832 153.797 111.833 153.903 111.862C153.252 110.746 155.295 109.556 155.351 110.734C155.421 110.604 155.525 110.495 155.651 110.418C155.776 110.34 155.921 110.298 156.068 110.294C156.175 110.323 156.273 110.376 156.355 110.45C156.437 110.524 156.5 110.616 156.539 110.719C156.578 110.822 156.592 110.933 156.58 111.043C156.568 111.152 156.53 111.257 156.47 111.349C156.338 111.569 156.166 111.761 155.962 111.916C156.464 111.933 156.726 112.271 156.461 112.909C156.196 113.547 155.69 113.738 155.158 113.447C155.201 113.719 155.146 113.998 155.004 114.234C154.861 114.47 154.64 114.648 154.379 114.737C153.72 115.182 153.27 114.73 153.817 113.6L153.724 113.529ZM155.199 112.433C155.141 112.577 155.06 112.712 154.959 112.83C155.419 113.289 155.841 113.363 156.086 112.758C156.159 112.637 156.22 112.387 156.098 112.314C155.977 112.241 155.506 112.423 155.291 112.504L155.199 112.433ZM154.249 113.259C154.042 113.601 153.595 114.565 153.976 114.509C154.158 114.479 154.328 114.4 154.469 114.281C154.61 114.162 154.716 114.007 154.775 113.833C154.824 113.602 154.794 113.361 154.691 113.15C154.599 113.249 154.475 113.313 154.341 113.33L154.249 113.259ZM155.266 111.947C155.691 111.692 156.439 111.15 156.138 110.728C155.836 110.305 155.372 111.273 155.174 111.651C155.278 111.747 155.343 111.877 155.359 112.018L155.266 111.947ZM157.422 104.114C156.881 103.29 158.289 102.229 158.523 103.063C158.802 102.6 159.147 102.627 159.365 102.864C159.583 103.101 159.5 103.638 159.172 103.982C159.523 103.998 159.713 104.308 159.588 104.789C159.462 105.27 159.044 105.515 158.623 105.365C158.805 106.409 157.082 107.144 157.293 105.872C157.383 105.324 157.48 105.563 157.018 105.706C156.972 105.728 156.921 105.738 156.87 105.735C156.819 105.732 156.769 105.717 156.726 105.691C156.682 105.665 156.645 105.628 156.619 105.584C156.593 105.54 156.579 105.49 156.576 105.439C156.697 104.865 156.987 104.137 157.514 104.185L157.422 104.114ZM154.258 112.196C154.385 111.987 154.783 111.625 154.869 111.858C154.954 112.09 154.346 113.197 154.263 112.861C154.234 112.659 154.265 112.452 154.351 112.267L154.258 112.196ZM158.552 104.51C158.525 104.621 158.485 104.728 158.434 104.83C158.82 105.063 159.081 105.13 159.221 104.673C159.261 104.607 159.288 104.413 159.222 104.373C159.156 104.333 158.799 104.524 158.645 104.581L158.552 104.51ZM154.112 112.138C153.44 111.732 152.993 112.546 153.009 113.293C152.949 113.392 153.044 113.435 153.152 113.38C153.458 113.311 153.745 113.176 153.993 112.984C153.96 112.708 154.036 112.43 154.205 112.209L154.112 112.138ZM154.912 111.462C155.032 111.264 155.152 110.765 155.029 110.57C154.906 110.375 154.404 110.659 154.195 110.879C154.119 110.95 154.058 111.035 154.016 111.13C153.974 111.225 153.952 111.328 153.951 111.432C153.951 111.536 153.971 111.639 154.012 111.735C154.053 111.83 154.113 111.917 154.188 111.988C154.414 111.764 154.68 111.473 155.004 111.533L154.912 111.462ZM157.845 105.257C157.684 105.542 157.617 105.871 157.655 106.196C157.798 106.166 157.93 106.097 158.036 105.996C158.142 105.895 158.218 105.767 158.255 105.625C158.266 105.458 158.232 105.292 158.155 105.143C158.104 105.226 158.028 105.291 157.938 105.328L157.845 105.257ZM158.571 104.055C158.854 103.835 159.359 103.372 159.137 103.118C158.914 102.863 158.623 103.62 158.521 103.889C158.58 103.959 158.623 104.042 158.646 104.13L158.571 104.055ZM157.792 104.398C157.866 104.276 158.039 103.99 158.189 104.065C158.225 104.217 158.217 104.377 158.166 104.524C158.114 104.672 158.021 104.801 157.897 104.897C157.846 105.032 157.825 104.643 157.874 104.462L157.792 104.398ZM157.66 104.318C156.954 103.892 156.782 105.398 156.994 105.421C157.218 105.348 157.422 105.224 157.589 105.058C157.567 104.949 157.566 104.838 157.588 104.729C157.61 104.621 157.653 104.518 157.715 104.426L157.66 104.318ZM158.232 103.67C158.312 103.537 158.366 103.149 158.26 103.025C158.154 102.901 157.811 103.145 157.665 103.312C157.613 103.37 157.573 103.438 157.547 103.511C157.522 103.584 157.511 103.662 157.517 103.74C157.522 103.817 157.542 103.893 157.577 103.962C157.612 104.031 157.661 104.093 157.72 104.143C157.769 104.034 157.849 103.942 157.949 103.877C158.05 103.812 158.167 103.778 158.287 103.778L158.232 103.67ZM227.036 23.252C226.8 22.9775 226.673 22.6254 226.681 22.2633C226.689 21.9012 226.83 21.5546 227.077 21.2901C227.999 20.1614 229.21 20.0498 229.032 21.5672C229.518 20.7621 230.198 19.984 230.799 20.7081C231.401 21.4322 230.556 22.5325 229.717 23.1997C230.807 22.9397 231.349 23.3875 230.941 24.511C230.534 25.6345 229.643 25.864 228.743 25.2606C228.925 25.7121 228.924 26.2163 228.742 26.6674C228.559 27.1184 228.209 27.4812 227.765 27.6795C226.235 28.5171 226.158 27.1007 226.995 25.5143C226.218 26.0535 225.167 26.5478 225.156 25.5933C225.149 24.3847 225.891 22.8313 227.036 23.252ZM228.873 23.774C228.787 24.0931 228.645 24.3947 228.455 24.6655C228.637 24.8392 228.841 24.9876 229.062 25.1068C229.779 25.5396 230.345 25.3246 230.672 24.4086C230.845 24.1219 230.902 23.6293 230.602 23.4782C230.106 23.1786 228.745 23.862 228.933 23.7499L228.873 23.774ZM227.446 25.2151C227.08 25.8217 226.426 27.4284 226.872 27.6373C227.189 27.6295 227.497 27.5361 227.765 27.3668C228.033 27.1975 228.25 26.9588 228.393 26.6761C228.536 26.3933 228.599 26.0771 228.577 25.7611C228.554 25.4451 228.446 25.1411 228.265 24.8815C228.173 25.0171 228.046 25.1243 227.896 25.1911C227.747 25.2578 227.582 25.2814 227.42 25.2592L227.446 25.2151ZM228.936 23.4207C229.795 22.8706 231.236 21.6793 230.589 20.8821C229.942 20.0849 229.115 21.8282 228.759 22.6668C228.909 22.8877 228.972 23.1561 228.936 23.4207ZM227.334 23.582C227.787 22.832 228.553 22.2862 228.599 23.1568C228.645 24.0275 227.805 25.0703 227.423 24.93C227.041 24.7898 227.249 23.9972 227.389 23.6153L227.334 23.582ZM227.235 23.5221C227.047 23.3805 226.814 23.3131 226.58 23.3329C226.346 23.3526 226.127 23.4581 225.966 23.6291C225.699 23.9389 225.51 24.3078 225.414 24.7051C225.318 25.1025 225.318 25.517 225.414 25.9144C225.767 26.1275 226.845 25.3637 227.173 25.095C226.827 24.6456 227.158 23.8975 227.316 23.5113L227.235 23.5221ZM228.481 22.529C228.644 22.0854 228.918 21.1825 228.654 20.7973C228.39 20.4121 227.516 20.9378 227.139 21.3875C227.009 21.5225 226.908 21.683 226.843 21.859C226.778 22.0349 226.751 22.2223 226.763 22.4094C226.814 22.7909 226.994 23.1435 227.272 23.4095C227.559 22.9353 228.075 22.3291 228.563 22.5182L228.481 22.529ZM218.703 31.8705C217.063 33.0171 217.135 30.1561 218.336 29.6622C218.573 29.5772 218.827 29.5499 219.076 29.5825C218.241 28.8975 219.101 27.6714 220.033 27.1503C220.752 26.7567 220.904 27.6763 220.836 28.5378C221.168 27.9863 222.002 27.0297 222.54 27.3847C222.713 27.6129 222.824 27.8819 222.863 28.1657C222.901 28.4495 222.866 28.7385 222.759 29.0045C222.653 29.2705 222.48 29.5046 222.257 29.6841C222.034 29.8635 221.768 29.9822 221.485 30.0287C222.368 30.5614 222.576 31.2137 221.887 32.0316C221.197 32.8494 220.652 32.6557 220.317 31.7158C220.173 32.6522 219.816 33.7162 218.893 33.5501C217.97 33.3841 218.366 32.5545 218.785 31.8596L218.703 31.8705ZM220.363 30.7658C220.417 31.0901 220.502 31.4085 220.617 31.7166C220.894 32.3802 221.218 32.3656 221.671 31.841C222.123 31.3163 222.077 31.0179 221.908 30.7501C221.625 30.4109 221.237 30.1765 220.805 30.0843C220.722 30.326 220.601 30.5525 220.445 30.755L220.363 30.7658ZM220.943 29.8063C221.159 29.8371 221.379 29.8183 221.587 29.7514C221.795 29.6846 221.985 29.5713 222.143 29.4202C222.301 29.2692 222.423 29.0843 222.499 28.8794C222.575 28.6745 222.603 28.4551 222.582 28.2376C222.573 28.052 222.544 27.7028 222.389 27.6096C222.014 27.3832 221.108 28.4612 220.823 29.057C220.918 29.152 220.986 29.2701 221.022 29.3996C221.057 29.529 221.058 29.6655 221.024 29.7955L220.943 29.8063ZM219.459 31.1677C218.966 31.8336 218.127 33.1482 218.931 33.2873C219.735 33.4265 220.06 31.8918 220.098 30.9816C219.936 31.0985 219.74 31.16 219.54 31.1569L219.459 31.1677ZM220.63 29.2266C220.906 29.393 220.617 30.0462 220.404 30.324C219.97 30.9194 219.235 31.2135 219.288 30.4779C219.341 29.7423 220.419 28.9786 220.69 29.2024L220.63 29.2266ZM221.508 22.6382C220.698 21.4871 222.9 20.0326 222.881 21.4356C223.187 20.9282 223.637 20.5826 224 21.0276C224.363 21.4727 223.946 22.1389 223.45 22.5617C224.051 22.4882 224.362 22.7962 224.104 23.4981C223.846 24.2 223.321 24.3952 222.746 24.0777C222.818 24.3662 222.788 24.6709 222.661 24.94C222.535 25.2091 222.319 25.426 222.05 25.5539C221.222 26.0024 220.837 25.4689 221.419 24.2553C221.224 24.3891 221.007 24.4873 220.778 24.5452C220.724 24.569 220.664 24.5774 220.606 24.5696C220.547 24.5619 220.492 24.5382 220.446 24.5011C220.4 24.464 220.365 24.415 220.345 24.3594C220.325 24.3039 220.321 24.2439 220.333 24.186C220.383 23.404 220.85 22.4066 221.568 22.614L221.508 22.6382ZM220.607 28.9415C220.648 28.5748 220.721 27.5057 220.412 27.3192C220.104 27.1328 217.938 28.9254 219.401 29.7181C219.786 29.3038 220.187 28.8387 220.667 28.9173L220.607 28.9415ZM219.423 29.7314C219.268 29.6697 219.102 29.6406 218.935 29.646C218.769 29.6513 218.605 29.6911 218.454 29.7626C218.304 29.8342 218.17 29.936 218.06 30.0619C217.951 30.1877 217.869 30.3347 217.819 30.4938C217.647 30.9772 217.572 31.8497 218.054 31.8996C218.535 31.9495 219.016 31.3521 219.278 31.0435C218.987 30.7024 219.176 30.1395 219.456 29.7514L219.423 29.7314ZM222.802 23.0129C222.753 23.1981 222.672 23.3735 222.564 23.5315C222.758 23.7389 223.02 23.8704 223.303 23.9025C223.714 23.8947 223.936 23.2767 223.939 23.0226C223.942 22.7685 223.717 22.7679 223.465 22.8114C223.242 22.8472 223.024 22.9135 222.819 23.0085L222.802 23.0129ZM221.871 23.956C221.618 24.3751 221.164 25.5007 221.679 25.3452C221.88 25.2969 222.064 25.1965 222.214 25.0541C222.363 24.9118 222.472 24.7325 222.53 24.5345C222.571 24.2535 222.523 23.9669 222.393 23.7144C222.339 23.7908 222.27 23.8548 222.189 23.9022C222.109 23.9496 222.019 23.9793 221.926 23.9893L221.871 23.956ZM222.853 22.6529C223.343 22.3162 224.191 21.6093 223.772 21.1309C223.354 20.6525 222.896 21.7604 222.702 22.2305C222.814 22.3515 222.879 22.5082 222.886 22.6729L222.853 22.6529ZM221.83 22.8777C222.003 22.5909 222.43 22.1568 222.54 22.4488C222.566 22.6755 222.532 22.9052 222.44 23.1142C222.348 23.3232 222.202 23.504 222.018 23.6382C221.732 23.812 221.763 23.2133 221.863 22.8977L221.83 22.8777ZM221.73 22.8178C220.992 22.3716 220.516 23.3337 220.545 24.1336C220.555 24.5909 221.314 24.0561 221.635 23.7985C221.579 23.6395 221.562 23.4697 221.584 23.3027C221.607 23.1357 221.668 22.9764 221.764 22.8377L221.73 22.8178ZM222.532 22.1129C222.672 21.8813 222.793 21.3072 222.643 21.0814C222.494 20.8556 220.845 21.8167 221.779 22.7118C221.948 22.4074 222.261 22.0393 222.565 22.1329L222.532 22.1129ZM179.044 159.831L178.305 159.385C178.259 159.344 178.203 159.314 178.144 159.297C178.084 159.279 178.021 159.275 177.96 159.285C177.899 159.295 177.84 159.318 177.789 159.352C177.737 159.387 177.694 159.432 177.662 159.485C177.63 159.538 177.61 159.598 177.603 159.66C177.596 159.721 177.603 159.784 177.624 159.843C177.644 159.901 177.676 159.955 177.719 160C177.762 160.044 177.815 160.079 177.873 160.102L178.667 160.581C178.716 160.606 178.77 160.621 178.825 160.625C178.88 160.629 178.935 160.622 178.987 160.605C179.04 160.587 179.088 160.56 179.13 160.524C179.171 160.488 179.206 160.444 179.231 160.395C179.255 160.346 179.27 160.292 179.274 160.237C179.278 160.182 179.271 160.127 179.254 160.074C179.237 160.022 179.209 159.973 179.173 159.932C179.137 159.89 179.094 159.856 179.044 159.831ZM0.686328 99.9044C0.765615 99.9974 0.743557 99.9841 0.686328 99.9044ZM162.398 0.873248C162.5 0.904457 162.489 0.897799 162.398 0.873248ZM85.1217 157.019C84.9581 157.04 84.9515 157.051 85.1217 157.019ZM77.2042 186.61C77.246 186.666 77.2394 186.677 77.2042 186.61ZM56.8162 19.1937C56.9795 19.2472 56.9508 19.2449 56.8162 19.1937Z" fill="#090915"/>
</svg>
