<svg width="443" height="443" viewBox="0 0 443 443" fill="none" xmlns="http://www.w3.org/2000/svg">
<path d="M224.995 155.067C223.648 156.168 226.741 158.417 226.852 156.127C226.8 155.442 225.6 154.57 224.995 155.067Z" fill="#6564E3"/>
<path d="M233.254 150.746C233.202 150.061 232.005 149.194 231.398 149.687C230.057 150.799 233.143 153.036 233.254 150.746Z" fill="#6564E3"/>
<path d="M170.665 280.899C170.442 281.004 170.269 281.195 170.186 281.427C170.102 281.66 170.115 281.917 170.221 282.141C170.326 282.364 170.516 282.537 170.749 282.62C170.982 282.704 171.239 282.691 171.462 282.585C184.377 276.509 198.413 273.181 212.681 272.812C226.949 272.444 241.138 275.043 254.349 280.445C254.544 280.403 254.721 280.3 254.853 280.151C254.985 280.002 255.066 279.815 255.084 279.617C255.102 279.419 255.056 279.22 254.953 279.049C254.849 278.879 254.694 278.746 254.51 278.67C241.147 273.197 226.789 270.568 212.353 270.952C197.917 271.336 183.719 274.723 170.665 280.899Z" fill="#090915"/>
<path d="M258.776 271.749C235.069 263.167 209.824 259.397 185.825 268.363C185.6 268.452 185.419 268.624 185.319 268.844C185.219 269.064 185.208 269.314 185.289 269.542C185.37 269.77 185.536 269.957 185.752 270.065C185.968 270.173 186.217 270.192 186.448 270.12C201.296 264.836 217.265 263.511 232.782 266.275C241.398 268.073 249.874 270.489 258.144 273.504C258.376 273.588 258.633 273.576 258.857 273.471C259.081 273.366 259.253 273.176 259.337 272.943C259.421 272.71 259.409 272.454 259.304 272.23C259.198 272.006 259.008 271.833 258.776 271.749Z" fill="#090915"/>
<path d="M200.714 258.211C200.474 258.272 200.268 258.425 200.141 258.638C200.014 258.85 199.977 259.105 200.038 259.345C200.098 259.585 200.252 259.791 200.464 259.917C200.677 260.044 200.931 260.081 201.171 260.021C222.034 254.761 244.1 257.287 263.234 267.128C264.285 267.696 265.184 266.011 264.089 265.47C244.53 255.487 222.023 252.909 200.714 258.211Z" fill="#090915"/>
<path d="M194.274 252.649C194.036 252.719 193.835 252.88 193.716 253.098C193.597 253.315 193.569 253.571 193.639 253.809C193.709 254.047 193.87 254.248 194.087 254.367C194.305 254.486 194.561 254.514 194.799 254.444C219.794 247.11 246.655 249.698 269.789 261.671C270.833 262.242 271.744 260.555 270.643 260.015C247.075 247.85 219.732 245.213 194.274 252.649Z" fill="#090915"/>
<path d="M202.26 246.654C214.185 242.326 226.938 240.765 239.556 242.09C252.173 243.415 264.324 247.59 275.09 254.301C276.089 254.954 277.127 253.348 276.076 252.719C265.061 245.879 252.64 241.622 239.744 240.268C226.849 238.914 213.814 240.499 201.619 244.903C201.392 244.992 201.21 245.166 201.11 245.388C201.01 245.61 201.001 245.863 201.085 246.091C201.168 246.32 201.338 246.507 201.558 246.612C201.777 246.717 202.029 246.732 202.26 246.654Z" fill="#090915"/>
<path d="M109.712 270.899C105.018 273.159 106.13 280.176 111.738 279.048C119.294 277.469 117.275 267.257 109.712 270.899ZM114.557 274.807C114.159 275.569 113.557 276.204 112.818 276.643C112.08 277.082 111.233 277.306 110.374 277.29C107.691 276.913 108.214 273.716 110.642 272.515C112.431 271.128 115.507 272.501 114.555 274.807L114.557 274.807Z" fill="#090915"/>
<path d="M328.508 248.331C327.49 248.549 327.027 248.649 327.985 266.015C328.437 274.342 329.071 283.104 329.197 284.714C329.712 286.568 333.169 284.902 334.532 284.904C364.755 278.025 358.28 244.298 328.508 248.331ZM350.362 272.512C346.352 279.455 337.889 282.756 330.984 283.609C330.373 275.538 328.975 253.635 329.407 250.066C343.779 247.723 358.15 259.031 350.362 272.512Z" fill="#090915"/>
<path d="M376.845 102.964C372.919 101.15 369.378 104.166 365.766 102.121C365.4 101.892 364.99 101.742 364.562 101.681C364.134 101.621 363.698 101.651 363.283 101.77C362.867 101.888 362.481 102.093 362.15 102.37C361.819 102.648 361.549 102.992 361.359 103.38C360.593 104.89 360.329 106.605 360.606 108.276C352.24 121.649 341.351 132.931 322.457 142.038C325.708 136.865 328.049 131.174 329.379 125.211C332.245 109.242 305.452 103.262 294.254 102.878C293.357 100.989 294.115 97.5036 294.263 95.3393C294.351 92.5104 292.125 91.6018 290.859 92.6365C287.605 94.5447 286.753 98.7678 285.291 101.865C282.453 108.006 285.793 108.958 290.972 110.343C290.872 110.553 290.859 110.794 290.936 111.014C291.012 111.234 291.173 111.415 291.382 111.517C294.307 113.396 308.136 120.25 304.294 124.814C302.213 127.277 295.979 134.656 292.432 139.281C283.878 140.69 280.179 141.463 274.913 143.58C274.85 143.606 274.797 143.652 274.763 143.712C274.729 143.771 274.716 143.84 274.725 143.908C274.735 143.976 274.767 144.038 274.816 144.086C274.865 144.134 274.928 144.163 274.996 144.171C292.795 148.487 300.168 168.701 298.149 184.694C301.675 183.677 308.037 182.731 310.712 180.709C321.705 177.183 336.923 170.693 344.264 164.144C351.822 157.645 357.843 149.55 361.893 140.442C365.943 131.334 367.921 121.44 367.683 111.476C370.685 109.559 373.822 107.865 377.071 106.408C378.597 105.821 379.26 103.275 376.845 102.964ZM302.356 105.687C313.006 107.424 329.784 113.7 327.555 124.811C326.048 131.594 323.183 138.002 319.135 143.649C317.443 144.467 315.19 145.435 313.453 146.231C317.634 139.792 321.235 132.994 324.214 125.917C325.088 124.11 325.455 122.1 325.277 120.1C322.975 113.928 316.589 113.397 310.908 111.073C308.039 110.196 305.229 109.136 302.497 107.899C302.561 107.159 302.513 106.413 302.356 105.687ZM292.576 108.886L288.201 107.582C287.098 107.262 285.9 106.64 286.14 105.312C286.854 102.904 287.752 100.554 288.827 98.2842C289.368 96.5465 290.522 95.0652 292.075 94.1169C292.221 94.1544 292.425 94.66 292.415 95.1638C292.021 97.7888 291.93 100.45 292.144 103.096C292.151 103.648 292.296 104.19 292.566 104.671C292.836 105.152 293.222 105.559 293.689 105.853C293.692 106.964 293.297 108.04 292.576 108.886ZM295.775 111.879C295.015 111.433 294.284 110.961 293.561 110.569C294.324 109.843 294.898 108.942 295.232 107.943C295.567 106.945 295.651 105.88 295.479 104.841C297.009 104.968 298.631 105.148 300.265 105.373C301.742 108.566 299.292 112.81 295.775 111.879ZM290.617 141.42C291.59 141.117 292.889 141.435 293.674 140.737C297.143 136.177 303.601 128.533 305.68 126.071C309.856 120.924 302.355 116.307 298.321 113.581C299.237 113.344 300.073 112.868 300.744 112.201C301.416 111.534 301.898 110.701 302.141 109.787C308.068 113.134 320.47 114.006 323.439 120.394C323.559 122.041 323.237 123.69 322.507 125.172C319.43 132.497 315.678 139.521 311.3 146.152C310.164 145.251 307.413 143.082 306.592 144.969C306.568 145.089 306.569 145.213 306.593 145.334C306.618 145.454 306.666 145.568 306.734 145.67C306.803 145.771 306.891 145.858 306.993 145.926C307.095 145.994 307.21 146.04 307.331 146.064C308.544 146.348 309.641 146.998 310.473 147.926C311.579 150.079 315.139 147.285 316.742 146.801C335.187 138.82 350.844 127.139 358.866 114.103C360.121 114.123 361.34 114.527 362.358 115.261C357.55 143.428 339.11 163.193 311.721 169.684C310.077 157.478 303.401 144.794 290.617 141.42ZM359.577 141.3C351.172 160.995 333.437 171.312 312.402 178.183C312.525 175.961 312.384 173.732 311.98 171.544C339.926 164.986 358.817 144.991 364.004 116.477C368.137 119.886 361.716 136.294 359.577 141.3ZM365.84 114.633C365.829 114.975 365.796 115.316 365.779 115.657C364.271 113.919 362.217 112.742 359.954 112.321C360.621 111.296 361.407 109.224 362.728 109.425C363.309 109.495 363.867 109.697 364.358 110.016C364.849 110.336 365.261 110.763 365.561 111.266C365.862 111.769 366.043 112.334 366.091 112.917C366.14 113.501 366.053 114.088 365.84 114.633ZM366.869 109.707C365.776 108.66 364.424 107.923 362.952 107.574C361.711 107.869 362.696 104.718 363.009 104.229C363.765 101.843 368.497 106.959 374.724 105.489C372.03 106.75 369.408 108.158 366.869 109.707Z" fill="#6564E3"/>
<path d="M229.584 148.934C230.392 148.51 231.24 147.691 232.104 147.939C232.348 147.98 232.598 147.923 232.8 147.78C233.002 147.637 233.138 147.419 233.18 147.175C233.221 146.932 233.164 146.681 233.021 146.479C232.878 146.278 232.661 146.141 232.417 146.099C231.224 145.806 227.647 146.839 228.707 148.66C228.817 148.778 228.956 148.865 229.11 148.913C229.263 148.96 229.427 148.968 229.584 148.934Z" fill="#6564E3"/>
<path d="M223.946 155.213C223.995 154.498 224.265 153.816 224.719 153.261C224.881 153.074 224.963 152.831 224.945 152.584C224.928 152.338 224.814 152.108 224.627 151.946C224.44 151.783 224.197 151.702 223.95 151.719C223.703 151.736 223.474 151.851 223.311 152.037C222.579 152.916 222.149 154.007 222.083 155.149C222.086 155.389 222.181 155.619 222.349 155.791C222.517 155.962 222.744 156.063 222.984 156.071C223.224 156.079 223.458 155.995 223.637 155.835C223.816 155.675 223.927 155.452 223.946 155.213Z" fill="#6564E3"/>
<path d="M234.119 157.911C233.448 158.917 235.042 159.948 235.685 158.924C235.971 158.481 236.206 158.064 236.442 157.637C236.153 158.537 235.871 159.721 237.286 159.631C238.967 158.734 238.427 156.061 237.048 155.047C235.377 154.141 234.978 157 234.119 157.911Z" fill="#6564E3"/>
<path d="M230.328 158.228C231.513 158.504 233.441 156.262 231.889 155.438C231.202 155.103 230.651 155.894 230.475 156.363C229.844 155.902 230.179 151.698 228.5 152.129C228.258 152.181 228.047 152.327 227.913 152.535C227.778 152.742 227.732 152.995 227.784 153.237C228.218 154.681 228.238 158.194 230.328 158.228Z" fill="#6564E3"/>
<path d="M367.533 243.9C358.96 233.086 342.428 229.14 324.24 230.012C330.112 221.894 332.43 218.557 332.532 218.162C332.643 215.046 329.934 204.934 330.794 201.903C330.826 201.693 330.792 201.479 330.695 201.29C330.597 201.101 330.443 200.948 330.253 200.852C318.74 196.159 306.606 193.162 294.231 191.955C300.956 173.748 290.468 145.911 268.234 145.014C270.988 138.492 264.985 130.72 258.151 132.785C253.572 133.84 249.087 135.273 244.744 137.07C245.687 135.852 244.626 133.852 243.634 133.249C246.885 130.374 240.788 124.83 237.292 125.924C236.872 123.076 233.812 118.366 231 121.308C229.732 120.095 228.248 119.13 226.625 118.461C224.549 117.762 222.129 118.017 221.538 120.219C219.808 119.57 217.959 119.299 216.116 119.424C213.789 119.889 212.053 121.823 212.78 123.843C210.198 123.825 207.54 124.669 206.73 127.431C206.401 129.056 208.049 129.586 205.719 129.972C202.549 130.959 201.44 135.806 205.166 137.169C201.758 138.757 200.353 145.848 205.452 145.823C204.236 148.564 203.813 152.351 206.293 154.316C181.867 163.997 162.431 171.866 144.147 179.744C135.822 185.877 130.098 192.828 122.251 199.324C122.067 199.476 121.948 199.693 121.92 199.93C121.891 200.167 121.953 200.405 122.095 200.597C124.077 203.27 149.106 200.139 154.104 199.491C175.981 191.371 197.404 182.08 218.282 171.658C211.882 179.499 202.081 187.646 203.49 198.878C178.728 201.32 156.933 209.663 140.454 225.928C112.269 252.037 82.9105 278.45 58.0925 308.613C60.1305 313.991 63.2258 319.194 64.6313 324.363C64.6927 324.562 64.8187 324.734 64.9892 324.853C65.1598 324.972 65.3652 325.03 65.5727 325.019C65.7803 325.008 65.9781 324.927 66.1348 324.791C66.2915 324.654 66.3981 324.469 66.4377 324.265C86.6888 313.307 111.079 307.902 134.515 308.055C153.405 307.341 149.233 317.177 155.012 317.197C155.359 317.208 161.672 316.65 161.736 316.532C162.869 316.185 163.106 314.759 162.88 313.863C161.735 305.335 166.641 304.073 174.724 302.736C212.55 297.148 227.298 300.394 262.456 313.465C262.588 313.516 262.73 313.535 262.871 313.52C263.012 313.505 263.147 313.458 263.266 313.381C263.385 313.305 263.484 313.201 263.556 313.079C263.627 312.957 263.669 312.819 263.677 312.678C278.539 292.319 300.464 262.665 310.182 249.282C309.629 269.262 309.522 289.377 309.83 314.078C309.832 314.206 309.86 314.332 309.913 314.448C309.965 314.565 310.041 314.669 310.136 314.755C310.231 314.841 310.342 314.907 310.463 314.948C310.584 314.989 310.712 315.005 310.84 314.994C330.304 313.348 354.928 308.684 367.318 293.411C379.294 279.624 379.746 257.577 367.533 243.9ZM258.585 134.599C265.033 133.165 268.754 139.83 266.18 144.946C263.562 144.895 260.947 145.136 258.382 145.666C258.404 143.725 257.896 141.815 256.911 140.142C255.927 138.469 254.504 137.097 252.796 136.174C254.683 135.578 256.614 135.04 258.585 134.599ZM261.148 172.041C260.137 169.82 262.121 169.03 263.134 171.267C265.637 178.204 266.413 185.646 265.393 192.949C255.973 193.706 246.884 196.771 238.93 201.874C235.723 200.906 232.447 200.184 229.13 199.713C233.053 195.373 237.951 189.409 241.842 185.367C247.729 189.991 255.04 192.427 262.524 192.257C262.729 192.205 262.911 192.089 263.044 191.926C263.176 191.762 263.253 191.56 263.26 191.349C264.047 184.836 263.324 178.23 261.148 172.041ZM246.148 147.587C246.587 146.156 246.633 144.633 246.281 143.178C245.929 141.723 245.191 140.389 244.145 139.317C246.015 138.597 248.046 137.692 250.149 137.074C252.092 137.633 253.784 138.843 254.939 140.503C256.095 142.162 256.643 144.168 256.493 146.185C253.396 147.122 247.317 149.076 245.24 149.745C244.313 149.336 246.169 148.502 246.148 147.587ZM221.656 149.392C224.593 149.952 226.611 147.027 227.117 144.309C228.147 144.49 229.208 144.319 230.129 143.824C231.05 143.329 231.778 142.538 232.196 141.58C232.592 141.805 233.044 141.913 233.499 141.89C233.954 141.867 234.393 141.714 234.764 141.45C235.483 142.219 237.048 143.565 238.245 144.575C238.344 145.334 238.641 146.053 239.107 146.66C239.403 147.028 239.809 147.291 240.266 147.411C240.723 147.53 241.206 147.5 241.644 147.325C242.083 147.15 242.454 146.838 242.702 146.437C242.95 146.035 243.063 145.564 243.024 145.094C242.957 144.851 243.667 144.712 243.795 144.152C244.085 143.558 244.143 142.878 243.957 142.244C244.75 143.901 245.296 147.183 243.305 148.133C242.602 148.326 242.117 149.342 242.682 149.913C244.836 152.256 247.32 154.272 250.057 155.897C251.813 161.017 245.156 169.493 240.446 163.752C241.429 162.386 242.173 163.72 243.31 164.333C243.974 164.762 244.706 163.651 244.034 163.212C243.2 162.778 242.432 162.228 241.753 161.579C241.492 161.253 241.128 161.331 240.791 161.594C239.105 163.527 236.734 164.728 234.178 164.945C232.695 164.899 231.236 164.552 229.891 163.926C228.545 163.3 227.341 162.407 226.351 161.301C226.016 160.452 225.455 159.035 224.15 158.722C222.548 158.023 221.677 155.804 220.632 154.379C221.312 152.804 221.66 151.107 221.656 149.392ZM235.202 166.098C231.33 169.76 223.82 167.281 222.428 162.327C222.372 161.92 222.473 161.506 222.711 161.171C222.95 160.836 223.307 160.605 223.711 160.526C224.212 160.727 224.539 161.851 224.769 162.345C225.348 163.523 227.274 165.191 228.312 164.48C230.33 165.851 232.784 166.428 235.202 166.098ZM132.02 199.699C129.56 199.889 127.09 199.901 124.628 199.735C126.921 198.426 128.596 194.305 131.485 195.678C132.091 196.261 131.047 196.819 131.179 197.451C131.249 198.535 132.536 198.041 133.062 198.634C132.986 198.883 132.853 199.111 132.672 199.299C132.492 199.486 132.269 199.628 132.023 199.713L132.02 199.699ZM153.52 197.669C147.199 198.488 140.313 199.169 134.722 199.546C134.843 199.275 134.905 198.982 134.906 198.685C134.906 198.389 134.844 198.095 134.724 197.824C134.603 197.553 134.428 197.311 134.208 197.112C133.988 196.913 133.729 196.763 133.447 196.67C133.535 196.325 133.548 195.965 133.483 195.615C133.418 195.265 133.277 194.934 133.071 194.644C132.865 194.353 132.598 194.112 132.289 193.935C131.98 193.759 131.636 193.652 131.281 193.622C135.604 189.246 140.206 185.156 145.056 181.374C147.071 181.031 149.144 181.337 150.974 182.247C152.804 183.158 154.298 184.626 155.239 186.44C156.181 188.255 156.522 190.321 156.214 192.342C155.905 194.363 154.962 196.233 153.522 197.684L153.52 197.669ZM156.708 196.523C157.594 194.952 158.099 193.195 158.181 191.393C158.263 189.592 157.92 187.796 157.18 186.152C156.44 184.507 155.324 183.059 153.921 181.926C152.519 180.792 150.869 180.004 149.106 179.625C167.133 171.987 186.579 164.077 210.956 154.469C211.398 156.22 213.358 158.134 215.096 156.767C215.565 156.285 215.469 155.785 216.148 156.459C216.421 156.682 216.739 156.844 217.079 156.935C217.419 157.027 217.775 157.046 218.123 156.991C218.471 156.936 218.804 156.808 219.099 156.616C219.395 156.425 219.646 156.172 219.838 155.877C220.569 157.009 221.378 158.089 222.258 159.109C219.477 160.723 220.581 164.311 222.549 166.217C221.945 166.839 221.397 167.512 220.911 168.228C200.036 178.811 178.606 188.26 156.714 196.536L156.708 196.523ZM154.428 314.934C154.322 314.995 154.205 315.034 154.083 315.049C153.962 315.064 153.838 315.055 153.72 315.022C153.602 314.99 153.492 314.934 153.395 314.859C153.298 314.783 153.218 314.69 153.157 314.583C150.975 310.73 147.648 307.652 143.637 305.776C139.626 303.9 135.13 303.32 130.774 304.116C130.532 304.168 130.28 304.122 130.072 303.987C129.864 303.853 129.718 303.642 129.666 303.4C129.615 303.158 129.661 302.906 129.795 302.698C129.929 302.49 130.141 302.345 130.382 302.293C135.127 301.405 140.03 302.025 144.405 304.066C148.779 306.106 152.404 309.466 154.772 313.672C154.891 313.885 154.923 314.137 154.858 314.373C154.794 314.609 154.64 314.811 154.428 314.934ZM153.193 306.806C136.522 289.976 84.2505 298.31 63.2662 305.266C85.9971 278.682 112.097 254.625 137.362 231.322C154.787 213.17 177.073 203.057 203.858 200.718C205.445 206.047 209.774 205.661 214.756 204.782C222.324 203.157 229.415 192.793 231.071 184.332C232.467 179.385 233.365 174.31 233.753 169.185C234.652 168.856 235.483 168.365 236.205 167.737C233.623 178.437 234.505 191.032 226.775 199.528C226.064 200.32 226.991 201.155 227.76 201.369C231.196 201.923 234.149 202.477 237.113 203.258C233.89 205.543 230.821 209.187 227.62 211.094C205.896 203.317 179.372 209.117 157.973 217.846C139.708 231.864 125.373 248.857 108.06 263.976C97.1041 273.918 85.7757 284.198 75.153 294.975C75.0095 295.121 74.918 295.31 74.8926 295.513C74.8671 295.716 74.9092 295.922 75.0122 296.099C75.1152 296.276 75.2735 296.414 75.4627 296.491C75.6519 296.569 75.8614 296.583 76.0591 296.53C93.2208 291.639 111.146 290.002 128.91 291.704C136.741 292.41 146.514 294.085 152.682 300.797C152.498 302.813 152.67 304.846 153.192 306.803L153.193 306.806ZM153.925 251.701C136.767 260.025 137.992 253.087 138.574 237.586C147.939 229.456 154.593 219.213 167.651 216.083C187.151 210.369 207.727 206.016 226.276 212.618C219.469 218.679 212.72 224.994 206.095 231.544C204.84 232.441 203.918 234.464 202.382 234.514C185.68 238.554 169.44 244.312 153.924 251.698L153.925 251.701ZM200.717 236.868C195.716 241.906 190.606 247.291 185.151 253.273C183.03 253.445 179.062 255.956 177.393 254.701C175.078 252.573 174.69 248.332 173.811 245.387C182.621 242.071 191.601 239.227 200.712 236.866L200.717 236.868ZM129.097 289.848C112.27 288.26 95.2944 289.608 78.9283 293.831C97.8685 275.16 117.93 257.988 136.676 239.411C135.342 256.825 138.566 261.536 154.766 253.368C160.474 250.715 166.25 248.267 172.094 246.023C172.519 248.3 173.133 250.539 173.931 252.714C175.435 257.256 178.895 257.64 182.747 255.909C174.453 265.264 166.737 275.115 159.641 285.408C156.566 289.275 154.323 293.735 153.051 298.509C146.332 292.108 136.244 290.514 129.092 289.845L129.097 289.848ZM199.802 296.972C199.783 297.218 199.666 297.447 199.478 297.608C199.29 297.768 199.046 297.848 198.8 297.828C198.969 297.496 152.587 296.045 160.456 313.691C160.507 313.803 160.536 313.923 160.54 314.046C160.545 314.168 160.525 314.29 160.482 314.405C160.44 314.52 160.375 314.625 160.291 314.715C160.208 314.805 160.108 314.877 159.996 314.928C159.885 314.979 159.764 315.008 159.642 315.012C159.519 315.016 159.397 314.997 159.282 314.954C159.168 314.911 159.062 314.846 158.973 314.763C158.883 314.679 158.81 314.579 158.759 314.468C155.181 307.139 161.563 299.985 171.266 298.216C180.347 296.212 189.658 295.454 198.943 295.964C199.065 295.974 199.184 296.008 199.293 296.064C199.403 296.12 199.5 296.196 199.579 296.29C199.658 296.383 199.718 296.491 199.756 296.608C199.794 296.724 199.808 296.847 199.798 296.969L199.802 296.972ZM226.259 289.651C226.232 289.896 226.108 290.121 225.914 290.275C225.721 290.429 225.474 290.501 225.228 290.473C225.032 290.448 205.081 288.226 190.976 289.257C175.986 290.355 161.744 296.678 158.551 303.647C158.089 304.752 156.32 303.968 156.858 302.866C160.851 294.139 177.337 288.38 190.842 287.392C205.115 286.349 225.244 288.589 225.44 288.614C225.685 288.643 225.908 288.768 226.061 288.962C226.214 289.156 226.284 289.403 226.255 289.648L226.259 289.651ZM255.277 288.87C248.164 285.134 240.405 282.786 232.414 281.952C217.907 280.018 203.173 280.68 188.898 283.908C178.88 286.611 157.102 292.262 154.644 304.858C153.561 298.26 157.024 292.173 161.172 286.48C180.344 258.157 212.082 226.716 237.671 205.179C243.878 199.936 253.122 196.431 265.125 194.758C264.659 195.909 264.765 199.379 263.478 199.203C256.8 199.724 250.204 201.008 243.819 203.031C243.702 203.067 243.592 203.126 243.498 203.204C243.403 203.283 243.324 203.379 243.267 203.487C243.209 203.596 243.173 203.715 243.162 203.837C243.15 203.959 243.162 204.083 243.198 204.2C243.271 204.438 243.435 204.637 243.654 204.753C243.763 204.811 243.882 204.846 244.004 204.858C244.127 204.87 244.25 204.857 244.368 204.821C250.56 202.861 256.954 201.608 263.429 201.087C262.698 203.157 261.807 205.167 260.763 207.098C260.591 206.95 260.37 206.872 260.144 206.878C253.236 207.191 246.404 208.46 239.844 210.647C239.727 210.686 239.619 210.747 239.526 210.828C239.433 210.908 239.357 211.006 239.301 211.116C239.246 211.227 239.213 211.346 239.204 211.469C239.195 211.592 239.21 211.716 239.249 211.833C239.288 211.949 239.349 212.058 239.43 212.151C239.51 212.244 239.609 212.32 239.719 212.376C239.829 212.431 239.949 212.464 240.072 212.473C240.194 212.482 240.318 212.467 240.435 212.428C246.752 210.323 253.327 209.091 259.977 208.768C258.854 210.59 257.671 213.869 255.7 214.613C255.106 214.439 233.873 214.426 240.149 217.315C244.896 216.626 249.693 216.338 254.488 216.455C252.778 218.707 249.253 218.939 247.544 221.064C246.586 221.718 246.172 223.095 246.92 223.734C244.845 223.843 229.646 224.2 230.071 226.634C230.123 226.876 230.269 227.087 230.477 227.221C230.685 227.356 230.937 227.402 231.179 227.35C233.58 227.107 248.721 223.57 246.156 227.089C245.608 228.383 245.884 230.974 247.734 230.742C248.146 230.475 248.037 231.969 248.595 232.345C235.619 230.316 222.35 231.308 209.82 235.244C209.583 235.318 209.385 235.484 209.271 235.705C209.156 235.925 209.133 236.182 209.208 236.419C209.283 236.656 209.448 236.853 209.669 236.968C209.889 237.083 210.146 237.105 210.383 237.03C235.196 228.965 262.099 233.985 283.467 247.976C283.646 247.938 283.809 247.849 283.937 247.719C284.065 247.59 284.152 247.425 284.188 247.247C284.224 247.068 284.206 246.882 284.138 246.714C284.069 246.545 283.953 246.399 283.803 246.296C273.852 239.46 262.553 234.831 250.666 232.722C251.085 232.395 251.398 231.95 251.562 231.444C251.642 231.749 251.807 232.024 252.039 232.237C252.272 232.45 252.56 232.591 252.871 232.643C253.181 232.695 253.5 232.657 253.789 232.532C254.078 232.407 254.325 232.201 254.499 231.939C255.6 229.966 256.929 228.128 258.459 226.465C268.452 228.107 277.966 231.908 286.339 237.604C286.44 237.678 286.554 237.731 286.676 237.76C286.798 237.788 286.924 237.792 287.047 237.771C287.17 237.75 287.288 237.705 287.393 237.637C287.498 237.57 287.589 237.482 287.66 237.379C287.73 237.276 287.779 237.159 287.804 237.037C287.829 236.914 287.829 236.788 287.804 236.666C287.779 236.543 287.729 236.427 287.658 236.324C287.588 236.221 287.497 236.133 287.392 236.066C279.523 230.721 270.666 227.002 261.34 225.127C265.669 223.831 269.741 221.795 273.376 219.11C281.202 221.153 288.692 224.317 295.612 228.504C295.717 228.572 295.835 228.618 295.957 228.64C296.08 228.661 296.206 228.658 296.328 228.63C296.45 228.602 296.564 228.55 296.665 228.477C296.767 228.404 296.852 228.311 296.917 228.204C296.981 228.098 297.024 227.979 297.042 227.856C297.06 227.732 297.053 227.606 297.021 227.486C296.99 227.365 296.935 227.252 296.859 227.153C296.782 227.054 296.687 226.971 296.579 226.91C289.934 222.895 282.776 219.798 275.3 217.705C278.02 215.672 280.563 213.414 282.904 210.954C290.464 212.842 297.701 215.847 304.374 219.87C305.393 220.513 306.388 218.884 305.338 218.274C298.795 214.335 291.723 211.35 284.336 209.409C286.163 207.328 287.816 205.101 289.277 202.749C296.229 204.215 302.98 206.514 309.382 209.595C309.493 209.647 309.614 209.677 309.737 209.682C309.859 209.688 309.982 209.669 310.098 209.627C310.213 209.585 310.32 209.521 310.41 209.438C310.501 209.355 310.575 209.255 310.627 209.144C310.679 209.032 310.709 208.912 310.714 208.789C310.72 208.666 310.701 208.543 310.659 208.428C310.617 208.312 310.553 208.206 310.47 208.115C310.387 208.024 310.287 207.951 310.175 207.899C303.84 204.853 297.173 202.553 290.307 201.042C291.63 198.723 292.754 196.295 293.665 193.786C305.379 194.885 316.881 197.62 327.837 201.911C323.283 205.885 304.194 229.496 296.554 238.043C293.44 241.547 255.422 288.625 255.276 288.866L255.277 288.87ZM253.853 224.69C251.878 223.941 250.169 229.132 249.86 230.463C249.938 228.323 250.694 226.263 252.019 224.581C252.163 224.393 252.232 224.159 252.212 223.923C252.191 223.688 252.083 223.468 251.909 223.309C251.735 223.149 251.507 223.061 251.27 223.061C251.034 223.061 250.806 223.15 250.632 223.31C251.065 222.904 251.533 222.536 252.031 222.213C252.2 222.102 252.328 221.94 252.396 221.751C252.465 221.562 252.471 221.355 252.412 221.163C252.354 220.97 252.235 220.801 252.073 220.682C251.911 220.562 251.714 220.499 251.513 220.5C254.408 218.332 257.7 220.888 258.81 223.62C256.495 225.459 254.618 227.79 253.316 230.444C253.238 228.87 253.541 227.3 254.199 225.867C254.294 225.661 254.31 225.428 254.245 225.211C254.18 224.994 254.039 224.808 253.847 224.688L253.853 224.69ZM263.112 310.339L260.452 301.147C264.528 295.5 269.077 290.209 274.05 285.333C274.226 285.159 274.326 284.923 274.328 284.675C274.33 284.428 274.233 284.19 274.06 284.014C273.886 283.837 273.649 283.737 273.402 283.736C273.155 283.734 272.917 283.83 272.74 284.004C268.044 288.62 263.717 293.597 259.799 298.89L258.83 295.54L295.603 249.569C295.68 249.473 295.737 249.363 295.771 249.245C295.805 249.128 295.815 249.004 295.802 248.883C295.788 248.761 295.751 248.643 295.692 248.536C295.633 248.428 295.553 248.334 295.457 248.257C295.361 248.181 295.252 248.124 295.134 248.09C295.016 248.056 294.893 248.045 294.771 248.059C294.649 248.072 294.531 248.11 294.424 248.169C294.317 248.228 294.222 248.308 294.146 248.403L258.196 293.351L257.19 289.876C276.734 266.715 277.007 262.895 311.42 223.616C315.437 218.83 324.297 207.775 328.805 203.479C328.934 206.698 329.33 209.902 329.99 213.056L310.785 236.909C310.664 237.059 310.593 237.243 310.581 237.435C310.569 237.627 310.617 237.818 310.718 237.982C310.819 238.146 310.968 238.275 311.146 238.35C311.323 238.426 311.519 238.445 311.707 238.405C312.196 238.3 310.721 239.951 330.438 215.483C330.627 216.537 330.776 217.404 330.778 217.564C329.502 220.069 276.356 292.296 263.111 310.335L263.112 310.339ZM368.168 264.305L374.355 263.313C375.437 271.136 373.953 279.1 370.128 286.01C368.552 285.192 364.03 281.597 363.028 283.435C362.943 283.667 362.953 283.923 363.056 284.148C363.159 284.373 363.347 284.547 363.579 284.633C365.56 285.398 367.44 286.4 369.18 287.617C365.235 293.891 359.709 299.017 353.157 302.48L350.306 297.038C350.187 296.826 349.99 296.669 349.758 296.6C349.525 296.531 349.274 296.555 349.059 296.668C348.844 296.781 348.682 296.973 348.606 297.204C348.531 297.434 348.548 297.685 348.655 297.903L351.53 303.39C345.048 306.663 338.11 308.944 330.95 310.157L330.549 303.788C330.524 303.549 330.407 303.33 330.223 303.175C330.04 303.02 329.803 302.942 329.564 302.957C329.324 302.972 329.099 303.079 328.937 303.256C328.774 303.432 328.685 303.665 328.69 303.905L329.105 310.53C323.352 311.677 317.542 312.519 311.699 313.053C311.394 287.813 311.527 267.355 312.131 246.846C316.308 240.537 320.449 235.436 323.215 231.42C323.882 232.307 325.304 231.67 326.255 231.801C326.341 233.269 325.717 238.927 327.812 238.802C328.053 238.75 328.265 238.604 328.399 238.396C328.533 238.188 328.579 237.936 328.528 237.694C328.123 235.746 327.989 233.751 328.128 231.766C333.708 231.653 339.282 232.157 344.751 233.27L342.707 239.172C342.667 239.288 342.65 239.411 342.657 239.533C342.665 239.655 342.696 239.775 342.75 239.885C342.803 239.995 342.878 240.094 342.97 240.175C343.061 240.256 343.168 240.319 343.284 240.359C343.4 240.399 343.522 240.416 343.645 240.408C343.767 240.401 343.887 240.37 343.997 240.316C344.107 240.262 344.205 240.188 344.287 240.096C344.368 240.004 344.43 239.897 344.47 239.782L346.58 233.694C354.225 235.692 360.171 238.669 364.937 243.784L360.812 247.085C360.712 247.16 360.629 247.254 360.566 247.362C360.503 247.47 360.463 247.589 360.447 247.713C360.431 247.837 360.441 247.963 360.475 248.083C360.509 248.203 360.566 248.315 360.644 248.413C360.722 248.51 360.819 248.591 360.929 248.651C361.039 248.71 361.16 248.747 361.284 248.758C361.408 248.77 361.534 248.757 361.653 248.719C361.772 248.682 361.882 248.621 361.977 248.54L366.179 245.179C370.15 249.843 372.85 255.453 374.018 261.466L367.872 262.452C367.626 262.491 367.407 262.626 367.261 262.828C367.115 263.029 367.056 263.28 367.095 263.525C367.134 263.77 367.269 263.99 367.47 264.136C367.672 264.281 367.922 264.341 368.168 264.302L368.168 264.305Z" fill="#090915"/>
</svg>
