<svg width="393" height="393" viewBox="0 0 393 393" fill="none" xmlns="http://www.w3.org/2000/svg">
<g clip-path="url(#clip0_145_24506)">
<path d="M134.786 278.778C137.842 278.075 140.946 277.596 144.072 277.346L144.286 278.745C144.309 278.909 144.391 279.06 144.516 279.17C144.641 279.279 144.801 279.34 144.967 279.341L157.233 279.322C161.435 272.111 168.871 261.309 168.979 261.143C169.221 258.261 169.587 255.858 169.903 253.109C162.683 254.886 149.314 258.294 142.261 260.643C142.098 260.723 141.965 260.852 141.879 261.012C141.793 261.172 141.76 261.355 141.783 261.534C141.783 261.534 141.856 261.989 141.942 262.642C138.665 262.265 128.906 260.662 126.288 262.628C125.862 263.097 125.61 263.698 125.575 264.331C125.154 266.746 124.2 285.772 125.5 291.545C126.17 294.567 128.321 294.493 130.085 291.875C132.239 287.875 133.819 283.592 134.778 279.152C134.805 278.922 134.75 278.934 134.786 278.778ZM134.572 262.776C136.741 262.847 137.407 262.959 142.039 263.349C142.507 266.58 143.475 273.225 143.977 276.621C140.813 276.745 137.663 277.105 134.553 277.698C134.176 272.731 134.182 267.742 134.572 262.776Z" fill="#090915"/>
<path d="M316.477 127.449C316.988 126.883 316.515 126.025 316.11 125.354C317.617 124.123 319.254 123.06 320.991 122.184C323.873 121.139 326.57 119.641 328.98 117.747C329.986 116.916 331.898 115.19 331.394 113.99C330.889 112.789 329.769 112.589 328.162 113.065C328.906 112.444 329.54 111.702 330.038 110.871C330.689 109.553 329.654 108.31 327.017 109.042C328.102 107.685 328.489 106.177 327.024 105.258C325.842 104.516 323.845 105.732 322.681 106.544C320.397 108.12 318.224 109.85 316.177 111.724C315.335 109.27 313.88 106.39 311.581 106.983C309.282 107.575 310.555 111.559 311.446 113.75L307.129 116.057C306.562 115.661 305.896 115.43 305.206 115.39C300.572 115.642 277.868 129.135 275.754 128.892C274.133 128.706 252.258 114.946 232.612 109.439C232.587 109.315 232.528 109.2 232.44 109.108C232.353 109.016 232.242 108.95 232.119 108.919C228.696 107.922 225.187 107.25 221.639 106.911C221.531 106.906 221.423 106.925 221.322 106.965C221.222 107.006 221.132 107.069 221.058 107.148L219.578 106.978C219.39 105.51 218.465 102.066 218.152 100.745C219.47 99.8428 221.187 99.5046 222.242 97.9301C224.184 95.0115 224.733 89.6122 224.69 86.1084C226.855 84.822 227.187 82.3968 227.014 79.86C226.954 78.8355 226.669 76.5 225.888 75.839C225.448 75.4672 224.408 75.669 223.508 75.8869C222.876 73.7792 222.77 74.6953 223.216 73.9254C223.422 73.5707 223.564 73.1819 223.633 72.7774C224.535 73.1666 226.687 71.5217 226.301 68.9783C226.052 68.055 225.719 67.1563 225.307 66.2934C225.622 65.7228 226.234 65.0612 224.831 62.6686C224.206 61.8172 223.342 61.1711 222.349 60.8125L221.538 60.7193C221.051 59.8034 220.264 59.0828 219.309 58.6781C217.861 58.1262 216.253 58.1658 214.834 58.7886C214.451 59.0124 214.129 59.3324 213.748 59.5385C213.007 58.9632 212.122 58.6024 211.19 58.4953C210.258 58.3882 209.315 58.5389 208.463 58.9311C207.975 59.0605 207.519 59.2871 207.121 59.5973C206.724 59.9074 206.393 60.2947 206.149 60.7359C205.32 60.3389 204.417 60.119 203.498 60.0902C202.58 60.0615 201.665 60.2246 200.813 60.569C197.579 61.8696 194.984 64.3842 193.581 67.5746C193.496 68.0701 193.438 68.5701 193.409 69.0721L193.215 69.0498C190.617 68.3585 186.531 74.2439 188.666 79.4339C188.916 80.0518 189.259 80.6445 189.574 81.3233C190.499 83.2147 189.998 83.6926 192.27 86.1316C192.937 86.8509 193.066 86.8122 193.48 87.2524C193.893 87.6927 193.74 87.4786 193.89 88.4956C193.968 89.0934 194.163 89.6698 194.464 90.1917C194.766 90.7136 195.168 91.1704 195.648 91.5358C195.637 93.2806 196.186 94.9829 197.214 96.3927C197.538 96.8517 197.931 97.258 198.378 97.5976C198.5 97.6855 198.639 97.7443 198.787 97.7695C198.939 101.107 199.101 105.446 199.174 107.293L197.509 107.958C195.363 108.548 193.257 109.278 191.206 110.144C191.043 110.231 190.919 110.376 190.856 110.55C188.875 111.322 187.006 112.053 185.933 112.537C170.991 119.227 124.975 169.366 124.283 171.822C124.221 171.96 124.204 172.114 124.232 172.262C124.697 173.236 125.296 174.14 126.012 174.948C125.714 175.368 125.371 175.754 124.987 176.098C121.198 178.001 115.518 180.829 112.329 183.568C112.11 183.723 111.935 183.932 111.821 184.175C111.707 184.418 111.658 184.686 111.68 184.954C111.701 185.221 111.792 185.478 111.944 185.7C112.095 185.921 112.301 186.1 112.543 186.217C113.051 186.454 113.145 186.411 116.797 184.921C115.758 185.64 114.87 186.557 114.184 187.62C113.844 188.562 114.66 189.227 115.79 189.179C116.434 189.087 117.058 188.893 117.641 188.606C117.267 189.06 117.032 189.613 116.965 190.197C116.898 190.782 117.001 191.373 117.263 191.9C118.769 194.323 124.189 187.859 126.819 186.412C127.662 187.776 128.665 190.854 130.885 190.324C132.814 189.85 131.256 185.547 131.568 184.387C132.364 183.781 133.202 183.233 134.077 182.747C135.32 183.911 136.792 184.804 138.399 185.368C141.306 185.702 175.163 158.568 177.753 156.384C176.03 164.077 168.014 197.018 168.147 203.621C168.215 206.61 175.231 207.844 178.19 208.345C174.862 229.384 170.582 261.345 170.385 261.661C164.56 271.185 162.976 273.787 161.058 276.655C157.576 281.789 143.244 300.563 141.361 304.988C141.084 305.688 141.034 305.968 141.638 307.394C139.093 309.52 136.695 311.815 134.458 314.263C133.287 315.913 135.558 332.811 137.832 338.963C138.351 340.344 139.213 342.478 140.681 342.593C145.104 342.941 146.905 327.118 147.289 322.681C147.304 322.545 147.269 322.408 147.191 322.295C148.126 321.195 149.128 320.154 150.191 319.177C150.707 319.627 151.257 320.036 151.836 320.401C152.404 320.734 153.127 320.353 153.666 320.004C160.064 316.063 196.237 280.269 205.158 262.444C209.217 254.306 214.67 243.044 216.789 234.862C218.104 229.686 218.781 224.369 218.805 219.028C218.813 218.953 218.851 218.885 218.91 218.838C218.969 218.791 219.044 218.77 219.119 218.779C219.194 218.787 219.262 218.825 219.309 218.884C219.356 218.943 219.377 219.018 219.369 219.093C219.641 224.498 219.193 229.915 218.035 235.202C215.405 246.592 203.533 269.594 197.654 277.879C201.936 277.586 210.658 276.875 214.922 276.115C229.144 273.519 243.261 262.52 245.978 248.659C247.095 242.11 247.854 235.505 248.252 228.874C249.178 219.762 249.036 210.574 247.828 201.496C251.796 199.899 255.487 197.913 256.848 195.856C259.763 191.46 256.561 163.87 256.053 156.171C263.481 157.864 276.117 160.833 282.626 156.851C290.094 152.139 306.636 138.367 316.477 127.449ZM146.449 321.603C143.499 319.318 139.583 314.245 139.325 310.591C140.153 309.758 141.007 309 141.821 308.129C143.79 312.047 146.397 315.61 149.535 318.673C148.45 319.588 147.419 320.566 146.449 321.603ZM312.182 114.335C312.28 114.287 312.356 114.204 312.394 114.102C312.432 114 312.43 113.887 312.388 113.787C311.903 112.571 310.516 108.324 311.855 108.014C312.628 107.817 313.227 108.35 313.702 109.029C314.415 110.183 314.927 111.449 315.218 112.774C315.238 112.881 315.288 112.981 315.361 113.062C315.434 113.143 315.528 113.203 315.632 113.236C315.737 113.268 315.848 113.271 315.954 113.245C316.06 113.218 316.157 113.164 316.235 113.087C318.221 111.334 322.856 107.35 325.32 106.419C327.187 105.706 327.415 107.445 322.645 110.896C321.567 111.538 320.522 112.234 319.514 112.982C319.456 113.045 319.419 113.125 319.409 113.211C319.399 113.296 319.417 113.382 319.459 113.457C319.406 113.915 319.718 114.469 320.406 114.066C322.092 112.898 323.854 111.842 325.679 110.905C326.614 110.39 327.665 110.118 328.733 110.114C328.018 111.674 322.596 115.514 322.117 115.958C321.969 116.063 321.868 116.222 321.836 116.4C321.804 116.579 321.843 116.763 321.945 116.912C322.047 117.062 322.204 117.166 322.382 117.201C322.56 117.236 322.744 117.201 322.896 117.101C324.997 116.057 328.755 113.49 329.885 114.066C331.015 114.642 327.132 117.517 326.162 118.191C320.602 121.996 322.23 119.327 315.696 124.61C313.47 121.528 310.825 118.773 307.836 116.424L312.182 114.335ZM225.947 189.806C225.927 187.34 225.859 184.672 225.715 181.889L226.588 180.972C230.632 176.849 232.517 169.764 232.832 164.071C233.767 172.55 234.332 180.844 234.55 189.045L225.947 189.806ZM206.681 126.47C202.453 122.414 195.699 115.48 191.842 110.824L199.295 108.11C205.071 114.898 209.81 122.505 213.355 130.683C218.696 143.896 222.188 157.783 223.733 171.95L202.693 133.527L206.751 127.103C206.807 127.004 206.83 126.889 206.817 126.776C206.805 126.662 206.757 126.556 206.681 126.47ZM220.887 107.86C220.971 108.066 221.889 110.796 223.218 115.536C223.196 115.73 222.355 120.096 222.018 121.628C219.872 120.478 217.887 119.05 216.116 117.38C216.68 115.891 219.223 109.133 219.527 107.579L220.887 107.86ZM212.458 126.063C212.618 125.76 212.79 125.352 212.987 124.875L214.097 125.627C214.716 126.144 214.606 124.775 214.759 128.72C214.684 129.372 214.777 130.114 214.722 130.911C214.079 129.356 213.255 127.672 212.476 126.065L212.458 126.063ZM211.642 124.47C208.856 119.366 205.57 114.552 201.833 110.097L214.437 117.383C213.787 118.54 212.62 122.172 211.659 124.472L211.642 124.47ZM224.004 136.351C222.795 131.339 222.055 125.809 221.548 124.323C221.638 123.888 221.689 123.446 221.7 123.002C221.944 123.126 222.204 123.216 222.472 123.269C222.642 123.29 222.814 123.25 222.956 123.155C223.098 123.059 223.201 122.916 223.246 122.751C223.454 122.186 224.021 119.27 224.131 118.622C227.769 132.151 230.524 145.902 232.378 159.788C224.857 137.467 225.685 143.774 224.021 136.353L224.004 136.351ZM234.709 171.659C232.905 151.94 228.599 127.115 222.61 108.397C225.561 108.738 228.479 109.312 231.339 110.114C231.297 123.676 230.099 123.074 231.043 123.718C231.986 124.362 237.75 127.488 238.606 127.961C238.362 129.308 235.172 168.249 234.727 171.661L234.709 171.659ZM225.053 76.8856C225.741 78.9955 225.81 81.2584 225.25 83.4059C225.043 83.9451 224.69 84.4161 224.231 84.7666C223.772 85.1171 223.225 85.3334 222.65 85.3913C222.075 85.4492 221.496 85.3465 220.976 85.0947C220.456 84.8428 220.017 84.4517 219.706 83.9648C219.069 82.0973 218.65 80.1623 218.458 78.1984C219.005 77.6365 224.221 76.9863 225.053 76.8856ZM198.786 91.718C198.176 91.351 197.547 91.0165 196.902 90.716C196.473 90.4792 196.104 90.1472 195.823 89.7456C195.542 89.344 195.357 88.8834 195.281 88.3991C195.206 87.9149 195.243 87.4198 195.388 86.9518C195.534 86.4839 195.785 86.0555 196.122 85.6995C197.339 84.8933 198.337 85.0616 199.093 86.5587C199.551 87.7002 199.524 87.7863 199.776 87.9223C199.848 87.9645 199.928 87.9907 200.011 87.9993C200.094 88.008 200.178 87.9988 200.257 87.9724C200.336 87.946 200.408 87.903 200.469 87.8462C200.531 87.7895 200.579 87.7204 200.611 87.6435C200.999 86.5707 201.172 85.4322 201.121 84.2926C201.049 83.0526 201.634 77.6574 201.689 77.4853C202.173 77.8157 202.736 78.0099 203.32 78.0476C206.523 78.2907 207.346 76.7251 208.768 75.5319C210.214 75.8409 210.433 76.58 212.186 75.9247C213.012 75.5726 213.786 75.109 214.487 74.5467C214.969 74.8122 215.43 75.1159 215.864 75.4547C216.862 76.0838 218.034 76.3766 219.211 76.2901C220.387 76.2036 221.504 75.7423 222.399 74.974C222.55 75.3663 222.684 75.7565 222.798 76.1623C221.121 76.4786 219.509 77.0715 218.027 77.9168C217.685 78.2523 217.894 80.3114 217.945 80.7993C216.448 80.8153 214.967 81.1113 213.579 81.672C213.42 80.7255 213.035 78.9497 212.173 78.3687C211.907 78.2527 211.613 78.2188 211.328 78.2715C209.714 78.336 203.826 79.391 203.032 80.2458C202.358 80.8288 203.488 86.064 203.921 86.9528C205.587 90.3217 211.63 90.0878 213.161 86.5508C213.577 85.3525 213.724 84.0772 213.59 82.8157C214.101 82.8745 215.697 82.5044 215.879 82.4718C216.781 85.3423 217.115 85.5414 218.186 88.6456C217.974 88.7819 217.627 89.0097 217.342 89.1555C215.996 89.8399 215.748 89.6685 215.778 90.029C215.79 90.1013 215.829 90.1666 215.886 90.2126C215.943 90.2586 216.015 90.2821 216.088 90.2789C216.84 90.2582 217.586 90.1399 218.307 89.9269C218.736 89.8207 219.11 89.5581 219.355 89.1905C219.976 88.1373 217.725 83.6479 216.794 82.2735C217.006 82.2978 217.539 82.0022 217.932 81.8509C218.198 83.8808 218.355 85.4697 220.168 86.4635C220.694 86.7343 221.27 86.8962 221.86 86.9395C222.45 86.9828 223.043 86.9065 223.603 86.7154C223.528 89.8486 222.896 94.8813 221.1 97.4597C220.179 98.7997 218.249 99.1312 216.915 100.174C216.524 100.468 216.698 100.97 216.763 101.495C218.093 107.164 218.13 107.151 217.944 107.843C217.089 110.709 216.033 113.51 214.785 116.227C214.366 115.983 209.717 112.789 200.461 107.905C200.39 105.879 200.007 95.0715 199.721 93.0571C199.835 92.3741 199.766 92.2054 198.796 91.6299L198.786 91.718ZM211.945 85.947C211.16 87.8026 208.405 88.3249 206.563 87.5777C204.721 86.8305 204.709 85.8473 204.074 83.4537C203.753 82.5303 203.569 81.565 203.528 80.5884C204.182 80.021 210.692 79.4481 211.499 79.4159C212.393 81.446 212.554 83.7233 211.955 85.8589L211.945 85.947ZM130.849 183.804C130.105 184.379 130.758 186.614 130.687 188.481C130.669 188.639 130.59 189.326 130.478 189.367C129.472 189.573 128.742 188.007 128.297 187.063C127.852 186.12 127.443 184.859 126.544 185.077C124.687 185.702 119.976 190.659 118.308 191.039C117.675 189.395 122.817 185.505 123.004 185.277C123.085 185.172 123.136 185.046 123.15 184.914C123.165 184.782 123.143 184.648 123.087 184.527C123.031 184.407 122.943 184.304 122.832 184.23C122.722 184.156 122.593 184.114 122.46 184.108C122.143 184.071 121.899 184.329 121.355 184.713C119.687 186.005 117.828 187.032 115.847 187.757C117.769 186.003 119.799 184.37 121.924 182.868C122.031 182.781 122.112 182.667 122.159 182.538C122.159 182.538 121.896 181.562 121.131 181.849C120.044 182.295 114.746 184.596 113.093 185.156C112.898 184.99 113.045 184.793 113.158 184.592C115.992 181.829 121.879 178.757 125.496 176.799C125.935 176.439 126.315 176.013 126.623 175.536C128.693 177.959 130.938 180.228 133.34 182.323C132.476 182.758 131.644 183.253 130.849 183.804ZM170.006 204.531C169.647 204.239 169.392 203.978 169.375 203.655C169.232 196.355 179.304 156.241 179.4 154.628C179.411 154.534 179.403 154.439 179.377 154.348C179.35 154.257 179.306 154.172 179.246 154.099C179.186 154.026 179.112 153.965 179.029 153.92C178.945 153.876 178.853 153.849 178.759 153.84C177.861 153.737 179.446 153.919 154.531 172.834C152.891 174.056 140.337 183.574 138.369 184.079C135.801 183.588 126.951 174.699 125.647 172.068C129.425 166.218 172.463 119.468 186.221 113.141C187.276 112.655 189.075 111.916 191.038 111.142C191.609 111.819 192.235 112.446 192.911 113.017C196.553 117.363 201.689 122.844 205.589 126.97L201.456 133.26C201.395 133.343 201.357 133.44 201.345 133.542C201.333 133.644 201.348 133.747 201.389 133.842C224.21 176.182 223.856 175.695 224.032 175.716C224.743 184.975 224.778 194.274 224.137 203.539C223.852 206.023 223.876 205.812 224.002 205.648C224.128 205.484 223.988 205.771 223.988 205.771C219.19 209.933 176.496 209.418 170.006 204.531ZM274.107 157.353C265.999 157.546 257.169 154.854 255.432 154.583C255.003 149.775 253.582 145.107 251.26 140.876C251.224 140.814 251.166 140.768 251.098 140.747C251.029 140.725 250.956 140.731 250.891 140.762C250.827 140.793 250.776 140.847 250.75 140.913C250.724 140.98 250.724 141.054 250.75 141.12C251.532 143.317 253.92 152.677 254.514 154.959C254.153 155.774 258.471 190.741 255.619 195.054C253.065 198.956 240.362 202.78 235.82 203.775C236.083 193.868 235.792 183.953 234.949 174.078C236.131 169.073 238.822 138.822 239.874 127.643C239.882 127.513 239.853 127.383 239.791 127.268C239.728 127.153 239.634 127.059 239.52 126.995L231.992 122.756C232.437 118.565 232.653 114.353 232.639 110.139C251.996 115.826 273.708 129.764 275.626 130.002C278.41 130.322 300.916 116.842 305.27 116.7C307.207 116.619 314.562 124.694 315.286 126.777C305.595 137.48 289.158 151.122 281.748 155.643C279.389 156.856 276.758 157.445 274.107 157.353Z" fill="#090915"/>
<path d="M210.535 82.2141C210.526 82.0959 210.494 81.9806 210.441 81.8747C210.388 81.7688 210.314 81.6744 210.225 81.597C210.135 81.5195 210.031 81.4605 209.918 81.4233C209.806 81.3861 209.687 81.3714 209.569 81.3801C209.45 81.3888 209.335 81.4207 209.229 81.4739C209.123 81.5272 209.029 81.6008 208.952 81.6905C208.874 81.7802 208.815 81.8843 208.778 81.9969C208.741 82.1094 208.726 82.2282 208.735 82.3464C208.885 84.1487 208.909 84.562 209.684 84.6511C209.83 84.6685 209.979 84.649 210.116 84.5945C210.253 84.54 210.374 84.4521 210.469 84.3389C210.563 84.2257 210.628 84.0907 210.657 83.9461C210.686 83.8016 210.679 83.652 210.636 83.511C210.615 83.223 210.552 82.3767 210.535 82.2141ZM214.586 94.4969C215.693 94.9632 216.848 94.5426 216.845 94.2567C216.842 93.9707 216.861 94.1157 215.377 93.3561C214.383 92.8491 213.395 91.3433 212.966 91.5081C212.536 91.673 213.023 92.8714 213.14 93.099C213.451 93.7142 213.961 94.2066 214.586 94.4969ZM248.733 81.4626C245.313 90.8698 242.679 98.8855 242.208 100.492C241.939 101.183 241.818 101.923 241.852 102.664C242.557 104.762 254.174 110.078 255.796 109.479C257.417 108.88 262.43 100.37 268.126 91.6526C270.954 92.0695 273.818 92.1892 276.671 92.0098C279.677 91.8081 282.646 91.2317 285.508 90.2942C291.779 88.23 299.65 77.2102 301.211 71.3917C302.611 65.0406 301.993 58.4111 299.446 52.4275C287.61 25.0944 242.666 33.9069 242.918 62.7828C243.176 69.4132 245.182 75.8575 248.733 81.4626ZM257.069 103.681C257.036 103.963 256.723 103.891 255.307 103.478C252.395 102.767 249.639 101.525 247.178 99.813C246.021 99.0018 245.703 98.8224 245.86 98.5371C246.018 98.2517 246.27 98.3878 248.112 99.135C248.289 99.1553 253.548 101.545 255.053 102.271C256.974 103.42 257.097 103.434 257.069 103.681ZM260.046 74.9796C261.916 75.2934 263.835 75.1205 265.619 74.4776C267.101 75.4179 268.745 76.073 270.467 76.4092C266.873 81.5836 259.574 92.1336 256.947 97.9011L249.714 94.9814C251.974 90.8497 257.034 81.1491 260.01 74.9756L260.046 74.9796ZM259.597 73.4464C258.305 73.0966 257.163 72.3325 256.346 71.2714C255.53 70.2103 255.084 68.9106 255.078 67.5718C254.989 63.9915 257.698 60.3042 260.991 61.6287C263.056 62.455 263.126 64.1768 262.511 66.266C262.015 67.78 260.423 71.542 259.57 73.3719L259.597 73.4464ZM264.875 69.7688C265.196 68.6375 265.755 67.5879 266.514 66.6904C266.883 66.196 267.384 65.815 267.958 65.5907C268.533 65.3665 269.16 65.3079 269.766 65.4218C271.025 65.9592 271.305 68.4906 270.053 69.9175C268.862 71.1694 267.443 72.1819 265.872 72.9001C265.4 72.5453 265.049 72.0547 264.864 71.4942C264.68 70.9337 264.671 70.3302 264.84 69.7647L264.875 69.7688ZM251.257 45.5154C260.241 36.9262 275.527 34.8627 285.807 40.0069C291.406 42.6775 295.843 47.292 298.292 52.9911C300.715 58.6848 301.307 64.9915 299.985 71.0365C298.545 76.4226 291 87.0873 285.231 88.9771C279.959 90.6865 274.366 91.1672 268.879 90.3825C268.28 90.3137 267.646 90.2408 267.368 90.6373C266.086 92.632 263.713 96.5008 261.404 100.127C260.186 99.3561 258.908 98.6839 257.583 98.117C260.299 92.5026 268.067 81.7565 271.773 76.5414C274.403 77.0742 277.126 76.9199 279.679 76.0933C280.374 75.8236 280.977 75.3612 281.419 74.7605C281.86 74.1597 282.121 73.4455 282.171 72.7016C282.221 71.9577 282.058 71.215 281.7 70.5607C281.343 69.9064 280.807 69.3676 280.154 69.0075C277.577 67.3547 274.759 70.2798 273.022 72.8114C272.554 73.4716 272.018 74.249 271.418 75.1261C270.003 74.8687 268.632 74.4167 267.341 73.783C268.789 72.9953 270.109 71.9912 271.254 70.8052C271.908 70.0269 272.305 69.0647 272.39 68.0512C272.474 67.0378 272.242 66.0231 271.725 65.1471C271.311 64.5363 270.687 64.0977 269.972 63.9137C269.257 63.7296 268.5 63.8128 267.842 64.1475C266.521 64.7638 265.406 65.7484 264.631 66.9829C263.855 68.2174 263.453 69.6494 263.472 71.107C263.57 71.9398 263.923 72.7221 264.482 73.3473C263.271 73.6931 262.003 73.7903 260.754 73.6329C261.697 71.6349 263.274 68.0139 263.749 66.5155C264.038 65.6632 264.183 64.769 264.179 63.8693C264.13 63.0918 263.857 62.3449 263.394 61.7184C262.931 61.092 262.297 60.6127 261.567 60.3383C257.426 58.6306 253.728 63.0075 253.836 67.5006C253.828 69.1053 254.338 70.6699 255.289 71.9625C256.24 73.255 257.582 74.2067 259.117 74.6765C256.133 80.7599 251.433 90.5911 249.169 94.758L245.408 93.3084C249.326 81.1201 249.591 81.4541 249.257 81.255C245.84 75.691 243.978 69.3127 243.864 62.7844C243.815 59.5483 244.448 56.3381 245.722 53.3628C246.996 50.3874 248.882 47.7137 251.257 45.5154ZM272.604 75.3695C274.094 73.2737 277.123 68.6593 279.382 70.1327C279.839 70.3808 280.219 70.7491 280.482 71.1977C280.745 71.6464 280.881 72.1583 280.874 72.6784C280.483 75.7751 275.593 75.7665 272.533 75.3614L272.604 75.3695ZM339.153 90.8893C341.42 89.8846 343.976 89.7465 346.338 90.5011C348.987 90.8536 351.401 92.2063 353.084 94.2818C354.767 96.3573 355.593 98.9982 355.391 101.663C353.901 100.553 352.075 99.9904 350.219 100.069C345.752 99.9483 339.698 101.68 339.983 106.033C340.213 109.63 344.919 109.688 348.552 109.142C352.185 108.595 355.184 107.191 356.297 103.873C360.22 107.484 360.597 113.061 360.16 118.419C360.151 118.494 360.172 118.569 360.219 118.628C360.266 118.687 360.334 118.725 360.409 118.734C360.484 118.742 360.559 118.721 360.618 118.674C360.677 118.627 360.715 118.559 360.723 118.484C361.533 112.526 361.131 106.553 356.641 102.592C356.867 101.068 356.781 99.5142 356.389 98.0243C355.997 96.5345 355.307 95.1397 354.36 93.9245C353.413 92.7092 352.23 91.6987 350.881 90.9542C349.533 90.2097 348.047 89.7466 346.514 89.593C344.109 88.9548 341.557 89.1795 339.301 90.2279C338.612 90.4701 338.857 90.9802 339.153 90.8893ZM353.769 105.368C351.479 107.747 345.685 108.455 343.128 107.715C342.177 107.445 341.431 106.949 341.335 105.921C341.106 102.324 347.405 101.102 351.048 101.396C352.539 101.452 353.97 102 355.118 102.952C354.879 103.858 354.415 104.689 353.769 105.368ZM333.451 69.3663C335.603 67.2574 334.8 63.0594 329.535 62.4364C327.491 62.2016 326.265 64.1672 326.177 66.1742C325.95 70.9499 331.304 71.4225 333.451 69.3663ZM327.421 66.2278C327.554 65.065 328.275 63.6126 329.488 63.7699C332.325 64.0959 333.477 65.5671 333.309 67.0294C332.856 70.3512 326.597 71.3813 327.421 66.2278ZM303.746 265.882C288.97 257.919 278.342 287.026 262.736 311.295C262.532 312.367 262.442 313.458 262.469 314.549C262.159 317.245 260.408 335.126 261.743 337.332C262.073 338.191 263.946 337.586 264.832 337.17C272.365 333.624 279.565 329.409 286.344 324.576C286.403 324.522 286.451 324.456 286.484 324.383C286.517 324.31 286.534 324.231 286.535 324.151C290.349 319.859 305.423 296.957 309.801 285.108C312.872 276.714 311.55 270.046 303.746 265.882ZM306.707 288.893C298.538 286.878 290.823 283.339 283.967 278.462C288.987 271.13 295.101 262.818 303.12 267.132C312.048 271.924 310.97 279.601 306.713 288.84L306.707 288.893ZM272.126 331.332C271.637 330.816 271.091 330.358 270.498 329.966C268.256 328.482 265.536 327.902 262.884 328.342C262.948 326.225 263.511 312.473 263.525 312.35C276.167 318.693 272.338 316.129 284.663 324.133C283.139 325.278 277.562 328.297 272.13 331.296L272.126 331.332ZM287.076 281.389C288.686 282.526 290.353 283.581 292.068 284.551C287.301 290.431 282.97 296.651 279.112 303.162C275.441 309.006 275.551 308.983 271.763 315.385C270.066 314.619 268.365 313.888 266.664 313.157C269.002 309.587 285.715 283.446 287.08 281.354L287.076 281.389ZM272.43 315.64C279.336 306.027 286.635 293.923 292.746 284.861C294.423 285.804 296.116 286.605 297.817 287.336C296.681 288.991 293.412 293.363 292.533 294.637C291.655 295.911 282.774 309.349 282.138 310.383C281.125 312.052 278.34 316.712 277.473 318.201C275.767 317.202 274.109 316.404 272.363 315.597L272.43 315.64ZM278.081 318.503C279.38 316.671 284.746 308.969 285.413 307.975C286.43 306.431 297.83 288.623 298.466 287.589C300.035 288.234 301.699 288.818 302.767 289.155C298.531 297.593 287.296 313.493 282.987 321.477C280.103 319.699 279.456 319.268 278.014 318.46L278.081 318.503ZM283.715 278.95L286.666 281.074C279.067 291.167 272.234 301.815 266.226 312.928L263.676 311.814C276.419 291.179 277.222 288.379 283.648 278.907L283.715 278.95ZM285.965 323.372L283.45 321.798C286.97 316.49 297.617 303.058 303.352 289.347C304.318 289.636 305.269 289.906 306.189 290.137C300.273 301.697 293.49 312.793 285.898 323.328L285.965 323.372ZM229.453 328.463C230.222 327.962 230.814 327.233 231.146 326.377C231.478 325.522 231.534 324.584 231.304 323.695C231.295 322.45 230.863 321.246 230.079 320.279C229.295 319.313 228.205 318.642 226.988 318.377C225.772 318.113 224.502 318.271 223.387 318.824C222.272 319.378 221.379 320.294 220.854 321.423C218.767 319.702 216.496 317.87 214.323 316.121C216.354 313.98 221.415 315.615 221.723 317.596C221.726 317.672 221.759 317.744 221.815 317.795C221.871 317.847 221.945 317.874 222.021 317.871C222.097 317.868 222.169 317.835 222.221 317.779C222.272 317.723 222.3 317.649 222.297 317.573C222.385 314.477 216.213 311.947 213.226 315.263C211.113 313.61 208.489 311.595 206.276 310.037C208.504 308.508 212.919 310.015 213.201 311.904C213.217 311.969 213.256 312.027 213.31 312.066C213.365 312.106 213.432 312.125 213.499 312.12C213.566 312.114 213.629 312.086 213.677 312.038C213.724 311.991 213.754 311.928 213.76 311.861C213.859 308.981 208.177 306.382 205.139 309.21C204.089 308.453 202.969 307.798 201.793 307.255C201.581 307.137 201.339 307.083 201.096 307.099C200.853 307.116 200.621 307.202 200.426 307.348C195.331 312.385 178.646 325.07 171.512 325.946C171.335 325.952 171.162 326.005 171.012 326.099C170.861 326.194 170.738 326.326 170.655 326.483C170.572 326.64 170.531 326.816 170.538 326.993C170.544 327.171 170.597 327.344 170.692 327.494C172.038 329.216 173.633 330.729 175.424 331.983C173.46 333.542 171.904 334.97 170.75 335.998C170.157 336.501 168.636 347.251 168.821 349.682C168.862 349.923 168.989 350.14 169.179 350.294C171.224 352.064 198.398 367.718 201.512 366.398C203.596 365.513 229.732 343.9 230.187 343.203C230.884 342.105 231.581 334.33 231.902 331.226C231.869 330.276 230.24 329.071 229.453 328.463ZM170.4 345.258L170.852 341.329C177.758 345.693 193.669 354.804 199.781 357.542C201.341 358.257 201.49 358.202 202.389 357.841C207.59 355.297 226.912 337.989 230.386 335.407L229.959 339.124C219.35 347.563 201.275 362.408 201.085 361.422C199.353 361.116 171.834 346.137 170.4 345.258ZM229.695 322.475C230.205 323.615 230.406 324.87 230.276 326.112C230.225 326.506 230.083 326.883 229.863 327.214C229.642 327.544 229.348 327.82 229.004 328.019C227.637 326.862 225.047 324.708 221.982 322.178C224.207 318.81 228.248 319.22 229.624 322.467L229.695 322.475ZM172.021 327.272C179.781 325.914 195.613 313.81 201.09 308.406C202.206 308.859 203.266 309.442 204.246 310.143C202.108 313.218 203.58 317.028 204.308 316.594C204.711 316.355 204.053 316.172 204.146 314.434C204.246 313.167 204.675 311.949 205.391 310.899C207.677 312.447 210.34 314.431 212.594 316.101C210.736 319.225 212.14 322.689 212.812 322.284C213.483 321.879 212.572 321.882 212.665 320.143C212.752 319.006 213.099 317.904 213.678 316.921C215.994 318.669 218.357 320.476 220.519 322.17C220.059 323.007 219.808 323.942 219.785 324.896C219.762 325.85 219.969 326.796 220.388 327.653C220.408 327.686 220.434 327.715 220.465 327.737C220.495 327.76 220.53 327.776 220.567 327.786C220.604 327.795 220.643 327.797 220.681 327.791C220.718 327.785 220.755 327.772 220.787 327.753C220.82 327.733 220.849 327.707 220.871 327.676C220.894 327.646 220.911 327.611 220.92 327.574C220.929 327.537 220.931 327.498 220.925 327.46C220.92 327.423 220.907 327.386 220.887 327.354C220.651 326.617 220.582 325.837 220.685 325.071C220.789 324.305 221.062 323.571 221.485 322.924C225.303 325.897 228.374 328.375 229.317 329.179C229.103 329.333 208.848 343.571 202.035 347.715C198.053 346.169 177.735 332.998 172.021 327.272ZM171.562 337.162C179.139 341.603 196.328 351.861 200.413 353.134C201.119 353.358 201.395 353.443 202.894 352.509C209.302 348.479 230.676 330.71 230.828 330.942C230.831 330.995 230.824 331.049 230.81 331.1L230.405 334.624C226.114 337.326 201.631 357.754 201.404 356.622C199.642 356.419 172.355 341.448 170.968 340.628C171.018 339.884 171.403 337.929 171.562 337.162ZM200.855 365.127C198.978 365.929 173.399 351.939 170.06 349.307C170.054 348.169 170.119 347.031 170.255 345.902C177.534 350.594 198.89 362.652 200.962 362.801C203.993 362.988 228.049 341.458 229.756 339.958C229.67 340.86 229.478 341.749 229.184 342.606C228.818 343.153 202.093 364.609 200.855 365.127ZM66.3011 249.039C66.2078 250.939 66.1076 252.587 65.9314 254.12C65.9046 254.354 65.9717 254.588 66.1179 254.772C66.2641 254.957 66.4775 255.075 66.7111 255.102C66.9448 255.129 67.1795 255.062 67.3637 254.916C67.5479 254.769 67.6664 254.556 67.6933 254.322C67.8816 252.684 67.9797 251.053 68.0771 249.118C68.0876 248.883 68.0041 248.653 67.845 248.479C67.6859 248.305 67.4642 248.201 67.2286 248.191C66.9931 248.18 66.7631 248.264 66.5892 248.423C66.4152 248.582 66.3116 248.804 66.3011 249.039ZM338.809 244.564C338.693 244.557 338.577 244.574 338.468 244.613C338.359 244.652 338.258 244.712 338.173 244.79C338.087 244.869 338.018 244.963 337.97 245.069C337.922 245.174 337.895 245.288 337.891 245.404C337.811 247.037 337.716 248.794 337.522 250.485C337.495 250.719 337.562 250.953 337.708 251.137C337.854 251.322 338.068 251.44 338.301 251.467C338.535 251.494 338.77 251.427 338.954 251.281C339.138 251.134 339.257 250.921 339.283 250.687C339.486 248.926 339.583 247.152 339.65 245.481C339.656 245.365 339.64 245.25 339.601 245.14C339.562 245.031 339.501 244.931 339.423 244.845C339.345 244.76 339.25 244.691 339.144 244.642C339.039 244.594 338.925 244.567 338.809 244.564ZM62.2421 244.128C62.4757 244.155 62.7105 244.088 62.8946 243.941C63.0788 243.795 63.1974 243.582 63.2242 243.348C63.2511 243.115 63.184 242.88 63.0378 242.696C62.8916 242.511 62.6782 242.393 62.4446 242.366C60.3127 242.121 58.5151 242.075 56.7573 241.837C56.522 241.81 56.2855 241.877 56.0986 242.022C55.9117 242.168 55.7892 242.38 55.7576 242.615C55.7307 242.849 55.7978 243.084 55.944 243.268C56.0902 243.452 56.3036 243.57 56.5372 243.597C58.3479 243.841 60.3468 243.999 62.2421 244.128ZM333.947 238.721C331.832 238.478 330.039 238.397 328.257 238.21C328.024 238.183 327.789 238.25 327.605 238.396C327.421 238.543 327.302 238.756 327.275 238.99C327.248 239.223 327.315 239.458 327.462 239.642C327.608 239.826 327.821 239.945 328.055 239.972C329.958 240.19 331.931 240.417 333.85 240.495C334.085 240.508 334.316 240.427 334.491 240.269C334.667 240.112 334.772 239.892 334.785 239.656C334.798 239.421 334.717 239.19 334.56 239.015C334.402 238.839 334.182 238.734 333.947 238.721ZM67.5807 233.71C67.5002 235.343 67.4054 237.099 67.2111 238.79C67.1889 239.023 67.2577 239.255 67.4031 239.438C67.5484 239.622 67.7591 239.741 67.9908 239.772C68.2244 239.799 68.4591 239.732 68.6433 239.586C68.8275 239.44 68.946 239.226 68.9729 238.993C69.1754 237.231 69.2721 235.457 69.3567 233.789C69.3672 233.553 69.2837 233.323 69.1246 233.149C68.9655 232.975 68.7438 232.872 68.5083 232.861C68.2728 232.851 68.0427 232.934 67.8688 233.093C67.6948 233.252 67.5912 233.474 67.5807 233.71ZM340.563 235.358C340.766 233.596 340.862 231.822 340.929 230.152C340.94 229.916 340.856 229.686 340.697 229.512C340.538 229.338 340.316 229.235 340.081 229.224C339.845 229.214 339.615 229.297 339.441 229.456C339.267 229.615 339.164 229.837 339.153 230.072C339.073 231.706 338.978 233.462 338.784 235.153C338.757 235.387 338.824 235.622 338.97 235.806C339.116 235.99 339.33 236.109 339.563 236.135C339.799 236.162 340.035 236.096 340.222 235.951C340.409 235.805 340.531 235.592 340.563 235.358ZM79.3581 245.863C79.4743 245.871 79.5911 245.857 79.7019 245.821C79.8126 245.784 79.915 245.726 80.0034 245.65C80.0917 245.574 80.1641 245.482 80.2166 245.378C80.269 245.273 80.3005 245.16 80.309 245.044C80.3177 244.811 80.2382 244.584 80.0863 244.407C79.9344 244.231 79.7214 244.119 79.4901 244.093C77.3481 243.936 75.5606 243.802 73.7852 243.562C73.5516 243.535 73.3169 243.602 73.1327 243.749C72.9485 243.895 72.8299 244.108 72.8031 244.342C72.7762 244.576 72.8433 244.81 72.9895 244.994C73.1357 245.179 73.3491 245.297 73.5828 245.324C75.4639 245.576 77.4452 245.732 79.3581 245.863ZM351.063 240.456C349.291 240.341 347.329 240.169 345.373 239.945C345.258 239.927 345.139 239.932 345.026 239.961C344.912 239.99 344.806 240.041 344.712 240.112C344.619 240.183 344.541 240.272 344.483 240.374C344.426 240.476 344.389 240.588 344.376 240.705C344.349 240.94 344.415 241.177 344.56 241.364C344.706 241.55 344.919 241.673 345.153 241.705C347.162 241.935 348.783 242.122 350.931 242.226C351.047 242.234 351.164 242.22 351.274 242.184C351.385 242.147 351.488 242.089 351.576 242.013C351.664 241.937 351.737 241.845 351.789 241.74C351.842 241.636 351.873 241.523 351.882 241.407C351.886 241.175 351.805 240.95 351.654 240.775C351.503 240.599 351.292 240.485 351.063 240.456ZM44.8703 189.007C45.0791 189.21 95.6087 187.555 97.8904 186.496C98.0183 186.424 98.1257 186.32 98.2026 186.194C98.2795 186.069 98.3232 185.926 98.3298 185.779C98.591 183.506 98.0653 161.829 97.2496 156.344C97.1483 155.672 97.0471 155 96.6682 154.724C94.1589 152.793 45.6317 156.285 42.5846 157.791C42.5025 157.828 42.429 157.882 42.3691 157.948C42.3091 158.015 42.2639 158.094 42.2365 158.18C41.3925 160.243 43.459 187.774 44.8703 189.007ZM43.2626 158.726C46.8214 157.582 90.8402 154.643 95.7024 155.827C96.5462 159.048 97.1572 182.003 96.988 185.339C94.456 185.78 45.6066 188.503 45.4264 188.518C45.2462 188.533 45.2042 188.742 44.9618 187.59C43.9459 182.761 42.717 162.698 43.2626 158.726Z" fill="#6564E3"/>
<path d="M101.585 188.51C101.701 188.343 101.767 188.146 101.775 187.943C102.097 185.142 101.653 153.584 100.512 150.936C100.421 150.74 100.28 150.571 100.103 150.448C99.9258 150.324 99.7191 150.249 99.5038 150.231C93.6848 148.83 42.7781 152.834 39.24 154.73C38.7455 154.995 38.7248 155.796 38.6805 156.647C38.4299 161.313 39.9309 192.368 41.713 192.394C41.9068 192.416 41.8525 192.267 41.2871 193.148C37.8888 198.488 30.5925 216 30.2791 219.659C30.103 221.192 30.2266 223.224 31.7539 223.292C42.7782 223.202 97.0451 220.87 112.735 219.478C113.349 219.423 113.799 218.921 113.885 218.021C113.876 216.503 113.589 215 113.038 213.586C111.352 209.304 104.273 192.3 101.585 188.51ZM41.8815 191.86C40.7097 189.94 39.1417 159.003 39.916 155.683C44.0228 154.12 94.2336 150.268 99.289 151.634C100.253 155.672 100.683 184.087 100.525 187.478C94.0414 188.911 50.0575 190.925 41.8815 191.86ZM42.5959 192.478C44.1184 192.278 95.4938 189.631 100.25 188.946C102.5 191.579 111.555 213.13 112.096 214.941C101.781 215.541 40.639 218.672 31.6584 218.997C32.3952 213.673 40.0185 195.645 42.5959 192.478Z" fill="#6564E3"/>
<path d="M47.1225 211.509C48.6816 211.456 81.6543 211.282 93.7721 209.443C93.8466 209.433 93.914 209.393 93.9594 209.333C94.0048 209.273 94.0245 209.198 94.0142 209.123C94.0038 209.049 93.9642 208.981 93.9042 208.936C93.8441 208.89 93.7685 208.871 93.6939 208.881C91.3312 209.091 62.7461 209.609 47.15 210.958C47.1088 210.946 47.0653 210.943 47.0228 210.95C46.9803 210.957 46.9399 210.973 46.9047 210.998C46.8695 211.023 46.8404 211.055 46.8197 211.093C46.7989 211.131 46.787 211.173 46.7848 211.216C46.7827 211.259 46.7904 211.302 46.8073 211.341C46.8242 211.381 46.8498 211.416 46.8824 211.444C46.9149 211.473 46.9534 211.493 46.995 211.504C47.0366 211.515 47.0802 211.517 47.1225 211.509ZM84.9766 91.6522C84.1476 93.0631 83.4184 94.5301 82.7941 96.0427C82.7391 96.2906 82.7793 96.5501 82.9069 96.7697C84.3786 99.6521 100.251 122.308 104.676 125.744C105.281 126.224 106.024 126.595 106.566 126.068C110.516 122.166 115.409 119.352 120.768 117.9C125.109 116.904 129.577 116.58 134.017 116.941C137.577 117.029 138.234 116.748 139.856 114.596C141.805 111.742 144.242 109.255 147.055 107.247C150.631 104.779 154.514 102.789 158.606 101.327C158.792 101.249 158.946 101.11 159.044 100.934C159.142 100.757 159.178 100.553 159.147 100.354C158.725 98.77 158.102 97.2467 157.293 95.8211C157.952 95.6826 158.679 95.5698 158.752 94.9355C158.954 93.1737 146.146 69.1741 142.364 64.491C141.975 63.9999 141.407 63.3456 140.822 63.3141C131.956 62.7951 122.42 70.1249 116.618 76.8127C110.951 75.9473 107.328 75.0132 100.531 76.999C95.7303 78.4159 91.2742 80.8087 87.4415 84.0276C86.8502 84.513 82.8188 87.9055 82.7315 88.1989C82.6442 88.4924 82.75 88.5045 84.9766 91.6522ZM155.506 99.2573C148.016 99.664 142.627 105.239 138.41 111.484C136.537 114.268 136.662 114.425 135.045 114.204C132.229 113.717 129.374 113.497 126.517 113.545C124.417 113.616 122.329 113.89 120.282 114.364C115.625 115.435 109.915 119.92 106.751 123.376C106.684 123.447 106.603 123.503 106.513 123.54C106.422 123.578 106.326 123.596 106.228 123.593C106.131 123.59 106.035 123.567 105.947 123.524C105.859 123.482 105.781 123.422 105.719 123.347C100.671 116.787 91.731 105.263 87.3237 98.7231C87.1074 98.4305 87.5748 98.0915 87.789 98.4018C90.6787 102.304 98.2185 111.721 106.29 121.949C109.825 118.374 115.128 114.164 120.023 113.048C122.693 112.428 125.43 112.143 128.171 112.2C130.732 112.299 133.282 112.592 135.799 113.076C136.977 111.998 143.684 98.9877 155.522 98.8128C155.553 98.8418 155.577 98.8775 155.593 98.9171C155.608 98.9568 155.615 98.9995 155.612 99.042C155.608 99.0845 155.596 99.1258 155.574 99.1627C155.553 99.1996 155.524 99.2313 155.489 99.2553L155.506 99.2573ZM140.64 64.7391C143.88 67.6106 155.782 90.4885 157.222 94.4206C153.864 95.075 150.58 96.0672 147.421 97.3821C144.448 98.4683 141.754 100.204 139.537 102.463C137.32 104.722 135.634 107.447 134.603 110.44C129.46 99.4239 121.936 87.0811 117.026 78.0735C117.405 77.8849 129.021 64.1001 140.64 64.7391ZM100.807 78.0125C107.535 76.1616 111.025 77.1696 116.32 78.0101C120.568 87.638 128.603 101.45 133.9 110.502C128.284 108.472 122.113 108.61 116.594 110.887C113.273 112.291 108.981 116.082 106.336 118.438C103.265 115.336 86.1336 92.3029 83.4024 88.4189C88.8574 83.5119 93.7866 79.9191 100.815 77.9421L100.807 78.0125ZM63.417 119.111C63.0167 118.755 62.5217 118.523 61.9922 118.443C61.4627 118.363 60.9215 118.439 60.434 118.661C60.085 118.771 59.7611 118.948 59.4807 119.183C59.2003 119.418 58.9689 119.707 58.7999 120.031C58.6308 120.356 58.5273 120.71 58.4953 121.075C58.4633 121.439 58.5034 121.807 58.6133 122.156C58.7232 122.505 58.9008 122.829 59.1359 123.109C59.371 123.389 59.6591 123.621 59.9836 123.79C60.3081 123.959 60.6628 124.062 61.0273 124.094C61.3918 124.126 61.7591 124.086 62.1081 123.976C62.6518 123.921 63.166 123.702 63.5824 123.348C63.9988 122.994 64.2978 122.522 64.4398 121.995C64.5817 121.467 64.5599 120.908 64.3773 120.393C64.1946 119.878 63.8597 119.431 63.417 119.111ZM61.8493 122.501C60.5715 122.747 59.876 122.274 59.6454 121.64C59.2253 120.325 60.1507 118.485 61.9182 119.26C63.1497 119.883 63.9402 122.17 61.8391 122.589L61.8493 122.501ZM162.27 48.7848C162.662 49.883 165.085 49.7687 166.163 49.5534C166.729 49.44 167.104 49.2867 167.217 48.7642C167.528 47.461 169.02 36.0295 168.548 34.8507C168.5 34.7272 168.416 34.6208 168.307 34.5447C168.198 34.4687 168.07 34.4265 167.937 34.4234C166.058 34.2022 164.156 34.2604 162.294 34.5961C161.521 34.9535 161.77 47.5491 162.27 48.7848ZM162.615 35.0614C164.27 35.0156 165.924 35.1281 167.557 35.3973C167.513 36.7132 165.933 47.974 165.896 48.1482C165.121 48.3294 164.315 48.3344 163.538 48.1628C163.461 47.7435 163.375 46.6268 163.269 45.2222C162.87 41.8494 162.652 38.4576 162.615 35.0614ZM63.4168 104.044C63.5759 104.15 63.7579 104.217 63.9478 104.239C64.1377 104.261 64.3301 104.237 64.5091 104.17C65.238 103.828 65.8484 103.277 66.262 102.586C66.3202 102.475 66.3485 102.35 66.3442 102.225C66.3398 102.099 66.303 101.977 66.2373 101.869C65.507 100.768 57.504 89.0129 56.2995 89.5528C54.8121 90.29 53.3835 91.1403 52.0264 92.0964C51.9717 92.1351 51.9257 92.1848 51.8914 92.2424C51.8572 92.2999 51.8353 92.364 51.8274 92.4306C51.6869 93.3427 60.9972 102.731 63.4168 104.044ZM56.4582 90.0352C57.6371 91.1167 61.3557 96.9707 64.828 102.172C64.6239 102.424 64.382 102.643 64.1107 102.821C60.198 99.6327 56.5093 96.1789 53.0708 92.4842C54.1419 91.5905 55.2738 90.7722 56.4582 90.0352ZM88.6027 54.3501C89.7759 47.5587 94.122 44.845 98.373 44.5124C96.6946 48.7108 96.2405 54.3709 100.439 55.5852C102.444 56.1548 103.57 55.2131 105.191 54.1499C112.124 49.5913 107.622 43.7187 100.444 43.2687C103.942 36.2805 110.773 31.0498 118.953 31.7933C119.028 31.8019 119.103 31.7805 119.162 31.7337C119.221 31.6869 119.259 31.6186 119.267 31.5438C119.276 31.4691 119.254 31.394 119.208 31.335C119.161 31.2761 119.092 31.2382 119.018 31.2296C110.229 30.0411 102.576 35.588 98.9341 43.2024C94.137 43.4722 89.0632 46.4593 88.0511 54.1796C88.0399 54.2158 88.0359 54.2539 88.0395 54.2916C88.043 54.3294 88.0539 54.366 88.0716 54.3996C88.0893 54.4331 88.1134 54.4628 88.1426 54.487C88.1718 54.5112 88.2054 54.5294 88.2417 54.5406C88.2779 54.5518 88.3159 54.5558 88.3537 54.5523C88.3914 54.5487 88.4281 54.5378 88.4617 54.5201C88.4952 54.5024 88.5249 54.4783 88.5491 54.4491C88.5733 54.4199 88.5915 54.3863 88.6027 54.3501ZM99.8949 44.4731C102.54 44.5985 106.358 45.8584 107.16 48.3604C107.62 49.7879 106.812 51.3907 104.416 52.972C103.755 53.498 103.02 53.9247 102.236 54.2387C99.4634 55.0626 96.9133 51.4671 99.8949 44.4731ZM76.2998 294.226C74.65 293.575 72.8866 293.26 71.1133 293.3C69.34 293.34 67.5926 293.735 65.974 294.46C64.3554 295.186 62.8983 296.227 61.6883 297.524C60.4784 298.822 59.5401 300.347 58.9287 302.013C57.7371 305.481 57.9721 309.28 59.582 312.575C61.1919 315.87 64.0448 318.391 67.5131 319.582C70.9813 320.774 74.7809 320.539 78.0759 318.929C81.3709 317.319 83.8914 314.466 85.083 310.998C85.6145 309.32 85.8087 307.554 85.6544 305.801C85.5001 304.048 85.0003 302.342 84.1838 300.783C83.3673 299.224 82.2503 297.842 80.8972 296.717C79.544 295.591 77.9816 294.745 76.2998 294.226ZM80.0938 309.211C79.0629 311.949 77.0863 314.228 74.5214 315.636C71.9566 317.043 68.9727 317.487 66.1092 316.886C63.5717 315.543 61.5892 313.348 60.5106 310.687C59.4319 308.026 59.3263 305.07 60.2122 302.339C61.2033 299.526 63.1734 297.165 65.7623 295.686C68.3512 294.207 71.386 293.709 74.3118 294.284C76.8675 295.7 78.8414 297.973 79.8862 300.702C80.9309 303.431 80.9795 306.441 80.0233 309.203L80.0938 309.211Z" fill="#6564E3"/>
<path d="M99.1888 301.945C97.7158 301.24 96.0867 300.924 94.4568 301.027C93.9693 299.433 93.3208 297.893 92.5215 296.431C93.7861 295.523 97.2542 292.994 96.6525 291.55C94.327 288.015 91.4439 284.881 88.1153 282.269C86.7161 281.259 85.1306 280.537 83.4505 280.144C82.3047 280.173 79.1226 284.252 78.4103 285.17C78.0227 285.125 76.6991 284.527 76.5994 284.462C76.7452 283.193 76.9016 278.57 75.8172 277.91C74.5907 277.291 73.2983 276.813 71.9644 276.485C70.7358 276.148 59.2409 276.916 58.2387 278.336C57.5751 279.295 58.4002 283.299 58.6467 284.416C57.6364 284.83 56.6563 285.314 55.7134 285.864C53.8079 286.912 54.2896 286.914 53.9887 286.737C53.6264 286.51 53.2295 286.344 52.8135 286.245C51.501 285.258 49.8866 284.757 48.2459 284.827C46.5643 285.17 41.741 293.434 40.8673 295.6C40.6006 296.141 40.4764 296.742 40.5062 297.344C40.7955 298.555 43.5071 299.813 44.645 300.319C44.0585 302.548 43.7939 304.85 43.8594 307.155C42.2604 307.399 38.927 307.98 38.9209 309.586C38.9149 311.192 41.835 322.131 43.4488 323.155C44.3248 323.786 45.323 324.228 46.3795 324.45C47.4359 324.673 48.5273 324.673 49.5836 324.449C50.1893 324.229 50.7798 323.969 51.351 323.671C51.995 324.28 52.6803 324.841 53.3853 325.386C52.6832 326.68 51.1193 329.571 51.349 330.989C51.4598 331.734 52.0149 332.03 52.7909 332.422C54.9353 333.49 66.6541 337.764 68.5228 337.658C69.2221 337.631 69.6751 336.951 69.9655 336.288C70.5366 334.769 70.9507 333.196 71.2012 331.593C72.1163 331.607 73.0315 331.575 73.9434 331.497C74.3775 332.517 74.9746 333.46 75.7111 334.289C76.5368 335.026 77.3308 334.796 78.4276 334.262C78.848 334.953 79.4867 335.919 80.2694 336.098C82.234 336.556 91.3525 329.749 92.3804 328.261C93.237 327.02 90.936 324.364 89.9103 323.193C91.3633 321.471 92.5689 319.555 93.4921 317.499C94.7408 317.837 96.0186 318.055 97.3085 318.152C97.8899 318.219 98.5837 318.084 98.8931 317.567C100.249 315.241 100.999 305.92 100.513 303.472C100.486 302.773 99.7459 302.224 99.1888 301.945ZM99.4254 303.615C99.7612 305.974 98.9609 314.647 97.8229 316.783C96.2823 316.758 94.7535 316.51 93.284 316.047C93.1267 316.001 92.958 316.016 92.8109 316.088C92.6639 316.161 92.5492 316.285 92.4894 316.438C91.5141 318.739 90.1662 320.864 88.5 322.727C88.3825 322.85 88.3171 323.013 88.3175 323.183C88.318 323.353 88.3843 323.516 88.5024 323.638C89.626 324.759 90.5391 326.074 91.1983 327.518C90.1514 328.861 82.5379 334.377 80.5744 334.687C80.2925 334.654 79.6388 333.508 79.4774 333.204C78.9389 332.151 78.4675 331.066 78.0658 329.954C78.0071 329.792 77.89 329.657 77.7374 329.577C77.5849 329.497 77.4078 329.476 77.241 329.52C71.911 330.853 70.1026 329.503 69.9568 330.771C69.7408 332.671 69.2145 334.522 68.3989 336.251C64.3102 335.325 60.3375 333.946 56.5541 332.141C56.9605 330.282 57.696 328.51 58.726 326.91C59.3902 325.791 57.2376 325.882 53.7527 321.412C53.6392 321.28 53.48 321.195 53.3068 321.175C53.1337 321.155 52.9595 321.201 52.8189 321.305C50.8911 322.547 48.4388 323.693 48.007 323.411C47.1591 322.868 44.0979 313.001 44.0699 311.07C45.4234 310.341 46.9149 309.904 48.4479 309.788C48.6131 309.761 48.7629 309.676 48.8696 309.547C48.9763 309.418 49.0327 309.255 49.0283 309.087C48.8832 306.543 49.1763 303.992 49.8948 301.547C49.9394 301.396 49.9253 301.234 49.8553 301.094C49.7853 300.953 49.6647 300.845 49.5177 300.789C48.2295 300.289 47.01 299.627 45.8883 298.819C45.5331 298.493 45.5663 298.515 45.636 298.219C47.249 294.237 49.5248 290.558 52.3668 287.336C53.3486 287.181 55.7042 289.362 56.5082 290.132C56.59 290.232 56.7075 290.296 56.8357 290.311C56.964 290.326 57.093 290.29 57.1953 290.211C58.1013 289.465 59.0623 288.788 60.07 288.185C62.9808 286.467 63.6728 286.814 63.5248 286.083C62.918 284.223 62.6825 282.261 62.8316 280.309C63.1308 280.114 63.4612 279.97 63.8085 279.886C65.5281 279.425 67.2789 279.089 69.0472 278.881C71.2009 278.54 73.3858 278.437 75.562 278.577C75.9138 278.778 76.0643 280.42 76.0957 280.923C76.3426 284.522 75.8192 285.193 76.324 285.305C81.2885 286.375 82.1504 287.885 82.5737 287.308C83.747 285.712 85.0707 284.233 86.5267 282.889C86.9392 282.562 86.9418 282.384 87.9789 283.145C91.0458 285.693 93.7105 288.69 95.883 292.033C96.0946 292.522 93.5249 294.69 91.6871 295.924C91.047 296.369 91.8488 296.693 93.0319 299.756C94.215 302.82 93.7695 303.59 94.6002 303.507C96.2055 303.312 97.8304 303.349 99.4254 303.615ZM360.866 184.497C357.346 182.564 353.591 181.094 349.694 180.124C346.857 179.334 343.51 178.486 340.68 177.786C343.896 174.192 353.226 165.232 354.878 162.976C355.34 162.369 354.706 161.368 354.222 160.759C351.533 157.13 345.755 155.216 341.291 153.989C338.732 153.267 327.998 150.676 326.046 151.345C323.705 152.147 304.45 174.925 303.526 178.621C303.453 179.256 303.636 179.526 304.226 179.826C306.707 181.075 318.218 183.898 320.754 184.814C316.522 190.575 298.464 209.618 296.594 212.384C296.139 213.081 296.317 213.548 296.741 213.74C298.254 214.551 299.828 215.245 301.447 215.816C302.059 216.082 303.55 215.379 305.718 214.379C315.437 209.962 357.403 188.686 360.781 185.701C360.873 185.632 360.949 185.544 361.003 185.444C361.058 185.343 361.091 185.232 361.099 185.118C361.107 185.004 361.09 184.889 361.05 184.782C361.01 184.675 360.947 184.577 360.866 184.497ZM320.575 201.287C304.464 209.45 299.075 211.759 298.885 211.862C301.722 208.457 319.075 189.637 322.213 185.017C322.268 184.927 322.303 184.826 322.315 184.721C322.326 184.616 322.315 184.51 322.28 184.41C322.245 184.31 322.188 184.22 322.114 184.144C322.04 184.069 321.95 184.012 321.85 183.976C320.161 183.139 307.493 180.291 304.586 178.868C305.351 175.636 324.194 152.703 326.246 151.939C328.297 151.175 346.839 155.573 350.073 158.497C347.808 161.896 336.136 173.372 334.141 176.124C333.738 176.684 333.565 177.254 334.199 177.487C334.833 177.72 351.171 181.562 354.647 183.157C349.819 186.333 325.889 198.542 320.583 201.217L320.575 201.287ZM219.933 80.582C219.914 80.7405 219.998 80.9465 220.145 81.9987C220.189 82.2283 220.32 82.4321 220.51 82.5672C220.701 82.7022 220.937 82.7582 221.168 82.7232C221.4 82.6836 221.607 82.5535 221.742 82.3616C221.878 82.1696 221.932 81.9316 221.893 81.6998C221.795 80.9924 221.704 80.3928 221.63 80.0987C221.55 79.8935 221.396 79.7255 221.198 79.6276C221.001 79.5298 220.774 79.509 220.562 79.5693C220.35 79.6297 220.168 79.7668 220.052 79.9541C219.935 80.1413 219.893 80.3651 219.933 80.582Z" fill="#6564E3"/>
</g>
<defs>
<clipPath id="clip0_145_24506">
<rect width="354.683" height="354.683" fill="white" transform="translate(40.4922) rotate(6.5554)"/>
</clipPath>
</defs>
</svg>
