<svg width="508" height="488" viewBox="0 0 508 488" fill="none" xmlns="http://www.w3.org/2000/svg">
<path d="M149.235 45.9188C149.087 45.9622 148.962 46.0621 148.888 46.1968C148.813 46.3315 148.794 46.4902 148.835 46.6387C148.835 47.1719 149.075 47.0119 152.355 47.1985C155.181 47.3585 157.687 47.4918 158.913 47.4918H159.66C159.768 47.4628 159.868 47.4056 159.947 47.326C160.027 47.2465 160.084 47.1473 160.113 47.0386C160.142 46.9313 160.142 46.8183 160.114 46.7108C160.086 46.6033 160.031 46.5049 159.953 46.4254C159.126 45.5989 149.315 45.8921 149.235 45.9188ZM145.556 30.0287C145.356 33.1805 145.356 36.3417 145.556 39.4935C145.556 39.8134 145.369 40.9865 146.222 40.9865C146.395 40.9866 146.56 40.9201 146.685 40.8008C146.809 40.6815 146.882 40.5187 146.889 40.3466C147.101 36.9106 147.101 33.4647 146.889 30.0287C146.889 29.8519 146.819 29.6824 146.694 29.5574C146.569 29.4324 146.399 29.3622 146.222 29.3622C146.046 29.3622 145.876 29.4324 145.751 29.5574C145.626 29.6824 145.556 29.8519 145.556 30.0287ZM133.638 44.6391C133.499 44.7043 133.383 44.8111 133.307 44.9447C133.23 45.0784 133.197 45.2324 133.212 45.3856C133.212 46.4254 134.385 46.3187 136.011 46.5054C137.506 46.6405 138.992 46.8541 140.464 47.1452C140.604 47.1368 140.738 47.0842 140.847 46.9949C140.956 46.9056 141.033 46.7842 141.069 46.6481C141.104 46.512 141.096 46.3682 141.045 46.2372C140.993 46.1062 140.902 45.9947 140.784 45.9188C138.494 45.0809 136.076 44.6478 133.638 44.6391ZM144.303 50.2379C142.81 57.1165 142.57 58.3696 143.61 58.3696C144.649 58.3696 144.543 57.943 145.743 50.6112C145.743 49.678 144.303 49.3048 144.303 50.2379ZM166.672 3.2875C163.819 7.84657 167.578 15.1251 173.257 13.952C174.872 13.7474 176.364 12.9807 177.471 11.7863C178.577 10.5919 179.228 9.04618 179.309 7.41999C179.922 0.994637 170.351 -2.57797 166.672 3.2875ZM168.298 10.1928C167.78 9.4177 167.443 8.5355 167.314 7.61213C167.185 6.68876 167.266 5.74811 167.551 4.86052C169.258 -0.471731 177.149 0.941315 177.976 6.08693C178.536 9.2063 171.897 15.7383 168.298 10.1928ZM37.2847 72.5267C37.1356 72.5318 36.9912 72.5798 36.8689 72.6651C36.7465 72.7504 36.6514 72.8692 36.5951 73.0073C36.5387 73.1453 36.5235 73.2968 36.5512 73.4433C36.579 73.5898 36.6485 73.7252 36.7514 73.8331C38.1378 75.3261 43.0168 84.071 45.8162 86.6572C47.096 85.6174 55.0144 72.58 54.5345 71.8602C48.8229 72.6764 43.0422 72.8997 37.2847 72.5267ZM52.8548 72.98C50.9816 77.1898 48.5612 81.1342 45.6563 84.7109L38.8843 74.0464C43.5663 74.2097 48.2519 73.852 52.8548 72.98ZM15.4758 305.599C15.6533 305.598 15.8242 305.532 15.9557 305.413C16.0315 305.34 16.0919 305.253 16.1331 305.157C16.1744 305.061 16.1956 304.957 16.1956 304.853C16.1956 304.748 16.1744 304.644 16.1331 304.548C16.0919 304.452 16.0315 304.365 15.9557 304.293C14.1467 302.812 12.0882 301.665 9.87691 300.907C9.66345 300.922 9.46361 301.017 9.31703 301.173C9.24023 301.288 9.19922 301.422 9.19922 301.56C9.19922 301.698 9.24023 301.832 9.31703 301.947C9.31703 302.107 9.6103 302.24 11.3166 303.146C12.6319 303.757 13.8824 304.498 15.0492 305.359C15.1558 305.49 15.3083 305.576 15.4758 305.599ZM16.3289 311.838C14.3837 314.523 12.8223 317.466 11.6899 320.583C11.6757 320.719 11.7073 320.856 11.7798 320.972C11.8522 321.087 11.9613 321.176 12.0898 321.223H12.3297C12.4254 321.221 12.5192 321.195 12.6028 321.149C12.6865 321.102 12.7575 321.036 12.8097 320.956L14.0361 318.69C15.2092 316.557 16.7022 313.624 17.4754 312.798C17.6141 312.65 17.6912 312.454 17.6912 312.251C17.6912 312.048 17.6141 311.853 17.4754 311.705C17.4192 311.591 17.3295 311.498 17.2186 311.438C17.1076 311.378 16.9807 311.354 16.8553 311.368C16.7298 311.383 16.612 311.436 16.5178 311.52C16.4236 311.604 16.3576 311.715 16.3289 311.838ZM27.9266 294.828C28.0412 294.705 28.1155 294.549 28.1393 294.382C28.1631 294.216 28.1354 294.045 28.0599 293.895C27.9553 293.731 27.7949 293.612 27.6085 293.558C27.4221 293.504 27.2225 293.519 27.0467 293.602C25.211 295.58 23.7639 297.887 22.7809 300.4C22.7698 300.486 22.7764 300.574 22.8002 300.657C22.824 300.741 22.8646 300.819 22.9195 300.886C22.9744 300.954 23.0424 301.009 23.1194 301.049C23.1965 301.089 23.2809 301.114 23.3675 301.12C23.5279 301.13 23.6864 301.081 23.8138 300.983C23.9411 300.885 24.0288 300.744 24.0607 300.587C24.9012 298.87 25.9295 297.251 27.1267 295.761C27.7133 295.148 27.8732 294.935 27.9266 294.828ZM27.2867 308.452C27.2009 308.429 27.1115 308.424 27.0235 308.435C26.9356 308.447 26.8508 308.476 26.7741 308.521C26.6973 308.565 26.6301 308.625 26.5762 308.695C26.5224 308.766 26.483 308.846 26.4602 308.932C26.4374 309.018 26.4318 309.107 26.4436 309.195C26.4554 309.283 26.4844 309.368 26.529 309.444C26.5735 309.521 26.6328 309.588 26.7033 309.642C26.7739 309.696 26.8543 309.736 26.9401 309.758C27.5 309.918 35.5517 312.238 36.1649 312.238C36.285 312.224 36.3988 312.177 36.4932 312.102C36.5875 312.026 36.6586 311.925 36.6981 311.811C36.732 311.689 36.7271 311.559 36.6841 311.44C36.6411 311.32 36.5622 311.217 36.4582 311.145C36.0582 310.851 27.3933 308.479 27.2867 308.452ZM475.862 162.508C475.786 162.412 475.689 162.336 475.577 162.285C475.466 162.234 475.344 162.21 475.222 162.215C475.116 162.215 475.012 162.245 474.922 162.302C474.833 162.358 474.761 162.439 474.715 162.535C472.049 166.747 466.397 176.399 465.811 177.412C465.675 177.503 465.573 177.635 465.52 177.789C465.468 177.943 465.466 178.11 465.517 178.265C465.548 178.404 465.626 178.527 465.738 178.615C465.85 178.702 465.989 178.748 466.131 178.745C486.473 176.852 485.807 177.065 486.046 176.479C486.286 175.892 486.606 177.172 475.862 162.508ZM484.074 175.652L467.464 177.172C469.597 173.733 473.249 167.627 474.849 164.935C475.062 164.588 475.222 164.295 475.355 164.108C479.781 170.107 482.714 173.999 484.074 175.652ZM493.378 133.554C492.089 132.562 490.522 131.997 488.896 131.938C487.27 131.879 485.667 132.329 484.309 133.226C482.952 134.122 481.908 135.42 481.323 136.939C480.739 138.457 480.643 140.12 481.049 141.695C481.456 143.271 482.344 144.68 483.589 145.726C484.835 146.773 486.377 147.404 487.998 147.532C489.62 147.66 491.242 147.279 492.636 146.441C494.031 145.603 495.129 144.351 495.778 142.859C496.327 141.243 496.392 139.502 495.966 137.849C495.539 136.196 494.64 134.704 493.378 133.554ZM483.354 143.499C482.489 142.32 482.046 140.883 482.097 139.422C482.149 137.96 482.691 136.558 483.637 135.443C484.583 134.328 485.877 133.563 487.311 133.274C488.745 132.985 490.234 133.187 491.539 133.848C492.925 134.753 493.988 136.074 494.577 137.621C495.167 139.168 495.251 140.861 494.818 142.459C494.318 143.507 493.554 144.408 492.601 145.071C491.648 145.735 490.539 146.139 489.382 146.244C488.225 146.349 487.061 146.151 486.004 145.669C484.947 145.188 484.034 144.44 483.354 143.499ZM395.398 173.973C391.319 178.212 395.665 187.623 402.517 185.704C403.879 185.288 405.081 184.467 405.963 183.349C406.845 182.231 407.364 180.87 407.451 179.449C407.538 178.028 407.189 176.614 406.45 175.397C405.711 174.18 404.618 173.218 403.317 172.64C402.016 172.039 400.564 171.845 399.152 172.083C397.739 172.321 396.431 172.979 395.398 173.973ZM406.409 178.478C406.501 179.695 406.234 180.911 405.642 181.977C405.05 183.043 404.158 183.913 403.077 184.477C396.998 187.57 392.865 179.145 395.425 175.226C396.146 174.179 397.18 173.388 398.378 172.964C399.577 172.54 400.878 172.507 402.097 172.868C403.316 173.228 404.389 173.965 405.164 174.973C405.938 175.981 406.374 177.208 406.409 178.478ZM389.746 164.241C389.613 164.455 389.746 164.775 390.039 164.695C402.037 160.909 401.584 161.122 401.557 160.749C399.424 136.167 385.96 116.038 385.374 116.251C375.189 119.584 375.056 119.264 375.296 119.77C382.008 133.91 386.865 148.857 389.746 164.241ZM385.667 117.717C398.278 139.046 399.691 155.683 400.037 159.629C396.625 160.722 394.199 161.495 390.839 162.748C387.919 148.068 383.088 133.835 376.469 120.41C385.96 117.131 385.374 117.211 385.667 117.717ZM263.932 187.89C276.889 188.983 333.091 190.183 338.583 190.236C348.021 190.236 357.753 187.57 359.219 178.158C359.806 174.319 361.885 145.685 361.539 140.833C360.392 123.716 354.047 111.665 324.213 107.693C306.75 105.373 260.679 104.094 246.389 114.252C239.03 119.584 239.883 130.408 239.67 138.54C239.542 148.12 240.085 157.697 241.296 167.201C242.949 181.651 247.189 186.477 263.932 187.89ZM316.294 160.349C316.264 160.43 316.21 160.501 316.138 160.551C316.067 160.6 315.982 160.627 315.895 160.627C315.807 160.627 315.722 160.6 315.651 160.551C315.579 160.501 315.525 160.43 315.495 160.349C315.428 156.171 315.641 151.994 316.134 147.845C316.134 147.525 316.774 147.471 316.854 147.845C316.95 152.021 316.763 156.198 316.294 160.349ZM312.269 131.368C314.242 131.501 322.933 132.275 323.973 132.621C324.346 132.754 324.479 133.448 323.973 133.528C322.96 133.528 314.135 132.514 312.162 132.221C311.575 132.141 311.709 131.341 312.269 131.368ZM271.05 165.041C271.081 164.96 271.135 164.889 271.207 164.839C271.278 164.79 271.363 164.763 271.45 164.763C271.537 164.763 271.622 164.79 271.694 164.839C271.765 164.889 271.82 164.96 271.85 165.041C272.14 167.697 272.212 170.372 272.063 173.04C283.288 173.04 294.432 175.092 305.657 174.932C305.817 173.12 305.977 171.36 306.243 169.6C306.243 169.014 307.283 169.174 307.256 169.6C307.256 171.547 306.963 173.466 306.75 175.386C306.75 175.534 306.691 175.677 306.586 175.782C306.481 175.887 306.338 175.946 306.19 175.946C300.378 175.946 277.289 174.026 271.53 174.133C271.377 174.126 271.231 174.062 271.123 173.954C271.014 173.845 270.95 173.7 270.944 173.546C270.766 170.712 270.801 167.869 271.05 165.041ZM260.386 156.03C260.358 156.099 260.31 156.158 260.249 156.2C260.187 156.242 260.114 156.264 260.039 156.264C259.965 156.264 259.892 156.242 259.83 156.2C259.768 156.158 259.72 156.099 259.693 156.03C259.101 152.104 258.958 148.124 259.266 144.165C259.266 143.792 259.933 143.899 259.959 144.165C259.933 146.298 260.652 155.123 260.359 156.03H260.386ZM268.384 127.529C268.464 127.565 268.531 127.623 268.579 127.696C268.626 127.769 268.651 127.855 268.651 127.942C268.651 128.029 268.626 128.115 268.579 128.188C268.531 128.261 268.464 128.319 268.384 128.355C264.135 129.667 259.807 130.709 255.427 131.475C252.867 130.488 267.771 127.422 268.331 127.529H268.384ZM446.881 465.78C446.881 465.993 447.441 466.206 447.494 465.993C449.199 460.446 452.107 455.342 456.011 451.047C459.914 446.752 464.717 443.371 470.076 441.145C473.086 439.989 476.19 439.097 479.355 438.479C484.527 437.546 453.573 437.466 446.881 465.78ZM438.243 454.396C440.079 447.672 444.317 441.855 450.154 438.047C455.992 434.239 463.023 432.704 469.916 433.733C470.156 433.733 470.21 433.333 469.916 433.28C459.519 430.96 441.815 434.48 437.683 454.209C437.576 454.396 438.19 454.582 438.243 454.396Z" fill="#6564E3"/>
<path d="M498.897 454.395C501.27 453.862 503.643 453.409 506.042 453.062C506.789 453.062 506.416 452.422 499.057 443.624C503.136 442.504 503.803 442.638 503.35 442.131C485.78 423.628 451.707 400.486 450.8 400.54C430.324 401.446 406.169 413.044 402.117 433.253C395.941 429.764 389.185 427.425 382.174 426.348C385.953 414.112 385.842 401.005 381.854 388.835C407.129 367.506 410.915 345.698 411.342 344.871C456.666 332.474 464.797 311.998 457.679 280.884C452.552 258.802 441.221 238.645 425.019 222.789C424.832 205.22 427.152 170.533 415.154 134.381C392.465 65.9146 339.676 55.81 338.237 55.5701C336.806 55.3706 335.361 55.2903 333.917 55.3301C364.258 10.5392 307.016 -1.19169 290.86 17.2845C281.635 27.949 287.74 43.1459 294.885 55.8633C286.327 57.1431 260.226 62.7953 240.097 90.8429C218.954 120.437 216.421 161.255 218.048 201.327C206.557 193.115 205.25 192.369 205.437 193.329C205.943 195.542 207.863 204.26 208.476 206.339L198.452 200.074C198.212 199.914 197.972 200.074 197.998 200.421C198.878 204.953 199.891 209.432 200.851 213.938C196.861 212.411 192.794 211.094 188.667 209.992C191.76 216.524 205.837 245.505 216.208 266.807C196.052 265.714 192.026 240.146 180.429 227.162C176.379 222.563 171.05 219.277 165.123 217.724C159.195 216.171 152.94 216.421 147.155 218.443C142.65 211.218 134.705 213.591 134.171 218.443C129.746 211.911 123.507 209.672 115.695 209.165C108.695 198.817 102.346 188.043 96.6858 176.905C96.6545 176.85 96.6073 176.805 96.5503 176.776C96.4933 176.748 96.429 176.737 96.3659 176.745C84.2883 178.985 49.5754 185.25 49.6287 185.33C50.9618 188.29 51.8683 190.476 50.082 193.329C47.7624 197.035 44.2965 193.329 43.9499 192.662C36.7513 181.011 84.235 268.113 84.5016 268.087C100.498 267.66 136.438 261.981 137.984 261.608C138.995 261.43 139.945 260.998 140.744 260.354C141.544 259.709 142.167 258.873 142.555 257.923C142.944 256.972 143.086 255.939 142.967 254.919C142.848 253.899 142.473 252.926 141.877 252.09L134.598 240.066C135.035 239.343 135.409 238.585 135.718 237.8C137.211 242.332 145.156 244.278 148.862 237.24C156.86 237.24 163.019 243.478 166.485 250.33C173.657 264.594 180.429 308.825 221.46 305.546C224.924 305.377 228.341 304.675 231.592 303.466C235.138 326.261 244.229 368.999 264.172 380.784C260.812 389.049 260.466 401.073 261.506 409.924C267.824 470.712 328.985 477.004 357.219 457.915C375.696 470.525 383.134 483.643 384.2 483.243C386.28 482.39 388.306 481.43 390.413 480.577C413.475 471.512 430.404 475.458 437.15 477.591C440.21 478.709 443.186 480.046 446.055 481.59C446.078 482.793 446.483 483.958 447.211 484.917C447.939 485.875 448.954 486.578 450.107 486.922C455.439 488.388 458.985 482.443 457.199 479.43C465.384 474.098 485.007 468.766 506.709 470.365C507.749 470.232 506.895 469.619 498.897 454.395ZM505.242 452.449C487.353 454.875 459.359 464.873 451.92 481.243C457.252 462.58 479.674 449.25 498.364 443.918C498.364 443.864 503.003 449.596 505.322 452.449H505.242ZM436.643 403.872C441.309 402.646 445.308 402.193 449.974 401.206C482.394 424.215 479.834 422.055 502.016 441.811C492.783 443.861 483.965 447.468 475.942 452.476C463.384 459.941 453.973 468.046 450.694 482.203C437.816 462.02 417.794 446.61 403.023 434.026C407.289 419.283 416.86 409.071 436.723 403.872H436.643ZM407.316 344.471C390.226 342.445 374.416 318.29 383.081 312.478C388.082 311.427 392.973 309.909 397.691 307.945C395.665 318.396 414.034 340.099 426.005 338.366C419.937 340.816 413.711 342.856 407.369 344.471H407.316ZM306.003 320.476C302.351 322.449 297.418 318.636 301.897 310.478C305.87 303.226 317.707 294.908 319.68 304.506C319.261 304.341 318.822 304.233 318.374 304.186C317.515 304.461 316.691 304.836 315.921 305.306C303.097 311.838 306.723 320.049 306.163 320.369L306.003 320.476ZM300.031 300.747C294.219 301.573 292.353 304.319 286.7 302.453C284.119 301.574 281.862 299.939 280.222 297.761C274.17 291.282 274.196 282.377 273.343 276.272C279.036 276.397 284.731 276.228 290.406 275.765C289.924 280.995 290.961 286.253 293.392 290.909C296.938 297.041 307.283 301.76 311.122 298.161C311.144 298.867 311.298 299.563 311.575 300.213C310.138 300.895 308.756 301.689 307.443 302.586C303.719 305.494 300.937 309.435 299.444 313.917C296.745 310.652 294.286 307.194 292.086 303.573C292.646 303.573 298.725 301.547 300.084 301.12C300.148 301.134 300.215 301.122 300.27 301.087C300.325 301.052 300.363 300.997 300.378 300.933C300.392 300.87 300.38 300.803 300.345 300.748C300.31 300.693 300.255 300.654 300.191 300.64L300.031 300.747ZM337.197 209.699C337.197 211.592 337.517 212.951 337.463 214.844C328.878 217.35 266.704 236.946 264.732 237.64C287.827 225.631 312.185 216.225 337.357 209.592L337.197 209.699ZM265.505 236.147C284.351 220.937 306.001 209.578 329.225 202.713C329.225 205.38 329.785 207.646 329.838 210.365C307.718 216.974 286.239 225.567 265.665 236.04L265.505 236.147ZM278.835 275.499C278.835 275.232 268.304 238.866 267.824 237.853L344.262 218.31C344.582 227.562 346.342 284.217 346.475 289.522C346.208 289.522 310.909 297.521 310.882 297.787C309.647 298.358 308.296 298.632 306.936 298.587C302.693 298 298.764 296.021 295.765 292.962C293.827 290.475 292.426 287.612 291.65 284.556C290.875 281.5 290.742 278.316 291.259 275.205C291.393 274.699 291.766 275.045 278.915 275.392L278.835 275.499ZM272.49 236.013C274.25 235.4 341.409 214.978 343.249 214.471C343.249 215.591 343.649 216.231 343.595 217.35C322 223.296 273.503 235.747 272.57 235.907L272.49 236.013ZM265.665 238.306C264.997 238.834 264.232 239.224 263.412 239.452C262.593 239.68 261.736 239.743 260.892 239.636C260.047 239.529 259.233 239.255 258.496 238.83C257.759 238.405 257.115 237.837 256.6 237.16C256.652 237.118 256.693 237.065 256.721 237.005C256.749 236.945 256.762 236.879 256.76 236.813C257.053 237 260.146 238.733 261.426 239.479C262.89 239.174 264.333 238.773 265.745 238.279L265.665 238.306ZM267.158 237.986C267.478 240.652 277.982 275.312 278.062 275.525C276.086 275.369 274.098 275.459 272.143 275.792C272.623 286.83 275.503 299.014 285.794 303.013C286.994 306.639 280.595 309.118 277.556 303.013C276.409 300.613 258.626 243.665 256.733 238.04C257.393 238.789 258.207 239.387 259.121 239.791C260.034 240.196 261.024 240.398 262.022 240.382C263.021 240.367 264.004 240.135 264.905 239.703C265.805 239.271 266.601 238.649 267.238 237.88L267.158 237.986ZM318.401 304.479C318.401 304.479 328.345 308.612 329.358 308.958C325.226 309.278 314.081 322.609 321.813 332.127C320.533 331.327 307.869 323.222 306.963 321.089C304.11 314.104 314.668 306.106 318.481 304.373L318.401 304.479ZM334.611 310.638C336.204 311.205 337.846 311.625 339.516 311.891C331.731 314.131 326.186 332.26 335.784 339.432C331.072 337.41 326.519 335.04 322.16 332.34C317.201 324.182 323.999 305.812 334.691 310.531L334.611 310.638ZM340.956 312.238C345.106 313.162 349.308 313.829 353.54 314.237C344.715 317.197 343.169 337.806 353.14 345.164C347.781 343.902 342.53 342.217 337.437 340.125C328.265 332.287 331.998 312.931 341.036 312.131L340.956 312.238ZM354.127 314.291C358.007 314.664 361.907 314.797 365.804 314.691C358.126 324.395 366.817 341.992 375.349 348.07C368.452 347.877 361.587 347.038 354.846 345.564C345.462 339.326 344.529 316.85 354.207 314.184L354.127 314.291ZM366.391 314.691C371.723 314.514 377.03 313.881 382.254 312.798C374.256 319.17 388.44 342.658 406.116 344.791C396.341 347.141 386.307 348.234 376.255 348.044C358.206 330.367 365.431 316.157 366.471 314.584L366.391 314.691ZM428.325 337.433C414.861 340.845 399.237 317.49 398.304 313.091C398.002 311.384 397.939 309.643 398.118 307.919C402.749 306.104 406.973 303.385 410.542 299.92C411.928 317.33 440.749 328.554 448.614 324.609C443.468 332.047 428.485 337.299 428.405 337.326L428.325 337.433ZM450.48 322.502C449.537 323.446 448.387 324.158 447.121 324.582C440.616 326.528 414.221 316.583 410.942 299.44C414.019 295.706 415.88 291.119 416.274 286.296C422.486 300.347 452.373 305.306 458.212 293.628C459.305 307.199 455.973 315.917 450.56 322.396L450.48 322.502ZM451.52 266.167C448.854 273.339 432.857 280.271 416.86 273.659C416.381 273.446 416.274 274.085 416.487 274.192C431.497 281.124 448.667 275.445 451.813 267.207C454.836 275.206 456.886 283.54 457.919 292.028C455.119 303.413 426.165 300.987 416.167 285.95C416.752 279.184 415.412 272.391 412.301 266.354C413.661 264.834 425.792 251.823 443.468 249.211C446.598 254.615 449.316 260.248 451.6 266.06L451.52 266.167ZM443.255 248.677C437.187 249.361 431.317 251.256 425.995 254.251C420.674 257.247 416.008 261.281 412.275 266.114C410.425 262.403 408.094 258.952 405.343 255.849C405.529 254.623 405.636 253.396 405.876 252.17C408.542 238.839 422.113 227.135 430.431 230.281C435.278 235.974 439.597 242.096 443.335 248.571L443.255 248.677ZM429.631 229.348C418.967 225.162 405.05 243.078 405.05 255.529C402.695 252.949 400.155 250.543 397.451 248.331C391.586 228.122 405.636 216.524 413.448 213.938C419.346 218.506 424.793 223.631 429.711 229.241L429.631 229.348ZM387.746 242.279C387.746 242.439 394.118 246.811 396.865 248.971C394.038 256.969 375.296 256.969 376.149 234.12C377.242 204.98 399.717 197.834 406.703 201.594C408.255 202.357 409.471 203.665 410.12 205.268C410.769 206.871 410.806 208.657 410.222 210.285C409.849 210.045 405.076 206.819 402.97 205.619C398.288 208.422 394.347 212.308 391.479 216.95C389.115 220.674 387.56 224.854 386.917 229.217C386.274 233.581 386.557 238.031 387.746 242.279ZM388.946 241.905C388.68 241.745 382.068 222.709 403.343 206.499C406.836 208.819 409.689 210.872 412.995 213.431C397.744 218.337 391.479 236.466 396.865 247.664C394.35 245.578 391.706 243.654 388.946 241.905ZM288.273 35.1742C282.781 3.9006 344.449 2.67418 341.383 35.6008C340.369 46.5319 332.398 55.1168 326.826 64.0217C321.707 72.2067 320.08 72.8465 316.534 73.5664C318.534 67.9409 324.693 45.1189 326.399 39.3334C326.463 39.2061 326.473 39.0587 326.428 38.9237C326.383 38.7888 326.286 38.6772 326.159 38.6135C326.032 38.5499 325.884 38.5394 325.749 38.5844C325.614 38.6294 325.503 38.7262 325.439 38.8535C324.933 40.5065 324.453 42.1595 323.999 43.8391C320.747 39.2534 323.173 41.8129 318.027 45.7587C314.295 42.4261 313.762 40.6664 313.042 41.6796C311.926 43.3132 310.629 44.8157 309.176 46.1586C305.896 46.6919 304.27 42.2394 304.083 41.7062C303.897 41.173 303.124 41.5463 303.23 41.8662C303.337 42.1861 311.655 72.8465 312.055 73.8597C304.803 73.5664 290.113 45.8654 288.273 35.1742ZM315.521 74.7128C323.52 73.9663 328.319 63.835 329.332 62.3154C334.264 64.4216 333.864 77.5389 320.88 80.9782C302.964 85.6439 292.193 71.0069 300.964 65.1681C306.59 72.6599 307.363 75.4593 315.494 74.7128H315.521ZM312.988 73.9663C312.988 72.7932 306.67 49.7313 305.23 45.7321C309.042 48.9314 310.722 46.8785 313.602 42.7993C314.561 43.8125 317.707 47.2518 318.267 46.8252C319.808 45.6727 321.112 44.2333 322.106 42.586L323.759 44.7989C322.72 48.6115 315.761 73.7264 315.761 73.753C314.833 73.8749 313.898 73.9461 312.962 73.9663H312.988ZM240.283 95.4286C263.478 59.5426 295.792 58.7161 296.272 58.2895C297.575 60.5348 299.026 62.6903 300.618 64.7415C292.379 68.1275 296.752 87.8301 320.907 82.6845C336.024 79.4585 335.33 63.3818 329.945 61.3555C331.198 59.4893 332.611 57.6496 333.757 55.81C360.792 60.8223 396.118 86.6037 412.221 130.621C422.753 159.416 424.219 190.822 423.739 221.563C419.582 217.543 415.126 213.844 410.408 210.498C412.675 211.165 412.435 197.648 399.424 199.461C392.38 200.826 386.145 204.88 382.041 210.765C377.564 217.133 374.943 224.618 374.469 232.387C372.443 256.676 393.772 259.049 397.451 249.504C415.394 263.954 418.78 281.817 413.101 293.841C405.103 310.825 365.778 321.916 320.427 304.506C320.568 303.885 320.564 303.24 320.416 302.62C320.268 302.001 319.98 301.424 319.574 300.933C317.654 298.267 314.828 298.667 311.895 299.867C311.636 299.242 311.509 298.57 311.522 297.894C318.027 296.881 346.981 290.535 347.435 290.375C347.888 290.216 347.701 290.056 347.701 289.949C347.461 280.484 345.648 222.576 345.595 217.297C345.728 216.977 345.595 216.471 345.035 216.631L344.555 216.791C344.555 211.458 345.648 212.231 338.397 214.338C338.397 208.526 338.796 207.672 337.997 207.886C335.597 208.499 333.224 209.139 330.851 209.832C330.851 207.166 330.425 204.313 330.318 201.54C330.316 201.493 330.303 201.447 330.28 201.405C330.258 201.363 330.226 201.327 330.188 201.299C330.15 201.271 330.105 201.251 330.059 201.242C330.012 201.234 329.964 201.235 329.918 201.247C305.06 208.168 282.067 220.566 262.625 237.533C262.359 237.693 238.817 216.524 219.434 202.287C220.661 166.054 219.514 127.635 240.283 95.4286ZM206.29 194.528C221.887 204.606 255.827 233.774 258.946 236.573L209.463 206.526C209.116 204.286 206.743 196.528 206.29 194.528ZM199.252 201.514C216.501 211.965 254.547 235.293 254.68 235.4C246.682 231.561 203.117 214.684 202.318 214.391C201.411 209.992 200.291 205.886 199.252 201.514ZM190.08 211.005C198.745 214.524 255.88 237.373 255.96 237.373C259.373 249.024 275.983 303.413 277.582 305.279C276.542 304.959 230.685 289.682 228.899 289.282C228.792 288.936 190.24 211.272 190.08 211.005ZM45.6562 195.382C48.6422 196.581 52.1082 193.489 51.7616 189.516C56.3207 198.288 85.3548 253.743 87.3277 259.209C87.5143 259.688 87.5943 259.555 91.4868 258.835C91.7392 259.805 91.752 260.822 91.5241 261.799C91.2962 262.775 90.8344 263.681 90.1786 264.439C89.5228 265.197 88.6925 265.785 87.7593 266.151C86.8261 266.517 85.8179 266.65 84.8215 266.54C80.3158 256.676 48.5089 199.834 45.6562 195.382ZM137.771 260.382C135.771 260.915 96.2859 266.647 88.0476 267.047C88.8906 266.808 89.6738 266.394 90.3461 265.832C91.0184 265.27 91.5648 264.572 91.9496 263.785C92.3345 262.998 92.5492 262.138 92.5797 261.262C92.6102 260.386 92.4558 259.514 92.1267 258.702C92.6866 258.702 134.945 250.917 138.944 251.397C142.463 251.797 143.876 258.755 137.824 260.382H137.771ZM139.53 250.064C138.037 249.424 91.0869 257.529 88.2608 258.062C84.7149 248.544 51.335 186.397 50.9351 185.81C63.0393 183.837 92.6066 178.132 95.9393 177.545C101.418 188.405 107.599 198.896 114.442 208.952C110.176 208.739 104.657 209.112 99.5919 208.552C99.4929 208.552 99.3979 208.592 99.3279 208.662C99.2579 208.732 99.2186 208.826 99.2186 208.925C99.6985 213.618 99.6985 218.364 100.205 223.056C100.205 223.376 100.872 223.429 100.925 223.429C108.497 223.616 116.335 221.056 123.8 223.642C125.48 226.868 139.104 249.344 139.584 250.064H139.53ZM125.133 224.362C125.721 224.688 126.218 225.157 126.576 225.726C126.935 226.294 127.145 226.944 127.186 227.615C126.093 225.829 125.347 224.602 125.187 224.362H125.133ZM134.091 239.159L127.506 228.255C130.172 219.483 110.203 221.989 101.272 222.336C100.818 217.83 100.712 214.338 100.258 209.752C108.043 210.498 115.989 209.165 123.507 211.645C134.705 215.351 139.904 226.575 134.145 239.159H134.091ZM148.702 234.04C146.916 242.039 138.891 243.345 135.878 237.026C137.009 234.143 137.483 231.043 137.267 227.953C137.05 224.864 136.147 221.861 134.625 219.163C134.625 218.897 137.291 213.218 141.797 214.844C148.062 216.95 150.008 228.441 148.755 234.04H148.702ZM150.142 236.52C149.751 236.493 149.359 236.493 148.968 236.52C151.101 231.801 149.715 223.189 147.262 218.71C156.06 215.991 157.047 232.281 150.195 236.52H150.142ZM151.155 236.52C155.954 234.067 157.633 220.79 150.701 217.857C156.327 216.764 160.833 216.391 162.299 221.163C164.245 227.375 161.073 236.52 154.781 237.586C153.639 237.101 152.437 236.769 151.208 236.6L151.155 236.52ZM161.206 241.852C159.605 240.244 157.749 238.911 155.714 237.906C163.312 237.906 166.378 221.536 160.113 217.43C163.915 217.863 167.599 219.021 170.964 220.843C178.642 227.828 167.525 244.465 161.259 241.852H161.206ZM161.659 242.412C166.805 245.078 178.936 230.734 172.484 221.696C177.036 224.572 180.845 228.481 183.601 233.107C183.751 233.989 183.849 234.88 183.895 235.773C183.895 244.865 174.617 250.25 165.952 248.011C164.762 245.986 163.339 244.106 161.713 242.412H161.659ZM166.138 248.411C168.298 249.288 170.65 249.584 172.96 249.269C175.27 248.953 177.457 248.038 179.302 246.613C181.147 245.188 182.587 243.305 183.477 241.15C184.367 238.996 184.677 236.645 184.375 234.334C186.801 238.306 188.827 242.519 191.04 246.624C190.968 247.78 190.816 248.929 190.587 250.064C188.587 257.795 178.962 262.515 170.031 257.236C169.027 254.181 167.742 251.227 166.192 248.411H166.138ZM170.191 257.662C178.936 264.594 191.333 257.662 191.52 247.744C193.259 251.055 195.303 254.197 197.625 257.129C197.625 273.526 180.695 275.179 173.47 267.18C171.897 262.594 171.391 260.861 170.244 257.662H170.191ZM173.843 267.82C182.908 279.258 199.625 270.246 198.345 257.849C200.344 260.266 202.678 262.385 205.277 264.141C208.983 279.044 190.747 287.549 179.602 279.978C177.384 276.081 175.476 272.016 173.897 267.82H173.843ZM180.242 281.151C192.666 289.869 209.569 277.951 205.944 264.727C208.272 266.188 210.893 267.117 213.622 267.447C217.781 287.603 201.278 298.321 192.293 295.548C187.507 291.38 183.452 286.442 180.295 280.937L180.242 281.151ZM193.066 296.321C207.783 300.027 219.034 279.604 214.155 267.66C214.945 267.727 215.738 267.727 216.528 267.66C219.834 274.432 222.713 280.324 224.74 284.43C224.729 288.484 223.655 292.464 221.624 295.973C219.594 299.482 216.678 302.397 213.169 304.426C205.745 304.032 198.676 301.127 193.119 296.188L193.066 296.321ZM213.995 304.319C217.525 302.532 220.456 299.753 222.431 296.325C224.406 292.896 225.338 288.967 225.113 285.017C228.152 291.202 227.166 290.082 229.859 290.962C230.312 294.748 230.818 298.507 231.378 302.266C225.767 303.964 219.901 304.659 214.049 304.319H213.995ZM270.784 368.919C269.647 362.688 269.811 356.289 271.264 350.123C275.289 336.206 288.993 327.115 297.605 341.298C298.511 342.818 299.391 344.391 300.271 345.991C284.114 349.137 271.024 368.573 270.784 368.919ZM302.964 368.28C273.983 396.381 291.099 430.347 298.671 438.399C294.272 433.893 268.304 397.58 302.804 367.88C302.91 367.773 303.15 368.093 302.964 368.253V368.28ZM298.938 340.845C297.194 337.336 294.183 334.621 290.513 333.247C280.648 330.581 265.558 342.232 269.717 370.572C268.917 371.772 265.585 377.478 264.838 379.131C239.377 362.761 235.697 311.251 232.311 291.762C242.976 295.308 282.621 307.919 283.768 307.759C284.792 307.606 285.717 307.063 286.348 306.242C286.98 305.422 287.268 304.388 287.154 303.36C288.571 303.778 290.049 303.959 291.526 303.893C294.002 307.68 296.672 311.338 299.524 314.85C299.16 316.175 299.286 317.586 299.879 318.825C300.471 320.064 301.491 321.048 302.75 321.596C303.401 321.874 304.118 321.962 304.816 321.849C305.515 321.735 306.167 321.426 306.696 320.956C308.723 326.288 331.651 338.419 337.277 340.819C360.065 350.41 385.412 352.081 409.262 345.564C399.371 381.477 361.005 406.299 342.022 407.872C314.215 410.138 314.188 387.102 312.988 379.931C310.745 366.15 305.982 352.9 298.938 340.845ZM320.054 419.362C315.974 414.03 314.348 407.258 318.934 402.273C323.919 408.378 331.118 410.271 338.93 409.498C343.821 409.283 348.658 408.385 353.3 406.832C353.87 410.325 353.669 413.901 352.714 417.31C346.128 432.293 328.265 429.787 320.027 419.362H320.054ZM392.039 478.204C389.372 479.207 386.816 480.484 384.414 482.016C379.881 475.458 373.936 470.632 368.177 464.74C361.778 458.235 348.661 450.983 341.516 447.703L338.05 445.784C341.569 444.371 352.394 440.052 355.166 438.772C376.495 452.476 383.027 464.873 384.174 464.74C411.048 462.5 432.884 469.779 446.001 479.803C425.632 469.192 402.517 473.858 391.932 478.23L392.039 478.204ZM440.242 474.978C415.394 458.528 385.214 463.967 384.787 463.46C376.647 453.531 366.928 445.01 356.02 438.239C356.038 438.201 356.048 438.16 356.048 438.119C356.048 438.077 356.038 438.036 356.02 437.999C352.022 435.258 347.707 433.011 343.169 431.307C351.598 427.78 360.649 425.982 369.785 426.019C378.922 426.056 387.958 427.926 396.358 431.52C398.384 432.373 399.664 433.28 401.69 433.973C401.69 433.973 415.874 445.97 422.379 451.783C432.55 460.773 441.697 470.858 449.654 481.856C446.742 479.27 443.591 476.967 440.242 474.978ZM446.854 481.643L451.36 484.149C452.854 482.642 454.43 481.218 456.079 479.883C456.195 480.491 456.189 481.115 456.064 481.721C455.938 482.326 455.694 482.901 455.346 483.412C454.999 483.923 454.553 484.361 454.036 484.7C453.519 485.039 452.941 485.273 452.333 485.389C451.726 485.505 451.102 485.499 450.496 485.374C449.891 485.248 449.316 485.004 448.805 484.656C448.293 484.308 447.856 483.863 447.516 483.346C447.177 482.829 446.943 482.251 446.828 481.643H446.854ZM451.76 482.87C453.214 479.738 455.158 476.858 457.519 474.338C466.317 465.113 485.54 457.488 498.364 454.555C501.03 459.408 503.456 464.287 505.909 469.192C488.233 467.113 460.558 471.912 451.733 482.87H451.76ZM60.7464 384.916C60.7046 384.897 60.6592 384.887 60.6131 384.887C60.5671 384.887 60.5217 384.897 60.4798 384.916C60.4611 384.953 60.4513 384.994 60.4513 385.036C60.4513 385.078 60.4611 385.119 60.4798 385.156C60.4721 385.209 60.4761 385.264 60.4913 385.315C60.5066 385.367 60.5329 385.415 60.5684 385.455C60.6038 385.496 60.6476 385.528 60.6968 385.55C60.7459 385.572 60.7992 385.583 60.8531 385.583L69.5446 385.903C82.8753 386.436 105.484 387.289 108.363 387.289C108.436 387.268 108.5 387.225 108.545 387.165C108.59 387.104 108.615 387.031 108.615 386.956C108.615 386.88 108.59 386.807 108.545 386.747C108.5 386.687 108.436 386.643 108.363 386.623C104.684 386.356 89.7005 385.769 63.3859 384.863L60.7464 384.916ZM93.6464 379.584L104.044 379.877C104.092 379.881 104.14 379.875 104.185 379.859C104.23 379.843 104.272 379.818 104.307 379.786C104.342 379.753 104.37 379.714 104.389 379.67C104.408 379.626 104.418 379.578 104.418 379.531C104.421 379.482 104.415 379.432 104.4 379.386C104.384 379.339 104.36 379.296 104.327 379.259C104.295 379.221 104.256 379.191 104.212 379.169C104.168 379.147 104.12 379.134 104.071 379.131C93.4065 378.278 70.9044 377.771 57.3871 377.451H56.3207C50.9884 377.451 46.9893 377.238 45.6562 377.158C45.59 377.156 45.5242 377.169 45.464 377.197C45.4038 377.225 45.351 377.266 45.3096 377.318C45.2769 377.379 45.2598 377.448 45.2598 377.518C45.2598 377.587 45.2769 377.656 45.3096 377.718C45.3407 377.777 45.3863 377.828 45.4422 377.865C45.4982 377.903 45.5626 377.925 45.6295 377.931C56.5873 378.518 79.7026 379.104 93.6464 379.584Z" fill="#090915"/>
<path d="M220.66 405.686C233.751 395.448 230.098 383.504 222.34 381.264C226.232 378.598 226.712 378.385 226.286 377.745C226.215 377.639 226.107 377.565 225.984 377.535C225.86 377.505 225.73 377.523 225.619 377.585C214.715 378.678 211.355 364.681 221.86 356.123C221.89 356.093 221.913 356.058 221.93 356.019C221.946 355.98 221.954 355.938 221.954 355.896C221.954 355.854 221.946 355.812 221.93 355.773C221.913 355.734 221.89 355.699 221.86 355.669C221.893 355.583 221.893 355.489 221.86 355.403C221.806 355.338 221.734 355.291 221.654 355.268C221.573 355.244 221.487 355.245 221.407 355.269L197.972 353.803C199.864 352.683 200.398 352.603 200.478 351.75C200.558 350.897 196.718 348.951 198.638 343.005C199.354 340.482 200.393 338.063 201.731 335.807C208.983 332.127 208.769 332.047 208.663 331.648C208.606 331.448 208.501 331.266 208.357 331.117C208.213 330.968 208.034 330.857 207.836 330.794C188.987 329.461 125.426 326.449 125.186 326.635C82.5284 344.258 39.3639 365.321 37.2043 367.134C32.2453 371.186 31.3122 379.238 31.3655 382.091C2.99797 403.899 2.78468 404.219 1.53161 406.646C0.591866 408.521 0.325373 410.662 0.776804 412.711C1.22823 414.759 2.37015 416.59 4.0111 417.897C10.6764 422.829 18.0882 417.657 24.4869 424.935C25.6295 426.185 26.4653 427.684 26.9281 429.313C27.3908 430.942 27.4679 432.656 27.153 434.32C16.2219 439.839 8.81012 441.119 10.5164 442.318C22.5673 446.877 19.1547 459.808 8.73014 462.767C8.62539 462.793 8.53217 462.852 8.4655 462.937C8.39882 463.022 8.36256 463.126 8.36256 463.234C8.36256 463.342 8.39882 463.446 8.4655 463.531C8.53217 463.616 8.62539 463.675 8.73014 463.701C9.15672 463.701 131.372 473.245 140.996 474.125C144.41 474.555 147.877 474.152 151.101 472.952C152.994 472.152 212.555 432.96 215.915 430.667C221.247 427.068 226.579 422.456 227.566 415.684C228.045 411.765 225.939 407.765 220.66 405.686ZM13.1826 442.425C13.4492 442.425 148.648 453.089 149.155 453.303C150.147 453.5 151.087 453.903 151.914 454.486C152.741 455.069 153.436 455.82 153.954 456.689C156.887 462.847 153.287 471.219 143.289 473.059C140.437 472.899 28.1662 464.127 10.9963 462.874C20.1945 458.582 22.4873 447.784 13.1826 442.425ZM20.9143 420.909C125.346 428.295 140.383 428.908 140.89 428.908C143.201 429.517 145.283 430.787 146.881 432.564C148.48 434.34 149.524 436.545 149.887 438.906C150.249 441.268 149.914 443.685 148.922 445.859C147.93 448.033 146.324 449.869 144.302 451.143C140.623 450.877 37.4709 443.145 22.8606 441.998C30.0058 437.893 30.5124 426.002 20.9143 420.909ZM198.958 351.59C196.692 352.923 130.972 391.875 128.946 392.915C124.573 393.155 119.987 388.329 121.507 381.077C123.667 370.76 126.839 371.799 200.398 336.207C197.465 341.219 194.346 348.151 198.958 351.51V351.59ZM130.359 368.68H130.199C48.5354 368.68 41.8967 366.36 36.0579 369.8C38.724 366.147 38.2974 367.134 87.5407 344.872C107.297 335.913 122.6 328.875 124.866 327.942C145.369 329.675 197.038 331.461 206.263 331.941C198.771 335.593 133.878 366.707 130.359 368.6V368.68ZM70.8241 369.64C88.1806 370.12 109.75 370.706 128.572 370.013C120.334 374.306 116.068 387.903 125.16 393.448C50.1617 391.662 38.2974 396.381 33.6051 387.769C32.4516 385.527 31.9702 383 32.2187 380.491C34.1916 367.454 36.1379 368.653 70.8241 369.56V369.64ZM42.5366 393.635C43.1764 393.955 125.186 394.755 128.572 394.755C128.919 394.755 170.457 369.986 196.132 354.763C198.185 355.003 215.381 355.909 219.94 356.069C212.235 361.108 148.222 401.793 142.836 406.539C120.734 404.966 12.836 402.7 12.5427 402.7C9.52319 402.499 6.50476 403.107 3.79781 404.459C5.63744 402.62 23.3405 389.129 31.1256 383.13C31.8188 390.249 37.6576 394.461 42.5366 393.662V393.635ZM223.566 378.918C215.248 384.25 149.635 426.188 146.569 428.108C142.223 426.428 139.104 424.455 138.57 418.59C137.451 406.512 146.382 406.246 218.954 357.696C210.716 366.254 214.821 378.571 223.566 378.945V378.918ZM148.435 448.904C152.941 442.638 151.554 432.534 144.116 428.908C146.782 428.908 142.676 432.427 182.615 406.459C198.851 396.194 218.661 383.664 221.22 381.904C222.747 382.261 224.154 383.01 225.304 384.075C226.454 385.141 227.307 386.488 227.779 387.983C231.138 398.194 219.114 405.766 210.182 411.845C195.519 421.896 158.593 443.385 148.435 448.904ZM142.916 427.815C68.7712 422.909 10.4631 419.283 8.09027 418.696C6.76349 418.496 5.50549 417.975 4.42497 417.18C3.34446 416.384 2.47391 415.337 1.88856 414.13C1.30321 412.922 1.02065 411.59 1.0653 410.249C1.10994 408.908 1.48045 407.598 2.14482 406.432C3.13128 406.726 2.14482 403.766 12.5427 403.606C17.5283 403.606 128.599 406.699 142.01 407.205C135.051 414.564 136.704 424.135 142.916 427.921V427.815ZM20.5144 441.758C17.5817 441.572 15.1822 441.465 12.916 441.359C16.3819 440.105 23.5804 437.093 26.4599 435.6C25.3117 438.345 23.1963 440.575 20.5144 441.865V441.758ZM146.649 451.303C171.672 437.622 195.974 422.663 219.461 406.486C221.034 407.365 225.833 410.272 226.259 413.204C226.872 417.39 223.726 421.736 222.34 423.416C220.394 425.788 156.54 468.18 152.674 470.633C151.267 471.518 149.714 472.15 148.088 472.499C157.873 468.526 160.433 453.516 146.649 451.41V451.303Z" fill="#6564E3"/>
</svg>
