<svg width="543" height="409" viewBox="0 0 543 409" fill="none" xmlns="http://www.w3.org/2000/svg">
<g clip-path="url(#clip0_145_24462)">
<path d="M421.901 160.476C420.702 160.476 420.702 162.703 421.901 162.703C424.756 162.703 464.526 162.047 467.867 161.39C468.171 161.344 468.449 161.191 468.649 160.958C468.85 160.725 468.96 160.427 468.96 160.12C468.96 159.812 468.85 159.514 468.649 159.281C468.449 159.048 468.171 158.895 467.867 158.849C457.389 157.479 433.435 160.248 421.901 160.476ZM437.832 218.775C436.519 218.775 436.747 220.974 438.003 221.031C447.311 221.345 461.814 220.86 471.321 220.431C473.063 220.431 473.263 217.576 471.321 217.576C460.672 217.634 448.51 217.776 437.832 218.775ZM439.06 120.307C438.783 120.318 438.52 120.431 438.32 120.622C438.12 120.813 437.996 121.071 437.971 121.347C437.947 121.623 438.023 121.898 438.187 122.121C438.35 122.345 438.59 122.502 438.86 122.562C443.97 123.19 460.558 123.847 465.554 121.734C465.81 121.607 466.017 121.401 466.145 121.146C466.273 120.89 466.314 120.601 466.262 120.32C466.211 120.039 466.069 119.783 465.859 119.59C465.649 119.397 465.381 119.278 465.097 119.25C458.474 118.851 447.853 120.963 439.06 120.307ZM406.456 175.465C430.552 175.123 457.846 173.438 482.17 171.211C483.683 171.211 483.541 168.356 481.97 168.356C458.045 168.956 430.095 170.526 406.313 172.981C405.983 173 405.675 173.149 405.456 173.396C405.236 173.642 405.123 173.965 405.142 174.295C405.161 174.624 405.31 174.932 405.556 175.152C405.803 175.371 406.126 175.484 406.456 175.465ZM441.001 48.3035C447.71 47.7896 454.42 47.3899 460.986 46.5905C462.87 46.3906 462.385 43.7355 460.529 43.7355C453.849 44.2494 447.168 45.1059 440.544 45.8767C439.003 46.048 439.431 48.4177 441.001 48.3035ZM401.83 107.859C400.403 107.859 400.346 110.286 401.83 110.4C417.971 111.151 434.144 110.021 450.023 107.031C451.821 106.717 451.536 103.862 449.709 104.176C433.896 106.872 417.869 108.105 401.83 107.859ZM454.962 61.9789C457.446 62.5785 457.817 58.5244 455.533 58.9241C444.39 60.7306 433.096 61.4288 421.815 61.0082C420.302 61.0082 419.96 63.2066 421.501 63.3779C432.665 64.4985 443.931 64.0275 454.962 61.9789ZM393.123 174.123C390.896 173.267 380.618 174.694 377.734 175.008C376.335 175.008 376.278 177.264 377.734 177.235L389.411 176.864C394.807 176.664 394.779 174.78 393.123 174.123ZM404.914 297.659C402.516 297.088 385.471 298.373 382.673 298.544C381.189 298.544 381.474 300.828 382.959 300.8C385.985 300.8 402.573 300.8 405.199 299.972C406.37 299.572 405.97 297.888 404.914 297.659ZM382.645 285.582C390.667 285.954 410.538 286.296 418.561 284.383C418.748 284.382 418.933 284.341 419.104 284.264C419.275 284.187 419.427 284.074 419.552 283.934C419.677 283.794 419.771 283.63 419.828 283.451C419.885 283.273 419.905 283.084 419.885 282.898C419.865 282.712 419.806 282.532 419.712 282.369C419.618 282.207 419.491 282.066 419.339 281.956C419.188 281.846 419.015 281.769 418.831 281.729C418.648 281.69 418.459 281.69 418.275 281.728C406.541 281.728 395.664 283.698 382.987 283.184C381.474 283.127 381.075 285.497 382.645 285.582ZM410.338 234.821C412.051 234.507 411.909 231.966 410.11 231.966C397.434 233.25 394.779 233.564 381.788 234.078C380.532 234.078 380.389 236.248 381.788 236.334C391.331 236.967 400.916 236.459 410.338 234.821ZM427.925 216.863C412.394 217.434 396.263 220.06 380.047 220.631C379.757 220.676 379.493 220.823 379.302 221.045C379.111 221.268 379.006 221.551 379.006 221.845C379.006 222.138 379.111 222.421 379.302 222.644C379.493 222.867 379.757 223.013 380.047 223.058C393.494 223.058 415.135 222.43 428.239 219.518C428.513 219.397 428.74 219.191 428.888 218.931C429.036 218.672 429.097 218.371 429.062 218.074C429.027 217.777 428.898 217.499 428.693 217.281C428.488 217.063 428.219 216.917 427.925 216.863ZM480.828 290.664C480.6 290.664 464.926 291.949 462.242 291.864C461.988 291.909 461.755 292.036 461.579 292.224C461.402 292.413 461.291 292.653 461.262 292.91C461.233 293.166 461.288 293.426 461.418 293.649C461.549 293.872 461.748 294.047 461.985 294.147C465.183 294.747 478.658 294.975 481.428 292.634C481.567 292.481 481.665 292.293 481.71 292.091C481.755 291.889 481.748 291.678 481.687 291.479C481.627 291.281 481.516 291.101 481.365 290.958C481.215 290.816 481.03 290.714 480.828 290.664ZM485.882 228.397C466.096 229.682 443.999 230.424 424.299 232.108C422.758 232.108 423.043 234.421 424.528 234.507C435.177 234.821 473.063 232.879 486.139 231.223C486.325 231.209 486.507 231.158 486.673 231.072C486.84 230.986 486.987 230.868 487.107 230.724C487.227 230.58 487.316 230.414 487.371 230.235C487.425 230.056 487.443 229.868 487.423 229.682C487.387 229.308 487.205 228.963 486.916 228.723C486.628 228.482 486.256 228.365 485.882 228.397ZM411.566 163.474C411.945 163.474 412.308 163.324 412.575 163.056C412.843 162.788 412.993 162.425 412.993 162.047C412.993 161.668 412.843 161.305 412.575 161.037C412.308 160.77 411.945 160.619 411.566 160.619C399.261 160.933 386.842 161.019 374.451 161.961C374.185 162.02 373.946 162.168 373.776 162.381C373.605 162.594 373.512 162.859 373.512 163.132C373.512 163.404 373.605 163.669 373.776 163.882C373.946 164.095 374.185 164.243 374.451 164.302C386.899 164.53 399.261 163.874 411.566 163.474ZM460.244 278.73C455.904 278.73 440.259 279.844 436.547 280.501C435.348 280.7 435.177 282.67 436.547 282.727C440.573 282.927 456.133 281.928 460.643 281.528C462.385 281.586 462.014 278.73 460.244 278.73ZM451.907 294.747L416.02 297.031C414.392 297.031 414.792 299.515 416.391 299.429C423.357 299.115 445.769 298.23 452.05 297.374C453.449 297.202 453.477 294.747 451.907 294.747ZM426.212 46.5905C415.677 45.3914 382.616 47.3899 371.396 48.5319C369.854 48.6746 369.74 51.0728 371.396 50.9301C389.839 49.731 407.797 49.3313 426.241 49.3884C426.563 49.3196 426.851 49.1416 427.057 48.8845C427.263 48.6274 427.374 48.3071 427.37 47.9777C427.367 47.6484 427.25 47.3304 427.039 47.0775C426.828 46.8247 426.536 46.6526 426.212 46.5905ZM429.267 123.647C431.066 123.39 430.409 120.792 428.61 120.792C410.234 122.885 391.746 123.839 373.252 123.647C372.984 123.69 372.739 123.827 372.563 124.033C372.387 124.24 372.29 124.503 372.29 124.775C372.29 125.046 372.387 125.309 372.563 125.516C372.739 125.722 372.984 125.86 373.252 125.902C391.954 126.803 410.698 126.048 429.267 123.647ZM409.882 63.8632C410.069 63.8454 410.252 63.7905 410.418 63.7017C410.585 63.613 410.732 63.4921 410.851 63.346C410.971 63.2 411.06 63.0318 411.114 62.851C411.168 62.6703 411.186 62.4806 411.166 62.293C411.148 62.1051 411.094 61.9227 411.005 61.7562C410.916 61.5898 410.795 61.4425 410.649 61.3231C410.503 61.2036 410.335 61.1143 410.154 61.0602C409.973 61.0062 409.784 60.9885 409.596 61.0082C397.005 62.5785 385.072 62.6356 372.652 63.7205C371.339 63.8632 371.196 66.0045 372.652 66.0616C385.1 66.2628 397.544 65.5279 409.882 63.8632ZM374.508 109.058C373.081 109.058 373.052 111.313 374.679 111.37C379.803 111.853 384.954 111.987 390.096 111.77C390.328 111.667 390.525 111.498 390.663 111.286C390.801 111.073 390.874 110.825 390.874 110.571C390.874 110.317 390.801 110.069 390.663 109.856C390.525 109.644 390.328 109.475 390.096 109.372C389.582 109.086 377.135 109.058 374.508 109.058ZM338.878 125.503C340.534 125.503 346.672 115.339 350.126 111.856C351.383 110.6 349.327 108.487 348.042 109.686C344.4 112.97 341.247 116.758 338.678 120.935L331.455 114.283C329.97 112.912 328.057 115.253 329.428 116.652C330.798 118.051 336.765 125.503 338.878 125.503ZM319.35 78.8805C331.055 79.5657 343.217 79.3373 356.065 79.423C356.978 79.423 357.521 76.882 356.065 46.5619C356.065 44.3636 355.865 42.7362 355.836 42.1367C355.844 42.0483 355.832 41.9593 355.803 41.8756C355.773 41.792 355.726 41.7155 355.665 41.6513C354.837 40.7663 349.441 40.8234 337.307 41.1374C316.894 41.6228 314.639 41.48 314.639 42.6506C314.553 42.879 315.838 78.5379 319.35 78.8805ZM320.149 76.7678C318.721 69.145 317.694 53.0428 316.809 44.021C325.117 44.5063 344.045 43.5642 353.581 43.3358C353.581 43.3358 354.095 68.7167 354.323 76.9106C343.132 76.6536 331.455 76.2254 320.035 76.6251L320.149 76.7678Z" fill="#090915"/>
<path d="M360.006 132.953C362.404 132.011 359.606 105.403 359.206 98.4079C359.187 98.2641 359.116 98.1322 359.007 98.0368C357.294 96.5522 321.064 98.5221 319.236 98.6649C317.409 98.8076 319.236 108.743 319.551 115.509C320.207 132.354 320.978 133.81 321.835 133.924C328.058 134.809 354.296 135.18 360.006 132.953ZM320.978 101.006C333.34 100.207 345.874 100.149 357.008 100.092C357.294 106.773 357.75 125.588 358.321 130.669C346.686 131.873 334.976 132.207 323.291 131.669C323.776 127.415 321.406 105.831 320.978 101.006ZM344.218 173.095L350.841 167.099C351.034 166.773 351.119 166.394 351.084 166.016C351.049 165.639 350.895 165.282 350.645 164.997C350.395 164.712 350.061 164.513 349.691 164.429C349.321 164.345 348.935 164.381 348.586 164.53C345.874 166.2 343.413 168.248 341.277 170.611L335.339 165.129C335.017 164.83 334.589 164.671 334.15 164.687C333.711 164.703 333.297 164.893 332.998 165.215C332.698 165.537 332.539 165.964 332.556 166.403C332.572 166.842 332.761 167.257 333.083 167.556L338.793 173.266C333.654 178.691 331.399 182.088 331.913 183.63C332.427 185.171 334.282 184.486 334.768 183.801C336.766 181.346 339.022 178.548 341.448 175.95C343.854 178.576 346.523 180.949 349.414 183.03C349.712 183.107 350.026 183.103 350.321 183.017C350.617 182.931 350.885 182.767 351.095 182.542C351.305 182.317 351.451 182.039 351.517 181.738C351.583 181.437 351.567 181.124 351.469 180.832C349.32 178.014 346.891 175.422 344.218 173.095ZM345.731 50.7009C341.17 54.6892 337.444 59.5408 334.768 64.9759C332.617 62.4014 330.141 60.1173 327.402 58.181C325.717 57.0104 323.548 59.2373 325.203 60.4935C328.46 63.3719 331.504 66.4825 334.311 69.8008C335.053 70.5717 335.767 70.172 336.395 69.344C339.504 63.2867 343.339 57.6302 347.815 52.4995C349.185 50.9864 347.215 49.3019 345.731 50.7009ZM344.817 237.104C346.302 236.076 351.955 225.17 355.238 221.458C356.523 220.031 354.296 218.061 352.84 219.574C348.931 223.601 345.58 228.133 342.876 233.05L336.224 227.34C334.768 226.112 332.826 228.31 334.339 229.766C335.853 231.223 342.362 239.217 344.817 237.104ZM366.601 273.705C365.516 271.564 326.46 273.705 326.088 273.705C326.003 273.715 325.922 273.747 325.852 273.797C325.782 273.847 325.726 273.913 325.689 273.99C324.375 276.103 325.689 310.449 326.631 313.646C327.744 317.529 365.602 314.303 367.486 314.474C367.543 314.487 367.602 314.487 367.658 314.474C367.715 314.462 367.769 314.437 367.815 314.401C367.861 314.366 367.899 314.321 367.926 314.27C367.953 314.218 367.969 314.161 367.971 314.103C368.571 309.735 366.744 273.99 366.601 273.705ZM327.916 275.789C339.336 276.274 352.84 275.561 364.431 275.532C364.602 280.3 365.63 308.279 365.773 312.048C353.097 312.619 342.448 312.419 328.943 312.048C329.086 307.28 328.087 280.129 327.916 275.875V275.789Z" fill="#6564E3"/>
<path d="M341.704 294.289C343.731 294.289 354.095 295.003 354.923 294.546C355.141 294.422 355.328 294.249 355.468 294.041C355.608 293.833 355.699 293.595 355.732 293.346C355.765 293.097 355.74 292.844 355.659 292.607C355.578 292.369 355.444 292.153 355.265 291.976C353.752 290.378 344.188 290.72 342.589 291.034C340.419 291.434 340.02 292.262 340.077 292.89C340.153 293.271 340.354 293.616 340.649 293.87C340.944 294.123 341.316 294.271 341.704 294.289ZM345.558 210.495C336.194 210.666 326.344 211.009 324.717 211.123C324.089 211.123 323.432 211.665 323.347 217.604C323.347 224.713 324.574 247.239 327.429 247.438C333.139 247.867 362.66 247.981 366.457 247.695C367.057 247.695 367.542 247.695 366.457 232.849C365.857 225.198 364.516 211.294 364.516 211.294C364.401 210.723 364.344 210.209 345.558 210.495ZM362.374 213.007C363.06 223.656 363.431 234.562 364.573 245.269H328.257C327.144 234.962 326.401 224.341 325.602 213.435L362.374 213.007ZM331.455 194.421C343.046 194.421 362.431 192.851 362.603 192.765C364.43 191.823 362.603 166.042 362.003 155.022C362.003 153.052 351.925 153.024 343.56 153.338C339.906 153.338 321.748 154.308 321.805 156.906C322.776 195.135 322.547 193.279 323.261 193.679C325.933 194.376 328.701 194.627 331.455 194.421ZM325.431 191.566C324.774 180.317 324.546 168.383 324.089 157.306C335.944 156.253 347.848 155.853 359.748 156.107C359.748 160.018 360.519 186.027 361.004 190.367C356.779 190.652 329.856 190.852 325.516 191.595L325.431 191.566Z" fill="#090915"/>
<path d="M539.871 236.676C532.391 33.1999 535.532 34.9129 534.161 33.7138C532.22 31.8866 517.231 33.0857 513.548 33.2855L512.007 2.0804C512.08 1.89219 512.107 1.68903 512.085 1.48815C512.064 1.28726 511.994 1.09459 511.882 0.926467C511.77 0.758346 511.619 0.619744 511.442 0.522418C511.265 0.425091 511.067 0.371912 510.865 0.367396C450.91 -0.374904 389.213 3.59355 327.345 7.7904C310.672 8.96095 293.342 9.98874 276.383 11.7874C276.225 11.7619 276.063 11.772 275.908 11.8168C275.754 11.8616 275.612 11.9402 275.492 12.0467C275.372 12.1532 275.276 12.2851 275.213 12.4328C275.15 12.5805 275.121 12.7404 275.127 12.9008C278.268 89.1293 287.404 212.351 303.192 348.792C303.363 350.362 316.382 348.991 328.088 348.221C328.241 351.579 328.846 354.902 329.886 358.099C331.599 360.269 543.383 347.136 543.126 338.114C542.213 304.225 540.985 269.908 539.871 236.676ZM523.826 325.695C448.74 337.115 381.219 340.312 305.818 346.822C290.887 217.462 284.749 128.728 277.268 13.7859C300.451 12.4155 386.187 4.53569 510.037 2.90834C513.12 85.9032 524.597 316.559 523.741 325.695H523.826ZM165.438 129.413C163.497 129.413 163.525 133.182 164.439 134.609C164.544 134.818 164.709 134.992 164.912 135.109C165.115 135.225 165.347 135.28 165.581 135.266C167.322 135.066 167.237 129.613 165.438 129.413ZM155.246 145.915C156.473 146.229 159.785 146.429 160.556 145.287C161.641 143.688 158.7 129.185 158.329 128.157C158.253 127.947 158.104 127.772 157.911 127.661C157.717 127.551 157.49 127.512 157.27 127.554C157.051 127.595 156.853 127.712 156.713 127.886C156.572 128.059 156.497 128.277 156.502 128.5C156.502 131.098 157.673 139.92 158.129 143.603L155.274 143.774C155.066 143.863 154.887 144.011 154.761 144.199C154.635 144.387 154.566 144.609 154.563 144.835C154.56 145.062 154.623 145.285 154.744 145.477C154.865 145.669 155.04 145.821 155.246 145.915ZM163.011 124.075C163.856 123.843 164.745 123.821 165.601 124.01C166.456 124.199 167.253 124.593 167.922 125.159C169.035 126.159 171.177 124.246 168.122 122.304C165.923 120.82 160.784 120.306 161.327 122.933C161.415 123.298 161.637 123.618 161.949 123.829C162.26 124.04 162.639 124.128 163.011 124.075Z" fill="#6564E3"/>
<path d="M246.719 227.853C228.362 209.752 195.329 188.483 165.637 184.257C166.129 182.56 166.129 180.758 165.637 179.061C167.897 177.172 169.998 175.1 171.918 172.866C176.001 168.069 175.915 163.387 170.091 165.757C175.801 153.138 175.801 125.787 173.745 110.427C183.31 116.394 199.44 110.655 197.47 99.007C210.461 102.918 218.911 77.1092 202.41 72.4555C204.722 52.9273 179.712 50.1009 172.061 61.4923C167.75 48.9018 147.936 55.5254 149.364 65.4037C140.428 55.8109 121.128 59.1512 118.444 71.1137C110.364 63.7763 97.0315 66.8883 98.2021 77.7087C85.4117 71.7703 78.6453 87.0731 88.5807 91.9837C82.2141 95.4097 82.4139 109.513 92.178 109.513C92.178 118.935 97.888 140.519 112.02 152.338C113.533 165.557 110.821 172.323 106.11 184.571C59.5168 191.652 24.1434 227.996 8.2696 273.076C-9.8311 324.466 -1.23755 373.001 52.4079 383.222C52.2963 390.081 51.4928 396.91 50.0097 403.607C49.983 403.86 50.0482 404.113 50.1935 404.322C50.3387 404.53 50.5543 404.68 50.8006 404.742C51.0469 404.804 51.3075 404.776 51.5345 404.662C51.7616 404.548 51.9399 404.356 52.0367 404.121C53.9478 397.47 54.9844 390.598 55.1201 383.679C68.0441 385.6 81.247 383.585 93.0098 377.897C104.773 372.209 114.551 363.112 121.071 351.789C129.335 354.928 137.771 357.597 146.337 359.783C173.289 367.406 208.434 374.971 241.723 365.949C241.066 381.909 240.153 394.699 238.725 407.404C238.725 408.66 240.467 409.031 240.667 407.775C241.78 401.095 244.549 371.774 244.378 365.179C265.562 358.669 279.723 343.966 283.206 324.866C289.287 292.49 275.583 256.146 246.719 227.853ZM125.467 104.888C126.21 113.225 125.467 119.163 122.926 123.018C121.984 124.417 120.557 125.873 119.329 125.873C118.387 124.845 112.22 118.45 106.396 122.19C102.599 124.673 102.427 129.498 106.025 135.779C108.596 139.594 110.435 143.854 111.449 148.341C100.515 136.465 97.1743 125.33 94.6619 109.371C97.5641 108.847 100.213 107.382 102.199 105.202C107.195 112.625 119.415 111.141 125.467 104.888ZM107.766 124.074C111.621 121.704 115.189 124.559 118.444 127.414C120.357 129.099 123.497 126.729 124.982 124.559C128.865 119.192 128.522 110.284 128.008 105.83C130.779 108.47 134.46 109.942 138.286 109.942C142.113 109.942 145.793 108.47 148.564 105.83C149.135 114.053 166.379 115.937 170.919 109.114C173.003 123.389 174.002 154.251 167.093 167.184C161.383 169.697 148.393 175.435 141.941 172.894C136.402 170.696 133.604 162.245 127.152 158.619C122.812 156.221 119.101 158.933 122.127 163.787C129.778 175.949 129.093 180.574 123.041 193.079C117.736 191.634 112.775 189.139 108.452 185.742C114.733 176.749 116.446 160.704 114.875 150.026C113.476 140.519 112.02 141.09 108.252 134.066C106.51 131.183 104.968 125.844 107.766 124.074ZM155.93 181.659C155.702 181.765 155.521 181.95 155.421 182.18C155.32 182.41 155.307 182.669 155.385 182.908C155.462 183.147 155.624 183.349 155.84 183.477C156.056 183.604 156.312 183.648 156.558 183.601C159.007 183.163 161.327 182.188 163.353 180.746C163.518 183.408 162.817 186.052 161.355 188.283C160.841 188.997 161.754 191.138 163.61 188.483C163.467 196.363 159.442 206.098 151.705 209.924C146.461 208.976 141.471 206.952 137.048 203.979C132.626 201.006 128.867 197.149 126.01 192.651C134.575 177.976 127.038 166.956 124.525 162.388C123.126 159.761 123.84 159.362 126.124 160.846C131.52 164.272 136.259 173.837 141.484 175.121C151.334 177.491 163.467 171.553 169.406 168.897C172.489 167.498 174.288 166.556 170.576 171.21C165.609 177.348 162.782 178.633 155.93 181.659ZM35.1066 303.511C35.0033 303.743 34.9872 304.004 35.0611 304.248C35.1351 304.491 35.2942 304.699 35.5093 304.834C35.7244 304.97 35.981 305.023 36.2322 304.984C36.4833 304.946 36.7122 304.818 36.8767 304.624C61.915 265.168 103.341 237.789 124.668 195.563C127.98 202.929 142.141 212.408 150.877 212.408C150.877 219.517 150.163 227.967 149.421 236.076C140.856 234.106 117.702 226.854 113.533 217.375C113.048 216.205 111.164 217.004 111.621 218.175C115.532 228.767 139.685 237.275 149.164 239.073C147.162 260.406 143.196 281.508 137.316 302.112C133.005 317.529 127.466 336.172 119.472 349.961C113.099 361.299 103.347 370.366 91.5767 375.898C79.806 381.43 66.6027 383.152 53.8068 380.824C1.10355 371.574 -6.83335 324.038 11.0675 273.819C27.7978 226.768 64.4275 193.65 106.681 187.369C111.275 190.756 116.295 193.521 121.613 195.592C100.201 236.903 59.3741 264.026 35.1066 303.511ZM139.771 303.311C167.513 291.619 196.989 284.569 227.02 282.441C235.585 281.87 244.15 281.898 252.715 281.898C253.971 281.898 253.999 279.843 252.715 279.843C246.89 279.439 241.049 279.334 235.214 279.529C233.815 268.109 213.23 234.791 206.235 225.569C206.056 225.4 205.822 225.301 205.576 225.289C205.33 225.278 205.088 225.356 204.894 225.508C204.7 225.66 204.568 225.877 204.521 226.119C204.473 226.361 204.514 226.611 204.636 226.825C218.655 246.468 229.989 271.478 232.244 279.643C207.149 280.585 168.435 286.523 140.57 300.17C143.197 290.549 153.361 250.864 153.589 211.665C161.44 208.154 167.036 195.449 166.379 186.912C195.981 193.654 223.131 208.479 244.806 229.737C270.244 254.662 285.833 286.837 281.036 321.811C278.495 341.796 264.306 357.27 243.122 362.895C206.606 372.887 169.035 364.208 132.976 353.016C129.485 351.842 125.93 350.869 122.327 350.104C129.624 335.1 135.465 319.43 139.771 303.311Z" fill="#090915"/>
<path d="M138.372 119.507C139.11 118.417 140.094 117.516 141.245 116.876C142.396 116.236 143.681 115.876 144.996 115.825C147.08 115.825 146.966 112.684 144.996 112.97C143.3 113.148 141.668 113.711 140.223 114.617C138.778 115.522 137.559 116.746 136.659 118.194C135.917 119.365 137.573 120.649 138.372 119.507ZM145.11 127.416C143.94 128.358 144.025 133.126 145.795 133.126C146.2 133.084 146.579 132.905 146.869 132.62C147.16 132.335 147.345 131.96 147.394 131.556C148.051 129.072 146.366 126.531 145.11 127.416ZM142.598 150.998C142.545 150.775 142.423 150.574 142.251 150.422C142.079 150.27 141.864 150.175 141.636 150.15C141.408 150.125 141.178 150.171 140.977 150.282C140.776 150.393 140.614 150.563 140.514 150.77C140.228 151.169 139.686 152.397 140.885 154.881C141.699 156.572 143.104 157.906 144.834 158.632C146.565 159.358 148.501 159.425 150.278 158.821C150.518 158.725 150.716 158.545 150.832 158.313C150.948 158.082 150.975 157.816 150.908 157.566C150.841 157.316 150.685 157.099 150.469 156.957C150.253 156.814 149.992 156.756 149.735 156.794C145.681 157.593 143.34 155.024 142.598 150.998Z" fill="#6564E3"/>
</g>
<defs>
<clipPath id="clip0_145_24462">
<rect width="543" height="409" fill="white"/>
</clipPath>
</defs>
</svg>
