<svg width="200" height="200" viewBox="0 0 200 200" fill="none" xmlns="http://www.w3.org/2000/svg">
<path fill-rule="evenodd" clip-rule="evenodd" d="M83.4883 12.2115C101.068 11.4276 110.426 17.0956 119.002 23.1303C108.13 35.4799 106.958 52.1927 111.423 64.7445C121.286 92.4685 157.609 102.723 180.549 80.7995C187.064 74.5727 190.598 66.5601 192.118 61.0803C195.739 71.3162 195.979 82.484 192.742 92.9185C191.219 97.9955 189.044 102.184 186.877 106.353C184.551 110.831 182.236 115.287 180.753 120.8C178.963 127.455 180.36 133.331 181.828 139.507C183.905 148.241 186.124 157.573 179.672 170.551C174.097 181.767 160.293 186.895 147.855 187.227C136.04 187.542 124.139 181.298 115.073 176.541C111.915 174.884 109.102 173.408 106.755 172.452C95.8678 168.017 88.6614 173.935 80.9338 180.281L80.9332 180.282H80.9326L80.931 180.284H80.93L80.9296 180.285H80.9287L80.9283 180.286C79.807 181.207 78.6744 182.137 77.5183 183.045C71.1463 188.052 36.1933 207.31 13.5683 170.369C8.32332 161.815 -0.619676 139.374 9.86832 117.269C14.8706 106.727 20.9567 101.538 26.3695 96.9227C32.6918 91.5327 38.0956 86.9258 39.7813 75.4855C40.4269 71.1029 40.2508 66.6631 40.0715 62.1435C39.7157 53.1722 39.3475 43.8868 45.3683 34.1115C49.4355 27.6116 55.0409 22.2135 61.6894 18.394C68.3378 14.5745 75.8245 12.4511 83.4883 12.2115ZM64.8636 80.4607C66.5159 79.6648 69.1189 78.4111 69.8223 78.1195C69.9003 78.0954 69.9841 78.0973 70.061 78.1249C70.1378 78.1525 70.2037 78.2043 70.2486 78.2725C70.2934 78.3407 70.315 78.4217 70.3099 78.5032C70.3048 78.5847 70.2733 78.6624 70.2203 78.7245C69.7913 79.1545 65.2013 81.7155 64.5013 82.1025C64.6709 82.3182 65.204 82.6883 65.8079 83.1075C66.3184 83.4619 66.8795 83.8515 67.3143 84.2125C68.4584 85.159 68.471 85.3065 68.4953 85.5929C68.4974 85.6166 68.4995 85.6413 68.5023 85.6675C68.5068 85.7038 68.5034 85.7406 68.4923 85.7754C68.4811 85.8103 68.4625 85.8423 68.4378 85.8692C68.4131 85.8961 68.3828 85.9173 68.349 85.9314C68.3152 85.9454 68.2788 85.9519 68.2423 85.9505C68.1188 85.9447 67.9969 85.9194 67.8813 85.8755C67.0001 85.3586 66.1786 84.7821 65.4858 84.2959C64.6023 83.6759 63.928 83.2026 63.6063 83.1875C63.3964 84.8172 63.2713 86.4568 63.2313 88.0995C63.1923 88.7305 63.1563 89.1255 62.9163 89.2995C62.8129 89.3861 62.6848 89.4379 62.5503 89.4475C62.0993 89.4475 62.0713 88.8175 62.0603 88.3685C62.0223 86.8095 62.2373 84.0015 62.2963 83.2685C62.1453 83.3345 61.9023 83.4555 61.5023 83.6685C60.0234 84.4511 59.197 84.9326 58.7078 85.2177L58.7072 85.218C58.0169 85.6203 57.9984 85.6311 57.7643 85.5445C57.6867 85.5186 57.6185 85.4704 57.568 85.4061C57.5175 85.3417 57.487 85.264 57.4803 85.1825C57.4155 84.4007 59.6048 83.235 61.1194 82.4287C61.3811 82.2894 61.623 82.1605 61.8293 82.0465L61.0983 81.5344C57.6731 79.1351 57.2106 78.8112 57.2284 78.5162C57.2312 78.4702 57.2457 78.4249 57.2624 78.3725L57.2643 78.3665C57.5976 77.32 59.4474 78.7053 60.9582 79.8366C61.5824 80.3041 62.1488 80.7283 62.5263 80.9195C62.5203 80.5725 62.5653 79.5845 62.8343 76.5985C62.9725 75.063 62.9554 73.8846 62.9428 73.0141C62.9228 71.6294 62.914 71.0237 63.5593 70.9985C63.7034 71.0101 63.8405 71.0657 63.9519 71.1578C64.0634 71.25 64.1438 71.3741 64.1823 71.5135C64.2165 74.674 64.083 77.8341 63.7823 80.9805C64.0309 80.8617 64.4049 80.6816 64.8486 80.4679L64.8557 80.4645L64.8618 80.4615L64.8636 80.4607ZM171.529 112.317C171.586 112.255 171.62 112.176 171.627 112.092C171.634 112.008 171.613 111.925 171.567 111.854C171.522 111.783 171.454 111.73 171.374 111.702C171.295 111.674 171.209 111.674 171.129 111.7C170.333 112.029 167.128 113.577 165.594 114.317L165.592 114.318L165.089 114.561C165.39 111.414 165.523 108.254 165.489 105.093C165.45 104.954 165.369 104.83 165.258 104.738C165.147 104.646 165.01 104.591 164.866 104.579C164.221 104.604 164.23 105.21 164.251 106.592C164.263 107.463 164.281 108.642 164.142 110.179C163.873 113.163 163.829 114.152 163.835 114.499C163.457 114.309 162.889 113.883 162.263 113.414C160.754 112.283 158.906 110.898 158.572 111.947L158.569 111.955C158.553 112.007 158.538 112.052 158.536 112.098C158.517 112.393 158.982 112.718 162.456 115.149L163.137 115.626C162.949 115.73 162.727 115.847 162.484 115.976C160.989 116.77 158.722 117.974 158.788 118.763C158.804 118.849 158.843 118.93 158.901 118.996C158.958 119.062 159.033 119.111 159.116 119.139C159.199 119.167 159.288 119.172 159.374 119.153C159.46 119.135 159.539 119.094 159.604 119.035C159.855 118.835 163.204 117.021 163.704 116.782C163.7 116.83 163.695 116.888 163.689 116.953L163.688 116.96C163.573 118.247 163.188 122.538 164.125 122.538C164.393 122.538 164.405 122.376 164.49 121.199V121.198V121.197H164.491C164.538 120.543 164.608 119.578 164.757 118.155C164.802 117.728 164.845 116.722 164.845 116.722C165.024 116.811 165.209 116.934 165.486 117.117C165.852 117.359 166.376 117.707 167.256 118.222C167.432 118.287 167.686 118.353 167.813 118.216C167.892 118.131 167.884 118.059 167.875 117.978C167.873 117.963 167.871 117.948 167.87 117.933C167.845 117.594 167.738 117.426 166.689 116.557C166.347 116.274 166.102 116.087 165.896 115.929C165.817 115.869 165.743 115.812 165.672 115.757C166.125 115.528 171.089 112.757 171.529 112.317ZM86.768 30.4163C86.786 30.4522 86.7967 30.4914 86.7993 30.5314C86.8143 31.1504 81.6993 36.2984 79.5153 38.2074C79.7878 38.5389 81.4715 40.0649 82.9403 41.3959L82.9481 41.403C83.196 41.6277 83.4377 41.8467 83.6653 42.0534C85.1403 43.3914 85.1113 43.5134 85.0713 43.6804C85.0581 43.7271 85.0336 43.7698 84.9999 43.8047C84.9663 43.8396 84.9245 43.8656 84.8783 43.8804C84.3213 44.0374 79.9093 40.5204 78.5783 39.1804C78.3551 40.1601 78.0092 43.8445 77.7764 46.3245C77.6525 47.6442 77.5606 48.6232 77.5363 48.6715C77.5192 48.7061 77.4944 48.7362 77.4636 48.7596C77.4329 48.7829 77.3972 48.7988 77.3593 48.806C77.3213 48.8132 77.2823 48.8115 77.2451 48.8009C77.208 48.7904 77.1738 48.7714 77.1453 48.7454C76.3723 48.0452 76.763 44.4761 77.042 41.9282L77.0423 41.9256C77.1197 41.2182 77.1885 40.5897 77.2213 40.1234C77.0158 40.2781 76.7176 40.5232 76.1761 40.9683C75.9086 41.1881 75.5817 41.4568 75.1773 41.7874C74.3603 42.4588 74.3143 42.5568 74.1995 42.8016C74.1748 42.8543 74.1468 42.9139 74.1073 42.9874C73.6693 43.8264 72.6283 42.9835 73.1073 41.9955C73.4001 41.3927 73.5559 41.2652 75.7563 39.4642C76.1333 39.1557 76.5703 38.798 77.0783 38.3804C77.2033 38.2774 77.3233 38.1784 77.3943 38.1124C77.2893 38.0214 72.0233 33.0464 71.9893 32.9044C71.8703 32.4604 72.0243 32.2784 72.1703 32.2044C73.0473 31.7564 77.0253 35.7975 77.6863 36.5235C77.6953 36.4234 77.7033 36.3014 77.7103 36.1874C77.7347 35.7901 77.8203 35.0089 77.9371 33.9421L77.9374 33.9395C78.0549 32.8667 78.204 31.5054 78.3543 29.9554L78.3546 29.9529C78.5733 27.7104 78.5865 27.5754 79.0613 27.5004C79.8557 27.3697 79.5248 30.4447 79.13 34.114C79.0297 35.0454 78.9254 36.0152 78.8343 36.9804C82.3522 34.0492 84.153 32.2624 85.1548 31.2683C86.1698 30.2612 86.3647 30.0678 86.6943 30.3224C86.7249 30.3485 86.75 30.3804 86.768 30.4163ZM126.41 120.653C125.313 121.246 125.255 121.271 125.057 121.354C124.918 121.413 124.709 121.502 124.019 121.839C123.602 122.043 123.059 122.322 122.575 122.569C122.033 122.847 121.566 123.086 121.437 123.139C121.469 122.605 121.644 119.262 121.559 118.966C121.614 118.74 121.646 118.509 121.652 118.276C121.655 118.114 121.596 117.956 121.487 117.836C121.378 117.716 121.227 117.642 121.065 117.629C120.341 117.582 120.313 118.429 120.316 119.151C120.32 120.029 120.284 120.534 120.251 121.011C120.218 121.478 120.187 121.917 120.197 122.651C120.146 122.624 120.088 122.593 120.024 122.559L119.921 122.504L119.919 122.503C118.9 121.955 116.685 120.766 115.963 121.222C115.888 121.278 115.829 121.354 115.794 121.441C115.758 121.528 115.748 121.623 115.763 121.716C115.778 121.809 115.818 121.896 115.879 121.967C115.939 122.039 116.019 122.092 116.108 122.122C118.489 123.224 119.145 123.541 119.476 123.701C119.668 123.794 119.75 123.834 119.998 123.944C119.865 124.032 119.714 124.125 119.531 124.238C119.127 124.487 118.564 124.833 117.688 125.444C116.612 126.2 117.288 127.505 117.867 126.971C118.565 126.375 119.329 125.862 120.145 125.442C120.178 129.091 120.54 129.417 120.679 129.542C120.715 129.577 120.757 129.605 120.804 129.623C120.851 129.641 120.901 129.649 120.951 129.646C121.002 129.644 121.051 129.631 121.096 129.609C121.141 129.587 121.181 129.555 121.213 129.517C121.338 129.359 121.314 129.164 121.241 128.576C121.232 128.505 121.223 128.429 121.213 128.347C121.25 128.206 121.278 127.418 121.306 126.61C121.338 125.703 121.371 124.77 121.419 124.7C121.474 124.705 121.527 124.722 121.574 124.751C122.499 125.207 123.199 125.559 123.733 125.828C125.086 126.508 125.363 126.647 125.487 126.562C125.519 126.541 125.54 126.504 125.568 126.457L125.584 126.43C125.997 125.707 124.191 124.753 123.088 124.169C122.938 124.09 122.801 124.017 122.684 123.953C124.031 123.227 125.335 122.426 126.592 121.553C127.329 120.925 126.735 120.475 126.41 120.653ZM153.031 149.383C153.049 149.419 153.06 149.459 153.062 149.499C153.083 150.118 147.973 155.26 145.78 157.177C146.041 157.49 147.67 158.967 149.247 160.396L149.248 160.397L149.251 160.4C149.479 160.607 149.706 160.813 149.928 161.014C151.402 162.352 151.373 162.473 151.333 162.641C151.32 162.688 151.296 162.731 151.262 162.765C151.228 162.8 151.186 162.826 151.14 162.841C150.588 162.988 146.172 159.482 144.84 158.141C144.613 159.129 144.258 162.911 144.025 165.393V165.395C143.906 166.662 143.819 167.589 143.797 167.633C143.78 167.667 143.755 167.697 143.724 167.72C143.693 167.743 143.658 167.759 143.62 167.766C142.523 167.937 143.057 163.066 143.346 160.425L143.347 160.424V160.418C143.41 159.841 143.462 159.371 143.482 159.084C143.256 159.255 142.866 159.575 142.324 160.021L142.322 160.023L141.957 160.323C141.795 160.456 141.622 160.598 141.438 160.748C140.62 161.417 140.576 161.511 140.459 161.761C140.435 161.813 140.407 161.871 140.369 161.943C139.93 162.782 138.888 161.94 139.369 160.951C139.67 160.333 139.707 160.302 142.427 158.082L142.844 157.742L143.369 157.313L143.398 157.289C143.459 157.239 143.519 157.19 143.569 157.147C143.603 157.118 143.633 157.092 143.658 157.069C143.558 156.989 138.286 152.003 138.252 151.859C138.133 151.416 138.287 151.233 138.433 151.159C139.313 150.712 143.269 154.742 143.949 155.479C144.083 153.943 144.172 153.132 144.281 152.129C144.368 151.331 144.469 150.412 144.616 148.909C144.836 146.665 144.85 146.531 145.324 146.455C146.119 146.331 145.788 149.407 145.393 153.073C145.293 154.004 145.188 154.973 145.097 155.937C145.158 155.876 145.347 155.717 145.642 155.47C146.674 154.605 148.997 152.657 151.64 150.022L151.641 150.021C152.397 149.266 152.626 149.037 152.956 149.29C152.987 149.316 153.013 149.347 153.031 149.383ZM45.4533 125.399C45.6827 125.384 45.9192 125.266 46.237 125.108C47.2395 124.609 49.0519 123.708 54.0083 124.339C54.4501 124.356 54.7623 124.414 55.0075 124.46C55.4988 124.552 55.721 124.593 56.1773 124.152C56.8133 123.552 61.2003 117.752 61.2623 117.663C61.6312 117.153 62.2154 116.506 62.8067 115.85C64.1277 114.385 65.4841 112.882 64.5543 112.791C62.7552 112.485 60.9174 112.485 59.1183 112.791C57.6528 113.041 56.221 113.46 54.8513 114.038C51.6188 115.693 48.8513 118.13 46.8003 121.127C46.1003 122.242 45.4943 123.408 44.9103 124.587C44.8645 124.676 44.8434 124.775 44.849 124.875C44.8546 124.974 44.8868 125.07 44.9423 125.153C44.9977 125.236 45.0744 125.303 45.1642 125.346C45.2541 125.389 45.3539 125.407 45.4533 125.399ZM63.6695 141.091C63.7602 141.141 63.834 141.216 63.8813 141.308C64.1639 141.932 62.996 143.369 57.5058 150.127C53.787 154.704 48.0848 161.723 39.5073 172.582C38.9439 173.295 38.4976 173.87 38.1399 174.33L38.1394 174.331C36.8462 175.997 36.7121 176.17 36.3933 175.973C36.2913 175.907 36.1873 175.773 36.2773 175.473C37.1843 172.5 62.4373 141.03 63.3723 141.03C63.4752 141.02 63.5787 141.041 63.6695 141.091ZM45.0533 172.417C44.0863 173.6 45.0893 174.655 45.7813 173.643C46.2323 172.833 49.4173 171.071 52.9943 171.198C53.4263 171.214 53.5373 171.367 53.3633 171.82C52.9122 172.985 50.4572 174.503 49.4593 175.12C49.2383 175.257 49.0887 175.349 49.0483 175.384C48.8682 175.508 48.7218 175.675 48.6224 175.869C48.5231 176.064 48.4739 176.28 48.4794 176.499C48.4848 176.717 48.5448 176.931 48.6537 177.121C48.7627 177.31 48.9172 177.469 49.1033 177.584C49.333 177.753 49.5668 177.916 49.7912 178.073C50.5926 178.634 51.2755 179.112 51.2333 179.431C51.1513 180.05 48.8863 180.991 44.7333 182.513C44.0463 182.765 44.1493 183.613 45.7783 183.613C47.5633 183.488 49.2907 182.929 50.8103 181.984C55.1578 179.568 52.2666 177.782 50.7399 176.839C50.4237 176.643 50.166 176.484 50.0433 176.363C50.0729 176.342 50.1607 176.295 50.2933 176.224C51.2103 175.731 54.2688 174.087 54.9983 172.055C56.4723 167.948 47.4993 169.429 45.0533 172.417ZM29.3533 161.785C30.5333 157.18 34.1133 153.892 36.1533 158.04C37.5753 160.929 36.4703 164.517 35.2303 164.412C35.1455 164.41 35.0625 164.387 34.988 164.347C34.9135 164.306 34.8495 164.249 34.8013 164.179C34.7383 164.016 34.7112 163.841 34.7219 163.666C34.7326 163.492 34.7808 163.321 34.8633 163.167C35.7653 160.504 34.4563 157.062 33.2433 158.138C31.6353 159.567 30.3673 162.913 30.9353 164.206C31.1773 164.759 31.1673 165.578 30.5883 165.759C29.8183 166.002 29.5593 165.399 29.3333 164.869C28.6673 163.326 27.3813 163.136 26.6333 163.769C25.7495 164.683 25.2208 165.883 25.1423 167.152C25.1423 167.613 25.4748 167.896 25.7582 168.137C26.0352 168.373 26.2653 168.569 26.0923 168.852C26.0339 168.941 25.947 169.008 25.8458 169.041C25.7446 169.074 25.6351 169.072 25.5353 169.035C24.9778 168.913 24.4829 168.594 24.1413 168.137C23.7997 167.68 23.6342 167.115 23.6753 166.546C23.6549 165.884 23.792 165.226 24.0753 164.627C24.7183 162.907 25.5643 162.04 26.9043 161.727C27.6811 161.56 28.4925 161.707 29.1613 162.136L29.2533 162.178C29.2798 162.045 29.3132 161.914 29.3533 161.785ZM71.2443 148.099C70.727 146.845 69.8862 147.68 68.662 148.896C68.1682 149.387 67.6119 149.94 66.9893 150.442C64.9403 152.091 58.8013 158.035 56.9133 159.868C50.4603 166.13 50.5893 166.296 50.7853 166.548C50.8095 166.582 50.8415 166.609 50.8786 166.628C50.9156 166.647 50.9567 166.657 50.9983 166.656C52.1273 166.656 70.5723 149.335 71.2233 148.33C71.2453 148.296 71.2587 148.257 71.2623 148.217C71.266 148.177 71.2598 148.136 71.2443 148.099ZM54.807 140.545L54.8062 140.546C50.7419 146.347 44.5246 155.22 43.5913 156.922C43.3373 157.392 42.6893 157.264 42.8543 156.576C43.3753 154.43 55.5353 136.365 57.3863 134.892C57.4716 134.794 57.5881 134.728 57.7161 134.705C57.8442 134.683 57.9761 134.705 58.0899 134.768C58.2037 134.831 58.2924 134.931 58.3413 135.051C58.3901 135.172 58.3961 135.306 58.3583 135.43C58.3323 135.513 56.8387 137.645 54.807 140.545ZM107.199 107.313C105.28 106.532 103.451 105.546 101.744 104.373C98.7851 102.223 96.2131 99.5849 94.1383 96.5726C93.8113 96.0359 93.5565 95.6025 93.353 95.2562C92.8307 94.3678 92.6458 94.0534 92.4449 94.0428C92.3349 94.037 92.22 94.1224 92.0422 94.2546L92.0073 94.2806C82.0224 100.243 73.105 107.834 65.6243 116.738C64.1433 118.538 64.1553 118.583 64.4543 119.096C68.7803 126.543 79.2933 134.755 86.7353 138.968C87.2783 139.28 87.4463 139.277 92.8483 132.713C99.0416 125.189 104.129 116.819 107.956 107.857C107.955 107.395 107.779 107.387 107.55 107.378C107.441 107.373 107.32 107.368 107.199 107.313ZM90.0273 120.632C86.8343 120.2 84.9923 119.407 83.1783 116.722C78.7263 110.122 85.9903 101.268 93.7093 104.805C101.142 108.211 99.7213 120.158 90.0273 120.632ZM83.8962 140.43C84.9962 141.044 85.2164 141.167 84.8863 141.532L84.7979 141.628C83.9227 142.579 80.4494 146.355 79.1383 146.724C73.8143 145.848 63.6433 137.059 60.1793 132.165C59.0846 130.814 58.2296 129.284 57.6513 127.644L57.6021 127.53L57.5591 127.43C57.3063 126.845 57.2547 126.726 57.4013 126.528C58.7573 124.704 61.6493 121.163 61.6723 121.141C62.1962 120.533 62.5047 120.989 63.4201 122.342C64.8446 124.446 67.7387 128.723 75.2003 134.541C79.8474 138.167 82.5403 139.672 83.8962 140.43ZM113.127 87.9775C113.116 87.7689 113.061 87.565 112.964 87.3798C112.867 87.1946 112.732 87.0325 112.567 86.9045C112.402 86.7765 112.211 86.6857 112.007 86.6382C111.804 86.5908 111.593 86.5878 111.388 86.6296C106.195 87.2296 102.4 88.3376 95.0883 92.1025C94.6883 92.3096 94.7093 92.4606 95.4063 93.5026C98.3813 97.9426 101.292 101.687 107.436 104.359C107.724 104.484 107.975 104.595 108.194 104.691C109.598 105.308 109.7 105.353 109.836 105.109C112.477 100.246 113.479 91.0276 113.127 87.9775ZM85.8607 117.722C84.9806 117.021 84.2856 116.115 83.8363 115.084C83.2957 113.82 83.1447 112.423 83.4026 111.072C83.6605 109.721 84.3156 108.478 85.284 107.502C86.2524 106.525 87.4901 105.86 88.8387 105.591C90.1873 105.322 91.5855 105.462 92.8543 105.992C93.8894 106.433 94.8007 107.121 95.5088 107.995C96.2169 108.869 96.7001 109.903 96.9164 111.007C97.1326 112.111 97.0752 113.252 96.7493 114.328C96.4233 115.405 95.8387 116.386 95.0464 117.185C94.2541 117.983 93.2783 118.576 92.2043 118.911C91.1302 119.246 89.9905 119.312 88.8847 119.105C87.7789 118.898 86.7407 118.423 85.8607 117.722ZM95.1225 113.88C95.4624 112.959 95.5399 111.961 95.3463 110.999C95.1805 110.189 94.8278 109.428 94.3163 108.778C93.8048 108.128 93.1486 107.607 92.3999 107.255C91.6513 106.903 90.8309 106.731 90.0041 106.753C89.1772 106.774 88.3668 106.988 87.6373 107.378C86.773 107.844 86.055 108.54 85.5633 109.389C85.0716 110.239 84.8254 111.209 84.8524 112.19C84.8793 113.171 85.1783 114.126 85.7159 114.947C86.2535 115.768 87.0086 116.424 87.8971 116.842C88.7856 117.259 89.7726 117.421 90.748 117.311C91.7233 117.2 92.6488 116.82 93.4212 116.215C94.1936 115.609 94.7826 114.8 95.1225 113.88ZM92.7783 137.486C92.3052 137.394 91.6639 138.202 90.7015 139.415C90.1036 140.168 89.3818 141.077 88.4993 142.024C88.4693 142.056 88.4774 142.047 88.4874 142.036C88.532 141.986 88.6144 141.895 85.5123 145.224C85.1589 145.602 84.882 145.871 84.6185 146.127C84.1776 146.556 83.7738 146.947 83.1123 147.751C82.6289 148.327 82.8578 148.943 83.151 149.733C83.2872 150.1 83.4373 150.504 83.5363 150.959C83.6769 151.602 83.7763 152.045 83.8468 152.359C83.9757 152.933 84.0075 153.074 84.0164 153.217C84.0193 153.264 84.0197 153.31 84.0204 153.373C84.0225 153.589 84.0266 153.991 84.1423 155.221C84.1641 156.724 83.8414 157.508 83.6371 158.005C83.4488 158.462 83.3612 158.675 83.7373 158.98C84.2149 159.37 84.2593 159.335 86.9329 157.247L87.0253 157.175C95.1913 150.781 94.5133 137.822 92.7783 137.486ZM89.3323 110.273C90.2818 109.787 91.2831 109.411 92.3173 109.15C92.5003 109.115 92.6235 109.058 92.7212 109.012C92.9208 108.918 93.0133 108.875 93.2893 109.18C93.8553 109.83 94.6983 111.133 93.8803 111.391C90.9504 112.317 90.9511 112.318 91.2043 112.711C91.2755 112.821 91.3667 112.963 91.4183 113.165C91.46 113.318 91.4561 113.479 91.4073 113.63C91.3584 113.78 91.2667 113.913 91.1433 114.012C90.2843 114.571 89.3618 115.027 88.3953 115.368C87.6253 115.563 86.8063 115.34 86.1823 113.62C86.0552 113.271 86.2294 113.231 86.7421 113.113C87.1609 113.017 87.8056 112.87 88.6963 112.459C89.7694 111.966 89.5316 111.596 89.2898 111.221C89.1019 110.929 88.9116 110.633 89.3323 110.273Z" fill="#090915"/>
<path d="M186.478 25.055C172.858 6.11804 147.883 2.73704 128.587 13.566C99.8122 29.713 99.7502 76.616 134.632 90.789C147.641 96.075 165.556 95.028 177.487 85.552C183.981 80.394 188.379 73.374 190.953 68.313C197.269 53.499 194.115 35.672 186.478 25.055ZM193.037 56.018C192.937 59.908 189.655 72.098 180.55 80.8C157.61 102.723 121.287 92.469 111.424 64.745C105.687 48.618 109.256 25.622 130.748 13.837C154.467 0.831043 186.587 12.731 192.165 41.415C193.221 46.2066 193.516 51.1348 193.037 56.018Z" fill="#090915"/>
<path d="M155.161 63.7824C152.201 62.7164 149.375 64.8404 147.826 67.2674C144.595 72.3324 145.706 79.5674 151.765 79.2014C153.524 79.2014 156.943 76.3304 158.03 72.2254C159.093 68.2144 157.492 64.6214 155.161 63.7824ZM157.631 70.1234C157.278 74.4234 154.131 77.8374 152.167 78.2234C150.894 78.4724 154.067 75.9734 154.583 70.7434C155.204 64.3864 151.249 65.3114 152.059 64.5754C152.547 64.2943 153.116 64.1884 153.672 64.2754C155.362 63.9094 157.938 66.3984 157.631 70.1234Z" fill="#6564E3"/>
<path d="M130.246 52.3372C127.646 49.4682 122.685 49.8512 120.183 56.2502C117.892 62.1082 123.263 70.3502 129.748 63.2352C131.982 60.7852 132.62 54.9612 130.246 52.3372ZM128.505 52.0852C127.707 52.363 126.999 52.8512 126.456 53.4982C125.407 54.6522 124.677 56.0593 124.337 57.5812C124.285 57.9562 124.037 58.2812 124.011 58.6682C123.937 59.5812 123.644 61.9482 124.291 63.1682C124.591 63.7332 124.784 64.3812 125.401 64.7252C125.625 64.8502 125.57 65.1132 125.401 65.1082C124.651 65.201 123.89 65.0851 123.201 64.7732C119.964 62.8552 120.094 57.2992 122.089 54.5282C125.032 49.7382 129.163 51.6752 128.505 52.0852Z" fill="#6564E3"/>
<path d="M148.728 28.3739C146.714 27.0979 142.128 27.5849 139.641 28.4519C133.708 30.5179 130.602 35.0699 134.15 37.6339C137.17 39.8169 144.385 37.8079 147.499 35.6829C151.113 33.2159 151.161 29.9159 148.728 28.3739ZM134.65 35.5279C134.25 36.1509 134.397 36.5069 134.014 36.0769C133.289 35.2619 133.636 34.0229 134.747 32.7209C138.554 28.2599 146.236 27.6959 148.402 29.1849C148.964 29.5831 149.35 30.1828 149.481 30.8589C149.611 31.535 149.475 32.2354 149.102 32.8139C148.944 33.0499 148.221 32.4449 147.85 32.1429C145.223 29.9999 136.743 32.2639 134.65 35.5279Z" fill="#6564E3"/>
<path d="M166.58 49.518C169.065 48.883 169.243 46.436 169.428 43.885C169.167 41.254 168.949 38.755 166.76 37.226C162.466 34.227 160.441 48.409 166.58 49.518ZM165.22 37.775C166.192 37.37 167.36 38.521 167.697 39.415C169.847 45.115 167.881 48.915 166.426 48.699C166.157 48.658 166.085 48.558 166.214 48.317C167.174 46.517 167.468 42.386 165.873 39.228C165.51 38.51 164.93 38.436 164.964 37.957C164.962 37.777 165.114 37.819 165.22 37.775Z" fill="#6564E3"/>
<path d="M125.151 27.5541C125.33 25.6541 124.016 24.8011 122.579 25.1831C119.479 26.0071 116.41 31.0571 116.723 33.8831C117.263 38.7571 123.746 35.0521 125.151 27.5541ZM118.92 33.5411C118.757 34.0539 118.697 34.594 118.744 35.1301C118.683 35.4861 117.932 35.2301 117.685 34.6151C116.364 31.3501 122.297 24.2271 124.017 26.1431C125.232 27.4951 122.561 25.6791 119.361 32.2041C119.212 32.5081 119.042 33.2301 118.92 33.5411Z" fill="#6564E3"/>
<path d="M175.881 62.251C174.466 64.302 173.915 67.339 175.834 68.527C178.144 69.956 182.026 66.949 182.319 62.927C182.586 59.272 178.376 58.634 175.881 62.251ZM180.33 66.111C178.698 68.049 177.237 68.249 177.014 68.171C176.569 68.014 176.644 67.731 176.914 67.605C177.787 67.0349 178.496 66.2478 178.973 65.321C181.106 61.8 179.185 60.701 180.187 60.664C181.531 60.615 182.2 63.899 180.33 66.111Z" fill="#6564E3"/>
<path d="M186.399 40.6773C184.415 41.0773 182.152 45.3083 183.378 48.8953C185.011 53.6743 189.761 50.0853 189.486 44.8563C189.308 41.3983 187.622 40.4293 186.399 40.6773ZM185.371 50.2983C184.33 49.9303 185.586 49.3543 185.92 48.0983C185.96 47.9483 187.294 44.4473 185.939 42.4983C185.52 41.8983 185.492 41.9333 185.939 41.6513C186.174 41.5422 186.43 41.487 186.689 41.4897C186.947 41.4924 187.202 41.5529 187.435 41.6668C187.667 41.7807 187.871 41.9451 188.031 42.1479C188.192 42.3508 188.305 42.587 188.363 42.8393C189.638 47.7863 186.899 50.8323 185.371 50.2983Z" fill="#6564E3"/>
<path d="M165.056 18.0171C162.373 19.7171 170.05 26.1601 172.967 24.0421C174.332 23.0511 172.588 20.8511 170.978 19.5831C169.575 18.4771 166.685 16.9851 165.056 18.0171ZM172.219 23.5461C171.819 23.7761 171.636 23.8331 170.929 22.8541C169.581 21.3581 167.89 20.2116 166.001 19.5131C165.651 19.4291 165.182 19.5571 165.301 19.0891C165.457 18.4681 165.768 18.5331 166.418 18.5171C169.315 18.4461 173.851 22.6191 172.219 23.5461Z" fill="#6564E3"/>
<path d="M163.143 81.3121C162.976 81.5738 162.88 81.8739 162.862 82.1836C162.845 82.4933 162.907 82.8024 163.043 83.0811C163.826 84.2331 166.132 84.3161 167.895 84.0451C169.149 83.8531 169.395 83.5561 169.664 82.8891C171.016 79.6041 164.918 79.2401 163.143 81.3121ZM168.988 81.7721C168.821 83.8211 168.122 81.1221 164.641 82.2211C164.429 82.2881 164.071 82.5361 163.841 82.5841C163.092 82.7371 163.841 80.0841 167.849 80.8911C168.179 80.9581 169.049 81.4391 168.988 81.7721Z" fill="#6564E3"/>
<path d="M129.91 76.9867C128.921 78.4397 132.328 83.0767 134.783 82.6947C138.59 82.0997 132.101 73.7687 129.91 76.9867ZM133.881 81.5357C133.725 81.2228 133.549 80.9205 133.353 80.6307C132.887 79.8468 132.295 79.1454 131.601 78.5547C131.077 78.0487 130.589 78.1987 130.62 77.5987C130.636 77.2767 130.694 77.2077 131.033 77.1987C132.911 77.1377 134.348 79.2647 135.152 81.1687C135.462 81.8997 134.174 82.3677 133.881 81.5357Z" fill="#6564E3"/>
<path d="M149.148 15.7919C155.974 16.2819 153.005 9.0998 147.123 12.6798C145.423 13.7148 145.52 15.5319 149.148 15.7919ZM152.091 13.0918C152.46 13.4158 152.259 13.7808 151.947 14.0918C151.372 14.6648 151.578 14.0658 150.477 13.9648C147.89 13.7268 148.369 15.0028 147.706 14.7648C144.733 13.6988 150.334 11.5418 152.091 13.0888V13.0918Z" fill="#6564E3"/>
<path d="M150.214 47.8324C148.219 48.7534 148.17 49.4644 147.857 50.5254C147.683 51.1144 148.067 51.5863 148.463 52.0083C148.733 52.2953 149.152 52.3023 149.705 52.3983C150.292 52.4129 150.875 52.2969 151.412 52.0588C151.949 51.8207 152.428 51.4663 152.811 51.0213C153.536 50.4473 154.001 49.0094 153.447 48.3534C153.044 47.918 152.505 47.6303 151.919 47.5358C151.333 47.4414 150.734 47.5458 150.214 47.8324ZM152.764 49.1714C152.764 50.4234 151.737 49.1493 150.214 50.2453C149.368 50.8543 149.253 51.4454 148.988 51.3044C148.488 51.0464 148.488 49.5653 150.214 48.6673C151.763 47.8603 152.933 48.4674 152.764 49.1714Z" fill="#6564E3"/>
</svg>
