<svg width="190" height="188" viewBox="0 0 190 188" fill="none" xmlns="http://www.w3.org/2000/svg">
<path d="M45.8726 134.634C45.9046 134.273 23.7376 141.47 8.58563 132.958C-8.58637 123.312 3.68563 92.77 13.7296 77.331C17.5166 71.512 17.9226 71.883 17.5576 71.638C15.3306 70.144 15.0166 69.938 18.7916 66.528C20.6736 64.828 21.5836 64.273 21.6386 63.481C21.9806 58.567 23.4706 51.581 27.8166 49.258C30.0986 48.041 30.5366 48.775 30.3166 48.18C28.3926 42.87 28.9836 44.558 26.7816 38.149C26.4996 37.327 23.7036 39.116 22.9586 34.575C22.3586 30.908 35.5586 26.211 37.2206 29.537C38.3566 31.811 38.3806 32.987 36.2916 34.302C36.1016 34.421 36.3316 34.287 46.2036 62.302C49.3496 71.229 51.7686 75.602 46.6286 77.913C46.0115 78.1809 45.3361 78.2866 44.6666 78.22C40.6046 78.175 39.5766 73.164 35.8246 63.136C35.4466 62.125 35.8356 62.812 33.3926 64.964C30.4926 67.521 30.6546 67.041 30.0036 71.889C29.4506 76.005 29.8646 75.689 27.9086 75.541C27.4566 75.507 27.8756 75.541 27.0276 79.418C26.9276 79.875 27.3046 79.747 28.2396 80.518C29.0036 81.146 28.7486 81.387 28.9396 84.474C28.9826 85.163 29.0706 84.993 29.2236 87.211C29.6356 93.19 29.2006 93.111 30.0036 92.601C35.7796 88.901 52.6586 79.737 71.6556 76.618C80.6686 75.139 80.5776 76.356 80.6666 75.118C80.7246 74.318 80.8576 73.718 80.8666 73.118C80.8447 72.7808 80.8494 72.4425 80.8806 72.106C81.0656 71.026 71.0696 68.672 68.2736 48.887C66.4606 36.062 70.5406 32.424 68.8366 33.197C65.7466 34.597 63.8906 32.753 63.4366 33.406C63.2026 33.741 63.6846 33.89 64.0706 34.401C65.9906 36.938 63.6076 39.688 60.7156 40.826C60.0706 41.08 59.7746 40.415 59.9596 40.171C60.5976 39.331 60.9936 39.093 61.1506 38.504C61.3506 37.765 61.5436 37.167 60.9396 36.824C58.8396 35.624 57.7856 35.193 57.0606 33.961C56.8853 33.7018 56.7744 33.4044 56.7371 33.0937C56.6998 32.783 56.7372 32.4679 56.8461 32.1745C56.9551 31.8812 57.1324 31.618 57.3635 31.407C57.5945 31.1959 57.8726 31.043 58.1746 30.961C61.3676 29.732 60.9096 30.419 58.5936 28.822C56.5506 27.413 57.2226 24.416 60.0276 23.603C62.5366 22.875 63.1516 23.703 63.0566 22.087C62.9186 19.724 65.9456 18.323 69.6656 20.631C70.2996 21.024 69.5656 18.699 68.4156 17.378C67.4656 16.289 71.3246 15.64 73.5986 16.908C74.1876 17.237 74.4086 17.762 74.5356 17.256C75.3056 14.173 78.9566 11.894 79.4176 12.301C79.6926 12.545 79.5906 12.82 79.4556 13.294C79.2496 14.02 79.2046 15.988 79.4926 15.721C79.5436 15.674 79.5716 15.606 79.6186 15.553C81.2536 13.668 83.8086 12.317 86.1336 13.241C87.5956 13.822 88.0696 14.981 88.7336 15.292C90.6546 16.187 91.3336 12.416 94.3036 13.104C98.0606 13.975 97.1616 17.616 97.7376 17.35C98.2526 17.113 98.7726 16.891 99.2726 16.626C104.023 14.115 112.413 24.209 110.207 32.109C108.89 36.827 106.666 36.59 107.565 37.416C109.108 38.834 108.812 41.083 107.479 42.595C106.945 43.201 109.022 42.995 109.586 46.369C110.108 49.492 108.109 53.069 104.954 53.649C104.038 53.816 103.395 53.393 103.376 53.758C102.784 65.158 99.6576 65.958 100.266 66.841C101.427 68.6405 102.471 70.513 103.391 72.447C103.654 72.947 103.66 72.647 104.991 72.573C118.724 71.779 137.059 76.406 149.485 87.307C161.709 98.031 170.485 114.051 175.185 131.278C178.185 142.297 179.672 153.767 178.406 163.028C176.397 177.721 172.456 183.633 155.945 186.051C148.945 187.075 136.41 186.833 126.319 184.365C123.606 183.701 122.306 177.618 121.381 177.533C119.674 177.377 119.473 177.111 119.515 177.615C119.615 178.761 119.863 179.606 118.651 179.429C118.632 179.408 109.884 176.656 107.525 176.342C104.025 175.877 93.3456 176.929 90.5656 171.699C90.0596 170.747 90.8056 170.699 90.3206 170.333C89.754 169.904 89.2907 169.353 88.9646 168.721C88.4996 167.863 89.0786 167.428 89.2766 167.103C88.3766 166.915 82.4626 167.086 78.2166 167.054C76.5086 167.041 76.9666 164.667 77.0366 163.248C77.0796 162.368 77.5656 162.759 77.5636 161.986C77.5636 159.738 77.5026 145.53 77.8726 143.352C77.9776 142.735 76.6026 143.503 77.3376 139.07C77.4646 138.299 78.3696 138.387 80.9836 138.182C81.3166 138.156 80.9436 129.035 81.0836 125.869C81.0966 125.569 81.0786 125.546 80.7836 125.478C79.7926 125.251 78.8046 124.359 79.0456 123.67C79.1456 123.378 78.5336 122.083 81.0546 121.533C82.4266 121.233 88.9446 121.133 90.3856 121.759C91.7196 122.342 91.9046 124.45 89.8476 125.248C89.4166 125.415 89.2746 125.205 89.3176 125.99C89.4776 128.909 89.3536 129.536 89.5176 137.941C89.5296 138.566 89.4796 138.325 93.8976 138.385C95.7976 138.41 95.8236 138.662 95.8106 138.21C95.4506 125.461 95.9436 125.672 95.2666 125.467C92.8596 124.741 92.9186 121.88 95.7486 121.529C98.3406 121.268 100.951 121.235 103.549 121.429C105.649 121.614 106.087 122.503 105.928 123.679C105.789 124.702 105.028 125.023 104.154 125.347C103.861 125.455 103.895 125.389 103.921 126.111C104.103 131.181 103.984 135.431 104.121 138.358C104.144 138.849 107.893 138.417 109.771 138.68C110.544 138.789 110.059 138.953 110.006 126.004C110.006 125.364 109.367 125.776 108.465 124.956C107.685 124.248 107.489 122.013 109.978 121.656C111.765 121.398 118.33 121.092 119.717 122.117C120.65 122.806 120.717 124.683 118.799 125.366C118.299 125.543 118.165 125.353 118.24 126.126C118.315 126.899 118.434 137.758 118.44 138.24C118.454 139.269 118.833 138.54 122.394 138.908C123.372 139.008 123.122 141.56 123.118 142.815C123.118 143.823 122.353 143.393 122.375 143.844C122.775 152.317 122.121 160.73 122.96 160.394C124.68 159.707 128.329 157.994 135.96 154.812C137.525 154.159 137.66 154.263 137.429 153.901C136.874 153.019 132.559 141.551 130.485 122.877C129.359 112.747 130.022 100.915 131.776 96.985C131.917 96.669 132.444 96.677 132.402 97.138C131.306 106.263 131.33 115.487 132.472 124.606C133.835 134.566 136.688 149.6 138.859 153.429C139.032 153.734 138.921 153.575 141.91 152.522C157.434 147.049 159.51 148.088 158.193 148.606C157.568 148.852 129.163 158.94 123.543 161.855C119.572 163.914 119.811 161.982 122.053 165.919C125.558 172.077 127.253 181.001 127.195 182.728C127.165 183.654 155.256 187.198 166.141 181.308C169.053 179.733 172.468 177.869 174.733 171.683C177.826 163.24 178.184 149.323 174.426 134.489C168.491 111.063 158.5 98.289 149.608 89.733C135.142 75.815 111.544 72.624 104.9 74.033C104.315 74.157 104.74 74.266 104.866 75.265C106.299 86.638 105.215 106.131 103.184 116.397C103.066 116.992 102.449 116.717 102.434 116.352C102.425 116.123 105.623 87.69 103.734 75.128C103.621 74.375 102.571 74.06 99.4836 67.855C99.1266 67.138 97.6346 71.789 90.5666 72.893C84.3666 73.862 82.0766 71.55 82.0666 72.334C82.0006 81.08 81.3016 78.027 82.7666 86.374C86.8586 109.619 91.3406 116.374 90.3666 117.024C88.7546 118.096 79.9776 87.089 80.5666 77.382C80.6136 76.605 68.6146 78.155 60.2786 80.682C45.5036 85.155 40.8596 88.392 32.2236 93.032C30.4946 93.961 29.8536 94.142 29.6476 94.473C29.4276 94.823 30.6936 113.088 28.6946 115.532C28.3076 116.006 27.9696 115.602 27.9666 115.323C27.9517 114.922 27.9697 114.521 28.0206 114.123C29.1526 107.272 27.8096 88.643 27.8796 84.123C27.8986 82.866 28.1796 82.529 27.5486 82.738C23.4386 84.086 18.0616 82.052 14.6296 79.416C14.1086 79.016 14.1516 78.834 13.8296 79.408C5.53563 94.33 -3.06637 115.321 4.57863 127C11.3886 137.405 33.9436 136.609 45.9666 132.418C46.5726 132.207 53.2456 103.012 55.8396 103.606C57.0156 103.875 49.6666 118.333 45.3646 147.871C42.9396 164.518 42.7716 182.333 41.6326 186.864C41.621 186.978 41.5648 187.082 41.4763 187.155C41.3878 187.228 41.2742 187.262 41.1603 187.251C41.0464 187.24 40.9415 187.185 40.8685 187.096C40.7955 187.008 40.7603 186.895 40.7706 186.781C40.0456 179.975 42.1706 155.789 44.2996 143.075C44.1426 143.283 45.8636 134.735 45.8726 134.634ZM108.442 25.611C107.612 23.3268 106.315 21.241 104.633 19.487C102.333 17.277 101.726 16.968 98.9206 18.21C97.8406 18.689 96.5776 19.801 96.4396 18.37C96.2616 16.526 96.2836 15.711 95.0606 14.69C92.7546 12.765 90.9906 18.448 87.7666 15.941C86.6076 15.041 86.5416 14.297 84.5366 14.124C82.8476 13.979 80.5826 16.095 79.6056 17.324C78.6876 18.475 78.2226 16.837 78.2006 15.373C78.1796 13.985 78.6446 13.328 78.0596 13.885C74.2596 17.505 76.1206 22.042 74.0486 19.442C73.4146 18.642 72.5706 16.89 69.9926 17.294C69.8306 17.32 69.7626 17.337 69.8926 17.503C71.6456 19.679 71.2476 23.212 69.8136 22.057C67.8946 20.511 64.1826 19.894 64.2226 21.997C64.2896 25.497 62.3506 23.977 59.7316 25.167C59.4785 25.2656 59.2575 25.432 59.0927 25.6479C58.928 25.8638 58.8258 26.1209 58.7975 26.391C58.7692 26.6611 58.8159 26.9338 58.9323 27.1792C59.0487 27.4245 59.2305 27.6331 59.4576 27.782C59.9086 28.062 60.3396 28.373 60.7906 28.653C61.6846 29.208 62.4906 30.538 61.1906 31.2C59.3906 32.118 57.5036 32.145 58.1036 33.194C59.2006 35.1 62.6116 35.228 62.5256 37.4C62.4916 38.26 62.1646 39.206 63.3256 37.34C64.7156 35.107 61.3146 34.83 62.3806 32.958C63.4556 31.068 66.9756 33.834 69.2436 31.431C69.7436 30.907 69.6896 31.058 69.3946 30.531C68.9379 29.624 68.8114 28.5862 69.0366 27.596C69.6556 24.68 70.9046 25.143 70.6946 25.451C70.1721 26.5966 70.0022 27.8716 70.2066 29.114C70.3199 29.8042 70.7012 30.4217 71.2676 30.832C72.7266 31.664 74.6116 32.491 75.3316 34.794C76.1386 37.377 73.4916 38.508 73.6796 38.771C74.3572 38.7676 75.0241 38.6016 75.6242 38.2869C76.2244 37.9723 76.7403 37.5183 77.1286 36.963C77.5963 36.4156 77.8972 35.7455 77.9955 35.0323C78.0939 34.3191 77.9856 33.5926 77.6836 32.939C77.2576 32.066 75.5186 31.971 75.2246 29.451C75.1986 29.229 75.6046 29.095 75.8906 29.517C76.3851 30.3195 77.1049 30.9586 77.9603 31.3547C78.8157 31.7507 79.7688 31.8861 80.7006 31.744C86.1116 30.971 86.2596 26.387 86.7176 25.697C87.8616 23.977 87.2586 27.571 89.7686 29.755C91.3786 31.155 94.3346 27.255 96.0876 25.445C96.6616 24.851 97.1226 24.875 97.0376 25.961C96.1236 37.541 97.5716 39.813 101.824 44.29C102.037 44.515 102.08 44.125 102.859 43.49C104.794 41.901 105.918 42.748 106.219 42.35C109.783 37.642 104.567 38.683 106.394 36.23C108.746 33.062 109.933 30.205 108.442 25.611ZM121.401 143.937C121.418 143.608 121.354 143.737 118.728 143.724C117.994 143.724 118.928 145.809 118.428 157.124C118.228 161.677 114.686 162.313 112.551 161.124C109.512 159.434 110.769 153.712 110.182 144.351C110.144 143.743 110.143 143.615 109.832 143.617C104.108 143.642 104.121 143.448 104.119 143.886C104.057 156.378 104.755 159.738 102.164 160.986C99.5976 162.215 97.4416 161.13 96.6636 159.175C95.7246 156.81 96.1016 148.043 95.7946 143.936C95.7366 143.165 95.8396 143.509 89.8366 143.306C89.5186 143.295 89.5156 143.306 89.5076 143.628C89.4256 146.809 89.9406 157.019 89.0916 159.184C88.8174 159.844 88.3629 160.412 87.7802 160.825C87.1975 161.238 86.5102 161.479 85.7971 161.519C85.0841 161.559 84.3741 161.398 83.7485 161.053C83.123 160.708 82.6073 160.194 82.2606 159.57C80.6916 156.404 81.8356 143.294 80.9176 143.295C78.5826 143.295 78.6096 143.18 78.6176 143.607C78.7096 146.607 78.5176 157.224 78.5966 161.861C78.6026 162.273 86.4676 161.923 93.1486 162.179C93.9306 162.209 93.4026 161.518 94.4806 161.438C95.9666 161.328 95.6166 162.2 97.1066 162.2C98.1696 162.147 99.2356 162.17 100.296 162.266C100.796 162.337 100.54 161.21 101.796 161.504C103.577 161.92 102.551 162.351 104.565 162.38C104.595 162.38 117.681 162.774 118.477 162.414C121.583 161.008 121.509 161.236 121.377 160.668C121.335 160.413 121.44 143.2 121.401 143.937ZM69.5076 48.8C69.7446 50.39 69.9696 49.814 70.3386 49.713C75.8076 48.221 76.9766 47.421 77.2806 48.249C77.7286 49.47 76.9686 48.862 77.4216 49.619C77.8036 49.257 77.9216 48.911 78.3546 48.646C79.8936 47.706 81.0926 49.129 80.8546 48.281C80.7816 48.023 80.3656 47.888 80.6546 47.493C81.2456 46.682 83.6546 46.176 90.1386 44.855C90.9386 44.692 91.1316 44.938 91.5006 45.619C91.8006 46.178 91.6546 46.019 92.3656 45.781C98.0506 43.881 100.326 44.411 99.9656 44.022C96.1046 39.812 95.4526 37.522 95.2836 32.108C95.1836 28.883 95.5956 28.774 95.4206 28.328C94.6606 28.808 91.2746 33.906 88.2306 29.86C87.9596 29.5 87.8616 29.26 87.3126 28.332C85.7036 31.468 83.6726 33.347 79.2736 33.188C79.2527 33.1854 79.2314 33.1871 79.2111 33.193C79.1909 33.1989 79.1721 33.2089 79.1558 33.2224C79.1396 33.2359 79.1263 33.2526 79.1168 33.2715C79.1073 33.2903 79.1018 33.3109 79.1006 33.332C79.3096 34.1954 79.2839 35.099 79.0261 35.9492C78.7684 36.7993 78.2879 37.565 77.6346 38.167C76.9193 38.7825 76.0771 39.2327 75.1679 39.4854C74.2587 39.7381 73.3049 39.7871 72.3746 39.629C70.5266 38.965 75.7036 37.672 74.0816 34.463C73.4556 33.3395 72.4193 32.5018 71.1896 32.125C70.9676 32.045 70.9326 32.014 70.8396 32.249C67.7516 40.064 69.5086 48.9 69.5076 48.8ZM92.0616 50.744C90.5406 53.832 83.2906 55.451 81.6846 51.285C81.3006 50.285 79.3846 48.351 78.5036 49.624C77.2436 51.448 78.5786 56.124 71.7036 56.873C71.4476 56.901 71.4116 56.756 72.3846 59.328C73.5996 62.537 72.4956 60.636 76.4606 60.522C78.8216 60.453 79.7026 61.111 84.4506 59.941C89.4646 58.705 96.6356 52.629 101.951 57.157C102.043 56.12 102.141 55.844 102.197 55.119C102.344 53.197 102.051 51.665 103.164 52.032C107.275 53.388 109.505 47.612 107.572 44.776C106.437 43.11 104.12 43.441 102.705 45.196C102.482 45.4726 102.233 45.7265 101.96 45.954C101.908 46.0031 101.841 46.0349 101.77 46.0448C101.699 46.0548 101.627 46.0425 101.563 46.0096C101.499 45.9768 101.447 45.9249 101.413 45.8613C101.38 45.7976 101.367 45.7252 101.377 45.654C101.37 45.445 101.62 45.165 101.291 45.003C100.591 44.659 100.891 44.455 99.8506 44.841C97.3506 45.6403 94.812 46.3109 92.2436 46.85C91.8116 46.958 92.9056 49.032 92.0616 50.743V50.744ZM47.8936 75.412C49.8356 72.677 46.2746 68.93 35.3316 34.812C35.1746 34.325 34.4626 34.502 35.0026 33.99C35.7626 33.268 38.1316 32.858 36.4646 29.838C35.2756 27.68 23.2006 32.1 23.7336 34.441C23.7909 34.9056 23.9451 35.353 24.1863 35.7542C24.4275 36.1554 24.7502 36.5015 25.1336 36.77C25.9186 37.127 26.5146 36.702 27.4776 36.712C27.9196 36.712 28.1476 36.882 27.7356 37.212C27.2876 37.572 27.6186 37.632 29.0096 41.3C31.8346 48.741 31.5416 48.552 32.0816 48.664C33.9876 49.064 40.4536 50.994 38.7486 52.75C38.2286 53.286 37.7926 53.132 37.5046 53.376C38.6506 53.946 39.9666 54.476 39.7416 55.925C39.5996 56.836 38.6316 56.93 38.3306 57.037C38.8306 57.649 39.9526 58.322 39.4426 59.216C38.8346 60.282 36.4756 59.545 36.2186 59.579C36.4556 59.94 38.8806 61.289 37.0746 62.279C36.7186 62.479 36.8346 62.363 40.6546 72.799C41.2656 74.466 41.9126 76.648 44.7546 76.934C45.3522 76.8991 45.937 76.7467 46.4756 76.4855C47.0142 76.2243 47.4961 75.8596 47.8936 75.412ZM73.8246 62.393C81.2136 75.38 93.3566 73.128 97.3896 68.25C99.7056 65.45 100.168 63.95 101.446 59.872C102.262 57.272 98.8006 56.341 95.7056 56.802C90.5696 57.566 86.6136 61.736 79.2146 61.761C78.0216 61.765 73.2006 61.289 73.8246 62.393ZM116.065 165.293C115.824 164.483 110.538 168.369 108.32 167.459C106.292 166.627 103.06 163.034 101.766 162.459C101.704 162.431 101.472 162.553 101.619 162.822C102.83 165.033 105.519 167.75 103.754 167.722C101.732 167.689 97.6716 164.746 96.1726 163.367C94.6036 161.922 94.1836 162.393 94.4866 162.951C96.5296 166.711 99.1216 168.008 98.7176 168.537C97.9456 169.55 92.2406 165.903 91.3806 165.537C90.8706 165.317 90.7716 166.037 91.0436 166.403C92.8676 168.888 96.1386 169.945 96.6296 170.694C97.4176 171.894 93.7766 170.474 90.8486 167.902C90.4486 167.547 89.5166 167.979 89.8946 168.566C92.2576 172.238 98.9136 171.885 96.8686 172.944C96.3586 172.946 95.8506 172.891 95.3536 172.78C92.9346 172.248 91.0106 170.647 91.3206 171.317C93.2676 175.53 105.995 174.917 107.436 175.222C116.143 177.065 117.548 178.047 118.17 177.976C118.336 177.948 118.201 172.45 116.065 165.289V165.293ZM30.7416 49.61C25.1226 49.549 23.4556 58.136 22.6236 63.266C22.3926 64.687 21.8236 64.942 20.5926 66.214C16.8726 70.063 16.9056 69.905 17.1626 70.095C20.1456 72.295 28.3936 74.911 28.5046 74.127C29.7866 65.066 30.0196 66.884 34.3876 62.561C34.426 62.5081 34.4441 62.4431 34.4386 62.378C34.4386 62.331 31.3626 61.751 30.7716 61.678C30.5856 61.655 30.4716 61.698 30.4556 61.798C30.3221 63.0382 29.9625 64.2434 29.3946 65.354C28.1256 67.729 26.2876 68.646 26.0176 68.273C25.8336 68.019 25.9686 67.634 26.3416 67.295C28.0946 65.702 29.6496 63.038 29.1186 61.215C28.4776 59.015 35.6546 62.444 36.4186 61.234C36.7856 60.656 32.4616 58.8 30.2556 58.259C29.7506 58.134 28.8916 57.936 28.9386 57.488C29.0626 56.307 32.5936 58.015 37.9666 58.893C38.0487 58.9158 38.136 58.9103 38.2146 58.8773C38.2932 58.8443 38.3583 58.7859 38.3996 58.7114C38.4408 58.6368 38.4558 58.5506 38.442 58.4665C38.4282 58.3824 38.3865 58.3055 38.3236 58.248C36.2636 56.235 29.4056 56.028 29.6606 54.785C29.9496 53.374 38.3786 56.666 38.6026 55.703C38.8906 54.467 34.3146 53.303 33.0736 53.035C30.7436 52.535 29.6736 52.568 30.0736 51.771C30.5166 50.896 37.7526 53.641 37.9736 52.034C38.0786 51.293 33.3156 49.638 30.7416 49.61ZM121.673 142.51C122.211 142.51 121.706 142.486 121.91 140.634C121.91 140.355 121.876 140.078 121.81 139.807C121.693 139.788 77.9756 138.996 78.0096 139.684C78.1856 143.284 77.4036 142.484 82.0266 142.51H121.673ZM117.454 125.919C117.474 125.816 117.468 125.709 117.437 125.609C117.406 125.508 117.351 125.417 117.277 125.342C116.531 124.648 118.49 124.711 119.164 124.16C119.737 123.692 119.564 122.705 119.126 123.016C116.944 124.549 109.497 124.194 109.349 122.86C109.299 122.412 108.397 122.99 108.8 123.837C109.203 124.684 109.919 124.555 110.991 124.86C111.071 124.885 111.142 124.935 111.192 125.003C111.242 125.07 111.27 125.152 111.271 125.236C111.272 125.321 111.247 125.403 111.198 125.472C111.15 125.541 111.081 125.593 111.001 125.62C110.583 125.734 110.778 126.02 110.833 127.22C111.175 134.82 110.923 133.682 111.138 138.449C111.153 138.793 111.121 138.803 117.03 138.808C117.657 138.812 117.201 138.794 117.454 125.918V125.919ZM96.6856 137.745C96.7006 138.806 96.8756 138.409 98.3606 138.409C99.4386 138.491 100.521 138.519 101.602 138.492C102.785 138.492 102.994 138.582 102.975 138.251C102.975 138.23 102.919 129.832 103.064 125.799C103.085 125.214 102.417 124.874 103.158 124.623C103.658 124.524 104.148 124.376 104.62 124.183C105.526 123.778 105.12 122.477 104.815 122.843C103.676 124.216 98.0456 123.987 96.0276 123.536C94.6406 123.227 95.1656 122.315 94.6526 122.653C94.0466 123.053 94.2136 124.186 95.4816 124.51C95.9916 124.64 96.8626 124.595 96.8816 125.103C96.9036 125.765 96.2656 125.255 96.3626 125.996C96.6326 128.061 96.6556 135.644 96.6856 137.744V137.745ZM82.0326 134.317C82.0726 134.317 82.0496 134.317 82.0556 134.582C82.1836 139.769 81.0556 137.915 87.7556 138.366C88.7076 138.431 88.4436 139.914 88.4556 125.782C88.4741 125.591 88.4183 125.4 88.2996 125.249C87.4786 124.249 91.2616 124.762 90.4876 122.975C90.2376 122.399 90.4656 123.541 86.5426 123.85C85.4366 123.937 80.7426 123.98 80.4306 122.843C80.2626 122.219 79.6216 122.888 79.7436 123.443C79.9676 124.469 80.9156 124.501 82.0016 124.736C82.086 124.77 82.1578 124.829 82.2073 124.905C82.2569 124.982 82.2817 125.071 82.2784 125.162C82.2751 125.253 82.2439 125.341 82.189 125.413C82.1341 125.485 82.0582 125.539 81.9716 125.567C81.4836 125.72 82.0326 125.57 82.0326 134.316V134.317ZM25.1546 82.164C25.7076 82.164 25.3746 82.049 25.5326 80.948C26.8656 71.653 28.2796 77.773 18.7576 72.37C18.5096 72.23 18.5076 72.225 18.3516 72.456C14.7956 77.714 14.6826 77.741 15.0836 78.109C17.9215 80.5013 21.4508 81.9223 25.1546 82.164ZM117.382 164.418C116.788 164.669 116.957 164.663 117.19 165.468C118.249 168.866 118.958 172.363 119.307 175.905C119.472 176.767 119.233 176.316 121.423 176.483C125.541 176.797 125.401 178.183 123.581 172.918C122.546 169.781 121.153 166.775 119.429 163.957C119.201 163.546 118.938 163.758 117.382 164.418ZM88.4456 146.1C88.4456 143.263 88.5586 143.3 88.1396 143.293C88.1186 143.293 83.2156 143.254 82.6236 143.293C82.3636 143.312 82.3596 143.308 82.3596 143.569C82.3326 158.219 81.8046 160.493 86.1936 160.369C89.2496 160.274 88.4616 156.348 88.4456 146.1ZM91.4166 49.581C91.3723 48.4981 91.0936 47.4377 90.5996 46.473C90.4776 46.173 90.2936 46.355 89.4916 46.532C80.6916 48.474 81.3536 48.114 81.5456 48.732C81.9326 49.977 82.6966 51.98 83.9386 52.376C86.5476 53.2 91.4876 52.312 91.4166 49.576V49.581ZM77.8696 164.524C77.9366 165.948 77.7566 166.039 78.3096 166.034C89.9626 165.915 89.8096 166.595 89.9526 165.611C90.4416 162.17 95.8186 167.656 95.1166 165.938C94.4984 165.233 94.0077 164.426 93.6666 163.553C93.5096 163.092 93.6666 163.244 86.8666 163.153C81.1426 163.077 80.3216 162.937 78.0566 163.253C77.6286 163.252 77.8186 163.427 77.8696 164.524ZM103.039 144.291C103.039 143.126 102.791 143.829 100.622 143.581C99.4686 143.449 98.3216 143.542 97.1656 143.504C96.7566 143.49 96.9316 143.757 96.9756 153.296C96.9876 155.896 97.1376 158.096 97.5546 158.896C98.7226 161.145 102.005 160.832 102.742 158.847C103.201 157.61 103.041 156.777 103.039 144.291ZM114.353 143.715C114.353 143.694 111.409 143.679 111.388 143.689C111.248 145.991 111.235 148.299 111.351 150.602C111.591 155.994 110.656 159.423 113.61 160.402C114.28 160.643 115.016 160.622 115.671 160.344C116.326 160.066 116.853 159.551 117.145 158.902C117.645 157.574 117.458 154.449 117.367 144.027C117.363 143.589 117.401 143.715 114.353 143.715ZM76.5396 49.715C76.4156 49.153 76.0226 49.795 71.2176 50.927C69.4996 51.332 69.6956 50.827 70.8726 55.107C71.0426 55.728 71.4226 55.734 71.8006 55.69C72.7631 55.5413 73.7058 55.2843 74.6106 54.924C76.9446 54.045 77.0696 52.114 76.5396 49.719V49.715ZM104.817 163.372C104.872 163.521 104.766 163.425 106.149 164.689C109.106 167.389 108.527 167.301 115.89 163.596C116.577 163.254 104.924 163.342 104.817 163.376V163.372ZM97.9616 163.391C99.1936 164.528 100.589 165.475 102.101 166.2C103.241 166.542 101.41 164.622 100.944 163.491C100.817 163.188 98.2886 163.352 97.9616 163.4V163.391ZM98.5616 122.157C90.8126 122.599 102.062 123.6 103.856 122.421C103.414 122.214 103.865 122.3 98.5636 122.161L98.5616 122.157ZM110.48 122.485C109.64 122.996 114.558 123.451 118.022 122.68C119.701 122.311 111.136 122.093 110.482 122.489L110.48 122.485ZM83.9686 122.157C76.4056 122.597 87.3846 123.574 89.2686 122.432C88.8556 122.223 89.2716 122.3 83.9706 122.161L83.9686 122.157Z" fill="black"/>
<path d="M73.5107 78.5528C74.5447 78.8268 71.2757 80.0638 65.7617 85.2468C62.9097 87.9278 62.2187 88.8198 63.1407 89.4048C65.4767 90.8898 75.8937 90.3208 74.3117 93.0988C73.4037 94.6908 68.4597 98.1988 65.7707 102.105C64.4617 104.005 76.8517 132.74 76.2027 133.305C74.8467 134.483 67.8307 115.405 66.6947 112.15C63.7337 103.667 63.3237 102.74 64.5617 100.983C66.9737 97.5608 72.3477 93.6738 72.6437 93.1288C70.3577 91.9528 59.5437 92.5868 61.3387 88.0468C62.5447 84.9998 72.2627 78.2208 73.5107 78.5528Z" fill="black"/>
<path d="M125.346 97.1279C125.96 94.289 116.867 93.212 115.088 91.994C113.701 91.044 120.706 87.952 122.455 83.335C122.948 82.035 121.265 80.957 112.029 76.357C109.557 75.126 110.866 74.771 111.453 74.963C113.67 75.688 123.232 79.856 123.966 81.969C125.191 85.492 117.08 91.208 117.061 91.23C118.087 92.054 127.624 93.168 126.908 97.1979C126.537 99.2859 122.944 113.898 121.1 118.479C120.476 120.027 119.814 119.156 120.446 116.806C121.43 113.146 125.346 97.7549 125.346 97.1279Z" fill="black"/>
<path d="M102.281 87.0528C102.081 87.4178 102.223 87.6868 102.644 88.7028C103.29 90.2618 102.774 93.6728 101.406 93.3228C100.287 93.0368 99.8882 92.9278 97.0932 91.2368C96.4122 90.8248 97.0932 91.0108 96.8102 88.8528C96.2682 84.8048 93.8982 85.3328 100.776 81.7058C103.391 80.3268 103.732 84.4678 102.281 87.0528Z" fill="#6564E3"/>
<path d="M90.5442 86.0001C90.4952 90.9651 90.8762 89.8061 91.2742 90.9251C91.3742 91.1961 91.3422 91.3071 91.0992 91.4591C89.8147 92.4586 88.3522 93.2051 86.7892 93.6591C85.2312 93.9501 84.2972 92.0281 84.2022 90.4591C84.1372 89.3941 84.7512 88.5461 84.1122 87.4591C82.9052 85.4001 83.8502 83.2921 86.9042 84.1591C90.8512 85.2831 90.5542 85.0131 90.5442 86.0001Z" fill="#6564E3"/>
<path d="M91.8199 84.7484C94.4709 83.6574 95.8029 84.2484 96.3049 88.5224C96.4319 89.6104 96.5689 90.8614 95.4339 91.2294C94.4859 91.5789 93.4482 91.6015 92.4859 91.2934C90.9699 90.5224 91.1339 89.4314 90.9859 87.5554C91.2749 87.5254 90.2399 85.4004 91.8199 84.7484Z" fill="#6564E3"/>
<path d="M101.636 97.2987C100.866 98.2537 100.436 98.8597 99.518 98.3197C97.965 97.4057 95.93 92.5427 95.828 92.2197C95.714 91.8607 96.128 91.5197 96.374 91.7517C97.498 92.8147 99.506 97.9627 100.199 97.0807C104.867 91.1397 103.449 95.0487 101.636 97.2987Z" fill="black"/>
<path d="M27.8542 12.8834C27.862 13.2087 27.8049 13.5323 27.6861 13.8353C27.5674 14.1383 27.3894 14.4145 27.1625 14.6479C26.9357 14.8812 26.6647 15.0669 26.3652 15.1942C26.0657 15.3215 25.7438 15.3878 25.4184 15.3892C25.093 15.3906 24.7706 15.3271 24.47 15.2024C24.1695 15.0777 23.8968 14.8942 23.668 14.6628C23.4392 14.4315 23.2588 14.1568 23.1375 13.8548C23.0161 13.5529 22.9562 13.2298 22.9612 12.9044C22.9882 9.5104 28.0632 9.8454 27.8542 12.8834ZM25.3822 14.3094C25.7688 14.2904 26.136 14.1343 26.418 13.8692C26.7001 13.604 26.8784 13.2471 26.9212 12.8624C26.8924 12.4763 26.7307 12.1122 26.4636 11.8319C26.1965 11.5517 25.8405 11.3727 25.4562 11.3254C25.0718 11.3333 24.7053 11.4892 24.4328 11.7605C24.1604 12.0318 24.003 12.3977 23.9935 12.7821C23.984 13.1664 24.123 13.5397 24.3816 13.8242C24.6403 14.1086 24.9987 14.2824 25.3822 14.3094Z" fill="black"/>
<path d="M90.0791 98.1113C89.7791 99.1213 89.7631 100.202 88.7131 99.6353C86.7661 98.5843 85.2481 96.8003 85.5001 96.4073C85.8261 95.8993 88.7321 99.2073 88.8701 98.5463C89.9321 93.4763 92.9791 88.3263 90.0791 98.1113Z" fill="black"/>
<path d="M96.7714 82.5863C96.8584 82.0443 100.687 78.6163 102.33 77.0863C103.814 75.7103 101.655 79.6354 97.9224 82.5384C98.0744 82.4674 96.6304 83.4623 96.7714 82.5863Z" fill="black"/>
<path d="M30.5483 23.6985C30.5365 24.1247 30.3586 24.5295 30.0525 24.8264C29.7464 25.1232 29.3363 25.2887 28.9099 25.2873C28.4835 25.286 28.0745 25.1181 27.7702 24.8194C27.4659 24.5206 27.2905 24.1148 27.2812 23.6885C27.2931 23.2622 27.471 22.8574 27.7771 22.5606C28.0832 22.2637 28.4933 22.0983 28.9197 22.0996C29.3461 22.1009 29.7551 22.2688 30.0594 22.5676C30.3637 22.8663 30.5391 23.2721 30.5483 23.6985ZM29.6663 23.6715C29.6993 22.6205 28.1343 22.6715 28.1803 23.5905C28.1707 23.7872 28.2395 23.9797 28.3715 24.1258C28.5036 24.2718 28.6881 24.3596 28.8848 24.3698C29.0815 24.38 29.2742 24.3118 29.4207 24.1801C29.5671 24.0485 29.6555 23.8641 29.6663 23.6675V23.6715Z" fill="black"/>
<path d="M21.7232 24.131C21.9337 24.1334 22.1417 24.1773 22.3352 24.2601C22.5288 24.3429 22.7041 24.463 22.8513 24.6136C22.9984 24.7641 23.1145 24.9422 23.1928 25.1376C23.2711 25.333 23.3101 25.542 23.3077 25.7525C23.3053 25.963 23.2614 26.1709 23.1786 26.3645C23.0958 26.5581 22.9757 26.7334 22.8251 26.8805C22.6745 27.0277 22.4965 27.1437 22.3011 27.222C22.1056 27.3003 21.8967 27.3394 21.6862 27.337C21.2611 27.3321 20.8553 27.1585 20.5581 26.8544C20.261 26.5503 20.0968 26.1406 20.1017 25.7155C20.1066 25.2903 20.2802 24.8845 20.5843 24.5874C20.8884 24.2902 21.2981 24.1261 21.7232 24.131ZM22.5172 25.731C22.5224 25.6247 22.5064 25.5185 22.4702 25.4186C22.4339 25.3186 22.378 25.2269 22.3058 25.1488C22.2337 25.0707 22.1467 25.0077 22.0499 24.9636C21.9531 24.9195 21.8485 24.8952 21.7422 24.892C21.4812 24.892 20.9942 25.229 20.9992 25.598C20.9879 25.6991 20.997 25.8015 21.0259 25.899C21.0548 25.9966 21.103 26.0874 21.1676 26.166C21.2322 26.2446 21.3118 26.3096 21.4019 26.3569C21.492 26.4043 21.5906 26.4331 21.692 26.4417C21.7934 26.4503 21.8955 26.4386 21.9922 26.4071C22.089 26.3756 22.1785 26.3251 22.2554 26.2584C22.3323 26.1918 22.3951 26.1105 22.4401 26.0192C22.485 25.9279 22.5113 25.8285 22.5172 25.727V25.731Z" fill="black"/>
<path d="M84.9205 83.0253C84.5895 83.3773 82.6205 82.2963 82.2655 81.7613C82.0455 81.4283 82.4165 80.9973 82.9715 81.3133C83.7175 81.7639 84.3775 82.3436 84.9205 83.0253Z" fill="black"/>
<path d="M85.0756 39.1309C89.4946 39.3949 90.9756 42.6899 89.0136 43.2309C87.0106 43.7032 84.9561 43.9206 82.8986 43.8779C81.6606 43.5779 81.4916 42.0959 81.9056 41.0779C82.5956 39.3609 83.8246 39.3179 85.0756 39.1309ZM83.7226 42.8999C83.7776 42.8999 88.1156 42.5509 88.5726 42.3729C90.1776 41.7489 83.0376 38.0609 82.6726 42.1259C82.6086 42.8599 83.0436 42.8999 83.7226 42.8999Z" fill="#6564E3"/>
<path d="M70.2857 46.699C70.3757 46.1935 70.5743 45.7136 70.8678 45.2923C71.1613 44.8711 71.5427 44.5185 71.9857 44.259C76.0857 41.488 77.5787 46.106 75.3537 47.049C73.1927 47.965 70.1837 48.36 70.2857 46.699ZM74.8327 46.099C75.7527 45.749 75.3697 43.949 73.8797 44.327C72.7689 44.6473 71.8021 45.3401 71.1417 46.289C70.2507 47.437 75.2407 46.099 74.8327 46.099Z" fill="#6564E3"/>
<path d="M79.5778 50.1538C80.7668 50.3028 76.7778 59.6718 83.2778 57.1198C85.7238 56.1588 85.4298 57.4358 84.7058 57.9588C84.0785 58.4317 83.3469 58.7473 82.5724 58.8788C81.7979 59.0104 81.0031 58.9541 80.2548 58.7148C78.0208 57.8568 78.1088 54.9998 78.5358 52.8998C78.8128 51.5438 79.1488 50.0998 79.5778 50.1538Z" fill="#6564E3"/>
<path d="M45.5008 75.868C43.3298 76.386 42.1608 74.474 41.3338 72.239C37.9878 63.206 38.0338 63.639 38.4028 63.713C40.1698 64.062 40.2098 64.034 40.7228 64.364C44.0288 66.496 44.0608 62.955 44.4968 64.097C47.0188 70.699 49.1518 74.999 45.5008 75.868Z" fill="#6564E3"/>
<path d="M34.9929 30.4641C35.4279 29.9941 35.8399 30.5061 35.7429 30.8691C35.1169 33.2001 24.1089 37.4271 24.5999 34.4641C24.7919 33.2921 27.6459 32.0511 28.2309 31.9861C28.6859 31.9351 28.7989 32.3351 28.4309 32.5491C23.1729 35.5991 26.4459 34.7831 29.9379 33.4491C34.0369 31.8741 34.9249 30.5381 34.9929 30.4641Z" fill="black"/>
<path d="M42.4062 64.2472C41.4502 64.3152 40.9292 63.2262 39.1872 63.2652C37.2362 63.3082 38.0392 60.7652 43.0362 61.8112C44.3012 62.0752 44.0522 64.2572 42.4062 64.2472Z" fill="#6564E3"/>
<path d="M32.8874 41.9197C32.8496 41.6748 32.865 41.4245 32.9325 41.186C33.0001 40.9476 33.1183 40.7264 33.2789 40.5376C33.4395 40.3488 33.6388 40.1968 33.8634 40.0919C34.088 39.987 34.3324 39.9317 34.5803 39.9297C36.3673 40.0297 36.5294 42.7087 34.9543 43.2367C34.7315 43.3112 34.495 43.335 34.2619 43.3064C34.0287 43.2777 33.805 43.1973 33.6068 43.0711C33.4087 42.9449 33.2413 42.776 33.1169 42.5768C32.9924 42.3776 32.914 42.1531 32.8874 41.9197ZM33.8503 41.8937C34.0573 42.6577 35.1324 42.4767 35.2034 41.6037C35.3184 40.1987 33.4423 40.3867 33.8503 41.8987V41.8937Z" fill="black"/>
<path d="M30.9702 36.3356C31.0178 36.3019 31.0738 36.2821 31.1319 36.2781C31.1901 36.2742 31.2482 36.2864 31.2999 36.3134C31.3516 36.3404 31.3948 36.3811 31.4249 36.4311C31.4549 36.481 31.4706 36.5383 31.4702 36.5966C31.5392 37.7966 32.1872 36.4086 32.6592 36.7866C33.1482 37.1776 32.5012 38.0866 31.9032 38.0986C30.7502 38.1216 30.1612 36.7856 30.9702 36.3356Z" fill="black"/>
<path d="M88.0112 68.8345C85.9112 68.9565 82.5112 64.7915 84.7672 64.2535C86.9046 63.6794 88.9862 62.915 90.9872 61.9695C92.7522 60.9825 91.3002 69.1525 88.0112 68.8345ZM88.3742 67.5435C89.0826 66.9652 89.6617 66.2445 90.074 65.4281C90.4862 64.6118 90.7224 63.7179 90.7672 62.8045C90.5322 62.9175 87.3052 65.1605 85.2252 65.1975C84.4722 65.2105 87.2832 68.2995 88.3742 67.5435Z" fill="#6564E3"/>
<path d="M113.719 130.611C113.544 129.011 116.133 128.434 116.285 130.287C116.43 132.058 113.719 132.554 113.719 130.611ZM114.833 129.787C114.701 129.885 114.597 130.015 114.529 130.165C114.462 130.315 114.433 130.479 114.447 130.643C114.629 131.443 115.553 131.158 115.631 130.331C115.633 130.235 115.61 130.141 115.566 130.056C115.522 129.971 115.458 129.898 115.379 129.844C115.3 129.79 115.208 129.756 115.113 129.747C115.018 129.737 114.922 129.75 114.833 129.787Z" fill="black"/>
<path d="M113.445 125.6C113.494 125.543 113.561 125.504 113.635 125.491C113.709 125.478 113.785 125.492 113.85 125.53C113.916 125.567 113.965 125.627 113.991 125.697C114.017 125.768 114.017 125.845 113.992 125.916C113.902 126.247 114 126.338 114.31 126.251C115.01 126.051 115.002 126.522 114.835 126.757C114.133 127.749 112.56 126.4 113.445 125.6Z" fill="black"/>
<path d="M101.89 130.283C101.89 132.068 99.4675 132.258 99.3245 130.663C99.1495 128.7 101.886 128.409 101.89 130.283ZM100.407 130.969C100.994 131.322 101.781 129.696 100.782 129.624C100.625 129.627 100.474 129.681 100.35 129.777C100.226 129.873 100.137 130.006 100.094 130.157C100.052 130.308 100.06 130.469 100.116 130.615C100.173 130.761 100.275 130.885 100.407 130.969Z" fill="black"/>
<path d="M99.1385 125.465C99.3825 125.271 99.7275 125.412 99.6045 125.809C99.4265 126.383 100.051 126.079 100.141 126.086C100.414 126.108 100.65 126.174 100.557 126.434C100.078 127.774 98.0015 126.376 99.1385 125.465Z" fill="black"/>
<path d="M84.7149 130.425C84.7349 128.651 87.3919 128.508 87.3369 130.344C87.2829 132.118 84.6999 132.259 84.7149 130.425ZM86.6299 130.009C86.4609 129.209 85.3059 129.755 85.4729 130.562C85.6399 131.369 86.8289 130.955 86.6299 130.009Z" fill="black"/>
<path d="M85.169 126.98C84.9786 126.993 84.7895 126.941 84.6318 126.834C84.4742 126.726 84.3572 126.569 84.2996 126.387C84.2419 126.205 84.247 126.009 84.314 125.831C84.381 125.652 84.506 125.501 84.669 125.402C84.818 125.302 85.036 125.46 85.036 125.65C85.036 125.671 84.749 126.478 85.555 126.066C86.078 125.799 86.251 126.999 85.169 126.98Z" fill="black"/>
<path d="M85.1533 147.107C88.6393 147.363 87.5143 146.349 87.8233 154.186C87.9113 156.406 88.0133 159.786 85.7983 159.634C82.6603 159.42 83.3083 157.465 82.9983 148.648C82.9623 147.615 82.9513 147.548 83.1823 147.402C83.9603 146.905 85.1403 147.295 85.1533 147.107Z" fill="#6564E3"/>
<path d="M83.946 50.0886C83.346 49.3326 84.119 48.0056 84.797 48.5966C85.709 49.3906 84.706 51.0486 83.946 50.0886Z" fill="#6564E3"/>
<path d="M100.172 159.431C99.9363 159.446 99.6993 159.414 99.4753 159.337C99.2513 159.26 99.0443 159.14 98.8673 158.983C98.6903 158.826 98.5453 158.635 98.4413 158.423C98.3383 158.21 98.2773 157.978 98.2633 157.742C97.9263 154.465 97.7633 151.172 97.7743 147.878C97.7633 147.429 97.8433 147.178 98.5473 147.143C101.702 147.008 102.082 146.787 102.155 147.792C102.176 148.083 102.367 154 102.161 157.059C102.083 158.231 101.747 159.375 100.172 159.431Z" fill="#6564E3"/>
<path d="M112.062 151.855C111.862 146.781 111.116 147.194 115.286 147.263C116.176 147.278 116.686 147.4 116.697 148.008C116.797 153.646 116.981 156.301 116.575 158.227C116.467 158.617 116.251 158.968 115.951 159.24C115.651 159.512 115.281 159.693 114.882 159.763C114.484 159.832 114.074 159.788 113.7 159.634C113.326 159.48 113.003 159.223 112.769 158.893C112.107 157.885 112.154 156.538 111.994 151.855H112.062Z" fill="#6564E3"/>
<path d="M72.2532 51.7182C72.2458 51.6066 72.272 51.4954 72.3284 51.3988C72.3847 51.3022 72.4687 51.2248 72.5695 51.1763C72.6703 51.1279 72.7833 51.1107 72.8939 51.1271C73.0046 51.1434 73.1077 51.1927 73.1902 51.2682C74.4132 52.3862 72.5902 53.7332 72.2532 51.7182Z" fill="#6564E3"/>
<path d="M143.449 17.2236C143.91 17.3536 143.743 17.3536 144.349 15.2066C149.488 -3.10638 159.671 -6.53938 162.703 16.8066C162.82 17.7066 165.758 15.3636 174.303 15.6006C180.417 15.7706 183.38 19.6356 179.367 25.9716C177.701 28.378 175.717 30.5468 173.467 32.4186C173.215 32.6786 173.267 32.6786 174.818 33.9466C185.986 43.0566 185.046 53.3996 160.767 46.1576C160.167 45.9776 160.522 46.0576 159.167 49.9956C157.152 55.8426 152.782 63.6346 147.767 60.1416C143.547 57.2006 142.601 48.4756 142.328 48.1146C142.155 47.8866 135.772 49.7566 130.977 48.4436C126.511 47.2206 124.746 43.4846 129.016 37.4966C133.966 30.5526 135.368 34.0516 130.563 29.8546C118.609 19.4056 120.577 10.7546 143.449 17.2236ZM161.912 26.1446C151.922 20.9226 153.523 21.0446 149.704 23.0666C147.437 24.2666 145.751 25.1806 143.549 26.4966C142.877 26.8966 142.796 33.3686 142.655 36.5876C142.611 37.5936 154.492 42.6026 154.526 42.6166C155.026 42.8166 158.245 41.1026 160.595 39.9006C161.376 39.4996 162.723 26.1446 161.912 26.1446ZM154.528 1.37962C149.228 1.97962 146.293 11.9316 144.937 17.0916C144.696 18.0096 144.781 17.4226 150.408 19.6806C152.754 20.6226 152.635 20.6586 152.961 20.5156C161.812 16.6396 162.011 18.0366 161.846 16.7046C161.648 14.6001 161.292 12.5135 160.781 10.4626C160.153 7.35063 157.735 1.22562 154.528 1.37962ZM134.255 31.4856C134.581 31.7186 134.575 31.6746 135.429 30.9546C137.499 29.2737 139.67 27.7202 141.929 26.3026C142.335 26.0426 142.154 26.0026 142.341 24.8536C143.465 17.9946 143.932 18.2246 143.02 17.9536C132.058 14.6406 125.058 15.3876 124.42 18.5366C123.871 21.2626 126.506 25.9596 134.255 31.4856ZM163.116 25.5196C163.108 26.0916 163.5 25.8546 168.041 28.8426C172.652 31.8766 172.247 32.1776 172.735 31.7566C184.982 21.2176 182.319 13.7176 165.151 17.3196C162.758 17.8196 162.819 17.8686 162.841 18.1396C163.078 20.592 163.17 23.0563 163.116 25.5196ZM180.536 44.6546C181.385 41.2046 175.548 35.7886 172.819 33.5546C172.046 32.9206 171.132 34.9306 164.897 38.6546C160.352 41.3696 162.164 39.5456 160.751 44.6486C160.683 44.8936 160.807 44.9146 161.236 45.0346C166.324 46.4556 179.274 49.7826 180.536 44.6546ZM143.599 47.9256C143.625 48.3356 144.831 55.9366 148.133 58.9146C152.823 63.1436 157.91 52.1776 159.426 46.0466C159.563 45.4936 159.491 45.9026 155.184 44.1466C154.29 43.7816 155.19 44.1716 145.725 47.1676C143.867 47.7516 143.547 47.6156 143.599 47.9256ZM141.999 46.9626C142.464 46.8216 141.881 46.1916 141.599 40.2126C141.491 37.9266 141.787 37.6596 141.119 37.2686C134.219 33.2366 135.011 32.5976 134.065 33.5266C118.886 48.4316 134.765 49.1576 141.993 46.9626H141.999ZM161.961 38.7926C161.953 39.1646 161.881 39.2466 163.677 38.1506C164.365 37.7306 172.177 32.9606 171.503 32.4716C168.896 30.4715 166.169 28.6324 163.338 26.9646C162.781 26.6246 163.464 28.0086 161.955 38.7926H161.961ZM142.742 39.5806C142.832 39.5806 142.902 46.8306 143.662 46.6146C146.354 45.9175 149.003 45.0664 151.597 44.0656C153.689 43.3356 153.155 43.3596 152.214 42.9346C141.407 38.0586 142.736 37.3456 142.736 39.5806H142.742ZM162.29 24.3726C162.01 21.2476 162.384 18.1416 161.696 18.2606C161.474 18.2996 157.644 19.5516 154.449 20.8606C153.595 21.2096 154.299 21.2296 158.417 23.2806C162.407 25.2716 162.254 25.7456 162.284 24.3726H162.29ZM142.016 28.0236C142.016 27.6476 142.048 27.4486 141.762 27.6386C139.56 29.0412 137.473 30.6161 135.52 32.3486C137.335 33.6892 139.225 34.9262 141.18 36.0536C142.019 36.5496 141.133 35.2666 142.01 28.0236H142.016ZM150.854 21.4656C151.07 21.3566 151.27 21.2136 151.475 21.0876C150.098 20.3786 146.32 19.0536 144.915 18.5766C144.493 18.4336 144.69 18.0966 143.62 23.9076C143.206 26.1186 142.735 25.5596 150.848 21.4656H150.854ZM157.177 42.8356C156.283 43.2776 155.826 43.2056 157.322 43.7286C160.328 44.7776 159.668 45.2826 160.563 41.4616C160.557 41.0136 160.699 41.0926 157.171 42.8356H157.177Z" fill="#6564E3"/>
<path d="M122.8 30.2114C126.867 30.2764 126.83 36.4044 122.789 36.3634C118.822 36.3234 118.8 30.1464 122.8 30.2114Z" fill="#6564E3"/>
<path d="M186.988 28.0588C187.697 28.0572 188.383 28.3078 188.923 28.7658C189.464 29.2238 189.824 29.8593 189.939 30.5586C190.054 31.2578 189.917 31.9751 189.551 32.5822C189.186 33.1893 188.616 33.6464 187.944 33.8718C187.532 34.0165 187.093 34.0691 186.658 34.026C186.224 33.983 185.804 33.8452 185.428 33.6225C185.052 33.3998 184.73 33.0975 184.484 32.7368C184.237 32.3762 184.073 31.966 184.002 31.535C183.931 31.104 183.956 30.6627 184.073 30.2422C184.191 29.8216 184.4 29.432 184.685 29.1007C184.969 28.7694 185.323 28.5044 185.721 28.3244C186.119 28.1444 186.551 28.0538 186.988 28.0588Z" fill="#6564E3"/>
<path d="M152.965 26.6847C154.002 26.7179 154.998 27.0966 155.795 27.7606C156.592 28.4246 157.145 29.3358 157.365 30.3497C157.597 31.3087 157.528 32.3159 157.167 33.2342C156.806 34.1525 156.171 34.9373 155.348 35.4817C154.525 36.0261 153.554 36.3037 152.568 36.2766C151.582 36.2496 150.628 35.9193 149.836 35.3307C146.169 32.7137 148.138 26.4057 152.965 26.6847Z" fill="#6564E3"/>
</svg>
