<svg width="190" height="152" viewBox="0 0 190 152" fill="none" xmlns="http://www.w3.org/2000/svg">
<path fill-rule="evenodd" clip-rule="evenodd" d="M189.53 93.7795C187.8 90.4395 182.61 84.3895 176.34 77.6795C179.9 75.7895 182.22 74.2495 182.62 73.3295C182.89 72.7095 182 72.0895 181.44 71.7095C178.64 69.7895 170.52 65.9695 160.53 61.4895C158.85 59.8195 157.22 58.2195 155.7 56.7195C160.54 48.9195 161.12 40.1395 158.79 31.2595C152.66 8.0695 135.49 2.5295 112.96 11.5195C107.08 13.8595 95.38 20.7295 91.96 32.9795C90.8476 36.9706 90.6493 41.1612 91.38 45.2395C84.88 47.7295 76.55 50.9295 65.97 54.7495C63.36 53.4395 62.3 53.1895 62.32 53.0495C62.3363 52.9695 62.331 52.8865 62.3047 52.8092C62.2783 52.7318 62.2318 52.6629 62.17 52.6095C60.17 51.3695 56.85 50.9795 56.34 51.4095C56.0807 51.5985 55.8572 51.8321 55.68 52.0995L54.21 47.3395C55.12 46.9595 57.36 45.6695 58.94 41.7595C60.0761 38.6539 60.632 35.366 60.58 32.0595C61.0059 31.4111 61.2116 30.6426 61.1666 29.8681C61.1215 29.0936 60.8282 28.3542 60.33 27.7595C60.33 27.5195 60.26 27.2895 60.23 27.0495C60.4409 26.3269 60.6079 25.5922 60.73 24.8495C60.73 23.6795 61.01 21.8495 60.47 20.7495C60.3988 20.2252 60.3988 19.6938 60.47 19.1695C60.47 17.4695 58.33 16.6995 56.8 15.2595C56.8 14.1095 56.89 12.8495 56.9 11.8195C59.9413 10.963 62.9186 9.89367 65.81 8.6195C66.33 8.3495 67.13 7.9095 67.14 7.3595C67.14 5.0095 46.61 -0.420497 44.08 0.169503C43.99 -0.110497 25.02 6.7795 22.08 9.7195C22.0154 9.77853 21.9638 9.85036 21.9285 9.93042C21.8933 10.0105 21.875 10.097 21.875 10.1845C21.875 10.272 21.8933 10.3585 21.9285 10.4386C21.9638 10.5186 22.0154 10.5905 22.08 10.6495C21.7724 12.1373 21.8273 13.6773 22.24 15.1395C21.9309 15.163 21.6351 15.2752 21.3883 15.4627C21.1414 15.6502 20.9539 15.905 20.8483 16.1964C20.7427 16.4879 20.7235 16.8036 20.793 17.1057C20.8624 17.4078 21.0177 17.6835 21.24 17.8995C20.24 19.2895 20.39 22.2295 21.13 23.7395C21.1316 23.7648 21.1388 23.7894 21.1511 23.8116C21.1635 23.8337 21.1806 23.8529 21.2013 23.8675C21.222 23.8822 21.2457 23.8921 21.2706 23.8964C21.2956 23.9007 21.3213 23.8994 21.3457 23.8925C21.3701 23.8857 21.3927 23.8734 21.4117 23.8567C21.4308 23.84 21.4459 23.8192 21.4559 23.7959C21.4659 23.7726 21.4705 23.7474 21.4695 23.722C21.4685 23.6967 21.4618 23.6719 21.45 23.6495C21.3405 21.8122 21.3873 19.9689 21.59 18.1395C21.7868 18.2386 22.0005 18.2997 22.22 18.3195C21.8166 20.0603 21.9278 21.8807 22.54 23.5595C22.5491 23.5964 22.5703 23.6291 22.6002 23.6525C22.6301 23.6759 22.667 23.6886 22.705 23.6886C22.7429 23.6886 22.7798 23.6759 22.8097 23.6525C22.8396 23.6291 22.8608 23.5964 22.87 23.5595C23.03 20.7595 22.72 20.8695 22.69 18.3695C24.05 18.2195 22.62 17.1195 24.1 23.3695C24.0938 23.3946 24.0933 23.4207 24.0987 23.4459C24.1041 23.4712 24.1152 23.4948 24.1311 23.5152C24.147 23.5355 24.1673 23.5519 24.1905 23.5632C24.2137 23.5746 24.2392 23.5804 24.265 23.5804C24.2908 23.5804 24.3163 23.5746 24.3395 23.5632C24.3627 23.5519 24.383 23.5355 24.3989 23.5152C24.4148 23.4948 24.4258 23.4712 24.4312 23.4459C24.4366 23.4207 24.4362 23.3946 24.43 23.3695C24.5848 21.5334 24.3602 19.6851 23.77 17.9395C23.9171 17.8133 24.0392 17.6607 24.13 17.4895C24.8 18.0895 24.65 20.1795 25.48 23.3795C25.4891 23.4164 25.5103 23.4491 25.5402 23.4725C25.5701 23.4959 25.607 23.5086 25.645 23.5086C25.683 23.5086 25.7198 23.4959 25.7497 23.4725C25.7796 23.4491 25.8008 23.4164 25.81 23.3795C25.81 21.6895 25.87 17.6795 24.25 17.1395C24.2904 16.9095 24.2806 16.6736 24.2213 16.4477C24.162 16.2219 24.0546 16.0116 23.9065 15.8311C23.7583 15.6507 23.5729 15.5044 23.3629 15.4023C23.153 15.3001 22.9234 15.2446 22.69 15.2395C22.7818 13.9478 22.7818 12.6512 22.69 11.3595C22.62 10.7695 22.16 11.7395 31.99 13.5195C32.06 14.6295 32.18 16.3095 32.33 17.8195C31.3775 18.8217 30.5909 19.9695 30 21.2195C29.08 23.3795 30 25.3795 30.68 27.4295C30.82 27.8295 30.85 28.2795 30.95 28.6995C31.11 29.4395 31.36 29.4295 31.29 30.1695C31.22 30.9095 30.75 31.9295 31.05 32.7895C31.5807 33.834 32.2538 34.7999 33.05 35.6595C33.602 36.2801 33.951 37.0548 34.05 37.8795C34.05 38.6395 35.67 39.6695 36.15 39.7095L36.77 41.3295C37.3 42.6895 40.91 46.0695 41.99 47.0595C42.1 47.9395 42.33 50.0595 42.38 51.5395C42.0267 51.4319 41.6656 51.3517 41.3 51.2995C36.72 51.2295 15.05 59.6995 7.45998 73.5395C-4.15002 94.7795 5.68998 109.18 5.72998 109.28C-0.83002 115.83 -4.71002 131.249 10.9 137.999C16.698 140.411 22.7807 142.071 29 142.939C28.91 144.669 28.79 151.869 30.51 151.939C31.1 151.939 31.57 151.209 31.88 150.639C32.8688 148.557 33.6752 146.392 34.29 144.169C37.29 143.969 37.19 144.019 37.29 143.869C52.1849 144.996 67.1645 143.908 81.74 140.639C81.86 140.639 81.86 140.689 82.06 139.809L83.88 139.499C93.88 155.259 90.2 136.769 87.13 132.339C86.7814 131.698 86.1968 131.217 85.5 130.999C87.7532 129.753 89.9243 128.363 92 126.84C97.7998 130.416 103.811 133.639 110 136.49C114.54 138.49 177.4 114.04 179.66 108.77C179.93 108.15 179.04 107.529 178.49 107.149C177.044 106.22 175.544 105.375 174 104.619L174.12 103.71C183.87 110.48 192.08 98.7095 189.53 93.7795ZM23.65 16.2495C24.03 17.9995 20.87 17.8595 21.53 16.3995C21.5994 16.2595 21.7008 16.1377 21.8258 16.0439C21.9508 15.9501 22.0961 15.887 22.25 15.8595C22.83 15.7195 23.4 15.7095 23.65 16.2495ZM159.4 89.9995C145.51 95.5395 125.63 102.58 114.72 104.85C114.695 104.85 114.671 104.856 114.649 104.866C114.627 104.877 114.607 104.892 114.591 104.912C114.576 104.931 114.564 104.953 114.558 104.977C114.552 105.001 114.551 105.026 114.555 105.05C114.56 105.074 114.569 105.097 114.584 105.117C114.598 105.138 114.616 105.154 114.638 105.167C114.659 105.179 114.683 105.187 114.707 105.189C114.732 105.191 114.757 105.188 114.78 105.179C126.6 102.989 145.94 96.3995 159.94 90.5595C160.86 91.5095 161.77 92.4495 162.66 93.3495C148.86 99.2795 126.81 107.63 115.15 110.25C115.126 110.252 115.103 110.259 115.082 110.27C115.06 110.282 115.042 110.298 115.028 110.318C115.013 110.337 115.003 110.359 114.998 110.383C114.993 110.406 114.993 110.431 114.998 110.454C115.003 110.478 115.013 110.5 115.027 110.519C115.041 110.539 115.06 110.555 115.081 110.567C115.102 110.579 115.125 110.586 115.149 110.588C115.173 110.59 115.197 110.587 115.22 110.58C127.94 108 149.22 100.2 163.16 93.8495L164.47 95.1695C148.03 102.29 115.65 115.93 111.14 116.55C110.14 111.02 111.61 104.18 113.66 101.21C118.33 101.3 138.9 94.0695 156.39 86.8295C157.403 87.8695 158.407 88.9262 159.4 89.9995ZM111.48 122.47C108.28 121.1 104.48 119.17 100.28 116.88C100.533 116.156 100.727 115.414 100.86 114.66C104.38 116.5 107.86 118.23 111.42 119.78C114.69 121.22 149.77 108.32 168.83 99.3595C169.43 99.9095 170 100.43 170.55 100.91C152.15 109.74 114.69 123.8 111.48 122.42V122.47ZM171.23 101.47C171.99 102.11 172.69 102.68 173.32 103.16C173.198 104.717 172.903 106.257 172.44 107.75C169.24 109.35 113.69 133.35 109.44 133.35C108.6 129.69 109.79 126.3 111.94 123.24C119.14 123.36 156.36 108.71 171.23 101.46V101.47ZM57 85.4495C57.2241 85.3015 57.4349 85.1342 57.63 84.9495C58.52 84.0695 58.11 83.0695 57.21 82.9495C58.06 82.0195 57.56 80.6995 55.78 81.1095C54.7893 81.3572 53.8925 81.889 53.2 82.6395C52.89 81.7995 52.6 80.8695 51.99 80.5595C51.6 75.9595 51.33 72.1895 51.41 71.3495C52.2505 71.2626 53.099 71.2963 53.93 71.4495C85.05 72.8995 68.17 77.1595 89.2 64.8395C89.78 67.0295 90.36 70.2995 90.9 73.9095C90.0607 73.6608 89.18 73.5826 88.31 73.6795C86.49 73.8395 86.43 75.2495 87.52 75.8495C87.3261 75.9309 87.1628 76.0713 87.0532 76.2508C86.9437 76.4304 86.8936 76.6398 86.91 76.8495C86.99 77.5795 87.8 77.9195 88.51 78.1195C87.76 78.6795 87.46 79.6995 88.41 80.2295C89.4739 80.7361 90.6618 80.9236 91.83 80.7695C92.39 85.2795 92.83 89.5795 93.1 92.3195C91 94.6095 82.69 103 79.74 104C78.84 104.31 54.89 101.23 53.94 101.1C53.84 100.1 53.34 95.0495 52.81 89.3795C54.89 89.0595 57.81 88.1895 58.1 86.8995C58.24 86.2295 57.65 85.6695 57 85.4495ZM91.46 78.7995C91.97 78.7995 92.34 77.7995 90.34 77.7995C89.66 77.5995 89.02 77.5495 88.34 77.2895C86.79 76.6795 88.47 76.2895 90.07 76.6495C91.07 76.9795 91.42 76.0495 90.29 75.8395C90.14 75.8395 86.88 75.2095 87.69 74.7095C87.9028 74.6008 88.1329 74.5297 88.37 74.4995C89.5306 74.2892 90.728 74.5172 91.73 75.1395C92.85 75.9595 92.53 78.6995 92.15 80.1395C92.02 80.5095 91.65 80.5995 91.21 80.5895C90.3361 80.4998 89.4857 80.2525 88.7 79.8595C88.37 79.6595 88.38 79.4695 88.51 79.2395C89.16 77.9995 90.76 78.8295 91.49 78.7995H91.46ZM93.82 92.7995C94.01 92.5995 93.93 92.4695 93.75 90.7995C99.8823 94.5553 106.226 97.9543 112.75 100.979C109.84 105.49 109.17 113.829 110.75 118.539C106.61 116.669 104.33 115.539 100.94 113.619C101.81 105.769 96.23 97.9195 90.78 95.8595C92.14 94.5695 93.22 93.4595 93.85 92.7995H93.82ZM111.89 119.05C111.6 118.407 111.376 117.737 111.22 117.05C116.79 116.34 149.02 102.73 165.08 95.7795C166.14 96.7795 167.17 97.7795 168.15 98.7795C149.59 107.35 115.93 119.89 111.92 119.05H111.89ZM92.5 33.1395C95.82 21.0495 107.29 14.1395 113.09 11.8295C135.21 3.00951 152.09 8.5795 158.03 31.4595C160.62 41.3895 159.03 49.2695 155.57 55.3095C150.72 63.8295 142.24 68.6895 136.84 70.5095C121.77 75.6095 107.84 75.5095 99.16 62.0295C93.52 53.3095 89.74 43.1495 92.5 33.1395ZM91.44 45.8595C92.7173 51.788 95.1134 57.4186 98.5 62.4495C103.32 69.9395 109.64 73.1395 115.96 74.1195C124.02 75.3695 132.1 72.9995 137.11 71.3095C138.412 70.8634 139.684 70.3357 140.92 69.7295C145.09 74.4795 150.44 80.4395 155.75 86.0995C154.33 86.6995 152.883 87.2995 151.41 87.8995C134.12 94.8995 115.48 101.31 113.25 100.35C106.531 97.2893 99.9996 93.8332 93.69 89.9995C93.69 89.9995 93.23 85.7195 92.49 80.2395C93.03 78.5195 93.56 75.7495 92.17 74.6195C92.0028 74.4813 91.8218 74.3607 91.63 74.2595C91.1659 70.9355 90.5148 67.6403 89.68 64.3895C89.669 64.3513 89.65 64.3158 89.6243 64.2855C89.5986 64.2551 89.5666 64.2306 89.5307 64.2136C89.4947 64.1966 89.4556 64.1874 89.4158 64.1867C89.376 64.186 89.3365 64.1938 89.3 64.2095C89.18 64.2095 88.59 64.6195 87.72 65.2095L85.16 64.3295C85.02 64.2795 85.16 64.1195 80.56 66.9095C76.8738 61.8788 72.0443 57.7965 66.47 54.9995C76.73 51.3895 85 48.2895 91.44 45.8595ZM75.27 70.2495C75.37 70.2495 84.92 64.5095 85.06 64.5595L87.35 65.3695C70.07 76.3695 81.54 72.2295 54.35 70.7695C55.99 69.5295 56.35 69.2695 56.41 69.2095C57.49 68.5195 74.79 70.1495 75.27 70.2495ZM59.54 27.7595C59.7415 29.1633 59.8218 30.5819 59.78 31.9995C58.954 32.8131 57.8491 33.2815 56.69 33.3095C54.97 33.3995 53.09 33.1895 52.46 31.5795C50.62 27.0495 57.28 25.9995 59.54 27.7595ZM58 25.3995C58.47 26.1195 58.89 26.6795 59.15 27.0195C56.94 26.1395 51.1 26.6395 51.63 30.6695C50.8722 30.5198 50.0872 30.5928 49.37 30.8795C48.82 26.6095 41.08 27.5595 40.05 30.5195C39.8096 30.3563 39.5377 30.2453 39.2518 30.1937C38.9659 30.142 38.6723 30.1508 38.39 30.2195C38.22 28.3695 38.45 25.7395 39.93 25.0195C40.35 24.8095 41.14 25.9495 41.8 26.1195C43.2978 26.5045 44.8533 26.613 46.39 26.4395C48.1504 26.2869 49.9001 26.0298 51.63 25.6695C54.09 25.0795 53.89 24.5295 55.58 23.5095C55.77 23.3995 56.38 23.0595 56.58 23.1495C57.56 23.6495 57.26 24.2795 58 25.3995ZM48.82 31.4995C48.76 33.4995 46.91 34.5795 44.99 34.6795C43.27 34.7795 41.39 34.5595 40.76 32.9595C40.4896 32.4697 40.3682 31.9115 40.4109 31.3536C40.4535 30.7958 40.6583 30.2625 41 29.8195C42.88 27.6195 49 27.4895 48.82 31.4995ZM33.25 20.6395C32.7499 18.2825 32.4158 15.8933 32.25 13.4895C38.35 14.5795 45.02 15.3695 45.79 15.0895C46.71 14.7595 51.33 13.4995 56.01 12.0895C55.96 15.2395 55.77 17.2695 55.75 17.9095C48.1633 17.8387 40.5996 18.7564 33.25 20.6395ZM22.6 10.1795C25.21 7.7395 41.46 1.0795 44.1 0.489503C46.47 -0.000497252 63.79 4.9995 66.27 7.3595C64.57 9.1095 47.44 13.6095 45.52 14.2895C44.49 14.6595 24.81 11.9295 22.6 10.1795ZM39.17 43.4695C37.8776 42.3307 36.952 40.8343 36.51 39.1695C36.43 38.1695 35.73 35.7795 35.02 35.4495C34.1423 34.766 33.3881 33.9374 32.79 32.9995C31.87 31.6095 31.96 29.8995 33.5 29.1095C36.09 27.7895 36.76 31.3095 37.35 31.9195C37.69 32.2595 38.62 31.8095 38.47 30.7895C38.9267 30.9784 39.4157 31.0769 39.91 31.0795C39.8465 31.7769 39.9494 32.4795 40.21 33.1295C40.93 35.0295 42.99 35.3795 45.02 35.2795C47.39 35.1495 49.46 33.7095 49.41 31.3695C49.8904 31.4795 50.3895 31.4795 50.87 31.3695C51.03 31.8995 52.24 36.6595 51.8 36.9895C51.5943 37.1398 51.3689 37.261 51.13 37.3495C49.98 37.8195 49.68 37.6495 49.71 37.8995C49.7112 37.9175 49.7161 37.9351 49.7244 37.9512C49.7328 37.9672 49.7444 37.9813 49.7585 37.9926C49.7726 38.0039 49.7889 38.0121 49.8064 38.0168C49.8239 38.0214 49.8421 38.0223 49.86 38.0195C50.86 38.0195 52.68 37.7495 52.63 36.7995C52.5518 34.8843 52.0714 33.0069 51.22 31.2895C51.3894 31.2347 51.5535 31.1645 51.71 31.0795C52.28 33.4895 54.21 34.0295 56.71 33.8995C57.7941 33.8573 58.84 33.4878 59.71 32.8395C59.6737 35.7711 59.129 38.6742 58.1 41.4195C56.27 45.9395 53.52 46.6395 53.52 46.6395C53.4651 46.6521 53.4134 46.6759 53.3681 46.7094C53.3228 46.7429 53.2849 46.7854 53.2568 46.8342C53.2286 46.883 53.2108 46.937 53.2045 46.993C53.1982 47.049 53.2034 47.1057 53.22 47.1595L55 52.9395C53.37 55.3395 53.89 55.2095 53.51 55.0495C52.16 54.4895 46.11 52.5795 43.05 51.7195C42.9781 50.0928 42.8246 48.4708 42.59 46.8595C42.58 46.5295 41.93 46.3395 39.17 43.4695ZM35.17 53.9195C37.52 55.9195 48.17 62.2595 51.31 63.3495C51.6195 63.5036 51.9728 63.546 52.31 63.4695C52.64 63.3195 52.49 63.7395 53.85 56.0495C54.36 56.6295 55.68 58.0495 59.07 61.5595C59.119 61.614 59.1811 61.6551 59.2505 61.6789C59.3198 61.7027 59.3941 61.7083 59.4662 61.6953C59.5384 61.6822 59.606 61.651 59.6627 61.6045C59.7193 61.558 59.7632 61.4977 59.79 61.4295C60.6635 59.0135 61.398 56.5495 61.99 54.0495C62.3277 54.1225 62.6614 54.2127 62.99 54.3195C62.81 58.8195 62.86 67.5895 58.7 68.7095C57.8914 68.6613 57.0799 68.7016 56.28 68.8295C49.77 68.4295 42.28 62.9995 37.84 58.5095C36.42 57.0995 35 55.8495 33.68 54.3995L35.17 53.9195ZM18.37 90.4895C26.48 83.2095 38.3 81.6195 49.02 83.8495C49.51 83.9995 49.37 83.9395 49.89 85.4795C50.4469 85.0632 50.9596 84.5907 51.42 84.0695C51.77 83.7395 51 82.8195 51.07 81.5995C51.07 81.3595 51.13 81.1495 51.36 81.1095C52.36 80.9395 52.36 83.4495 52.93 83.6595C53.5 83.8695 53.52 83.0895 54.8 82.3495C59.34 79.6995 53.99 84.1395 53.99 84.2595C53.9871 84.318 53.9965 84.3765 54.0176 84.4312C54.0387 84.4859 54.0711 84.5355 54.1125 84.577C54.1539 84.6184 54.2036 84.6507 54.2583 84.6718C54.313 84.6929 54.3714 84.7024 54.43 84.6995C54.89 84.6995 55.01 84.1895 56.43 83.8495C56.66 83.7895 57.18 83.6995 57.22 83.9295C57.32 84.4095 55.5 85.3195 55.07 85.6095C53.13 86.2795 53.8 87.0895 54.29 86.9595C55.08 86.7595 55.76 85.8495 56.71 86.1495C56.96 86.2295 57.38 86.4895 57.33 86.7495C57.28 87.0095 56.89 87.2995 56.67 87.4695C54.99 88.7195 51.26 89.1195 51.16 89.1695C51.24 90.0895 51.97 91.3595 51.79 91.7495C48.9435 97.6211 45.0459 102.922 40.29 107.39C40.18 107.44 36.29 111.19 35.51 111.06C34.73 110.93 35.79 110.78 38.13 108.75C43.4809 103.889 47.844 98.0425 50.98 91.5295C50.68 90.5295 48.98 85.6795 48.68 84.6495C42.985 83.4581 37.105 83.4581 31.41 84.6495C20.54 87.0395 16.64 93.0495 16.11 93.1395C15.45 93.1595 17.86 90.9995 18.42 90.4895H18.37ZM30.58 151.07C29.94 150.21 29.65 146.53 29.78 143.07C30.96 143.24 32.13 143.379 33.31 143.509C33.49 143.939 33.44 143.899 33.53 143.999C33.15 145.339 31.64 150 30.63 151.07H30.58ZM81.58 140.24C73.1854 141.843 64.6872 142.845 56.15 143.24C41.65 143.95 24.61 142.989 11.22 137.179C3.27998 133.749 0.639981 128.03 0.839981 122.49C1.07121 117.87 2.93529 113.483 6.09998 110.11C6.65318 111.521 7.36794 112.863 8.22998 114.11C9.35998 115.43 28.32 116.31 47.42 116.35C48.7066 115.088 50.0655 113.903 51.49 112.8C58.26 115.34 61.49 116.8 83.72 130.66L81.58 140.24ZM85.5 131.619C87.75 132.409 90.38 143.18 89.43 144.91C88.69 144.71 86.54 142.14 84.43 138.91C84.3894 138.845 84.3305 138.795 84.261 138.765C84.1915 138.735 84.1145 138.726 84.04 138.74L82.26 139.109C82.53 137.889 82.98 135.739 83.8 131.919C84.0348 131.726 84.3157 131.597 84.6154 131.544C84.9151 131.491 85.2233 131.517 85.51 131.619H85.5ZM84 130.889C84 130.719 84.09 130.589 84 130.509C84.1 130.509 63.53 117.42 58.1 114.92C56.32 114.1 54.42 113.299 52.43 112.509C56.7482 109.144 61.3182 106.115 66.1 103.45C72.63 104.25 79.37 104.99 80 104.77C82.18 104.05 86.79 99.8295 90.22 96.4695C93.91 97.6695 98.55 102.47 99.91 108.56C101.05 113.64 99.81 119.47 93.77 124.44C90.7305 126.902 87.4583 129.062 84 130.889ZM178.78 108.53C175.72 113.6 114.36 137.529 110.24 135.789C104.143 133.017 98.2157 129.885 92.49 126.41C95.73 123.98 98.49 121.41 99.99 117.5C101.62 118.4 110.22 123.01 111.45 123.2C109.21 126.37 108.04 129.849 108.92 133.609C109.54 136.199 169.7 109.95 172.48 108.61C172.76 108.48 173.01 108.38 173.1 108.2C173.449 107.322 173.687 106.405 173.81 105.47C176.59 106.9 178.37 108 178.82 108.53H178.78ZM175.7 77.0495C171.41 72.4795 166.65 67.6295 162.18 63.1695C172.72 67.9295 180.74 71.7795 181.75 73.0895C181.08 74.2795 176.88 76.5495 175.74 77.0495H175.7Z" fill="black"/>
</svg>
