<svg width="161" height="156" viewBox="0 0 161 156" fill="none" xmlns="http://www.w3.org/2000/svg">
<path d="M101.021 31.0287C99.308 32.1488 98.0359 33.1866 97.7633 35.0549C97.6562 35.7868 97.6563 35.8014 97.4222 35.6751C96.2889 35.0665 95.1351 34.3452 93.8174 34.6992C93.1593 34.8762 92.0789 35.4804 92.1826 36.1452C92.1868 36.6061 92.6572 36.6733 92.9484 36.3688C95.2177 33.9972 98.4083 38.8454 98.7384 36.537C98.8279 35.9151 98.65 35.9044 98.9522 34.7763C99.4267 33.0086 101.562 32.3207 101.962 31.4701C102.205 30.9544 101.595 30.653 101.021 31.0288L101.021 31.0287Z" fill="#6564E3"/>
<path d="M25.2491 116.304C24.6409 116.342 23.5307 116.874 22.607 118.046C21.8123 119.055 22.3322 119.648 21.8292 119.464C20.8411 119.103 19.6932 118.618 18.5689 118.766C16.509 119.037 17.1787 120.567 17.9514 120.039C18.8428 119.428 20.6459 120.181 21.626 120.581C23.9155 121.516 22.4302 119.45 23.957 118.216C24.5932 117.702 25.167 117.339 25.5433 116.969C25.805 116.711 25.7869 116.271 25.2491 116.304Z" fill="#6564E3"/>
<path d="M39.7504 109.794C39.647 109.999 39.6392 109.991 39.4118 109.911C37.5505 109.257 37.3175 109.079 35.725 109.103C35.3807 109.224 34.8154 109.322 34.9183 109.802C34.9852 110.114 35.3998 110.179 35.7177 110.152C38.4276 109.919 39.848 112.337 40.6668 110.443C41.3365 108.894 44.4002 106.985 44.2725 106.735C43.7901 105.791 40.6444 108.032 39.7504 109.794Z" fill="#6564E3"/>
<path d="M117.006 33.1189C115.202 34.0556 115 34.5012 114.394 35.7924C113.456 35.3344 112.426 34.7882 111.273 35.0688C109.933 35.3946 110.689 36.7787 111.401 36.176C112.017 35.6551 114.101 36.9425 114.365 37.0608C114.835 37.2715 115.236 37.0765 115.371 36.5761C116.009 34.1989 117.389 34.5382 117.894 33.6496C118.14 33.2153 117.691 32.7646 117.006 33.1204L117.006 33.1189Z" fill="#6564E3"/>
<path d="M117.915 21.4298C116.305 22.9532 116.613 23.6474 116.336 23.4943C115.357 22.9546 114.741 22.5498 113.908 22.5698C113.142 22.6403 112.841 23.1479 113.08 23.5259C113.41 24.0495 113.541 23.4205 114.372 23.6992C115.783 24.1731 117.257 25.9568 117.483 24.1138C117.682 22.4859 119.894 21.5502 119.909 21.5408C120.593 21.0856 119.554 19.8776 117.916 21.4289L117.915 21.4298Z" fill="#6564E3"/>
<path d="M25.8205 104.044C24.9213 103.663 24.0652 103.228 23.0031 103.496C22.403 103.647 22.3708 104.4 23.1215 104.359C25.3353 104.242 26.3651 106.583 26.9461 104.208C27.1593 103.337 28.1278 101.913 28.3534 101.602C29.7214 99.7126 29.8038 100.005 30.0682 99.6827C30.4127 99.2627 27.8204 99.1575 25.8212 104.043L25.8205 104.044Z" fill="#6564E3"/>
<path d="M95.515 125.365C95.17 122.311 95.0445 119.835 96.932 117.355C99.3929 114.119 101.344 113.299 103.962 113.063C107.486 112.745 110.463 113.532 112.995 116.003C115.329 118.28 114.963 118.708 115.262 117.898C116.828 113.653 120.154 110.731 123.435 109.676C128.616 108.01 136.283 112.255 136.54 117.48C136.648 119.652 134.955 124.215 135.653 124.16C139.218 123.875 141.913 124.123 146.499 127.762C147.447 128.515 148.881 130.143 149.187 131.287C149.378 132.006 149.746 131.899 152.604 132.287C156.004 132.75 157.378 132.81 158.829 133.956C160.032 134.905 159.724 136.457 158.645 137.284C156.248 139.122 153.736 139.494 151.025 139.758C141.924 140.645 138.515 141.531 115.474 143.375C104.068 144.287 114.698 143.33 96.0388 144.851C71.0485 146.887 72.8058 147.507 69.4257 147.401C67.0118 147.325 63.4936 147.047 64.0838 144.706C64.4477 143.264 66.8371 142.624 68.4692 141.953C71.202 140.83 71.798 140.288 75.9509 139.758C77.7805 139.524 79.8709 139.557 79.9011 137.708C79.9349 135.678 79.5883 135.103 80.0867 133.219C80.4759 131.748 81.8711 129.601 84.1352 128.181C88.1483 125.662 91.9287 127.933 95.1451 129.411C95.7481 129.688 95.8632 129.881 95.9044 129.644C95.9184 129.564 95.5627 125.357 95.514 125.363L95.515 125.365ZM96.8614 129.204C96.8966 129.591 96.856 129.969 96.8141 130.349C96.6775 131.571 95.2782 130.623 94.5938 130.308C90.1606 128.267 89.3786 127.819 86.7341 128.262C84.1683 128.692 81.4723 131.52 81.0152 134.016C80.4844 136.91 82.4446 139.668 77.4533 140.445C75.2352 140.791 74.973 140.593 73.0185 141.142C70.5862 141.825 70.3475 142.28 66.2722 143.831C65.0843 144.283 63.8731 145.593 66.6305 146.094C71.2254 146.93 74.7731 145.543 81.2536 145.144C81.4022 145.135 81.3178 145.405 103.699 143.122C103.716 143.12 130.01 141.698 149.109 138.963C150.22 138.804 156.381 138.758 158.506 136.226C158.821 135.85 158.857 135.059 158.35 134.651C156.672 133.306 154.92 133.626 149.584 132.793C148.335 132.598 148.444 131.587 147.815 130.656C146.568 128.812 145.299 128.075 144.238 127.313C138.061 122.876 134.09 126.726 134.35 124.223C134.906 118.879 137.57 116.575 132.088 112.292C130.799 111.286 129.848 111.051 127.653 110.457C125.764 109.946 123.417 110.265 120.986 112.017C115.522 115.956 116.592 119.642 115.158 119.667C114.034 119.686 111.865 113.674 105.116 113.984C104.522 114.011 102.846 114.176 102.085 114.408C100.129 115.006 98.353 116.994 97.3641 118.544C95.776 121.032 96.2993 123.089 96.8607 129.205L96.8614 129.204Z" fill="#6564E3"/>
<path d="M105.898 53.9881C109.094 53.5923 111.342 53.5095 114.677 56.5178C116.468 58.1337 116.428 58.6574 116.585 58.2864C119.849 50.5913 121.983 49.261 127.493 48.3228C133.343 47.3271 137.604 52.727 137.974 56.162C138.85 64.2926 135.18 60.0309 142.674 61.9212C144.67 62.4247 146.389 63.542 146.498 65.5994C146.563 66.8325 146.068 67.7215 145.409 69.2038C145.077 69.9511 144.701 69.6039 149.045 70.5527C149.601 70.6742 151.564 71.1228 152.296 71.4158C153.643 71.9547 153.697 72.768 153.132 73.2159C151.168 74.7731 146.948 74.565 143.443 75.1283C140.434 75.6126 106.296 79.1649 101.966 79.2909C100.664 79.3284 98.2318 79.7189 97.9763 79.7447C88.9178 80.6556 82.3221 82.3149 80.2521 80.7352C79.781 80.3757 79.7016 79.8578 80.0761 79.3896C80.2957 79.1141 80.5827 78.9228 80.8664 78.7303C83.3315 77.0539 85.8417 76.2072 87.1657 75.7112C88.1478 75.3433 88.417 75.4795 88.2695 75.1707C87.6002 73.7667 87.7025 71.798 88.4024 70.3319C89.5278 67.9753 93.5711 66.6599 97.0296 67.9655C98.4478 68.5011 98.1392 68.5005 97.4158 66.3922C95.6829 61.3446 99.1444 54.8245 105.898 53.9873L105.898 53.9881ZM149.469 73.5449C150.683 73.4109 152.85 72.7386 152.333 72.4453C152.15 72.3411 151.963 72.2286 151.763 72.1742C145.718 70.5198 143.936 71.0774 144.222 69.6581C144.509 68.2394 147.811 64.3926 142.607 62.9154C140.944 62.443 138.642 62.2897 137.588 62.4364C137.029 62.5143 136.602 62.1784 136.71 61.5475C137.627 56.2267 136.974 53.4894 132.863 50.3591C131.852 49.59 130.484 49.3634 129.194 49.2631C127.904 49.1628 127.827 49.2779 125.721 49.725C117.483 51.4719 117.98 62.738 115.837 59.3845C115.017 58.1017 113.482 56.6026 111.136 55.3882C109.781 54.6865 108.442 54.854 107.143 54.9013C103.927 55.0185 101.752 55.8035 99.3104 59.2437C98.0227 61.0586 97.5902 63.8869 98.516 66.4484C98.8382 67.3408 98.957 68.2962 99.3641 69.1613C99.4524 69.3488 99.3862 69.5283 99.2361 69.6672C98.9204 69.9597 98.5802 69.6657 98.4078 69.5741C94.33 67.4089 88.6985 68.4941 88.8242 72.9449C88.8442 73.6686 88.875 74.4049 89.1778 75.092C89.9011 76.7344 85.3755 76.2529 80.7996 79.7916C80.6443 79.9117 80.6549 80.0201 80.8322 80.0803C84.0903 81.1894 91.1728 79.1279 106.153 78.0239C118.115 77.1422 149.426 73.549 149.469 73.5442L149.469 73.5449Z" fill="#6564E3"/>
<path d="M22.5949 152.684C54.8401 149.041 53.3186 150.295 55.0693 148.967C56.3681 147.981 52.6624 147.26 50.8045 147.011C46.3056 146.411 45.6904 147.125 44.8527 144.462C44.109 142.099 44.0739 140.908 42.359 140.211C41.5577 139.886 39.9562 139.653 38.8466 139.842C37.1254 140.134 36.3709 140.748 34.4594 142.252C33.583 142.941 33.098 143.646 32.4346 142.847C31.4068 141.609 30.3344 135.368 23.4755 137.087C20.255 137.894 19.0523 142.011 17.8599 140.771C17.5907 140.491 17.2221 139.433 16.2262 138.997C15.2108 138.551 14.8005 138.709 14.4472 138.381C13.6433 137.637 16.6204 137.256 18.0045 139.107C18.4289 139.675 18.3523 139.809 18.7138 139.438C20.8575 137.239 21.3355 136.246 24.7439 135.825C26.69 135.584 28.6539 136.074 30.2143 137.499C31.7531 138.905 31.8543 139.487 32.5807 141.013C33.0842 142.069 33.046 142.093 33.2949 141.9C35.1457 140.46 36.1784 139.536 37.6002 139.12C39.1774 138.659 40.8818 138.73 42.2955 139.138C44.1742 139.679 44.7747 140.768 45.2521 142.297C46.8799 147.507 45.6209 144.659 53.1285 146.421C54.7411 146.8 55.4776 147.043 56.109 147.9C56.527 148.466 56.4146 149.342 55.1226 150.033C53.3104 151.001 50.5835 150.873 49.2524 150.964C40.5044 151.565 18.463 154.493 16.7081 154.22C16.4631 154.182 16.3018 153.738 16.6654 153.603C17.5465 153.277 22.5931 152.668 22.5949 152.684Z" fill="#6564E3"/>
<path d="M66.0273 91.7037C65.9182 84.3543 65.492 84.5961 65.8216 84.1269C75.35 70.5786 83.9068 58.8018 83.4574 42.1389C83.1859 32.0407 77.6265 23.6655 72.1313 20.8366C69.9359 19.7038 68.9176 19.0003 66.4684 18.339C65.8525 18.1725 65.653 18.0038 65.2557 17.6691C62.3543 15.2175 57.2282 13.0673 52.7278 13.3552C52.1006 13.3959 52.0354 13.03 49.7979 12.3856C47.7367 11.7915 44.7437 11.5472 42.5267 12.6401C42.203 12.8001 42.0868 12.7685 41.7758 12.6856C39.3519 12.0361 36.0386 12.5956 34.0647 14.9254C33.8919 15.13 33.8303 15.1933 33.7073 15.1902C32.7381 15.1532 31.6729 15.2913 30.6274 15.5899C23.9434 17.4984 21.8133 21.1557 20.7891 22.913C20.4822 23.4399 20.2605 23.8198 20.0649 23.8974C19.0032 24.319 17.6759 25.5374 16.8622 26.454C12.3783 31.4896 11.7345 37.8148 11.1725 38.5348C8.20447 42.3485 6.5034 47.6599 6.62336 52.7431C6.69067 55.5374 6.85008 55.453 6.89485 55.9039C7.5776 62.6909 13.3579 70.3306 18.1 74.8114C28.1818 84.3358 45.0003 89.3259 46.3643 91.382C52.0223 99.9196 53.5042 100.957 53.2509 101.467C52.8436 102.293 53.7087 103.464 54.5084 103.939C54.7747 104.098 54.7789 104.196 54.8026 104.74C54.8726 106.371 55.2651 108.991 55.6105 110.731C55.7805 111.586 55.7785 111.617 55.5426 111.823C54.8715 112.41 54.6725 113.455 55.3404 114.157C55.4743 114.298 55.4581 114.318 55.2977 114.516C54.6004 115.377 54.8395 115.787 53.3595 117.545C52.7745 118.239 52.3882 118.698 52.6642 119.748C52.7668 120.137 53.3963 120.69 54.2649 120.669C55.2073 120.647 55.8071 119.735 56.2866 118.811C56.6919 123.005 56.7221 124.638 58.3856 125.078C61.707 125.956 64.0471 124.901 66.7911 123.842C72.7446 121.545 77.4487 119.735 78.2315 117.726C78.4056 117.28 78.3814 116.826 78.1597 116.38C77.6552 115.363 76.7904 114.011 76.8003 113.825C77.9762 113.377 78.2862 111.874 77.7316 111.035C75.8874 108.245 73.8592 108.954 73.8307 108.182C73.7912 107.089 72.8359 106.041 72.4414 105.936C71.3589 105.648 71.3533 105.79 71.1992 105.525C68.1754 100.31 67.365 99.8832 67.5285 99.5963C67.9252 98.9019 67.5382 97.8726 67.1365 97.3626C66.3027 96.3058 66.1268 96.5509 66.1177 96.3684C66.0858 95.6491 66.0452 93.1389 66.0238 91.7064L66.0273 91.7037ZM55.946 114.956C56.1322 116.748 56.0566 118.686 54.2926 119.713C53.1038 119.61 53.3182 118.743 54.1721 117.922C54.8632 117.26 55.2379 116.397 55.5124 115.768C55.6678 115.409 55.8062 115.091 55.946 114.956ZM63.4701 110.187C55.9763 113.121 56.6343 114.09 56.1781 113.59C56.0477 113.446 55.923 113.312 55.9086 113.109C55.8672 112.49 56.4571 112.058 56.9593 111.805C64.1586 108.176 66.4299 107.686 70.4488 106.783C70.9589 106.668 71.9054 106.457 72.4104 107.198C72.5574 107.414 72.7833 107.693 72.8459 108C70.4558 107.534 65.7587 109.29 63.4693 110.186L63.4701 110.187ZM55.7726 104.627C55.7821 104.622 55.8379 104.598 56.1273 104.653C58.4474 105.1 58.0806 103.889 58.5703 105.67C58.9977 107.22 59.1893 107.795 59.4254 108.485C59.9645 110.055 59.6195 108.982 56.6957 111.015C56.605 111.08 55.9146 104.867 55.7726 104.627ZM60.0607 104.133C63.7217 102.916 63.5342 102.472 63.696 102.812C64.5216 104.562 64.6715 105.014 65.6747 106.779C65.8961 107.168 65.7527 106.663 60.7207 108.882C60.5179 108.972 60.7058 109.33 59.303 104.617C59.2791 104.469 59.5317 104.308 60.0607 104.133ZM70.2233 105.791C70.0048 105.837 69.0104 105.932 67.1402 106.524C67.0528 106.55 66.9321 106.559 66.8226 106.587C66.6449 106.633 66.645 106.634 66.5714 106.481C66.0463 105.391 64.5997 102.378 64.5626 102.309C64.4326 102.074 65.7682 101.495 66.8778 100.637C66.9587 100.664 66.9914 100.769 69.0404 103.89C69.9153 105.223 70.2229 105.692 70.2233 105.791ZM66.7074 99.1769C66.6646 99.1601 66.6195 99.1366 66.5663 99.1095C65.9256 98.7853 64.5911 98.1099 57.7436 101.364C55.4748 102.442 55.669 103.321 55.4957 103.323C55.0514 103.33 53.7261 101.952 54.303 101.411C55.7181 100.089 62.0561 97.419 65.2967 97.1994C65.8915 97.1584 66.9228 98.1342 66.7074 99.1769ZM17.6053 41.0665C19.0224 52.0797 27.21 65.3636 33.7909 73.3919C35.5616 75.5516 42.7387 83.5034 46.0831 86.5784C46.1236 86.6163 46.1994 86.6856 46.2025 86.7069C46.1992 86.7389 45.976 86.9485 45.953 86.9704C45.7839 87.1322 45.6083 87.2986 45.4971 87.5302C44.6251 87.6226 28.2695 74.8296 22.0684 67.2544C17.8406 62.0898 15.2693 57.6908 13.7308 52.9916L13.7254 52.9775C8.78458 37.8627 17.6777 25.943 19.529 25.3751C19.3252 26.698 16.2347 30.4106 17.6053 41.0665ZM62.9348 89.5136C63.268 91.9908 63.4273 93.1207 63.6771 96.3355C63.6808 96.3868 63.5246 96.4538 63.2086 96.5381C63.1891 96.5434 61.8942 96.908 61.8741 96.908C61.8188 96.8078 61.5313 93.095 60.5541 88.7412C60.5371 88.6659 60.3305 87.779 60.3841 87.7004C60.3981 87.688 60.5 87.6819 60.5191 87.6805C61.3484 87.6185 61.9178 87.2579 62.586 86.9109C62.6128 86.9912 62.5836 86.9034 62.9348 89.5136ZM57.5067 82.1704C57.9232 82.3818 58.0992 82.1706 58.1567 82.3862C59.4308 87.1833 59.3886 87.131 59.1784 87.3321C58.4341 88.0434 57.2939 88.794 56.2668 88.8661C54.4959 89.0052 54.6224 89.2717 53.8386 87.4757C52.1974 83.7176 51.9871 83.9111 52.1813 83.6569C53.7118 81.6565 55.5037 81.1563 57.5067 82.1704ZM54.9778 89.8364C56.321 89.7216 56.9637 90.0779 59.2855 88.4849C59.3557 88.4368 59.4092 88.3853 59.4523 88.3434C59.5323 88.2657 59.515 88.1195 59.8043 89.588C60.3175 92.1838 60.6959 93.7988 61.1607 96.7248C61.2449 97.2584 61.2175 97.118 59.4639 97.7589C58.6614 98.0509 58.6739 98.1135 58.5978 97.9856C58.5285 97.8707 54.9941 89.9194 54.9769 89.8357L54.9778 89.8364ZM51.6506 91.1673C53.4048 90.8943 53.8162 90.0016 53.9507 89.9771C53.9696 89.9873 57.3166 97.2563 57.8906 98.3494C57.775 98.4534 57.788 98.445 57.465 98.5834C55.3696 99.4828 55.4638 99.6133 55.3404 99.4089C52.2372 94.2562 50.6218 91.532 50.4148 91.1064C50.5457 91.0977 50.9147 91.2775 51.6506 91.1673ZM53.3853 89.2942C52.4665 89.9635 51.2508 90.6602 49.9879 90.0931C49.6578 89.9437 49.7529 89.9592 47.8867 86.9131C47.7811 86.743 47.8667 86.8791 48.3873 85.9362C48.8794 85.0475 50.214 83.6694 51.1704 83.9339C51.2938 83.9678 51.3889 84.1877 52.5781 86.8613C53.5781 89.1097 53.6488 89.1009 53.3844 89.2936L53.3853 89.2942ZM62.3095 86.0542C61.6285 86.513 61.3186 86.5565 60.8495 86.6103C60.1253 86.6936 60.1593 86.7353 60.0144 86.0127C59.7559 84.7281 59.5497 84.125 59.1891 82.9893C58.8504 81.9306 58.8403 81.9233 58.9147 81.8779C59.9639 81.237 60.4228 81.4544 61.0851 81.861C62.1619 82.5223 62.257 85.0982 62.4197 85.7054C62.4804 85.9284 62.4757 85.9413 62.3095 86.0542ZM57.6002 81.1207C55.4583 79.9425 53.1071 80.9333 51.8599 82.5461C50.9428 81.8984 40.3021 61.7328 34.6173 45.1199C32.4297 38.7304 30.4483 28.7321 32.0629 21.5829C32.4892 19.6895 33.2128 18.0711 34.4824 16.1719C35.3196 14.917 37.2202 13.748 39.3732 13.5626C43.8153 13.1618 47.0887 17.3696 49.1643 20.5695C52.6253 25.9055 54.558 34.3603 55.7109 40.2557C59.2931 58.5719 57.8514 79.7246 57.6002 81.1207ZM45.7797 89.2865C45.7781 89.1702 45.7829 88.2979 46.9141 87.3717C47.0221 87.2831 47.1312 87.1906 47.162 87.1971C47.2313 87.2093 48.8954 90.2142 48.9154 90.2691C48.8321 90.3032 48.4195 90.3452 48.3351 90.3562C47.7536 90.432 46.5724 90.3147 46.1005 89.9553C45.8911 89.7954 45.7832 89.5707 45.7797 89.2865ZM49.5838 91.4602C51.2857 94.5612 54.1432 98.816 54.831 99.8576C54.7268 99.9666 54.7367 99.9516 53.9364 100.508C53.7554 100.634 53.7742 100.657 52.9825 99.4809C52.4969 98.7605 47.8127 92.0615 47.3391 91.325C49.5788 91.4153 49.2281 90.8108 49.583 91.4596L49.5838 91.4602ZM64.4828 84.8822C64.1037 85.3639 63.2615 85.5841 63.224 85.4024C63.1866 85.2215 63.2504 85.1649 62.9134 83.7866C62.6601 82.753 62.6845 82.8119 62.7767 82.8224C63.833 82.9537 63.7632 83.217 64.2772 83.6557C64.6152 83.9438 64.6872 84.6222 64.4828 84.8822ZM65.3351 96.2284C65.0859 96.2481 64.8962 96.2696 64.7515 96.2859C64.5572 96.3078 64.4041 96.3251 64.3778 96.3034C64.3215 96.2288 64.242 94.4735 64.2372 94.2673C64.2199 93.5202 64.2048 92.8747 63.4369 86.6172C63.3503 85.9119 63.9852 86.5607 64.9716 85.5482C65.0423 85.4909 65.5486 95.6119 65.3351 96.2284ZM64.0342 82.3995C63.9552 82.383 63.629 81.9477 62.8937 81.905C62.8611 81.9033 62.8222 81.9008 62.8002 81.8971C62.8264 81.7738 62.9241 81.9286 64.9392 74.3369C67.7816 63.6285 69.0669 57.4229 69.1485 46.9755C69.1904 41.7135 68.1696 33.5252 65.8315 27.982C62.8504 20.9124 59.7595 18.4698 55.8461 15.3773C55.1972 14.8643 54.7474 14.659 54.4293 14.425C62.9903 15.8491 69.3518 21.5186 72.6508 29.5783C74.7691 34.7536 74.9523 39.1339 74.954 39.271C74.954 39.271 74.9519 39.2867 74.9527 39.2943C76.6941 54.7066 70.4063 68.2814 66.6494 76.3924C63.9517 82.2159 64.1813 82.3019 64.0335 82.4003L64.0342 82.3995ZM76.396 115.709C75.7491 115.576 74.9433 115.408 67.8805 117.992C60.8082 120.581 58.6747 121.928 57.9741 122.371C57.8957 122.421 57.8244 122.466 57.78 122.49C57.7737 122.434 57.7742 122.363 57.7598 122.297C56.871 115.94 57.3162 118.733 56.8488 115.04C56.7728 114.45 57.0419 114.168 59.6741 112.967C59.6391 113.224 59.2919 113.92 58.9439 115.121C58.4749 116.74 59.7586 117.887 61.1017 117.512C62.0039 117.263 62.8668 115.949 62.6719 114.565C62.4122 112.704 61.7749 112.218 61.845 112.026C61.8752 111.945 61.9962 111.931 64.0472 111.095C66.0597 110.274 65.8712 110.361 65.8344 110.588C65.8114 110.72 65.8104 110.752 65.801 110.873C65.7123 111.986 65.5768 113.669 66.3343 114.563C66.8443 115.164 67.6971 115.119 68.3254 114.877C70.1402 114.177 69.7507 111.065 68.5267 109.51C68.8121 109.366 72.6231 108.432 73.1579 109.342C73.3241 109.625 76.3616 114.975 76.7277 115.757C76.6037 115.752 76.5058 115.732 76.396 115.709ZM67.405 114.112C66.6053 114.011 66.6278 112.565 66.6387 111.787C66.6627 110.108 66.6388 110.123 66.7919 110.058C67.3179 109.831 67.5788 109.764 67.8701 110.082C68.986 111.309 69.1719 114.333 67.405 114.112ZM61.7382 114.591C61.7847 115.282 61.8288 115.734 61.1506 116.408C60.5443 117.01 59.5973 116.289 59.775 115.663C60.4287 113.358 60.5536 113.418 60.6067 112.646C60.6123 112.559 60.6559 112.473 60.7419 112.464C61.1456 112.418 61.696 113.882 61.7382 114.591ZM74.2872 109.512C75.7137 109.998 76.6188 110.744 77.0503 111.791C77.089 112.264 76.7959 112.831 76.406 113.033C76.3245 113.076 76.3291 113.096 76.1721 112.792C75.9687 112.398 74.2945 109.529 74.2865 109.513L74.2872 109.512Z" fill="#090915"/>
</svg>
