<svg width="257" height="257" viewBox="0 0 257 257" fill="none" xmlns="http://www.w3.org/2000/svg">
<g clip-path="url(#clip0_145_24345)">
<path d="M133.7 75.978C133.829 76.0089 133.964 75.9973 134.086 75.9452C134.209 75.893 134.311 75.803 134.378 75.6884C134.503 75.3039 134.493 74.8882 134.351 74.5098C134.187 74.1079 133.97 73.7963 133.456 73.9546C132.709 74.1853 132.952 75.8032 133.7 75.978Z" fill="#6564E3"/>
<path d="M135.767 74.5734C136.245 75.5773 136.82 76.5318 137.484 77.4232C136.51 77.7125 136.12 77.7617 136.038 78.104C136.018 78.2166 136.036 78.3326 136.089 78.4337C136.138 78.5031 136.203 78.559 136.28 78.596C136.356 78.633 136.44 78.6499 136.525 78.6451C137.055 78.5414 137.573 78.3878 138.074 78.1866C138.18 78.1455 138.274 78.079 138.348 77.993C138.422 77.9069 138.474 77.804 138.499 77.6933C138.582 77.2997 138.28 76.9475 138.119 76.7619C137.528 75.9434 137.012 75.0407 136.43 74.1443C136.352 74.0562 136.249 73.9939 136.135 73.9658C136.058 73.9479 135.978 73.9547 135.905 73.9853C135.833 74.0159 135.771 74.0687 135.731 74.1361C135.69 74.2035 135.671 74.2822 135.678 74.3607C135.685 74.4393 135.716 74.5137 135.767 74.5734Z" fill="#6564E3"/>
<path d="M137.205 78.5489C136.686 78.6925 136.137 78.6953 135.616 78.5569C135.095 78.4186 134.621 78.1442 134.241 77.7618C134.262 77.7025 134.271 77.6391 134.265 77.5762C134.26 77.5133 134.24 77.4524 134.208 77.398C134.176 77.3436 134.132 77.2969 134.08 77.2614C134.028 77.2259 133.968 77.2025 133.906 77.1927C133.676 77.1391 133.567 77.2352 133.033 77.5211C132.962 77.5611 132.904 77.6208 132.867 77.6929C132.83 77.765 132.814 77.8465 132.822 77.9273C132.831 78.0081 132.862 78.0848 132.913 78.1479C132.964 78.2111 133.033 78.2581 133.11 78.283C132.963 80.4595 134.802 81.6738 136.339 80.8115C136.754 80.5064 136.479 79.7991 135.841 80.0376C135.613 80.17 135.345 80.2165 135.086 80.1688C134.826 80.121 134.593 79.9822 134.427 79.7773C134.175 79.4428 134.027 79.0413 134.002 78.623C135.366 79.6671 137.273 79.5387 137.596 79.1518C137.649 79.0907 137.681 79.0138 137.687 78.9328C137.693 78.8518 137.672 78.7711 137.628 78.7029C137.584 78.6347 137.519 78.5828 137.443 78.555C137.366 78.5272 137.283 78.5251 137.205 78.5489Z" fill="#6564E3"/>
<path d="M133.62 73.1738C134.322 73.2665 134.482 72.5338 134.067 72.358C133.701 72.2824 133.321 72.3176 132.975 72.4589C132.629 72.6002 132.332 72.8413 132.124 73.1515C132.085 73.2102 132.063 73.2782 132.06 73.3483C132.057 73.4184 132.072 73.4881 132.105 73.5501C132.138 73.6122 132.187 73.6643 132.247 73.701C132.306 73.7378 132.375 73.7578 132.445 73.7591C132.742 73.7594 132.712 73.4928 133.251 73.2736C133.369 73.2242 133.493 73.1907 133.62 73.1738Z" fill="#6564E3"/>
<path d="M77.899 96.7229C78.3835 96.5579 78.1418 95.717 77.6411 95.8859C75.2363 96.7065 59.1321 102.142 53.5186 104.162C53.4122 104.21 53.3279 104.297 53.2827 104.405C53.2374 104.513 53.2345 104.634 53.2744 104.744C53.3144 104.854 53.3943 104.945 53.4982 104.998C53.6022 105.052 53.7225 105.065 53.8353 105.033C61.8614 102.45 69.8551 99.509 77.899 96.7229Z" fill="#6564E3"/>
<path d="M75.002 73.2971C75.0546 73.3124 75.1099 73.3157 75.1639 73.3066C75.2178 73.2974 75.269 73.2762 75.3136 73.2444C75.3581 73.2126 75.3949 73.1711 75.4211 73.1231C75.4473 73.075 75.4622 73.0217 75.4648 72.967C75.4837 72.9191 75.4924 72.8677 75.4905 72.8163C75.4886 72.7648 75.4761 72.7143 75.4537 72.6679C75.4313 72.6215 75.3995 72.5802 75.3604 72.5467C75.3213 72.5132 75.2757 72.4881 75.2264 72.4731C66.5542 69.9355 57.7037 68.0527 48.7496 66.8406C48.6523 66.8321 48.5552 66.8583 48.4755 66.9146C48.3957 66.9708 48.3385 67.0535 48.3139 67.148C48.2894 67.2424 48.299 67.3425 48.3413 67.4305C48.3835 67.5185 48.4555 67.5887 48.5446 67.6286C48.5446 67.6286 74.1279 73.0807 75.002 73.2971Z" fill="#6564E3"/>
<path d="M85.9931 38.3555C86.0341 38.4107 86.0866 38.4563 86.147 38.489C86.2074 38.5217 86.2742 38.5408 86.3428 38.5449C86.4114 38.5491 86.48 38.5381 86.5439 38.5129C86.6078 38.4876 86.6654 38.4487 86.7127 38.3988C86.7614 38.3262 86.7897 38.2418 86.7946 38.1545C86.7996 38.0673 86.7811 37.9802 86.741 37.9026C84.0428 33.3269 81.0448 28.6274 77.5843 23.5537C77.5518 23.5058 77.5087 23.4662 77.4583 23.4378C77.4079 23.4095 77.3516 23.3933 77.2939 23.3904C77.2361 23.3875 77.1785 23.3981 77.1255 23.4213C77.0726 23.4445 77.0257 23.4796 76.9887 23.524C76.5527 24.0488 76.5018 22.9775 85.9931 38.3555Z" fill="#6564E3"/>
<path d="M105.086 27.4366C106.863 34.2587 106.809 34.2911 107.155 34.3719L107.249 34.394C107.316 34.409 107.385 34.4057 107.449 34.3845C107.513 34.3634 107.571 34.3251 107.615 34.2738C107.66 34.2226 107.689 34.1602 107.701 34.0934C107.713 34.0267 107.706 33.9579 107.682 33.8946C107.419 32.6085 107.048 31.3221 106.691 30.0762C106.574 29.672 105.213 24.7142 104.961 23.815C104.941 23.7415 104.9 23.6755 104.843 23.6255C104.786 23.5754 104.715 23.5436 104.64 23.534C104.577 23.5198 104.512 23.5218 104.451 23.5399C104.389 23.558 104.333 23.5915 104.289 23.6373C104.244 23.6832 104.211 23.7397 104.195 23.8015C104.178 23.8634 104.178 23.9285 104.193 23.9906C104.484 25.1366 104.787 26.2876 105.086 27.4366Z" fill="#6564E3"/>
<path d="M154.648 47.1129C155.249 47.0266 154.372 47.3113 162.09 32.146C162.122 32.0742 162.133 31.9951 162.123 31.9172C162.113 31.8394 162.081 31.7659 162.032 31.7049C161.982 31.6438 161.917 31.5976 161.843 31.5713C161.769 31.5449 161.689 31.5395 161.612 31.5556C161.487 31.5847 161.378 31.662 161.309 31.7707C158.696 36.5863 156.338 41.5364 154.246 46.6003C154.22 46.6616 154.211 46.7287 154.219 46.7947C154.228 46.8607 154.254 46.9231 154.296 46.9755C154.337 47.0278 154.391 47.0682 154.453 47.0924C154.515 47.1165 154.583 47.1236 154.648 47.1129Z" fill="#6564E3"/>
<path d="M188.967 68.2294C190.464 66.993 192.114 65.9537 193.876 65.1368C193.876 65.1368 208.092 57.5454 210.841 56.0449C211.309 55.8004 211.09 55.0262 210.402 55.2335C207.877 56.5509 193.216 64.4732 193.216 64.4732C191.48 65.2861 189.864 66.3318 188.41 67.5812C188.329 67.6673 188.283 67.7809 188.282 67.8993C188.281 68.0177 188.325 68.1321 188.405 68.2197C188.486 68.28 188.583 68.3134 188.684 68.3151C188.785 68.3169 188.884 68.2869 188.967 68.2294Z" fill="#6564E3"/>
<path d="M196.834 87.321C196.685 87.3398 196.595 87.4698 196.514 87.6263C196.483 87.687 196.469 87.7552 196.473 87.8234C196.478 87.8916 196.501 87.9572 196.541 88.0131C196.58 88.069 196.634 88.113 196.697 88.1403C196.759 88.1676 196.828 88.1772 196.896 88.168C204.999 87.0698 206.35 87.1796 209.985 86.8109C210.099 86.7837 210.2 86.719 210.272 86.6271C210.319 86.564 210.347 86.4895 210.353 86.4115C210.36 86.3336 210.345 86.2553 210.311 86.1853C210.276 86.1152 210.223 86.056 210.156 86.0142C210.09 85.9724 210.014 85.9495 209.936 85.9481C206.81 86.0666 199.905 86.92 196.834 87.321Z" fill="#6564E3"/>
<path d="M221.448 130.57C221.229 130.419 189.379 121.709 187.003 121.206C186.939 121.192 186.873 121.196 186.811 121.216C186.749 121.236 186.693 121.273 186.649 121.321C186.606 121.37 186.575 121.429 186.562 121.493C186.548 121.557 186.551 121.623 186.571 121.685C186.584 121.758 186.617 121.825 186.666 121.88C186.715 121.934 186.779 121.974 186.85 121.994C189.892 122.814 219.659 131.045 221.088 131.379C221.189 131.401 221.295 131.387 221.388 131.34C221.48 131.293 221.554 131.215 221.596 131.121C221.638 131.026 221.646 130.919 221.62 130.819C221.593 130.719 221.532 130.631 221.448 130.57Z" fill="#6564E3"/>
<path d="M204.466 149.235C204.403 149.11 204.839 149.475 197.175 143.507C197.846 142.77 198.533 142.044 199.234 141.329C199.296 141.235 199.324 141.123 199.316 141.011C199.308 140.899 199.262 140.793 199.187 140.709C199.112 140.625 199.012 140.568 198.901 140.548C198.791 140.527 198.676 140.544 198.576 140.595L194.597 141.614C188.767 137.027 183.365 132.992 178.111 129.294C175.968 127.79 170.272 123.847 170.254 123.829L170.242 123.842C169.889 123.644 169.833 123.717 169.706 123.897C169.476 124.223 169.499 124.221 170.809 125.149C162.492 134.89 155.015 142.57 145.603 154.131C144.552 154.351 143.604 154.918 142.913 155.74C141.892 157.216 143.512 157.605 143.621 124.587C143.662 112.013 143.72 112.733 143.606 112.584C143.556 112.518 143.489 112.468 143.413 112.437C143.336 112.407 143.253 112.398 143.172 112.411C143.172 112.411 137.951 112.154 136.041 112.106C136.171 110.845 136.61 109.636 137.318 108.585C137.374 108.668 137.456 108.729 137.551 108.76C137.646 108.791 137.749 108.788 137.842 108.753C139.797 108.185 141.67 107.366 143.414 106.314C144.312 105.844 145.126 105.228 145.821 104.49C146.234 103.731 146.331 102.84 146.09 102.01C145.858 99.863 145.477 97.7349 144.949 95.6409C157.518 91.282 169.183 84.6613 179.369 76.1055C179.647 76.2078 181.423 76.8616 181.552 76.8917C182.454 77.1027 183.032 76.325 182.618 75.6609C183.007 75.7387 183.626 75.7957 183.874 75.2565C183.937 75.1052 183.952 74.9383 183.916 74.7783C183.881 74.6183 183.797 74.4731 183.676 74.3624C183.746 74.294 183.801 74.2124 183.839 74.1223C183.877 74.0323 183.896 73.9356 183.895 73.838C183.895 73.7403 183.875 73.6438 183.837 73.554C183.799 73.4642 183.743 73.383 183.672 73.3152C183.091 72.743 182.336 72.38 181.525 72.2832C181.639 72.2153 181.735 72.1203 181.803 72.0066C181.872 71.893 181.911 71.7641 181.918 71.6316C181.925 71.499 181.898 71.3669 181.842 71.2469C181.785 71.1269 181.7 71.0228 181.593 70.9438C181.301 70.7697 180.953 70.7174 180.622 70.798C179.497 70.8707 178.43 71.3237 177.596 72.0825C177.15 72.0692 167.697 74.0064 161.409 75.7164C155.196 77.4107 141.106 82.0135 135.62 83.9008C135.592 83.7299 135.561 83.5265 135.55 83.3804C135.794 83.3658 136.038 83.3371 136.279 83.2944C138.671 82.5584 139.987 79.9683 140.059 77.6155C140.066 77.4386 140.054 77.2636 140.057 77.0869C140.788 76.4696 141.433 75.7576 141.976 74.9696C142.124 74.5416 142.187 74.0883 142.159 73.6361C142.131 73.1839 142.014 72.7417 141.814 72.3352C141.677 72.0354 141.64 71.6996 141.709 71.3773C141.93 70.7575 143.14 70.4092 142.719 68.9314C142.58 68.4244 142.345 67.9484 142.029 67.5289C141.005 65.7854 139.591 64.3034 137.897 63.1998C136.319 62.1826 134.438 61.743 132.573 61.9556C131.718 62.1895 130.878 62.4759 130.059 62.813C129.276 63.0064 128.476 63.1175 127.671 63.1445C126.717 63.2982 125.819 63.6945 125.063 64.2954C124.307 64.8963 123.718 65.6816 123.353 66.5758C122.563 68.4058 122.961 70.4282 122.294 72.2444C121.768 73.6749 119.92 74.2476 118.181 74.619C117.616 74.6932 117.06 74.8198 116.518 74.9973C103.961 67.2422 92.3242 60.6946 84.9844 56.8769C84.8916 56.8087 84.7759 56.7793 84.6618 56.7949C84.4456 56.0264 84.0929 55.3031 83.6205 54.6595C83.5137 54.5433 83.3794 54.4557 83.23 54.4047C83.0806 54.3537 82.9208 54.341 82.7652 54.3676C82.2427 54.4986 82.1969 55.1211 82.2214 55.6582C81.521 55.1386 80.6816 54.8394 79.8104 54.7989C79.6933 54.7926 79.5765 54.8162 79.471 54.8675C79.3655 54.9188 79.2748 54.9961 79.2075 55.0922C79.1401 55.1882 79.0983 55.2998 79.0859 55.4164C79.0736 55.5331 79.0911 55.651 79.1369 55.759C78.9651 55.7608 78.7982 55.8161 78.6593 55.9173C78.5205 56.0184 78.4166 56.1604 78.3623 56.3233C78.3079 56.4863 78.3057 56.6622 78.356 56.8264C78.4063 56.9907 78.5066 57.1352 78.6429 57.2397C78.4582 57.3373 78.3167 57.5006 78.2466 57.6974C78.1764 57.8943 78.1827 58.1102 78.2641 58.3026C78.6492 59.2756 79.595 58.8569 81.8302 60.8572C81.807 60.9142 81.7741 60.9613 81.7509 61.0183C81.4795 62.1797 82.3172 63.0394 82.9893 63.7311C89.9534 70.9 96.4532 77.4915 107.99 87.8161C106.342 89.9432 104.586 92.0197 102.754 93.9863C102.688 94.0648 102.648 94.1622 102.64 94.2645C102.632 94.3669 102.657 94.4691 102.711 94.5568C105.273 97.881 108.233 100.879 111.524 103.484C112.035 104.029 112.661 104.454 113.356 104.728C113.645 104.802 113.952 104.767 114.217 104.631C114.349 104.534 114.466 104.423 114.589 104.317C114.617 104.337 114.646 104.353 114.673 104.373C114.13 107.273 112.045 109.22 109.957 111.341C99.5477 111.174 88.999 111.145 78.533 111.262C78.4144 111.285 78.3083 111.351 78.2343 111.446C78.1604 111.542 78.1237 111.661 78.1311 111.782C79.0802 119.337 79.7763 126.939 80.5572 134.684C80.463 134.618 57.9117 119.033 53.6218 116.744C53.1831 116.001 51.9013 116.849 52.7444 117.273C58.3419 130.909 63.6112 148.493 70.7538 171.001C66.9835 169.309 62.817 168.699 58.72 169.239C55.4773 169.693 51.577 171.569 51.2626 175.366C50.9458 179.126 54.4752 181.988 57.1457 183.987C60.9327 186.756 64.4406 189.887 67.6197 193.337C70.685 196.823 72.6747 201.123 73.3484 205.717C73.2518 205.747 73.1688 205.81 73.1139 205.895C72.103 207.567 69.6005 212.819 68.6508 214.801C68.1245 215.754 67.678 216.749 67.3158 217.776C67.2918 217.883 67.3077 217.995 67.3603 218.091C67.4129 218.187 67.4988 218.261 67.6018 218.298C67.7048 218.336 67.818 218.334 67.9201 218.295C68.0223 218.255 68.1064 218.179 68.1568 218.082C68.7033 217.126 69.1818 216.133 69.5887 215.11C70.0497 214.131 73.1682 207.791 73.5797 206.94C88.397 217.136 105.777 222.144 123.902 222.479C124.964 222.63 126.045 222.578 127.087 222.324C127.164 223.066 128.286 232.31 128.286 232.31C128.301 232.438 128.366 232.555 128.467 232.635C128.568 232.715 128.696 232.751 128.824 232.737C128.952 232.722 129.069 232.657 129.149 232.556C129.229 232.455 129.266 232.327 129.251 232.199C129.251 232.199 128.089 222.911 127.896 221.772C128.336 221.355 128.652 220.825 128.811 220.24C130.098 217.23 132 214.523 134.394 212.29C136.787 210.057 139.621 208.349 142.713 207.275C150.45 204.577 155.473 204.602 163.554 203.76C165.798 203.622 168.028 203.31 170.224 202.828C173.665 202.04 177.308 199.612 176.351 195.755C175.419 191.999 170.752 189.503 166.818 188.78C166.173 188.667 165.522 188.594 164.868 188.561C178.678 176.25 190.217 162.823 204.333 149.81C204.419 149.744 204.479 149.651 204.504 149.546C204.528 149.441 204.514 149.331 204.466 149.235ZM171.545 125.81C171.649 125.834 179.994 131.657 184.166 134.751C186.15 136.223 192.437 141.013 193.575 141.872L147.166 153.746C153.856 145.632 171.455 125.898 171.545 125.81ZM142.085 158.986C142.155 158.947 142.216 158.894 142.264 158.829C142.312 158.765 142.345 158.691 142.362 158.613C142.372 158.57 142.37 158.523 142.375 158.48C143.37 156.75 143.87 155.524 145.744 155.075C147.773 154.59 197.171 141.918 197.289 141.888C193.679 145.859 190.359 150.085 187.353 154.531C186.537 155.681 162.386 189.088 161.2 190.494C159.991 191.772 158.025 192.065 156.317 192.544C141.415 196.74 126.886 200.634 112.399 205.532C123.139 190.324 132.687 175.056 142.087 158.988L142.085 158.986ZM124.858 110.638C124.88 110.921 124.962 111.196 125.1 111.443C125.238 111.691 125.428 111.906 125.657 112.074C124.177 111.872 122.722 111.517 121.315 111.016C120.025 110.417 118.766 109.753 117.542 109.028L118.606 106.668C120.789 107.741 123.077 108.582 125.434 109.18C125.088 109.59 124.886 110.102 124.858 110.638ZM128.94 111.226C129.194 111.257 129.449 111.274 129.704 111.279C129.423 111.504 129.094 111.663 128.743 111.743C128.391 111.823 128.026 111.822 127.675 111.74C127.148 111.683 126.166 111.577 125.893 111.03C125.788 110.737 125.784 110.417 125.881 110.122C125.978 109.826 126.17 109.571 126.429 109.397C127.427 109.609 128.442 109.741 129.462 109.792C129.477 109.796 129.488 109.82 129.503 109.825C129.7 109.896 129.863 110.04 129.957 110.227L129.093 110.174C128.96 110.166 128.828 110.208 128.724 110.292C128.62 110.377 128.552 110.497 128.532 110.629C128.513 110.762 128.544 110.896 128.619 111.007C128.695 111.117 128.809 111.196 128.939 111.226L128.94 111.226ZM120.204 130.833C120.36 130.532 120.81 129.801 121.143 129.709C123.775 124.239 125.852 119.557 126.194 113.668C126.202 113.527 126.266 113.395 126.372 113.3C126.477 113.206 126.616 113.158 126.758 113.166C126.899 113.174 127.031 113.238 127.125 113.344C127.22 113.45 127.268 113.589 127.26 113.73C127.061 116.247 126.601 118.737 125.887 121.159C126.266 121.034 126.611 120.826 126.898 120.549C127.185 120.273 127.407 119.935 127.546 119.562C128.105 117.722 128.436 115.82 128.53 113.9C128.532 113.829 128.549 113.759 128.578 113.695C128.608 113.63 128.65 113.572 128.702 113.524C128.754 113.476 128.816 113.439 128.882 113.415C128.949 113.391 129.02 113.38 129.091 113.384C129.162 113.388 129.231 113.405 129.295 113.436C129.359 113.467 129.416 113.51 129.463 113.563C129.51 113.617 129.546 113.679 129.569 113.746C129.591 113.813 129.6 113.884 129.595 113.955C129.499 115.991 129.144 118.006 128.538 119.952C128.298 120.591 127.886 121.152 127.349 121.573C126.812 121.995 126.169 122.26 125.491 122.341C124.684 124.569 123.326 127.57 122.234 129.885C122.261 129.899 122.287 129.915 122.313 129.932C122.711 130.21 122.455 131.551 122.449 132.025C122.301 141.48 123.059 144.547 126.148 166.874C124.186 167.073 125.88 167.023 114.243 168.591C112.079 168.883 104.431 169.744 102.777 169.944C102.454 168.381 100.805 160.39 100.289 157.933C102.392 155.404 109.825 145.392 110.867 143.929C114.53 138.787 109.722 145.716 120.204 130.833ZM130.796 109.816C131.581 109.796 132.363 109.728 133.139 109.611L132.673 112.117C131.72 112.223 130.775 112.305 129.85 112.326C130.304 112.114 130.657 111.733 130.834 111.264C131.011 110.795 130.997 110.275 130.796 109.816ZM126.262 167.715C126.839 171.87 127.434 176.026 128.085 180.172C128.082 180.42 120.922 191.526 111.246 205.751C108.061 195.107 105.362 182.382 102.934 170.702C109.229 170.133 124.281 168.117 126.262 167.715ZM142.314 113.22C142.447 113.21 142.579 113.207 142.712 113.211C142.749 113.491 142.762 113.773 142.753 114.055C142.608 130.918 142.878 144.558 141.465 158.004C141.229 158.401 141.02 158.808 140.799 159.211C141.351 156.372 141.648 153.489 141.686 150.597C142.133 135.912 140.476 126.891 137.529 118.561C136.709 116.775 136.196 114.864 136.011 112.908C136.412 112.933 141.918 113.244 142.314 113.22ZM135.522 117.571C135.618 117.55 135.717 117.55 135.813 117.571C135.909 117.592 135.999 117.633 136.077 117.693C136.164 117.766 136.225 117.866 136.252 117.977C136.278 118.088 136.268 118.204 136.223 118.309C136.178 118.414 136.101 118.501 136.003 118.559C135.905 118.617 135.791 118.642 135.678 118.63C132.591 118.882 131.42 116.851 131.548 113.836C131.554 113.695 131.616 113.562 131.721 113.466C131.825 113.37 131.963 113.32 132.104 113.326C132.246 113.332 132.379 113.395 132.474 113.499C132.57 113.603 132.62 113.741 132.614 113.883C132.515 116.216 133.195 117.773 135.522 117.571ZM135.158 111.739C134.65 111.84 134.146 111.929 133.646 112.002C133.778 111.704 133.737 111.867 134.004 109.471C134.672 109.341 135.333 109.174 135.983 108.973C135.539 109.836 135.259 110.774 135.158 111.739ZM145.013 101.094C145.213 101.889 145.284 102.71 145.224 103.527C145.07 104.186 144.086 104.711 143.499 105.109C141.88 106.199 140.116 107.057 138.26 107.659C138.267 107.551 138.431 103.496 138.434 103.384C138.494 103.289 142.063 93.3864 142.184 90.1906C143.563 93.6977 144.513 97.3588 145.013 101.094ZM180.641 71.8431C179.65 72.3006 179.652 72.1653 179.522 72.3484C179.469 72.4312 179.44 72.5276 179.441 72.6261C179.441 72.7245 179.47 72.8207 179.523 72.9032C179.569 72.964 179.628 73.0137 179.696 73.0486C179.764 73.0834 179.839 73.1024 179.915 73.1042C180.45 73.0886 180.983 73.1658 181.492 73.3325C181.274 73.3112 181.054 73.3087 180.836 73.325C180.716 73.3293 180.601 73.3782 180.515 73.4622C180.429 73.5462 180.377 73.6592 180.369 73.7794C180.362 73.8996 180.399 74.0183 180.474 74.1124C180.549 74.2066 180.656 74.2696 180.775 74.289C181.25 74.3326 181.716 74.4416 182.161 74.6129C182.36 74.665 182.225 74.6378 180.796 74.3596C180.029 73.9877 179.625 75.0052 180.261 75.2394C180.596 75.3848 180.92 75.5549 181.229 75.7482C180.958 75.651 179.773 75.2107 179.44 75.0944C179.128 74.2602 178.731 73.4604 178.256 72.7077C178.96 72.2158 179.783 71.92 180.639 71.8504L180.641 71.8431ZM170.628 74.4209C170.743 74.3953 177.286 73.0036 177.381 73.0686C177.854 73.8812 178.243 74.7393 178.543 75.6299C178.356 75.7826 178.161 75.9252 177.958 76.0574C168.055 84.1903 156.79 90.5069 144.686 94.7149C144.22 92.984 143.654 91.2813 142.993 89.615C142.963 89.538 142.913 89.4701 142.849 89.4181C142.784 89.366 142.708 89.3316 142.626 89.3181C142.544 89.3047 142.461 89.3127 142.383 89.3413C142.305 89.37 142.236 89.4183 142.183 89.4816C142.213 88.3285 141.944 87.1873 141.402 86.169C140.86 85.1507 140.064 84.2898 139.091 83.6701C149.33 80.2807 159.919 76.7791 170.628 74.4209ZM137.919 84.0589C141.523 85.2507 141.562 89.7307 141.013 92.1967C140.627 93.8484 140.276 94.8028 138.474 100.441C138.532 96.2018 138.297 91.9635 137.77 87.7567C137.746 86.5832 137.435 85.4333 136.865 84.4074L137.919 84.0589ZM135.229 84.8994C135.475 84.8845 135.441 84.8778 136.017 84.688C136.689 86.0003 137.036 87.4552 137.028 88.9298C137.135 90.2564 137.38 92.2987 137.52 95.9763C137.665 99.821 137.59 103.671 137.295 107.507C133.843 108.932 130.04 109.282 126.385 108.509C119.665 107.103 115.694 103.757 115.182 103.752C116.758 102.162 118.218 100.46 119.549 98.6597C122.964 94.061 125.525 88.8862 127.109 83.382C127.155 83.3236 127.307 83.1171 127.339 83.0718C133.888 87.418 127.545 83.2001 131.773 86.0188C131.813 86.0478 131.86 86.0683 131.908 86.0792C131.957 86.0901 132.008 86.091 132.057 86.082C132.106 86.073 132.153 86.0542 132.195 86.0267C132.236 85.9993 132.272 85.9637 132.3 85.9221C132.328 85.8806 132.347 85.8338 132.356 85.7847C132.366 85.7356 132.365 85.6851 132.355 85.6362C132.344 85.5874 132.324 85.5411 132.295 85.5002C132.266 85.4593 132.23 85.4245 132.187 85.3981C128.396 82.8687 128.949 83.2577 128.77 83.0601C128.782 82.9447 128.786 82.8287 128.783 82.7127C128.791 82.6805 128.781 82.6529 128.784 82.6218C129.708 83.482 130.812 84.1268 132.015 84.5098C132.689 84.8197 133.396 85.0536 134.123 85.2073C134.318 85.2466 134.519 85.239 134.71 85.1853C134.901 85.1315 135.077 85.033 135.223 84.898L135.229 84.8994ZM116.756 108.554C116.065 108.142 115.411 107.672 114.801 107.148C115.171 106.46 115.41 105.708 115.504 104.932C116.224 105.39 116.965 105.815 117.725 106.212C116.855 108.06 116.805 108.086 116.756 108.554ZM125.971 75.1776C126.652 73.954 128.485 75.5152 128.349 76.5583C128.275 76.8437 128.269 77.1425 128.332 77.4306C128.448 77.7186 128.613 77.699 128.886 78.2395C129.101 78.6622 129.486 79.4238 129.748 79.0292C130.046 78.4431 130.142 77.7753 130.022 77.129C130.159 76.6524 130.452 76.2358 130.854 75.9463C131.922 74.9414 131.466 73.2232 132.53 72.2788C133.668 71.3727 134.321 71.8636 135.744 71.081C135.984 70.9459 136.183 70.7479 136.319 70.5082C136.455 70.2686 136.522 69.9963 136.515 69.7209C137.214 70.3544 137.82 71.0825 138.317 71.8839C138.344 71.9603 138.37 72.0376 138.394 72.1146L138.381 72.1114C138.055 72.0824 137.731 72.1806 137.477 72.3854C137.141 72.6553 137.49 73.265 137.854 73.1124C137.986 73.0372 138.135 72.9966 138.287 72.9945C138.419 72.9957 138.549 73.0316 138.663 73.0987L138.674 73.1013C138.743 73.3826 138.809 73.6652 138.86 73.9511C138.81 73.8505 138.734 73.7644 138.641 73.7012C138.548 73.638 138.44 73.5997 138.327 73.5899C138.215 73.5801 138.102 73.5992 138 73.6454C137.897 73.6916 137.808 73.7633 137.74 73.8537C137.617 74.0997 137.567 74.3763 137.597 74.6499C137.628 74.9235 137.738 75.1824 137.913 75.3949C137.985 75.4993 138.088 75.5784 138.208 75.6211C138.327 75.6638 138.457 75.668 138.579 75.6331C138.702 75.5982 138.81 75.5259 138.889 75.4265C138.968 75.327 139.013 75.2053 139.02 75.0785C139.235 77.2431 139.006 79.8553 137.551 81.3951C137.229 81.743 136.837 82.0176 136.4 82.2005C135.963 82.3834 135.491 82.4703 135.018 82.4552C134.95 82.457 134.882 82.4726 134.82 82.501C134.758 82.5295 134.702 82.5703 134.656 82.6209C134.609 82.6715 134.574 82.731 134.551 82.7956C134.529 82.8603 134.52 82.9289 134.524 82.9972C134.584 83.5961 134.634 83.9333 134.666 84.2671C134.439 84.3917 133.836 84.1927 133.504 84.0821C131.774 83.6442 130.177 82.7881 128.855 81.589C128.723 81.4684 128.766 81.6931 128.739 81.0218C128.753 80.5156 128.725 80.0092 128.655 79.5077C128.627 79.3741 128.576 78.6677 128.041 78.8516C127.617 78.8159 127.215 78.6477 126.892 78.3709C126.569 78.094 126.341 77.7226 126.241 77.3091C126.04 76.9965 125.911 76.6428 125.864 76.274C125.818 75.9051 125.854 75.5305 125.971 75.1776ZM125.51 85.2868C124.015 89.614 121.896 93.6995 119.22 97.4139C120.561 92.3459 120.799 89.953 121.311 87.9329C122.994 87.611 124.493 86.666 125.51 85.2868ZM82.2685 59.9758C81.6112 59.4042 80.8786 58.9255 80.091 58.5532C79.7972 58.4253 79.5163 58.2698 79.2519 58.0887C79.722 58.1611 80.1749 58.3189 80.5881 58.5544C80.6686 58.5919 80.7579 58.6061 80.846 58.5953C80.9341 58.5846 81.0174 58.5493 81.0864 58.4934C81.1554 58.4376 81.2074 58.3635 81.2363 58.2796C81.2653 58.1957 81.27 58.1054 81.2501 58.0189C81.2566 57.9478 81.2424 57.8764 81.2094 57.8131C81.1764 57.7499 81.126 57.6974 81.064 57.662C80.8565 57.5428 80.6406 57.4389 80.418 57.3511L79.4676 56.7675C79.7039 56.7898 79.9323 56.8641 80.1365 56.9851C80.4976 57.1455 80.8471 57.3308 81.1825 57.5396C81.7416 57.8894 82.1169 56.9539 81.6943 56.6809C81.3443 56.4879 81.0279 56.2393 80.7576 55.9449C81.4113 56.1792 81.9863 56.5922 82.4171 57.1369C82.4639 57.2424 82.5482 57.3269 82.6536 57.374C82.7591 57.421 82.8782 57.4274 82.9881 57.3918C83.098 57.3563 83.1908 57.2813 83.2486 57.1813C83.3064 57.0813 83.3252 56.9635 83.3013 56.8505C83.2271 56.4178 83.1847 55.9802 83.1745 55.5413C83.5025 56.1969 83.7489 56.8902 83.9081 57.6059L82.9455 59.0242C82.6932 59.3216 82.4667 59.6399 82.2685 59.9758ZM115.05 102.469C114.701 102.837 113.986 103.8 113.566 103.794C113.108 103.788 112.038 102.755 111.574 102.385C108.799 100.152 106.285 97.6119 104.08 94.8144C103.758 94.4653 103.704 94.3409 103.677 94.3794C105.469 92.5098 107.14 90.5276 108.679 88.4449C108.749 88.5062 108.817 88.5714 108.888 88.6319C108.983 88.7118 109.106 88.751 109.23 88.7409C109.354 88.7309 109.468 88.6724 109.549 88.5782C109.629 88.487 109.67 88.3679 109.662 88.2469C109.654 88.1259 109.598 88.013 109.507 87.933C99.6016 79.2221 92.7635 72.5592 83.5847 63.1242C82.7559 62.2732 82.3234 61.7284 82.8586 60.8729C83.4498 59.8343 84.1299 58.8489 84.8912 57.9276C84.9909 57.9696 95.2724 63.6197 96.4175 64.2653C104.883 68.9628 110.123 72.188 115.389 75.4357C114.888 75.5862 114.429 75.8519 114.048 76.2116C113.668 76.5712 113.377 77.0148 113.198 77.507C112.849 78.7477 113.747 80.4716 112.631 81.3403C111.87 81.947 110.616 81.5266 109.691 81.9678C109.385 82.171 109.131 82.4431 108.949 82.7623C108.767 83.0816 108.663 83.439 108.644 83.8059C108.626 84.1728 108.694 84.5389 108.843 84.8748C108.992 85.2106 109.218 85.5068 109.502 85.7395C109.513 85.7538 109.529 85.7632 109.547 85.7655C109.566 85.7677 109.584 85.7627 109.598 85.7516C109.612 85.7404 109.622 85.724 109.624 85.7059C109.626 85.6879 109.621 85.6696 109.61 85.6553C109.33 85.133 109.889 84.4617 110.481 84.3972C111.107 84.4107 111.713 84.6245 112.209 85.0071C114.063 86.2667 116.108 87.2192 118.266 87.8282C118.95 88.0112 119.659 88.0841 120.366 88.044C119.601 91.2539 119.281 94.4733 117.785 99.3004C116.882 100.436 115.962 101.508 115.05 102.469ZM110.716 112.618C111.829 113.07 113.063 113.136 114.218 112.804C115.373 112.473 116.384 111.763 117.088 110.789C117.176 110.682 117.302 110.613 117.439 110.597C117.576 110.581 117.715 110.619 117.824 110.704C117.934 110.788 118.007 110.911 118.028 111.048C118.048 111.185 118.015 111.324 117.934 111.437C117.092 112.582 115.895 113.418 114.53 113.815C113.164 114.211 111.706 114.147 110.381 113.631C110.314 113.609 110.252 113.574 110.199 113.528C110.146 113.482 110.102 113.426 110.07 113.363C110.039 113.3 110.02 113.232 110.015 113.161C110.009 113.091 110.018 113.021 110.04 112.954C110.062 112.887 110.097 112.825 110.143 112.772C110.189 112.719 110.245 112.675 110.308 112.644C110.371 112.612 110.439 112.593 110.509 112.588C110.58 112.583 110.65 112.592 110.717 112.614L110.716 112.618ZM79.3155 113.962C79.1022 112.244 79.0413 112.322 79.0699 112.199C79.6541 112.109 107.875 112.255 109.092 112.273C101.32 120.638 96.4571 132.382 92.5177 143.116C92.0004 142.746 84.6637 137.565 81.4596 135.328C81.0211 128.344 80.2541 121.515 79.3155 113.962ZM54.1043 117.914C54.4858 118.157 95.4602 146.332 96.7724 147.454C97.8564 149.022 104.028 184.487 109.797 204.509C108.786 203.555 107.712 202.669 106.582 201.858C104.02 199.786 74.7943 177.395 73.7545 176.5C73.2176 175.97 61.3025 136.021 54.1043 117.914ZM170.329 190.881C172.198 191.688 173.79 193.025 174.908 194.726C175.389 195.498 175.591 196.412 175.481 197.315C175.371 198.218 174.956 199.056 174.303 199.69C172.9 200.854 171.207 201.617 169.406 201.897C159.088 203.609 152.751 202.788 142.94 206.042C139.633 207.162 136.592 208.951 134.006 211.297C131.419 213.642 129.343 216.495 127.905 219.677C127.761 220.07 127.58 220.449 127.363 220.808C127.183 221.029 126.949 221.199 126.683 221.304C126.418 221.408 126.13 221.443 125.847 221.404C117.74 221.385 109.662 220.422 101.778 218.535C91.9585 216.106 82.6548 211.936 74.3085 206.222L74.3116 206.208L74.3109 206.178C73.8952 197.175 66.8778 190.398 61.6371 186.084C57.3181 182.532 55.0096 181.37 53.0632 178.316C52.6191 177.612 52.3675 176.804 52.3335 175.972C52.2995 175.141 52.4843 174.315 52.8694 173.577C53.8914 172.084 55.4376 171.031 57.2006 170.626C61.3127 169.396 66.5083 170.069 71.1822 172.36C71.4754 173.285 71.7697 174.215 72.0721 175.115C72.2285 175.752 72.4602 176.367 72.7623 176.948C73.0174 177.253 73.3146 177.521 73.645 177.742C106.878 203.326 106.653 203.028 109.915 206.039C110.594 206.666 110.73 207.164 111.796 206.797C113.624 206.168 120.526 203.485 152.141 194.736C157.639 193.216 157.15 193.398 158.633 192.929C158.563 193.004 158.488 193.074 158.408 193.139C158.05 193.526 158.327 194.036 158.876 193.686L158.889 193.698C159.723 193.064 160.521 192.384 161.28 191.662C161.326 191.648 161.369 191.625 161.406 191.594C161.463 191.544 163.198 190.041 163.933 189.396C166.142 189.463 168.316 189.968 170.329 190.881ZM202.224 150.507C188.334 163.58 177.624 175.708 164.651 187.521C194.143 146.812 193.406 147.761 196.547 144.223C203.966 149.982 203.255 149.376 203.337 149.497C203.005 149.874 202.632 150.213 202.225 150.509L202.224 150.507Z" fill="#090915"/>
</g>
<defs>
<clipPath id="clip0_145_24345">
<rect width="213.362" height="213.362" fill="white" transform="translate(48.5566) rotate(13.1544)"/>
</clipPath>
</defs>
</svg>
