<svg width="228" height="202" viewBox="0 0 228 202" fill="none" xmlns="http://www.w3.org/2000/svg">
<path fill-rule="evenodd" clip-rule="evenodd" d="M91.3012 186.408C91.4619 187.256 92.683 187.681 93.6126 186.705C93.6292 186.699 93.6441 186.689 93.6562 186.676C93.6684 186.663 93.6775 186.648 93.6828 186.631C93.6882 186.614 93.6896 186.597 93.6871 186.579C93.6845 186.562 93.678 186.545 93.6681 186.531C93.6581 186.516 93.645 186.504 93.6297 186.495C93.6144 186.486 93.5973 186.481 93.5797 186.48C93.5621 186.479 93.5445 186.482 93.5282 186.489C93.5119 186.495 93.4974 186.506 93.4857 186.519L92.9161 186.627C92.6015 186.723 92.2629 186.703 91.9615 186.572C91.7967 186.506 91.6427 186.416 91.5044 186.304C91.4994 186.288 91.491 186.273 91.4796 186.261C91.4683 186.248 91.4543 186.238 91.4387 186.231C91.4231 186.225 91.4062 186.222 91.3893 186.222C91.3723 186.223 91.3557 186.227 91.3406 186.235C91.3256 186.243 91.3123 186.254 91.3019 186.267C91.2915 186.28 91.2842 186.296 91.2804 186.312C91.2767 186.329 91.2766 186.346 91.2802 186.363C91.2837 186.379 91.2909 186.395 91.3012 186.408ZM4.0426 171.55C3.4563 171.084 3.06272 170.418 2.93733 169.679C2.81193 168.941 2.96354 168.182 3.36309 167.549C3.90385 168.063 4.28905 168.719 4.47472 169.442C4.66039 170.165 4.63905 170.926 4.41314 171.637C4.64871 172.327 4.98114 173.182 5.3293 173.981C4.87602 171.589 6.53754 170.946 6.53754 170.946C7.43545 172.848 6.88808 174.25 5.76166 174.948C6.23919 175.946 6.80466 176.993 7.38346 177.972C6.54725 175.219 8.46499 174.476 8.46499 174.476C9.37556 176.375 8.80767 177.807 7.67645 178.48C8.26791 179.456 8.95689 180.532 9.63695 181.491C8.60568 178.54 10.6452 177.747 10.6452 177.747C11.5233 179.613 11.0163 181.02 9.93021 181.724C9.82041 181.792 9.68988 181.816 9.56313 181.794C8.71707 181.782 7.89268 181.525 7.19072 181.052C6.48877 180.58 5.93967 179.913 5.61055 179.134C6.08514 179.081 6.56552 179.125 7.0224 179.264C7.47929 179.403 7.90311 179.633 8.26804 179.941C7.84433 179.366 7.53082 178.888 7.24982 178.443C6.40785 178.356 5.60672 178.037 4.93658 177.519C4.26644 177.002 3.75389 176.309 3.45658 175.516C3.99978 175.52 4.5361 175.638 5.03057 175.863C5.52504 176.088 5.96656 176.414 6.32633 176.821C5.98643 176.204 5.68144 175.632 5.40724 175.016C4.5702 174.907 3.7796 174.569 3.12343 174.038C2.46726 173.507 1.97125 172.805 1.69062 172.009C2.30496 172.031 2.90576 172.196 3.44593 172.489C3.9861 172.783 4.45095 173.197 4.80406 173.701C4.50812 172.999 4.25385 172.281 4.0426 171.55ZM38.1518 161.744C34.8691 159.298 36.0432 156.636 36.0432 156.636C36.5328 156.766 36.9905 156.995 37.3882 157.309C37.7858 157.623 38.1151 158.015 38.3555 158.461C38.596 158.906 38.7427 159.397 38.7864 159.901C38.8302 160.406 38.7702 160.914 38.6101 161.395C38.9692 162.3 39.2554 163.232 39.4662 164.183C39.6068 163.384 39.9516 162.635 40.4671 162.009C40.9826 161.383 41.6513 160.901 42.4082 160.61C42.6967 161.669 42.5944 162.797 42.1199 163.787C41.6455 164.778 40.8306 165.564 39.8242 166.003C39.9801 166.826 40.0473 167.666 40.114 168.571C40.3242 167.885 40.6876 167.257 41.1767 166.733C41.6657 166.208 42.2675 165.802 42.9367 165.545C43.2224 166.633 43.1016 167.788 42.597 168.793C42.0924 169.799 41.2385 170.586 40.1954 171.007C40.1983 171.715 40.1632 172.43 40.0944 173.243C40.3909 172.647 40.81 172.12 41.3242 171.697C41.8384 171.274 42.436 170.965 43.078 170.789C43.2492 171.879 43.0248 172.995 42.4453 173.935C41.8658 174.874 40.9695 175.575 39.9182 175.911C39.7216 175.976 39.5173 176.015 39.3106 176.027C38.2004 176.012 37.1321 175.6 36.2999 174.865C35.4676 174.13 34.9267 173.121 34.7754 172.021C35.8501 171.992 36.9024 172.332 37.7579 172.983C38.6134 173.634 39.2207 174.558 39.4792 175.601C39.5907 174.133 39.6267 172.66 39.5871 171.188C38.4505 171.212 37.3447 170.818 36.4797 170.08C35.6147 169.342 35.0508 168.312 34.8952 167.186C35.9073 167.175 36.8963 167.489 37.7167 168.082C38.5371 168.674 39.1457 169.515 39.4528 170.479C39.4068 169.055 39.2736 167.636 39.0538 166.228C37.9339 166.226 36.8525 165.82 36.0091 165.083C35.1658 164.346 34.6175 163.329 34.4655 162.219C35.388 162.171 36.3043 162.396 37.0998 162.866C37.8953 163.335 38.535 164.029 38.9388 164.86C38.7175 163.761 38.4185 162.598 38.1518 161.744ZM16.0457 151.509C13.7472 148.443 13.841 144.924 17.1869 141.891C17.1869 141.891 20.892 145.529 17.0188 151.731C17.1588 153.37 17.4136 155.406 17.7607 157.307C17.8812 155.705 18.4623 154.171 19.4342 152.891C20.4061 151.612 21.7272 150.64 23.2385 150.093C24.2647 154.541 21.9303 157.999 18.2615 159.743C18.8213 162.184 19.5224 164.591 20.3614 166.95C20.2625 165.153 20.7455 163.371 21.7388 161.87C22.7321 160.368 24.1828 159.227 25.8759 158.615C26.8918 163.077 24.5598 166.548 20.8506 168.287C21.8026 170.903 22.8924 173.467 24.1155 175.968C23.7883 174.022 24.1537 172.022 25.1484 170.317C26.143 168.612 27.7038 167.31 29.5593 166.637C30.5776 171.112 28.2203 174.588 24.519 176.298C24.307 176.433 24.0604 176.502 23.8095 176.498C22.5635 176.508 21.3255 176.299 20.152 175.88C18.8411 175.422 17.6778 174.62 16.7842 173.557C15.8906 172.494 15.2998 171.21 15.0739 169.84C17.3099 169.665 19.5245 170.381 21.2341 171.833C20.6669 170.708 20.1407 169.523 19.67 168.353C15.5596 168.044 12.1226 165.614 11.522 161.059C12.8107 161.05 14.0845 161.336 15.2453 161.895C16.4061 162.455 17.4231 163.274 18.2179 164.288C17.7553 162.815 17.3584 161.343 17.0296 159.885C13.0115 159.44 9.77164 157.011 9.17688 152.627C10.6433 152.596 12.0919 152.952 13.3768 153.659C14.6618 154.367 15.7377 155.4 16.4963 156.655C16.2143 154.932 16.0597 153.191 16.0338 151.445L16.0457 151.509ZM32.7229 195.999C32.5844 194.714 34.4071 194.369 35.632 194.674C35.7254 194.677 35.8163 194.705 35.8949 194.756C35.9736 194.806 36.037 194.877 36.0785 194.961C36.1199 195.045 36.1378 195.138 36.1303 195.231C36.1227 195.324 36.09 195.414 36.0356 195.49C35.8225 195.849 35.5511 196.171 35.2325 196.442C37.1018 195.996 38.4109 196.469 37.1922 197.788C36.877 198.184 36.4302 198.453 35.9331 198.547C35.436 198.641 34.9216 198.554 34.4834 198.301C34.8344 199.323 34.4347 200.12 33.1141 200.278C32.2414 200.378 31.8879 200.104 31.7978 199.767C31.7511 199.452 31.8048 199.13 31.9512 198.847C31.0755 199.484 29.8564 200.109 29.1852 199.266C28.5141 198.423 29.4179 198.002 30.3757 197.729C28.8898 197.499 29.349 196.324 30.7098 195.686C31.0301 195.498 31.4054 195.426 31.7722 195.484C32.1391 195.541 32.475 195.723 32.7229 195.999ZM33.8415 197.82C33.5256 197.938 33.1916 198.002 32.8542 198.007C32.7895 198.15 31.6257 199.551 32.3757 199.841C32.7661 199.964 33.9926 199.863 34.1915 199.183C34.2503 198.7 34.1253 198.214 33.8415 197.82ZM31.7155 197.672C30.8294 197.84 28.8866 198.313 29.453 199.018C30.0194 199.724 31.6049 198.611 32.3793 197.992C32.1334 197.968 31.902 197.864 31.7203 197.697L31.7155 197.672ZM34.1996 197.634C34.4275 197.858 34.7092 198.021 35.0178 198.105C35.3263 198.189 35.6514 198.193 35.9618 198.116C36.2722 198.039 36.5576 197.883 36.7907 197.664C37.0237 197.445 37.1965 197.169 37.2926 196.864C37.2686 196.738 37.0366 196.69 36.9004 196.663C36.1636 196.579 35.4172 196.667 34.7198 196.919C34.7012 197.065 34.6491 197.204 34.5677 197.327C34.4862 197.449 34.3776 197.551 34.2503 197.624L34.1996 197.634ZM33.0358 196.543C33.5674 196.442 34.5863 196.63 34.3418 197.069C34.042 197.354 33.6665 197.547 33.2602 197.624C32.8538 197.701 32.4339 197.659 32.0507 197.503C31.5436 197.18 32.4535 196.653 33.0286 196.505L33.0358 196.543ZM32.8298 196.425C31.704 194.566 29.242 196.659 29.8176 197.205C30.1427 197.537 31.1745 197.446 31.5868 197.408C31.5397 196.813 32.2783 196.49 32.8226 196.387L32.8298 196.425ZM34.6116 196.625C35.1099 196.275 35.5294 195.825 35.8429 195.303C35.8901 195.137 35.8558 195.025 35.5811 194.959C34.2731 194.63 32.4924 195.059 32.9642 196.373C33.1161 196.344 34.1161 196.155 34.5743 196.566L34.6116 196.625ZM19.7579 192.555C19.8059 192.239 19.9696 191.952 20.2173 191.75C20.465 191.548 20.7789 191.446 21.0981 191.462C22.3317 191.399 23.1862 192.102 22.2586 192.881C23.0687 192.728 23.8635 192.839 23.7162 193.654C23.569 194.469 22.4835 194.622 21.5676 194.494C22.2889 195.118 22.1112 195.702 21.2207 196.054C20.3303 196.407 19.5707 196.065 19.3751 195.171C19.1522 195.533 18.8059 195.801 18.4003 195.926C17.9947 196.051 17.5575 196.024 17.1699 195.851C15.7674 195.37 16.368 194.456 17.9974 193.99C17.5817 193.872 16.8412 193.632 16.8254 193.202C16.8177 192.47 19.1872 191.273 19.7507 192.517L19.7579 192.555ZM20.4837 194.24C20.2429 194.362 19.9832 194.442 19.7157 194.477C19.6731 194.884 19.7784 195.292 20.0122 195.628C20.427 196.087 21.3308 195.666 21.5836 195.409C21.8363 195.151 21.4972 194.953 21.3148 194.751C21.0687 194.556 20.7997 194.391 20.5138 194.261L20.4837 194.24ZM18.6553 194.141C17.9465 194.275 16.3411 194.868 16.9204 195.296C17.1626 195.46 17.4433 195.558 17.735 195.581C18.0267 195.604 18.3193 195.55 18.5842 195.426C18.9213 195.2 19.1764 194.871 19.3113 194.489C19.1777 194.483 19.0476 194.445 18.9321 194.378C18.8166 194.31 18.7191 194.216 18.6481 194.103L18.6553 194.141ZM20.8931 193.979C21.7071 194.192 23.246 194.425 23.4391 193.575C23.6322 192.726 21.972 193.237 21.2697 193.475C21.1925 193.666 21.0586 193.829 20.8859 193.941L20.8931 193.979ZM19.7471 193.121C20.1908 192.971 21.0465 193.058 20.8478 193.463C20.6347 193.723 20.352 193.917 20.0327 194.021C19.7134 194.126 19.3708 194.137 19.0453 194.054C18.6309 193.804 19.2685 193.225 19.7399 193.083L19.7471 193.121ZM19.7183 192.969C19.6584 192.653 19.5111 192.222 18.9176 192.203C18.324 192.184 17.0583 192.909 17.1063 193.162C17.1542 193.416 18.2755 193.728 18.6032 193.797C18.7334 193.169 19.5767 192.983 19.7111 192.931L19.7183 192.969ZM21.1844 193.163C21.5371 193.018 22.2708 192.669 22.3327 192.303C22.3945 191.938 21.5962 191.669 21.0755 191.689C20.7476 191.696 20.4346 191.827 20.2003 192.057C19.9661 192.287 19.8282 192.597 19.8148 192.925C20.3019 192.727 20.9643 192.694 21.1796 193.138L21.1844 193.163ZM30.5607 185.971C30.7292 186.307 30.3201 186.778 30.0571 187.05C31.7533 186.729 32.0774 187.402 31.4023 188.198C31.1847 188.477 30.8735 188.666 30.5265 188.732C30.1795 188.798 29.8205 188.735 29.5163 188.556C29.6602 189.315 29.427 189.884 28.4759 189.985C27.5248 190.087 27.3095 189.643 27.5235 188.973C27.2306 189.214 26.8853 189.382 26.5154 189.465C26.3931 189.499 26.2646 189.505 26.14 189.48C26.0155 189.456 25.8984 189.402 25.7982 189.324C25.698 189.246 25.6174 189.146 25.563 189.031C25.5087 188.917 25.4819 188.791 25.485 188.664C25.5318 188.288 25.9888 188.07 26.3566 187.935C25.8324 187.798 25.702 187.456 25.8493 187.126C25.9703 186.909 26.134 186.719 26.3306 186.567C26.5271 186.415 26.7523 186.304 26.9928 186.241C27.1895 186.203 27.3929 186.219 27.5813 186.287C27.7697 186.355 27.9361 186.473 28.0627 186.628C28.021 185.509 30.2835 185.408 30.5535 185.933L30.5607 185.971ZM28.9513 188.204C28.7493 188.282 28.5349 188.322 28.3184 188.324C28.0416 188.646 27.8786 189.05 27.8545 189.474C27.8952 189.689 28.2339 189.677 28.4515 189.649C29.3092 189.539 29.3959 188.959 28.9441 188.166L28.9513 188.204ZM27.422 188.022C27.0296 188.096 25.903 188.309 25.8255 188.731C25.8542 188.882 26.0227 189.218 26.453 189.136C26.9784 188.961 27.4526 188.66 27.8339 188.258C27.6767 188.221 27.5336 188.139 27.422 188.022ZM30.4126 188.373C30.6104 188.32 30.7947 188.226 30.9533 188.096C31.1119 187.967 31.2411 187.805 31.3323 187.622C31.4277 187.433 31.3501 187.369 31.1458 187.329C30.6396 187.244 30.12 187.293 29.6384 187.471C29.6218 187.576 29.5836 187.677 29.5262 187.767C29.4687 187.856 29.3933 187.933 29.3047 187.993C29.4471 188.136 29.6214 188.245 29.8135 188.309C30.0056 188.372 30.21 188.39 30.4102 188.36L30.4126 188.373ZM28.3256 187.116C27.9459 187.188 27.3784 187.584 27.6693 187.804C27.8758 187.896 28.1013 187.937 28.3269 187.924C28.5525 187.911 28.7717 187.844 28.9662 187.729C29.6777 187.332 29.0085 187.052 28.3256 187.116ZM28.1323 186.995C27.2995 185.645 25.7077 187.14 26.0598 187.545C26.412 187.951 26.9371 187.746 27.2583 187.712C27.3167 187.189 28.0057 187.019 28.1829 186.986L28.1323 186.995ZM29.47 187.135C29.8446 186.828 30.5871 186.111 30.1238 185.949C29.1816 185.682 27.9784 185.976 28.3222 186.959C28.5171 186.892 28.7254 186.872 28.9296 186.902C29.1338 186.932 29.3278 187.01 29.4953 187.13L29.47 187.135ZM132.838 168.258C132.773 167.366 134.034 167.101 134.924 167.299C134.995 167.308 135.063 167.334 135.122 167.374C135.181 167.415 135.229 167.47 135.262 167.534C135.294 167.597 135.311 167.668 135.31 167.74C135.309 167.811 135.291 167.882 135.256 167.944C135.135 168.192 134.974 168.417 134.78 168.612C136.375 168.309 136.828 168.905 136.121 169.669C135.918 169.96 135.616 170.166 135.271 170.248C134.926 170.33 134.563 170.283 134.251 170.115C134.474 170.873 134.175 171.441 133.225 171.62C132.276 171.8 132.059 171.278 132.26 170.61C131.629 171.084 130.845 171.442 130.358 170.813C129.872 170.184 130.398 169.848 131.058 169.592C130.095 169.355 130.453 168.474 131.375 168.011C131.608 167.872 131.884 167.821 132.152 167.866C132.42 167.912 132.663 168.051 132.838 168.258ZM133.689 169.776C133.482 169.853 133.264 169.895 133.043 169.898C132.797 170.259 132.531 170.795 132.607 171.056C132.683 171.317 132.984 171.247 133.204 171.231C133.685 171.14 133.902 170.968 133.947 170.723C133.955 170.389 133.865 170.06 133.689 169.776ZM132.157 169.646C131.764 169.721 130.652 170.01 130.577 170.378C130.567 170.417 130.566 170.458 130.573 170.497C130.581 170.536 130.597 170.574 130.621 170.606C131.055 171.166 132.026 170.34 132.543 169.888C132.395 169.843 132.261 169.76 132.157 169.646ZM134.034 169.592C134.151 169.721 134.296 169.823 134.457 169.89C134.618 169.956 134.792 169.986 134.966 169.977C135.14 169.968 135.31 169.92 135.463 169.837C135.617 169.754 135.749 169.638 135.852 169.497C136.238 169.043 136.115 168.949 135.868 168.891C135.361 168.822 134.845 168.879 134.366 169.057C134.352 169.165 134.315 169.268 134.258 169.361C134.201 169.453 134.125 169.532 134.034 169.592ZM133.098 168.734C133.478 168.662 134.179 168.83 133.986 169.129C133.788 169.323 133.537 169.455 133.264 169.506C132.992 169.558 132.71 169.528 132.454 169.419C132.153 169.214 132.726 168.843 133.098 168.734ZM132.905 168.613C132.062 167.278 130.475 168.798 130.837 169.188C131.2 169.578 131.727 169.387 132.033 169.342C132.035 168.935 132.5 168.69 132.905 168.613ZM134.238 168.727C134.6 168.423 135.35 167.678 134.879 167.544C133.911 167.281 132.728 167.61 133.082 168.579C133.271 168.514 133.473 168.493 133.671 168.52C133.87 168.546 134.059 168.618 134.225 168.73L134.238 168.727ZM124.105 166.045C124.136 165.707 124.292 165.394 124.542 165.164C124.792 164.935 125.118 164.807 125.457 164.805C126.749 164.705 127.725 165.425 126.745 166.345C127.071 166.265 127.407 166.241 127.741 166.274C127.842 166.278 127.941 166.304 128.031 166.349C128.121 166.395 128.201 166.459 128.264 166.537C128.327 166.616 128.373 166.707 128.398 166.805C128.423 166.903 128.427 167.005 128.41 167.104C128.314 168.119 127.151 168.208 126.144 168.084C126.941 168.694 126.937 169.363 125.924 169.831C125.74 169.957 125.525 170.034 125.303 170.053C125.08 170.072 124.856 170.033 124.653 169.939C124.45 169.845 124.275 169.7 124.145 169.518C124.015 169.336 123.935 169.123 123.912 168.901C123.71 169.311 123.357 169.627 122.928 169.784C122.499 169.941 122.025 169.927 121.606 169.744C120.053 169.225 120.765 168.212 122.423 167.688C122.036 167.61 121.666 167.462 121.331 167.252C121.254 167.214 121.189 167.158 121.14 167.087C121.092 167.017 121.062 166.935 121.054 166.85C121.045 166.765 121.059 166.679 121.093 166.601C121.127 166.523 121.181 166.454 121.249 166.402C122.041 165.531 123.58 165.004 124.092 166.047L124.105 166.045ZM124.999 167.855C124.74 167.991 124.461 168.084 124.172 168.13C124.18 168.572 124.316 169.001 124.564 169.367C124.796 169.625 125.167 169.712 125.758 169.442C126.35 169.173 126.52 168.826 125.919 168.35C125.624 168.156 125.312 167.991 124.986 167.858L124.999 167.855ZM123.011 167.813C122.355 167.929 121.74 168.212 121.226 168.636C121.116 168.748 121.047 168.866 121.081 168.978C121.283 169.186 121.538 169.334 121.818 169.406C122.099 169.478 122.394 169.472 122.671 169.387C122.948 169.302 123.196 169.142 123.388 168.925C123.579 168.707 123.707 168.442 123.758 168.156C123.615 168.16 123.474 168.131 123.344 168.072C123.214 168.012 123.1 167.923 123.011 167.813ZM125.353 167.579C126.26 167.8 127.941 168.019 128.036 167.07C128.132 166.121 126.469 166.685 125.687 166.991C125.644 167.215 125.531 167.419 125.365 167.576L125.353 167.579ZM124.101 166.649C124.62 166.55 125.497 166.542 125.311 167.01C125.108 167.308 124.818 167.536 124.481 167.663C124.143 167.79 123.775 167.81 123.426 167.721C122.948 167.483 123.606 166.874 124.101 166.649ZM124.073 166.497C124.041 166.278 123.937 166.077 123.777 165.924C123.617 165.772 123.411 165.676 123.192 165.654C122.386 165.623 121.225 166.486 121.295 166.787C121.366 167.088 122.575 167.384 122.956 167.456C123.041 166.863 123.791 166.603 124.073 166.497ZM125.653 166.67C126.038 166.491 126.851 166.075 126.866 165.666C126.88 165.257 125.991 164.993 125.432 165.02C125.255 165.026 125.08 165.068 124.92 165.145C124.76 165.221 124.618 165.33 124.502 165.464C124.385 165.598 124.298 165.754 124.245 165.924C124.192 166.093 124.175 166.271 124.194 166.448C124.722 166.256 125.41 166.217 125.653 166.67ZM208.259 170.398C206.184 169.415 208.555 168.638 209.273 168.829C209.415 168.858 209.548 168.924 209.656 169.021C209.765 169.118 209.845 169.243 209.889 169.381C210.531 167.791 213.339 169.042 211.997 169.991C212.389 169.983 212.884 170.033 213.078 170.364C213.123 170.487 213.138 170.619 213.123 170.749C213.108 170.88 213.062 171.005 212.99 171.114C212.917 171.223 212.82 171.314 212.706 171.379C212.592 171.444 212.464 171.482 212.333 171.488C211.971 171.521 211.606 171.478 211.261 171.364C211.695 171.924 211.583 172.443 210.72 172.659C209.856 172.876 209.377 172.494 209.214 171.633C209.063 171.809 208.874 171.948 208.662 172.04C207.521 172.597 205.396 170.862 208.259 170.398ZM209.702 171.095C209.63 171.428 209.668 171.775 209.811 172.084C209.943 172.295 210.199 172.404 210.688 172.285C210.891 172.247 211.22 172.184 211.182 171.916C211.019 171.524 210.726 171.2 210.352 170.998C210.14 171.054 209.922 171.086 209.702 171.095ZM211.066 170.404C211.008 170.556 210.904 170.686 210.769 170.775C211.413 171.059 212.609 171.423 212.823 170.753C213.037 170.083 211.676 170.302 211.066 170.404ZM208.789 170.704C208.272 170.708 207.765 170.844 207.317 171.101C207.215 171.12 207.156 171.223 207.158 171.302C207.282 171.482 207.452 171.625 207.651 171.716C207.85 171.807 208.07 171.843 208.287 171.819C208.504 171.795 208.711 171.713 208.886 171.582C209.06 171.45 209.196 171.273 209.278 171.071C209.176 171.045 209.08 171 208.996 170.937C208.912 170.874 208.842 170.795 208.789 170.704ZM209.838 169.942C210.217 169.87 210.908 170.054 210.7 170.342C210.502 170.536 210.251 170.668 209.978 170.719C209.706 170.771 209.424 170.741 209.169 170.632C208.896 170.369 209.483 170.009 209.858 169.912L209.838 169.942ZM211.051 170.118C211.368 170.058 211.994 169.835 212.108 169.538C212.222 169.241 211.556 168.908 211.14 168.856C211.006 168.838 210.871 168.847 210.741 168.882C210.611 168.917 210.49 168.978 210.383 169.06C210.277 169.142 210.188 169.245 210.122 169.362C210.055 169.479 210.013 169.608 209.996 169.741C210.399 169.652 210.919 169.698 211.072 170.088L211.051 170.118ZM209.819 169.775C209.779 168.733 208.549 168.888 207.768 169.469C207.343 169.785 208.337 170.187 208.798 170.336C208.91 170.16 209.064 170.015 209.246 169.912C209.427 169.809 209.631 169.751 209.84 169.745L209.819 169.775ZM214.899 165.377C213.641 164.894 214.258 163.859 215.523 163.475C215.84 163.353 216.192 163.352 216.511 163.473C216.829 163.594 217.091 163.829 217.247 164.132C217.344 162.986 218.955 162.904 220.014 163.372C220.844 163.739 220.144 164.475 219.403 164.996C221.153 164.887 222.136 165.579 220.903 166.613C220.583 166.938 220.15 167.126 219.694 167.136C219.238 167.147 218.796 166.979 218.462 166.669C218.523 166.886 218.527 167.115 218.472 167.333C218.418 167.552 218.307 167.753 218.15 167.915C217.994 168.077 217.798 168.196 217.581 168.259C217.365 168.321 217.136 168.326 216.917 168.273C215.803 168.208 215.567 167.584 216.076 166.741C215.194 167.209 214.064 167.541 213.618 166.642C213.172 165.743 214.05 165.459 214.92 165.347L214.899 165.377ZM217.077 166.144C216.826 166.399 216.602 166.678 216.409 166.979C216.001 167.66 216.218 167.907 216.948 167.952C217.677 167.997 217.91 167.77 218.032 167.445C218.141 167.015 218.11 166.562 217.944 166.151C217.662 166.183 217.376 166.17 217.098 166.114L217.077 166.144ZM218.357 165.98C218.47 166.182 218.627 166.355 218.816 166.486C219.006 166.617 219.223 166.703 219.451 166.737C219.68 166.771 219.912 166.753 220.132 166.682C220.352 166.612 220.553 166.493 220.719 166.333C220.877 166.198 221.157 165.948 221.147 165.754C221.136 165.559 221.045 165.563 220.887 165.488C220.252 165.289 219.578 165.25 218.924 165.375C218.882 165.505 218.81 165.624 218.716 165.724C218.621 165.823 218.506 165.901 218.378 165.95L218.357 165.98ZM216.148 165.599C215.296 165.603 213.559 165.775 213.991 166.532C214.423 167.29 215.896 166.552 216.674 166.024C216.557 165.99 216.447 165.933 216.351 165.857C216.256 165.781 216.177 165.686 216.118 165.579L216.148 165.599ZM217.496 164.688C218.039 164.716 218.875 165.043 218.517 165.439C218.223 165.649 217.873 165.766 217.511 165.774C217.15 165.781 216.795 165.679 216.493 165.481C216.115 165.081 216.925 164.718 217.466 164.668L217.496 164.688ZM218.87 165.018C219.2 164.824 220.243 164.168 220.184 163.786C220.124 163.403 217.198 162.699 217.49 164.519C217.829 164.494 218.168 164.542 218.487 164.658C218.632 164.735 218.751 164.854 218.827 165L218.87 165.018ZM217.336 164.535C216.656 162.605 214.222 164.155 214.577 164.782C214.791 165.148 215.664 165.258 216.088 165.283C216.103 164.742 216.796 164.519 217.293 164.517L217.336 164.535ZM113.45 138.115C112.561 137.641 114.087 136.906 114.45 137.44C114.74 136.756 116.032 137.141 115.711 137.66C116.431 137.655 116.33 138.435 115.791 138.563C115.681 138.603 115.565 138.625 115.449 138.628C115.726 139.192 114.521 139.682 114.2 138.956C113.509 139.533 112.218 138.532 113.45 138.115ZM114.731 138.436L114.515 138.477C114.514 138.884 114.69 138.916 114.924 138.832C114.988 138.82 115.047 138.786 115.089 138.736C114.992 138.603 114.859 138.501 114.705 138.441L114.731 138.436ZM120.38 135.727C120.151 135.626 119.804 135.456 119.807 135.193C119.809 134.93 121.253 134.106 121.63 134.848C121.995 133.729 124.009 134.397 123.259 135.142C124.424 135.065 124.202 136.104 123.475 136.281C123.251 136.328 123.02 136.332 122.795 136.292C123.072 136.646 123.01 137.012 122.409 137.231C121.808 137.449 121.383 137.215 121.255 136.676C121.094 136.866 120.873 136.995 120.629 137.041C120.385 137.087 120.132 137.048 119.913 136.93C119.226 136.627 119.273 136.042 120.355 135.732L120.38 135.727ZM113.911 138.264C113.679 138.309 113.46 138.404 113.269 138.543L113.427 138.618C113.484 138.65 113.546 138.67 113.611 138.676C113.676 138.683 113.741 138.676 113.802 138.655C113.864 138.635 113.921 138.602 113.969 138.558C114.017 138.515 114.055 138.461 114.082 138.402C114.016 138.393 113.953 138.369 113.898 138.332L113.911 138.264ZM115.088 138.041C115.31 138.104 115.787 138.197 115.834 137.965C115.882 137.733 115.289 137.924 115.125 137.955C115.132 137.99 115.132 138.026 115.125 138.061C115.118 138.096 115.104 138.13 115.085 138.159L115.088 138.041ZM121.957 135.953C121.824 136.004 121.682 136.031 121.539 136.032C121.505 136.615 121.712 136.943 122.277 136.744C122.391 136.723 122.607 136.616 122.583 136.49C122.559 136.363 122.18 136.159 121.982 136.013L121.957 135.953ZM114.128 138.026C114.241 138.044 114.356 138.036 114.466 138.004C114.575 137.972 114.677 137.916 114.762 137.84C114.838 137.826 114.508 137.744 114.404 137.751C114.287 137.809 114.186 137.896 114.111 138.003L114.128 138.026ZM115.039 137.644C115.141 137.624 115.392 137.498 115.423 137.387C115.455 137.276 114.655 136.93 114.499 137.562C114.603 137.528 114.715 137.528 114.819 137.562C114.922 137.597 115.012 137.665 115.074 137.755L115.039 137.644ZM114.325 137.608C114.243 137.178 113.698 137.347 113.397 137.627C113.543 137.73 113.708 137.801 113.883 137.836C114.021 137.74 114.191 137.698 114.359 137.72L114.325 137.608ZM120.831 135.825C120.477 135.892 119.585 136.166 119.823 136.383C119.95 136.49 120.104 136.559 120.269 136.583C120.433 136.608 120.601 136.586 120.753 136.522C120.941 136.413 121.085 136.242 121.16 136.038C121.066 136.025 120.978 135.988 120.904 135.929L120.831 135.825ZM122.331 135.711C122.762 135.839 123.581 136.012 123.679 135.561C123.777 135.109 122.842 135.365 122.482 135.473C122.475 135.598 122.434 135.719 122.365 135.823L122.331 135.711ZM121.548 135.178C121.776 135.135 122.258 135.187 122.152 135.391C122.046 135.595 120.927 135.846 121.102 135.59C121.227 135.443 121.395 135.339 121.582 135.289L121.548 135.178ZM121.521 135.039C121.39 134.342 120.574 134.536 120.082 134.983C119.993 135.066 120 135.104 120.111 135.135C120.345 135.304 120.612 135.418 120.896 135.472C120.974 135.379 121.071 135.303 121.18 135.248C121.29 135.194 121.409 135.162 121.53 135.155L121.521 135.039ZM122.463 135.162C122.665 135.123 123.084 134.913 123.137 134.706C123.19 134.5 122.701 134.343 122.423 134.33C122.33 134.322 122.235 134.334 122.146 134.363C122.057 134.393 121.975 134.441 121.905 134.503C121.834 134.565 121.777 134.641 121.737 134.726C121.697 134.811 121.675 134.903 121.671 134.997C121.966 135.033 122.32 135.031 122.472 135.278L122.463 135.162ZM106.178 135.861C104.616 135.226 106.365 134.422 107.026 134.52C107.135 134.534 107.238 134.574 107.328 134.637C107.418 134.7 107.491 134.784 107.54 134.881C107.937 133.652 110.186 134.38 109.346 135.208C109.49 135.173 109.64 135.178 109.782 135.22C109.923 135.262 110.051 135.341 110.152 135.449C110.202 135.547 110.228 135.656 110.227 135.766C110.227 135.876 110.2 135.985 110.15 136.083C110.099 136.181 110.026 136.265 109.936 136.329C109.847 136.394 109.743 136.435 109.634 136.452C109.383 136.5 109.125 136.5 108.874 136.451C109.196 136.836 109.118 137.257 108.466 137.486C107.815 137.714 107.335 137.464 107.197 136.874C107.022 137.088 106.778 137.233 106.507 137.284C106.236 137.335 105.956 137.29 105.716 137.155C104.944 136.96 104.981 136.324 106.187 135.977L106.178 135.861ZM107.979 136.228C107.833 136.281 107.679 136.31 107.523 136.314C107.489 136.963 107.715 137.327 108.329 137.105C108.468 137.079 108.694 136.958 108.668 136.818C108.641 136.679 108.191 136.45 107.988 136.344L107.979 136.228ZM106.73 136.071C106.337 136.145 105.321 136.456 105.617 136.701C105.76 136.817 105.932 136.892 106.115 136.917C106.298 136.943 106.484 136.918 106.654 136.846C106.858 136.728 107.017 136.546 107.106 136.327C106.971 136.326 106.84 136.276 106.739 136.187L106.73 136.071ZM108.386 135.954C108.859 136.1 109.762 136.296 109.876 135.79C109.99 135.283 108.958 135.583 108.545 135.688C108.542 135.829 108.489 135.965 108.395 136.07L108.386 135.954ZM115.659 132.334C115.911 131.381 117.641 131.722 117.177 132.453C117.708 132.352 117.918 132.627 117.887 132.947C117.856 133.268 117.4 133.564 116.925 133.549C117.147 133.822 117.043 134.169 116.601 134.397C116.159 134.625 115.698 134.477 115.528 134.063C114.873 134.895 113.175 134.102 114.264 133.411C114.732 133.112 114.618 133.344 114.204 133.094C114.157 133.075 114.115 133.044 114.083 133.004C114.051 132.964 114.029 132.917 114.02 132.867C114.01 132.817 114.013 132.765 114.029 132.717C114.044 132.668 114.071 132.624 114.108 132.588C114.616 132.295 115.352 132.025 115.668 132.45L115.659 132.334ZM107.528 135.369C107.768 135.323 108.303 135.379 108.187 135.598C108.071 135.817 106.841 136.102 107.036 135.816C107.167 135.66 107.341 135.545 107.537 135.485L107.528 135.369ZM116.118 133.44C116.017 133.493 115.911 133.536 115.801 133.566C115.885 134.009 116.009 134.247 116.443 134.047C116.519 134.033 116.682 133.923 116.667 133.847C116.653 133.771 116.273 133.633 116.127 133.556L116.118 133.44ZM107.474 135.222C107.327 134.45 106.423 134.66 105.877 135.17C105.763 135.192 105.795 135.291 105.908 135.335C106.164 135.517 106.456 135.641 106.764 135.697C106.948 135.489 107.205 135.36 107.483 135.338L107.474 135.222ZM108.511 135.366C108.738 135.323 109.191 135.08 109.254 134.858C109.316 134.637 108.77 134.452 108.467 134.444C108.363 134.434 108.259 134.445 108.16 134.478C108.061 134.51 107.97 134.562 107.892 134.631C107.814 134.7 107.751 134.784 107.707 134.878C107.663 134.972 107.639 135.074 107.636 135.178C107.954 135.196 108.348 135.2 108.52 135.483L108.511 135.366ZM115.09 133.412C114.77 133.482 114.481 133.651 114.264 133.896C114.381 133.983 114.521 134.035 114.667 134.047C114.813 134.059 114.959 134.029 115.089 133.963C115.221 133.86 115.322 133.723 115.381 133.566C115.285 133.584 115.187 133.57 115.099 133.528L115.09 133.412ZM116.47 133.15C116.823 133.215 117.504 133.282 117.545 132.946C117.587 132.611 116.828 132.899 116.559 133.002C116.547 133.093 116.514 133.18 116.463 133.256L116.47 133.15ZM115.695 132.799C115.834 132.772 116.163 132.71 116.207 132.872C116.118 133.001 115.994 133.102 115.85 133.161C115.705 133.221 115.546 133.238 115.393 133.21C115.258 133.262 115.534 132.987 115.701 132.903L115.695 132.799ZM115.666 132.647C115.513 131.837 114.276 132.714 114.4 132.887C114.604 133.006 114.833 133.075 115.068 133.088C115.133 132.999 115.216 132.924 115.312 132.868C115.407 132.811 115.512 132.775 115.622 132.76L115.666 132.647ZM116.53 132.641C116.682 132.612 117.008 132.393 117.03 132.231C117.052 132.07 116.641 131.977 116.418 131.98C116.341 131.98 116.264 131.995 116.192 132.025C116.12 132.055 116.055 132.099 116.001 132.154C115.947 132.21 115.904 132.276 115.876 132.348C115.848 132.42 115.834 132.498 115.836 132.575C115.95 132.539 116.072 132.537 116.188 132.568C116.303 132.6 116.407 132.664 116.486 132.754L116.53 132.641ZM222.338 130.242C222.385 129.883 222.563 129.554 222.838 129.318C223.112 129.082 223.465 128.956 223.827 128.964C225.283 128.898 226.174 129.726 224.925 130.605C225.849 130.43 226.882 130.417 226.744 131.348C226.605 132.279 225.222 132.384 224.165 132.204C225.086 132.843 225.114 133.545 224.006 133.991C222.897 134.437 222.132 133.927 221.981 132.854C221.765 133.29 221.389 133.626 220.932 133.791C220.474 133.956 219.97 133.937 219.526 133.739C217.882 133.159 218.885 132.156 220.625 131.721C219.705 131.502 218.636 131.049 219.34 130.404C220.235 129.592 221.887 129.108 222.338 130.242ZM223.175 131.959C222.879 132.107 222.56 132.203 222.232 132.243C222.224 132.494 222.249 132.745 222.308 132.989C222.464 133.811 223.002 134.09 223.902 133.722C224.231 133.66 224.636 133.374 224.548 133.049C224.441 132.48 223.024 131.922 223.233 131.987L223.175 131.959ZM221.15 131.858C220.453 131.99 218.82 132.574 218.962 133.046C219.179 133.276 219.455 133.444 219.759 133.531C220.064 133.617 220.387 133.619 220.693 133.537C220.999 133.455 221.277 133.291 221.497 133.064C221.717 132.836 221.872 132.553 221.944 132.245C221.782 132.267 221.617 132.243 221.468 132.177C221.318 132.11 221.19 132.003 221.099 131.867L221.15 131.858ZM223.48 131.77C224.463 132.043 226.312 132.322 226.474 131.308C226.636 130.294 224.786 130.841 223.924 131.135C223.859 131.394 223.701 131.62 223.48 131.77ZM222.291 130.684C223.152 130.521 224.069 130.728 223.452 131.343C222.834 131.958 221.496 132.028 221.346 131.65C221.196 131.272 221.925 130.898 222.303 130.747L222.291 130.684ZM222.269 130.57C222.25 130.336 222.144 130.117 221.973 129.956C221.803 129.795 221.578 129.703 221.343 129.697C220.935 129.705 220.534 129.81 220.174 130.004C219.814 130.197 219.505 130.474 219.273 130.81C219.349 131.215 220.638 131.509 221.056 131.574C221.161 131.016 221.939 130.764 222.332 130.624L222.269 130.57ZM223.841 130.836C224.28 130.661 225.135 130.263 225.246 129.81C225.357 129.356 224.382 129.055 223.795 129.075C223.608 129.068 223.421 129.1 223.247 129.169C223.073 129.238 222.915 129.343 222.783 129.476C222.534 129.769 222.391 130.139 222.378 130.523C222.923 130.42 223.719 130.401 223.903 130.89L223.841 130.836ZM210.359 129.785C208.41 129.328 210.589 127.473 211.759 128.038C211.98 128.158 212.17 128.329 212.312 128.536C212.265 127.457 213.752 127.28 214.762 127.626C215.535 127.899 214.951 128.626 214.264 129.15C214.897 129.03 216.165 129.012 216.26 129.65C216.205 129.931 216.079 130.194 215.893 130.412C215.708 130.63 215.469 130.796 215.2 130.894C214.931 130.993 214.641 131.02 214.358 130.974C214.076 130.927 213.81 130.808 213.587 130.629C213.779 131.641 213.432 132.232 212.363 132.264C211.293 132.296 211.074 131.76 211.55 130.883C210.757 131.401 209.726 131.845 209.234 131.047C208.742 130.249 209.624 129.99 210.421 129.839L210.359 129.785ZM212.289 130.285C212.084 130.541 211.903 130.817 211.75 131.108C211.44 131.757 211.668 131.989 212.36 131.976C213.053 131.962 213.245 131.729 213.331 131.425C213.395 130.988 213.311 130.542 213.091 130.159C212.856 130.258 212.606 130.319 212.352 130.338L212.289 130.285ZM213.39 130.076C213.512 130.258 213.673 130.409 213.861 130.52C214.05 130.63 214.261 130.696 214.479 130.713C214.697 130.73 214.916 130.697 215.119 130.617C215.322 130.537 215.505 130.411 215.653 130.25C215.785 130.12 216.025 129.865 215.992 129.688C215.91 129.258 214.502 129.301 213.869 129.487C213.861 129.621 213.819 129.751 213.746 129.863C213.673 129.976 213.572 130.068 213.453 130.13L213.39 130.076ZM211.386 129.879C210.562 129.956 209.023 130.208 209.455 130.9C209.888 131.592 211.248 130.81 211.951 130.231C211.756 130.188 211.58 130.083 211.449 129.932L211.386 129.879ZM213.614 129.457C213.674 129.773 212.994 129.994 212.646 130.02C211.912 130.094 211.203 129.743 211.786 129.291C212.369 128.84 213.658 129.134 213.672 129.485L213.614 129.457ZM219.107 125.715C219.424 124.343 221.977 125.014 220.919 125.935C221.501 125.825 222.059 125.929 221.97 126.497C221.88 127.064 221.106 127.198 220.46 127.11C220.916 127.509 220.894 127.946 220.198 128.222C219.503 128.498 219.008 128.238 218.861 127.597C218.694 127.843 218.447 128.025 218.162 128.11C217.877 128.195 217.571 128.179 217.297 128.064C216.411 127.747 216.551 127.104 217.844 126.728C217.614 126.672 217.396 126.575 217.2 126.443C217.146 126.419 217.1 126.38 217.067 126.331C217.033 126.283 217.014 126.226 217.011 126.167C217.008 126.108 217.021 126.049 217.049 125.997C217.077 125.945 217.119 125.902 217.17 125.872C217.786 125.388 218.841 125.07 219.165 125.743L219.107 125.715ZM213.811 129.249C214.111 129.035 214.956 128.376 214.889 128.022C214.822 127.667 212.042 127.25 212.427 128.868C212.993 128.879 213.607 128.868 213.868 129.277L213.811 129.249ZM212.432 128.894C212.375 128.737 212.286 128.594 212.171 128.474C212.055 128.353 211.917 128.258 211.763 128.193C211.609 128.129 211.444 128.097 211.277 128.099C211.11 128.102 210.946 128.139 210.794 128.208C210.32 128.402 209.619 128.928 209.904 129.32C210.188 129.712 210.954 129.672 211.358 129.661C211.418 129.217 211.964 128.982 212.439 128.932L212.432 128.894ZM219.691 126.928C219.52 127.015 219.336 127.072 219.146 127.097C219.121 127.381 219.198 127.663 219.363 127.895C219.643 128.196 220.252 127.95 220.443 127.782C220.634 127.615 220.484 127.447 220.284 127.288C220.108 127.146 219.914 127.028 219.706 126.939L219.691 126.928ZM218.368 126.864C217.887 126.956 216.746 127.368 217.205 127.649C217.375 127.766 217.573 127.836 217.778 127.852C217.984 127.869 218.19 127.83 218.377 127.741C218.613 127.584 218.795 127.357 218.896 127.092C218.803 127.103 218.709 127.094 218.62 127.066C218.531 127.037 218.449 126.99 218.38 126.928L218.368 126.864ZM219.994 126.727C220.571 126.867 221.663 127.027 221.741 126.396C221.818 125.765 220.687 126.163 220.208 126.332C220.192 126.496 220.119 126.65 220.001 126.765L219.994 126.727ZM219.143 126.114C219.473 126.052 220.081 126.081 219.937 126.357C219.785 126.528 219.591 126.655 219.374 126.726C219.157 126.798 218.925 126.81 218.702 126.762C218.382 126.665 218.849 126.288 219.151 126.152L219.143 126.114ZM219.122 126C218.961 125.152 217.927 125.44 217.351 125.995C217.017 126.307 217.921 126.516 218.328 126.584C218.409 126.436 218.524 126.31 218.663 126.215C218.802 126.12 218.962 126.06 219.129 126.038L219.122 126ZM220.182 126.127C220.448 126.077 220.956 125.784 221.024 125.522C221.093 125.26 219.277 124.673 219.233 125.966C219.573 125.889 220.055 125.876 220.189 126.165L220.182 126.127ZM88.5804 185.613L88.4197 184.765C88.4189 184.702 88.4045 184.641 88.3776 184.585C88.3506 184.53 88.3117 184.48 88.2637 184.441C88.2156 184.402 88.1595 184.373 88.0994 184.358C88.0392 184.343 87.9765 184.341 87.9155 184.352C87.8545 184.364 87.7968 184.389 87.7464 184.425C87.696 184.461 87.6541 184.508 87.6238 184.562C87.5934 184.616 87.5753 184.676 87.5707 184.738C87.566 184.8 87.575 184.862 87.5969 184.92L87.7696 185.832C87.784 185.885 87.8088 185.935 87.8424 185.979C87.8761 186.022 87.918 186.059 87.9658 186.086C88.0137 186.114 88.0664 186.132 88.1211 186.139C88.1758 186.146 88.2314 186.142 88.2846 186.128C88.3378 186.113 88.3877 186.088 88.4314 186.055C88.4751 186.021 88.5117 185.979 88.5392 185.931C88.5666 185.884 88.5844 185.831 88.5915 185.776C88.5986 185.721 88.5948 185.666 88.5804 185.613ZM14.2269 12.7708C14.2105 12.892 14.2057 12.8666 14.2269 12.7708ZM195.884 67.1623C195.929 67.2588 195.926 67.2461 195.884 67.1623ZM28.0137 113.772C27.8884 113.665 27.8758 113.667 28.0137 113.772ZM0.688203 127.617C0.674879 127.685 0.662221 127.687 0.688203 127.617ZM111.797 0.73564C111.866 0.892999 111.849 0.870081 111.797 0.73564Z" fill="#090915"/>
<path fill-rule="evenodd" clip-rule="evenodd" d="M134.385 114.889C134.677 116.763 134.521 116.981 135.436 117.66C136.351 118.339 136.915 118.568 136.709 119.471C136.333 120.972 133.884 120.866 132.443 119.957C132.533 120.088 132.596 120.237 132.628 120.393C132.661 120.55 132.662 120.711 132.632 120.868C132.601 121.025 132.54 121.174 132.452 121.308C132.363 121.441 132.25 121.555 132.117 121.644C131.357 122.054 130.467 122.153 129.635 121.919C127.376 121.535 126.801 119.093 127.013 116.826C123.285 117.69 119.478 118.172 115.652 118.265C115.994 118.867 116.794 119.232 117.24 119.676C117.972 120.462 117.486 121.724 115.886 121.866C114.971 121.929 114.06 121.697 113.287 121.202C113.377 121.334 113.44 121.482 113.473 121.639C113.505 121.795 113.506 121.956 113.476 122.113C113.446 122.27 113.385 122.42 113.296 122.553C113.208 122.686 113.094 122.8 112.961 122.889C112.201 123.299 111.311 123.398 110.48 123.164C109.997 123.085 109.542 122.882 109.16 122.575C108.779 122.268 108.483 121.867 108.302 121.412C107.847 120.201 107.709 118.893 107.904 117.613C106.807 117.387 105.725 117.091 104.665 116.726C104.665 116.726 102.927 115.911 105.422 114.67C105.422 114.67 103.797 115.305 102.913 115.685C102.029 116.064 102.159 113.405 103.229 112.389C102.305 112.931 101.324 113.369 100.303 113.696C99.8401 113.272 100.511 109.896 101.865 108.596C101.865 108.596 99.8948 110.618 99.0637 110.066C99.0437 108.707 99.308 107.359 99.8397 106.108C100.371 104.857 101.159 103.731 102.151 102.803C101.404 103.341 100.602 103.799 99.7597 104.17C98.4517 104.728 102.84 98.8388 106.321 97.628C105.705 97.7838 105.066 97.8253 104.436 97.7506C102.943 97.5068 108.826 93.3566 112.91 94.1325C112.91 94.1325 111.73 93.1679 111.238 93.1809C112.106 92.2536 125.168 91.9346 129.971 96.7912C134.046 95.1064 141.692 100.592 144.464 102.173C146.911 103.055 149.513 103.427 152.109 103.266C155.307 102.661 156.029 103.864 155.918 105.651C155.859 106.165 155.651 106.65 155.321 107.048C154.99 107.446 154.551 107.74 154.057 107.892C149.467 111.561 140.138 113.966 134.385 114.889ZM130.399 115.905C129.526 116.151 128.54 116.424 127.402 116.687C127.525 118.572 127.974 120.834 129.75 121.059C130.285 121.138 131.485 121.249 131.757 120.777C132.03 120.305 131.148 120.135 130.609 119.129C130.217 118.1 130.144 116.976 130.399 115.905ZM108.243 117.591C108.196 119.488 108.741 122.046 110.593 122.286C111.141 122.377 111.702 122.341 112.234 122.179C112.752 121.994 112.707 121.599 112.506 121.423C112.048 121.137 111.677 120.732 111.432 120.251C111.187 119.769 111.078 119.231 111.117 118.692L111.182 117.949C110.197 117.938 109.203 117.794 108.243 117.591ZM131.736 115.496C131.802 116.514 131.943 118.683 132.867 119.209C133.265 119.466 133.715 119.629 134.184 119.687C134.653 119.745 135.13 119.697 135.578 119.544C136.53 119.047 135.139 118.626 134.475 117.723C133.81 116.819 134.067 116.405 134.032 114.987C133.257 115.116 132.491 115.292 131.737 115.515L131.736 115.496ZM112.673 118.155C112.72 118.891 113.04 120.025 113.675 120.476C115.036 121.315 116.569 121.007 116.705 120.487C116.842 119.967 115.279 119.52 114.931 118.236C114.211 118.226 113.471 118.198 112.673 118.155ZM131.272 115.64L130.827 115.783C130.965 117.913 130.78 118.55 131.902 119.499C131.281 118.314 131.073 116.955 131.31 115.638L131.272 115.64ZM111.721 118.085C111.792 119.178 111.703 119.847 112.743 120.688C112.267 119.918 112.031 119.024 112.064 118.119L111.721 118.085ZM151.736 103.65C150.395 103.764 149.046 103.769 147.704 103.666C143.899 103.384 143.84 102.479 138.36 99.4268C131.607 95.7383 130.281 97.1877 129.88 97.138C129.229 97.8998 126.39 101.701 132.915 102.469C131.42 103.053 130.158 104.113 129.325 105.486L131.945 105.315C130.735 105.919 129.72 106.851 129.015 108.005C130.082 107.931 131.121 107.631 132.063 107.125C131.107 108.16 130.272 109.3 129.576 110.525C129.175 111.63 131.5 110.987 132.951 110.305C132.078 110.941 131.422 111.829 131.072 112.851C130.624 114.414 132.995 113.313 133.843 112.671C134.691 112.029 132.481 114.426 133.781 114.341C134.649 114.285 147.271 111.571 153.171 107.666C151.479 106.98 151.555 104.647 151.774 103.648L151.736 103.65Z" fill="#090915"/>
</svg>
