<svg width="285" height="224" viewBox="0 0 285 224" fill="none" xmlns="http://www.w3.org/2000/svg">
<path fill-rule="evenodd" clip-rule="evenodd" d="M27.1483 112.416C26.2487 113.756 26.0249 113.803 26.2048 114.756C26.3847 115.708 26.6053 116.177 25.9547 116.622C24.853 117.344 23.3832 115.863 23.0076 114.462C22.9878 114.597 22.9416 114.726 22.8715 114.842C22.8014 114.959 22.7089 115.06 22.5994 115.141C22.4898 115.222 22.3654 115.28 22.2333 115.312C22.1012 115.344 21.964 115.35 21.8297 115.329C21.1176 115.146 20.5044 114.694 20.12 114.068C18.9293 112.523 19.9803 110.664 21.4221 109.37C18.5928 107.757 15.935 105.86 13.4898 103.709C13.3557 104.283 13.6452 104.973 13.667 105.508C13.6714 106.422 12.6387 106.93 11.5566 106.095C10.9478 105.606 10.5127 104.934 10.3155 104.179C10.2957 104.314 10.2494 104.443 10.1794 104.559C10.1093 104.676 10.0168 104.777 9.90726 104.858C9.79772 104.938 9.67329 104.997 9.54117 105.029C9.40906 105.061 9.27187 105.067 9.13754 105.046C8.42549 104.863 7.81233 104.411 7.42784 103.784C7.17125 103.456 7.00418 103.067 6.94292 102.654C6.88166 102.242 6.92831 101.821 7.0783 101.432C7.4928 100.412 8.16236 99.5149 9.02284 98.8276C8.46767 98.0524 7.96274 97.2425 7.51118 96.4027C7.51118 96.4027 6.8953 94.8898 9.17115 95.5542C9.17115 95.5542 7.78845 95.0134 7.01676 94.7399C6.24507 94.4665 7.8619 92.8795 9.1175 92.8621C8.22683 92.6675 7.36043 92.375 6.53409 91.9899C6.48967 91.4573 8.85813 89.7344 10.4553 89.7041C10.4553 89.7041 8.05653 89.8299 7.85574 89.005C8.62792 88.144 9.5716 87.454 10.6262 86.9793C11.6808 86.5045 12.823 86.2555 13.9795 86.2482C13.2018 86.1527 12.4363 85.9763 11.6952 85.7218C10.5553 85.3155 16.6992 84.1683 19.574 85.4215C19.0993 85.1633 18.6758 84.8203 18.3248 84.4094C17.5326 83.3951 23.6067 84.1985 25.7109 87.0414C25.7109 87.0414 25.5305 85.7572 25.2158 85.4816C26.2935 85.4028 34.6422 92.7463 34.8398 98.5554C38.3597 99.8553 39.9709 107.7 40.791 110.288C41.8114 112.252 43.2226 113.987 44.9378 115.386C47.2865 116.855 47.0432 118.023 45.9419 119.076C45.6082 119.363 45.1981 119.547 44.7616 119.605C44.3252 119.663 43.8813 119.592 43.4842 119.402C38.4971 119.045 31.277 115.161 27.1483 112.416ZM24.0702 110.75C23.3818 110.399 22.6084 110 21.7452 109.508C20.733 110.757 19.7082 112.43 20.6878 113.597C20.9769 113.955 21.6627 114.717 22.1055 114.58C22.5483 114.442 22.0951 113.826 22.3394 112.886C22.6885 112.016 23.2917 111.272 24.0702 110.75ZM9.2477 99.0098C8.12316 100.168 6.9864 102.082 8.00585 103.301C8.29514 103.675 8.66717 103.976 9.09268 104.181C9.52343 104.365 9.72348 104.092 9.69977 103.866C9.57834 103.423 9.58016 102.955 9.70502 102.513C9.82988 102.071 10.0731 101.671 10.4083 101.357L10.878 100.931C10.2689 100.354 9.73062 99.6908 9.2477 99.0098ZM25.1417 111.266C24.5951 111.941 23.4312 113.377 23.7046 114.24C23.8047 114.63 23.9917 114.992 24.2516 115.3C24.5115 115.607 24.8375 115.851 25.2052 116.015C26.0876 116.254 25.4614 115.188 25.5677 114.239C25.674 113.291 26.0739 113.18 26.8705 112.274C26.3119 111.907 25.7311 111.574 25.1315 111.279L25.1417 111.266ZM11.6905 101.92C11.2957 102.407 10.8407 103.301 10.9773 103.95C11.3434 105.26 12.4791 105.953 12.8648 105.706C13.2505 105.46 12.5321 104.278 13.0556 103.274C12.6112 102.852 12.1645 102.408 11.6905 101.92ZM24.7686 111.088L24.4081 110.92C23.2644 112.332 22.7805 112.623 22.9335 113.864C23.2304 112.764 23.8848 111.795 24.7936 111.108L24.7686 111.088ZM11.1367 101.327C10.5497 102.051 10.108 102.417 10.2718 103.543C10.4194 102.787 10.7881 102.092 11.3312 101.546L11.1367 101.327ZM44.4831 115.411C43.5792 114.707 42.7334 113.932 41.9539 113.093C39.7388 110.719 40.2246 110.119 38.5611 105.047C36.4702 98.8417 34.8045 98.9821 34.5827 98.7196C33.7359 98.8198 29.7665 99.5561 33.4012 103.805C32.1291 103.306 30.7283 103.24 29.4149 103.617L31.1514 105.023C30.0465 104.702 28.8735 104.698 27.7667 105.013C28.4763 105.582 29.2988 105.995 30.1797 106.223C28.9849 106.317 27.8048 106.548 26.6626 106.912C25.7734 107.371 27.5981 108.311 28.8987 108.723C27.9861 108.616 27.0627 108.793 26.2541 109.229C25.072 109.948 27.1895 110.629 28.0904 110.717C28.9913 110.805 26.2254 111.027 27.0873 111.725C27.662 112.191 37.1188 117.784 43.0614 118.749C42.3996 117.344 43.7944 115.929 44.5081 115.431L44.4831 115.411Z" fill="#090915"/>
<path fill-rule="evenodd" clip-rule="evenodd" d="M134.549 190.223C134.395 191.072 135.382 191.906 136.6 191.328C136.618 191.328 136.635 191.325 136.651 191.317C136.667 191.31 136.681 191.298 136.692 191.285C136.703 191.271 136.711 191.255 136.715 191.238C136.718 191.22 136.718 191.203 136.714 191.185C136.71 191.168 136.702 191.152 136.691 191.139C136.68 191.125 136.666 191.114 136.65 191.107C136.634 191.1 136.616 191.096 136.599 191.096C136.581 191.097 136.564 191.101 136.548 191.109L135.978 191.006C135.65 190.983 135.341 190.843 135.107 190.612C134.976 190.491 134.865 190.352 134.776 190.198C134.777 190.181 134.774 190.164 134.768 190.149C134.762 190.133 134.753 190.118 134.741 190.107C134.728 190.095 134.714 190.086 134.698 190.08C134.682 190.075 134.665 190.073 134.648 190.075C134.631 190.077 134.615 190.082 134.6 190.091C134.586 190.1 134.573 190.112 134.564 190.126C134.554 190.14 134.548 190.156 134.545 190.172C134.543 190.189 134.544 190.206 134.549 190.223ZM58.4238 145.058C58.0437 144.413 57.9152 143.65 58.063 142.915C58.2108 142.181 58.6244 141.527 59.2246 141.079C59.5449 141.753 59.6691 142.504 59.5831 143.246C59.4971 143.987 59.2044 144.689 58.7384 145.272C58.711 146.001 58.7147 146.918 58.753 147.789C59.1878 145.393 60.9693 145.389 60.9693 145.389C61.1255 147.486 60.1118 148.599 58.8097 148.847C58.8976 149.95 59.0501 151.129 59.2394 152.251C59.446 149.381 61.5028 149.375 61.5028 149.375C61.6717 151.474 60.628 152.607 59.3306 152.83C59.5325 153.954 59.7899 155.205 60.0806 156.345C60.1765 153.219 62.3647 153.211 62.3647 153.211C62.5151 155.268 61.5371 156.399 60.2708 156.667C60.1442 156.69 60.0135 156.667 59.9032 156.6C59.1175 156.286 58.4404 155.75 57.9546 155.057C57.4688 154.364 57.1953 153.545 57.1677 152.699C57.6296 152.82 58.0621 153.034 58.4388 153.328C58.8155 153.621 59.1285 153.988 59.3587 154.407C59.1695 153.718 59.0484 153.159 58.9456 152.643C58.1907 152.26 57.5576 151.674 57.1174 150.951C56.6773 150.228 56.4476 149.397 56.4543 148.55C56.9601 148.748 57.4184 149.051 57.7993 149.438C58.1802 149.826 58.4752 150.289 58.6651 150.798C58.5693 150.099 58.4896 149.457 58.4548 148.782C57.7122 148.381 57.0956 147.782 56.6734 147.051C56.2513 146.32 56.0402 145.487 56.0637 144.643C56.6292 144.884 57.131 145.253 57.53 145.721C57.929 146.189 58.2142 146.742 58.3634 147.339C58.3386 146.578 58.3587 145.816 58.4238 145.058ZM93.7807 148.137C91.5938 144.676 93.6443 142.613 93.6443 142.613C94.0546 142.91 94.3998 143.288 94.6585 143.724C94.9172 144.159 95.0839 144.643 95.1485 145.145C95.2131 145.648 95.1742 146.158 95.034 146.645C94.8939 147.132 94.6556 147.585 94.3338 147.976C94.3444 148.949 94.2772 149.922 94.133 150.885C94.5507 150.19 95.1411 149.615 95.8469 149.215C96.5526 148.816 97.3498 148.605 98.1608 148.605C98.0501 149.697 97.5501 150.714 96.7521 151.468C95.9541 152.222 94.9113 152.664 93.8143 152.713C93.6648 153.537 93.4265 154.345 93.164 155.214C93.6061 154.649 94.1708 154.193 94.8153 153.879C95.4598 153.565 96.1673 153.402 96.8843 153.401C96.7606 154.52 96.2337 155.554 95.402 156.312C94.5703 157.07 93.491 157.498 92.3661 157.517C92.1151 158.179 91.8261 158.834 91.4702 159.568C91.9608 159.118 92.5409 158.776 93.1725 158.566C93.8041 158.356 94.473 158.281 95.1354 158.347C94.9041 159.427 94.2945 160.388 93.4166 161.057C92.5388 161.726 91.4506 162.059 90.3486 161.996C90.1418 161.986 89.9373 161.949 89.7401 161.885C88.7089 161.474 87.8594 160.706 87.3462 159.722C86.8329 158.737 86.6899 157.601 86.9431 156.52C87.9567 156.878 88.8174 157.572 89.3824 158.487C89.9475 159.402 90.183 160.482 90.05 161.549C90.6807 160.218 91.2426 158.856 91.7335 157.468C90.6639 157.083 89.7731 156.318 89.2302 155.319C88.6874 154.32 88.5304 153.157 88.789 152.05C89.7378 152.402 90.5484 153.05 91.1017 153.897C91.6549 154.745 91.9215 155.748 91.8624 156.758C92.3301 155.412 92.7149 154.039 93.0146 152.646C91.9699 152.243 91.1062 151.476 90.5832 150.486C90.0602 149.495 89.9131 148.349 90.1692 147.259C91.0475 147.545 91.8222 148.084 92.3964 148.807C92.9706 149.531 93.319 150.408 93.398 151.328C93.5855 150.223 93.7234 149.03 93.7807 148.137ZM76.8161 130.655C75.7699 126.969 77.1195 123.718 81.3307 122.086C81.3307 122.086 83.4845 126.811 77.6448 131.211C77.1878 132.791 76.6952 134.784 76.3373 136.683C77.0246 135.23 78.1171 134.007 79.4833 133.161C80.8495 132.315 82.4312 131.881 84.0379 131.913C83.4009 136.433 79.9815 138.824 75.9313 139.136C75.5783 141.615 75.3697 144.113 75.3066 146.617C75.859 144.904 76.9488 143.414 78.4145 142.368C79.8802 141.323 81.6437 140.778 83.4436 140.814C82.7916 145.344 79.3699 147.747 75.284 148.04C75.2343 150.824 75.332 153.608 75.5768 156.382C75.9694 154.447 77.0277 152.712 78.5676 151.477C80.1075 150.242 82.0316 149.586 84.005 149.623C83.3507 154.166 79.9037 156.565 75.835 156.834C75.5889 156.884 75.3338 156.86 75.101 156.767C73.9343 156.329 72.8537 155.69 71.9085 154.878C70.8491 153.98 70.0509 152.814 69.598 151.501C69.145 150.189 69.054 148.778 69.3344 147.418C71.4846 148.057 73.295 149.52 74.37 151.488C74.2441 150.234 74.178 148.939 74.1581 147.679C70.4322 145.915 68.0954 142.414 69.1681 137.948C70.3745 138.401 71.461 139.125 72.3438 140.063C73.2267 141.002 73.8824 142.131 74.2605 143.363C74.3569 141.823 74.5143 140.306 74.7305 138.826C71.1394 136.97 68.9859 133.541 70.0033 129.235C71.3831 129.732 72.6076 130.584 73.5534 131.705C74.4993 132.826 75.1331 134.177 75.391 135.621C75.7456 133.911 76.2258 132.23 76.8276 130.591L76.8161 130.655ZM76.4277 178.167C76.7592 176.918 78.5845 177.249 79.6184 177.973C79.7046 178.009 79.7793 178.068 79.8346 178.144C79.8899 178.219 79.9237 178.308 79.9324 178.401C79.9411 178.494 79.9243 178.588 79.8838 178.672C79.8434 178.756 79.7808 178.828 79.7027 178.879C79.3748 179.138 79.0061 179.341 78.6117 179.48C80.5165 179.734 81.5688 180.645 79.9581 181.439C79.5219 181.696 79.0082 181.787 78.5104 181.697C78.0126 181.606 77.5638 181.34 77.2455 180.947C77.2066 182.027 76.5477 182.627 75.2582 182.301C74.4077 182.082 74.176 181.699 74.2127 181.352C74.2823 181.041 74.4479 180.76 74.6861 180.548C73.6399 180.829 72.2779 180.975 71.9538 179.947C71.6297 178.919 72.6241 178.851 73.6163 178.94C72.3117 178.192 73.1618 177.26 74.6609 177.152C75.0272 177.092 75.4032 177.16 75.7252 177.344C76.0471 177.529 76.2953 177.82 76.4277 178.167ZM76.8189 180.267C76.4815 180.265 76.147 180.204 75.8302 180.088C75.7185 180.198 74.1297 181.088 74.7256 181.629C75.046 181.883 76.2272 182.229 76.6569 181.665C76.8846 181.236 76.9425 180.737 76.8189 180.267ZM74.8874 179.367C74.0001 179.206 72.0169 178.95 72.2926 179.812C72.5682 180.674 74.4475 180.203 75.3923 179.904C75.1713 179.793 74.9924 179.613 74.8828 179.392L74.8874 179.367ZM77.2199 180.222C77.3521 180.513 77.5569 180.766 77.8146 180.955C78.0724 181.145 78.3745 181.265 78.692 181.304C79.0094 181.343 79.3317 181.301 79.6278 181.179C79.9239 181.058 80.184 180.863 80.3831 180.613C80.4061 180.486 80.2067 180.358 80.0892 180.285C79.4315 179.942 78.7034 179.756 77.9619 179.741C77.8922 179.871 77.7936 179.982 77.6737 180.067C77.5538 180.152 77.4158 180.209 77.2706 180.231L77.2199 180.222ZM76.5247 178.787C77.0571 178.883 77.941 179.423 77.5551 179.746C77.1731 179.905 76.7535 179.95 76.3466 179.876C75.9397 179.802 75.5627 179.612 75.2608 179.33C74.9034 178.846 75.9416 178.681 76.5316 178.749L76.5247 178.787ZM76.3748 178.602C75.9905 176.464 72.9418 177.534 73.2831 178.251C73.4676 178.677 74.4633 178.962 74.862 179.074C75.0312 178.502 75.8367 178.465 76.3817 178.564L76.3748 178.602ZM77.9664 179.428C78.5569 179.28 79.1099 179.011 79.5897 178.636C79.6934 178.498 79.7015 178.381 79.4686 178.221C78.3657 177.445 76.5496 177.207 76.5189 178.602C76.671 178.63 77.6724 178.812 77.9525 179.36L77.9664 179.428ZM65.5604 170.302C65.7185 170.024 65.9742 169.815 66.2778 169.715C66.5815 169.616 66.9114 169.632 67.2034 169.762C68.3777 170.146 68.923 171.109 67.7777 171.503C68.589 171.65 69.2909 172.04 68.8613 172.747C68.4317 173.455 67.3634 173.209 66.5544 172.761C67.004 173.602 66.6285 174.083 65.6709 174.093C64.7134 174.102 64.1267 173.511 64.2647 172.607C63.9271 172.864 63.5076 172.99 63.0842 172.961C62.6607 172.933 62.2621 172.751 61.9623 172.451C60.8259 171.498 61.7141 170.861 63.4023 171.01C63.0565 170.751 62.4514 170.261 62.5908 169.855C62.8464 169.168 65.4874 168.901 65.5673 170.264L65.5604 170.302ZM65.6335 172.135C65.365 172.163 65.0938 172.145 64.8315 172.081C64.6459 172.446 64.5978 172.864 64.6958 173.261C64.9184 173.839 65.9128 173.77 66.2412 173.62C66.5695 173.47 66.324 173.164 66.226 172.911C66.0664 172.64 65.8744 172.389 65.6542 172.165L65.6335 172.135ZM63.9624 171.387C63.2526 171.258 61.5414 171.235 61.9288 171.842C62.096 172.083 62.3228 172.275 62.5868 172.401C62.8509 172.527 63.1432 172.582 63.435 172.561C63.8308 172.471 64.1868 172.256 64.45 171.947C64.3274 171.893 64.2196 171.811 64.1359 171.707C64.0522 171.603 63.995 171.48 63.9693 171.349L63.9624 171.387ZM66.1094 172.038C66.7928 172.529 68.1458 173.298 68.6308 172.575C69.1157 171.851 67.3826 171.733 66.6416 171.703C66.5011 171.853 66.3177 171.957 66.1163 172L66.1094 172.038ZM65.3473 170.826C65.8152 170.846 66.5827 171.234 66.2521 171.54C65.96 171.707 65.6266 171.786 65.291 171.769C64.9555 171.752 64.6317 171.64 64.3577 171.445C64.0603 171.064 64.8634 170.752 65.3542 170.788L65.3473 170.826ZM65.3749 170.674C65.4325 170.357 65.4496 169.902 64.9022 169.672C64.3548 169.442 62.9133 169.664 62.8673 169.918C62.8213 170.171 63.756 170.865 64.0372 171.047C64.3839 170.507 65.2378 170.636 65.3819 170.636L65.3749 170.674ZM66.6738 171.381C67.0552 171.372 67.8653 171.31 68.0541 170.99C68.243 170.671 67.5941 170.134 67.1009 169.966C66.7924 169.855 66.453 169.865 66.152 169.996C65.851 170.126 65.611 170.366 65.481 170.667C66.0064 170.658 66.6368 170.864 66.6784 171.356L66.6738 171.381ZM78.0057 168.031C78.0427 168.404 77.492 168.697 77.1487 168.857C78.8472 169.165 78.9085 169.91 77.9926 170.411C77.6897 170.593 77.3312 170.658 76.9837 170.595C76.6362 170.532 76.3235 170.345 76.1039 170.068C75.9658 170.829 75.5442 171.276 74.62 171.03C73.6958 170.784 73.6541 170.292 74.0942 169.743C73.7344 169.863 73.3516 169.896 72.9764 169.841C72.8501 169.829 72.7282 169.788 72.6207 169.72C72.5132 169.653 72.423 169.561 72.3575 169.452C72.2919 169.344 72.2527 169.221 72.2431 169.095C72.2334 168.968 72.2536 168.841 72.302 168.724C72.4805 168.389 72.9852 168.35 73.377 168.356C72.9367 168.04 72.9378 167.674 73.1935 167.419C73.3844 167.26 73.6054 167.141 73.8434 167.069C74.0815 166.998 74.3315 166.975 74.5785 167.003C74.7758 167.037 74.96 167.125 75.1114 167.256C75.2628 167.388 75.3758 167.557 75.4383 167.748C75.801 166.688 77.9491 167.405 78.0126 167.993L78.0057 168.031ZM75.7027 169.537C75.4862 169.537 75.2716 169.498 75.0689 169.422C74.6951 169.624 74.3979 169.942 74.2234 170.329C74.1843 170.545 74.5046 170.655 74.7178 170.707C75.5579 170.912 75.847 170.402 75.7096 169.499L75.7027 169.537ZM74.3405 168.819C73.9475 168.747 72.8194 168.543 72.5959 168.908C72.5683 169.06 72.6053 169.433 73.0363 169.512C73.5894 169.537 74.1402 169.425 74.6402 169.187C74.5068 169.096 74.4027 168.968 74.3405 168.819ZM77.0062 170.219C77.2098 170.241 77.4156 170.219 77.6101 170.155C77.8046 170.091 77.9833 169.986 78.1342 169.848C78.2908 169.706 78.2413 169.618 78.0649 169.508C77.6228 169.247 77.1203 169.106 76.6071 169.099C76.5539 169.192 76.482 169.272 76.3962 169.335C76.3103 169.399 76.2123 169.443 76.1083 169.467C76.1897 169.652 76.3136 169.816 76.47 169.944C76.6264 170.073 76.8109 170.163 77.0085 170.206L77.0062 170.219ZM75.5088 168.297C75.1285 168.228 74.4567 168.395 74.6493 168.704C74.8091 168.864 75.0049 168.983 75.2202 169.052C75.4355 169.121 75.6641 169.137 75.887 169.099C76.6935 168.984 76.1691 168.483 75.5088 168.297ZM75.3716 168.115C75.0784 166.556 73.0564 167.381 73.2398 167.886C73.4231 168.39 73.9866 168.388 74.2989 168.471C74.5407 168.004 75.2448 168.092 75.4223 168.125L75.3716 168.115ZM76.5702 168.726C77.0299 168.574 77.9804 168.17 77.6058 167.853C76.8221 167.266 75.5937 167.108 75.5617 168.15C75.7679 168.157 75.9695 168.213 76.1494 168.314C76.3293 168.415 76.4823 168.558 76.5955 168.73L76.5702 168.726ZM179.831 188.177C180.091 187.321 181.364 187.525 182.123 188.03C182.186 188.063 182.241 188.112 182.281 188.171C182.321 188.23 182.346 188.298 182.354 188.37C182.362 188.441 182.352 188.513 182.325 188.579C182.299 188.646 182.256 188.705 182.202 188.751C182 188.938 181.769 189.091 181.517 189.203C183.115 189.493 183.325 190.212 182.39 190.671C182.097 190.87 181.741 190.954 181.389 190.907C181.038 190.86 180.716 190.686 180.485 190.417C180.421 191.204 179.938 191.627 178.988 191.454C178.037 191.282 178.022 190.716 178.449 190.165C177.69 190.381 176.829 190.434 176.601 189.672C176.372 188.911 176.984 188.786 177.692 188.784C176.878 188.217 177.528 187.523 178.554 187.421C178.822 187.375 179.098 187.426 179.331 187.565C179.565 187.703 179.742 187.92 179.831 188.177ZM180.082 189.898C179.861 189.897 179.642 189.857 179.435 189.781C179.076 190.03 178.636 190.434 178.613 190.705C178.59 190.976 178.896 191.019 179.107 191.083C179.589 191.171 179.853 191.087 179.983 190.875C180.11 190.566 180.144 190.227 180.082 189.898ZM178.698 189.228C178.305 189.157 177.163 189.028 176.961 189.345C176.938 189.377 176.922 189.415 176.915 189.454C176.908 189.494 176.909 189.534 176.92 189.573C177.124 190.252 178.327 189.828 178.972 189.592C178.85 189.497 178.755 189.372 178.698 189.228ZM180.47 189.851C180.533 190.014 180.631 190.16 180.758 190.28C180.884 190.4 181.036 190.491 181.202 190.544C181.367 190.598 181.543 190.615 181.716 190.592C181.889 190.569 182.055 190.509 182.201 190.414C182.724 190.129 182.643 189.997 182.434 189.854C181.985 189.608 181.483 189.476 180.971 189.47C180.92 189.566 180.848 189.649 180.762 189.715C180.675 189.781 180.576 189.827 180.47 189.851ZM179.904 188.714C180.284 188.783 180.878 189.192 180.591 189.401C180.336 189.512 180.055 189.544 179.782 189.495C179.509 189.445 179.257 189.316 179.057 189.123C178.85 188.824 179.517 188.683 179.904 188.714ZM179.767 188.532C179.459 186.983 177.432 187.833 177.63 188.327C177.829 188.822 178.39 188.832 178.692 188.9C178.839 188.52 179.361 188.458 179.767 188.532ZM180.97 189.117C181.417 188.962 182.385 188.536 181.993 188.242C181.184 187.65 179.961 187.533 179.944 188.564C180.144 188.571 180.34 188.624 180.516 188.72C180.692 188.815 180.843 188.95 180.957 189.114L180.97 189.117ZM172.473 182.979C172.624 182.675 172.882 182.438 173.197 182.313C173.512 182.189 173.863 182.187 174.18 182.306C175.422 182.676 176.075 183.698 174.83 184.205C175.163 184.248 175.486 184.346 175.786 184.496C175.878 184.536 175.961 184.596 176.029 184.671C176.097 184.745 176.148 184.834 176.179 184.93C176.21 185.026 176.22 185.128 176.208 185.228C176.197 185.328 176.164 185.425 176.112 185.511C175.658 186.424 174.54 186.09 173.645 185.614C174.171 186.468 173.927 187.092 172.813 187.165C172.596 187.217 172.369 187.212 172.154 187.15C171.939 187.087 171.744 186.97 171.588 186.81C171.433 186.65 171.321 186.451 171.265 186.235C171.209 186.018 171.21 185.791 171.269 185.575C170.933 185.885 170.491 186.054 170.034 186.047C169.577 186.039 169.14 185.856 168.815 185.535C167.55 184.494 168.579 183.804 170.314 183.909C169.981 183.697 169.688 183.427 169.451 183.111C169.393 183.048 169.352 182.971 169.332 182.888C169.312 182.805 169.313 182.718 169.336 182.636C169.359 182.554 169.402 182.478 169.462 182.418C169.522 182.357 169.597 182.312 169.679 182.288C170.731 181.759 172.357 181.818 172.461 182.976L172.473 182.979ZM172.658 184.989C172.368 185.023 172.074 185.01 171.788 184.949C171.638 185.364 171.61 185.814 171.71 186.244C171.835 186.568 172.15 186.782 172.798 186.743C173.447 186.704 173.731 186.441 173.34 185.781C173.135 185.494 172.902 185.228 172.646 184.987L172.658 184.989ZM170.818 184.236C170.164 184.109 169.489 184.154 168.857 184.365C168.714 184.43 168.607 184.516 168.599 184.632C168.712 184.899 168.897 185.128 169.133 185.296C169.37 185.464 169.647 185.564 169.936 185.584C170.225 185.604 170.514 185.543 170.771 185.409C171.028 185.275 171.243 185.073 171.392 184.825C171.258 184.777 171.136 184.7 171.036 184.598C170.937 184.496 170.862 184.372 170.818 184.236ZM173.088 184.858C173.856 185.39 175.346 186.197 175.776 185.346C176.205 184.494 174.45 184.424 173.611 184.429C173.49 184.622 173.312 184.773 173.101 184.86L173.088 184.858ZM172.254 183.541C172.773 183.635 173.595 183.942 173.253 184.312C172.957 184.517 172.604 184.626 172.244 184.624C171.883 184.622 171.532 184.508 171.239 184.299C170.878 183.907 171.711 183.573 172.254 183.541ZM172.281 183.389C172.33 183.173 172.305 182.948 172.211 182.748C172.116 182.549 171.958 182.386 171.761 182.286C171.02 181.968 169.627 182.357 169.585 182.664C169.542 182.97 170.565 183.68 170.895 183.884C171.186 183.36 171.98 183.387 172.281 183.389ZM173.694 184.117C174.118 184.089 175.026 183.992 175.186 183.615C175.346 183.238 174.611 182.673 174.08 182.498C173.912 182.44 173.734 182.417 173.557 182.431C173.381 182.445 173.209 182.495 173.052 182.578C172.896 182.662 172.758 182.777 172.648 182.916C172.538 183.055 172.458 183.215 172.413 183.387C172.974 183.397 173.629 183.607 173.694 184.117ZM249.468 217.223C247.884 215.561 250.375 215.686 250.977 216.123C251.1 216.2 251.2 216.31 251.266 216.439C251.332 216.569 251.363 216.714 251.354 216.859C252.524 215.605 254.696 217.78 253.103 218.185C253.472 218.317 253.916 218.542 253.978 218.92C253.976 219.051 253.943 219.18 253.882 219.296C253.821 219.412 253.734 219.512 253.627 219.588C253.52 219.664 253.397 219.714 253.267 219.734C253.137 219.754 253.005 219.743 252.88 219.702C252.53 219.603 252.205 219.432 251.924 219.201C252.128 219.88 251.838 220.325 250.954 220.217C250.07 220.109 249.76 219.581 249.916 218.719C249.712 218.829 249.486 218.89 249.255 218.9C247.991 219.011 246.629 216.63 249.468 217.223ZM250.565 218.392C250.379 218.676 250.29 219.014 250.312 219.354C250.359 219.598 250.56 219.792 251.059 219.856C251.261 219.893 251.591 219.953 251.652 219.689C251.64 219.264 251.483 218.857 251.207 218.534C250.988 218.51 250.773 218.462 250.565 218.392ZM252.086 218.236C251.978 218.357 251.834 218.44 251.676 218.475C252.175 218.972 253.161 219.74 253.601 219.192C254.041 218.643 252.692 218.359 252.086 218.236ZM249.853 217.699C249.369 217.517 248.847 217.463 248.336 217.542C248.235 217.523 248.143 217.598 248.116 217.672C248.167 217.885 248.275 218.079 248.428 218.236C248.581 218.392 248.773 218.504 248.984 218.56C249.196 218.616 249.418 218.613 249.628 218.553C249.838 218.492 250.028 218.376 250.178 218.217C250.092 218.156 250.019 218.08 249.963 217.991C249.907 217.902 249.869 217.803 249.853 217.699ZM251.105 217.364C251.485 217.433 252.064 217.852 251.767 218.047C251.512 218.157 251.231 218.189 250.958 218.14C250.685 218.09 250.432 217.961 250.233 217.768C250.073 217.425 250.75 217.299 251.135 217.343L251.105 217.364ZM252.175 217.964C252.491 218.021 253.156 218.037 253.369 217.801C253.583 217.565 253.08 217.015 252.71 216.817C252.592 216.753 252.462 216.712 252.328 216.699C252.195 216.685 252.06 216.698 251.931 216.736C251.802 216.775 251.682 216.839 251.578 216.924C251.474 217.01 251.388 217.115 251.325 217.233C251.733 217.294 252.202 217.523 252.204 217.943L252.175 217.964ZM251.148 217.201C251.484 216.215 250.281 215.918 249.343 216.18C248.832 216.323 249.616 217.054 249.993 217.358C250.161 217.235 250.357 217.154 250.563 217.123C250.77 217.092 250.981 217.112 251.178 217.18L251.148 217.201ZM257.467 214.918C256.466 214.016 257.413 213.271 258.731 213.366C259.072 213.366 259.401 213.491 259.654 213.718C259.908 213.946 260.069 214.259 260.105 214.598C260.607 213.563 262.14 214.064 262.96 214.88C263.604 215.521 262.686 215.957 261.808 216.177C263.481 216.703 264.15 217.702 262.628 218.224C262.213 218.413 261.741 218.433 261.312 218.279C260.882 218.126 260.53 217.811 260.329 217.401C260.309 217.626 260.23 217.841 260.101 218.026C259.971 218.21 259.796 218.357 259.592 218.453C259.388 218.548 259.162 218.589 258.937 218.57C258.713 218.551 258.497 218.473 258.312 218.344C257.295 217.885 257.299 217.218 258.076 216.613C257.085 216.734 255.911 216.639 255.817 215.64C255.724 214.641 256.645 214.69 257.497 214.897L257.467 214.918ZM259.225 216.415C258.9 216.563 258.59 216.743 258.302 216.955C257.677 217.443 257.791 217.752 258.456 218.056C259.121 218.36 259.419 218.231 259.65 217.972C259.905 217.61 260.039 217.175 260.032 216.732C259.757 216.661 259.495 216.547 259.255 216.394L259.225 216.415ZM260.479 216.721C260.511 216.95 260.596 217.167 260.726 217.358C260.856 217.548 261.028 217.707 261.229 217.82C261.429 217.934 261.653 218 261.884 218.013C262.114 218.027 262.344 217.987 262.557 217.897C262.753 217.828 263.104 217.695 263.164 217.51C263.224 217.324 263.137 217.296 263.016 217.169C262.496 216.755 261.88 216.477 261.225 216.359C261.139 216.466 261.029 216.551 260.905 216.61C260.782 216.669 260.646 216.7 260.509 216.701L260.479 216.721ZM258.553 215.573C257.757 215.271 256.073 214.809 256.205 215.671C256.336 216.532 257.976 216.372 258.892 216.158C258.794 216.085 258.712 215.992 258.651 215.887C258.589 215.781 258.549 215.664 258.532 215.543L258.553 215.573ZM260.138 215.206C260.635 215.427 261.298 216.032 260.822 216.273C260.472 216.364 260.103 216.347 259.763 216.225C259.423 216.102 259.128 215.88 258.917 215.587C258.708 215.078 259.595 215.029 260.118 215.176L260.138 215.206ZM261.303 216.007C261.68 215.944 262.889 215.705 262.971 215.327C263.053 214.949 260.573 213.243 260.194 215.046C260.518 215.145 260.818 215.311 261.074 215.533C261.182 215.657 261.25 215.811 261.269 215.974L261.303 216.007ZM260.044 215.006C260.101 212.96 257.273 213.534 257.38 214.247C257.448 214.665 258.223 215.081 258.611 215.256C258.819 214.757 259.545 214.797 260.01 214.973L260.044 215.006ZM172.544 153.086C171.884 152.324 173.572 152.185 173.72 152.814C174.236 152.28 175.304 153.102 174.818 153.472C175.492 153.725 175.118 154.417 174.568 154.343C174.452 154.341 174.336 154.32 174.226 154.281C174.283 154.907 172.982 154.933 172.942 154.14C172.091 154.43 171.245 153.033 172.544 153.086ZM173.624 153.845L173.409 153.805C173.261 154.185 173.415 154.278 173.662 154.284C173.727 154.295 173.794 154.284 173.851 154.252C173.808 154.094 173.721 153.951 173.599 153.84L173.624 153.845ZM179.87 153.342C179.692 153.165 179.429 152.882 179.526 152.638C179.623 152.393 181.266 152.142 181.351 152.969C182.093 152.056 183.734 153.401 182.767 153.828C183.882 154.175 183.302 155.064 182.56 154.969C182.334 154.933 182.117 154.853 181.921 154.735C182.053 155.165 181.864 155.484 181.224 155.473C180.585 155.462 180.272 155.091 180.346 154.541C180.128 154.661 179.875 154.702 179.631 154.658C179.386 154.613 179.164 154.486 179.002 154.297C178.47 153.768 178.723 153.238 179.844 153.337L179.87 153.342ZM172.921 153.39C172.689 153.348 172.45 153.359 172.222 153.42L172.343 153.547C172.384 153.597 172.435 153.638 172.493 153.667C172.551 153.696 172.615 153.713 172.679 153.716C172.744 153.719 172.809 153.709 172.87 153.685C172.93 153.662 172.985 153.626 173.031 153.58C172.972 153.548 172.922 153.503 172.884 153.448L172.921 153.39ZM174.1 153.604C174.285 153.742 174.696 154 174.824 153.8C174.952 153.601 174.329 153.567 174.165 153.537C174.159 153.572 174.146 153.606 174.127 153.636C174.108 153.666 174.083 153.692 174.054 153.713L174.1 153.604ZM181.261 154.118C181.118 154.118 180.976 154.092 180.842 154.042C180.602 154.574 180.677 154.955 181.276 154.972C181.39 154.992 181.63 154.97 181.653 154.844C181.676 154.717 181.394 154.391 181.262 154.183L181.261 154.118ZM173.209 153.246C173.308 153.303 173.418 153.337 173.532 153.346C173.646 153.356 173.76 153.34 173.867 153.299C173.943 153.313 173.664 153.119 173.565 153.088C173.435 153.1 173.31 153.145 173.201 153.218L173.209 153.246ZM174.197 153.215C174.298 153.234 174.578 153.206 174.647 153.114C174.716 153.022 174.094 152.411 173.722 152.946C173.831 152.951 173.936 152.991 174.02 153.06C174.104 153.13 174.164 153.225 174.189 153.332L174.197 153.215ZM173.542 152.926C173.62 152.495 173.051 152.457 172.67 152.611C172.769 152.759 172.898 152.885 173.048 152.981C173.212 152.94 173.385 152.962 173.534 153.043L173.542 152.926ZM180.256 153.595C179.901 153.531 178.97 153.466 179.114 153.754C179.195 153.899 179.314 154.019 179.458 154.101C179.603 154.183 179.767 154.223 179.933 154.217C180.148 154.183 180.343 154.075 180.486 153.912C180.403 153.866 180.334 153.8 180.286 153.718L180.256 153.595ZM181.696 154.027C182.052 154.301 182.755 154.756 183.009 154.37C183.262 153.984 182.298 153.887 181.923 153.858C181.871 153.972 181.79 154.071 181.688 154.143L181.696 154.027ZM181.157 153.248C181.385 153.289 181.816 153.512 181.644 153.664C181.473 153.816 180.338 153.649 180.592 153.473C180.762 153.381 180.956 153.343 181.149 153.364L181.157 153.248ZM181.182 153.108C181.309 152.411 180.478 152.3 179.858 152.541C179.745 152.586 179.738 152.624 179.83 152.693C179.988 152.934 180.197 153.137 180.442 153.288C180.549 153.23 180.667 153.194 180.788 153.182C180.91 153.17 181.032 153.183 181.149 153.22L181.182 153.108ZM182.016 153.561C182.219 153.598 182.686 153.552 182.809 153.378C182.932 153.204 182.532 152.882 182.278 152.77C182.193 152.73 182.101 152.706 182.007 152.702C181.913 152.698 181.82 152.713 181.732 152.746C181.644 152.779 181.563 152.829 181.495 152.894C181.428 152.959 181.373 153.037 181.336 153.123C181.599 153.263 181.93 153.388 181.983 153.673L182.016 153.561ZM166.565 148.373C165.334 147.22 167.255 147.097 167.837 147.426C167.933 147.477 168.016 147.552 168.077 147.643C168.138 147.734 168.176 147.838 168.187 147.948C168.998 146.942 170.836 148.428 169.756 148.9C169.902 148.919 170.041 148.977 170.158 149.067C170.275 149.157 170.366 149.277 170.422 149.414C170.433 149.523 170.418 149.634 170.378 149.737C170.338 149.84 170.275 149.932 170.192 150.005C170.11 150.078 170.011 150.131 169.905 150.158C169.798 150.186 169.686 150.188 169.579 150.164C169.327 150.119 169.086 150.027 168.869 149.891C169.031 150.366 168.808 150.731 168.118 150.711C167.427 150.69 167.069 150.285 167.152 149.684C166.912 149.821 166.632 149.869 166.361 149.82C166.09 149.77 165.845 149.627 165.669 149.415C165.019 148.957 165.281 148.376 166.531 148.485L166.565 148.373ZM168.114 149.361C167.958 149.359 167.804 149.331 167.657 149.279C167.393 149.872 167.473 150.293 168.126 150.306C168.265 150.332 168.52 150.299 168.545 150.16C168.57 150.02 168.233 149.645 168.08 149.473L168.114 149.361ZM167.004 148.767C166.611 148.696 165.551 148.621 165.739 148.956C165.831 149.116 165.965 149.247 166.127 149.337C166.288 149.426 166.471 149.47 166.655 149.463C166.888 149.427 167.102 149.314 167.263 149.142C167.138 149.092 167.034 148.999 166.971 148.879L167.004 148.767ZM168.592 149.252C168.982 149.558 169.754 150.065 170.042 149.633C170.33 149.201 169.259 149.111 168.836 149.06C168.783 149.191 168.684 149.299 168.559 149.364L168.592 149.252ZM176.68 148.481C177.257 147.682 178.749 148.621 178.054 149.136C178.586 149.233 178.683 149.565 178.539 149.853C178.395 150.141 177.864 150.254 177.426 150.07C177.535 150.404 177.313 150.691 176.819 150.745C176.324 150.799 175.947 150.495 175.937 150.048C175.027 150.59 173.727 149.241 174.991 148.986C175.535 148.875 175.346 149.051 175.048 148.669C175.011 148.634 174.984 148.59 174.968 148.541C174.952 148.493 174.949 148.441 174.958 148.391C174.967 148.341 174.989 148.294 175.02 148.254C175.052 148.214 175.093 148.182 175.14 148.162C175.72 148.071 176.503 148.082 176.646 148.593L176.68 148.481ZM168.001 148.398C168.241 148.442 168.721 148.686 168.534 148.849C168.348 149.011 167.096 148.836 167.381 148.639C167.56 148.54 167.763 148.495 167.967 148.51L168.001 148.398ZM176.711 149.678C176.598 149.692 176.484 149.693 176.37 149.682C176.29 150.125 176.32 150.393 176.797 150.361C176.873 150.375 177.064 150.331 177.078 150.255C177.092 150.179 176.786 149.914 176.678 149.79L176.711 149.678ZM168.003 148.241C168.143 147.468 167.224 147.341 166.531 147.621C166.417 147.6 166.411 147.704 166.501 147.786C166.674 148.047 166.902 148.267 167.17 148.431C167.416 148.302 167.703 148.274 167.969 148.353L168.003 148.241ZM168.919 148.748C169.147 148.79 169.657 148.725 169.795 148.54C169.933 148.356 169.489 147.987 169.209 147.871C169.116 147.825 169.015 147.798 168.911 147.793C168.807 147.788 168.703 147.803 168.606 147.84C168.508 147.876 168.419 147.932 168.344 148.004C168.269 148.076 168.21 148.163 168.17 148.259C168.46 148.39 168.827 148.535 168.886 148.86L168.919 148.748ZM175.762 149.283C175.438 149.234 175.107 149.288 174.817 149.439C174.896 149.562 175.007 149.661 175.139 149.724C175.271 149.788 175.418 149.813 175.564 149.797C175.723 149.748 175.867 149.657 175.978 149.532C175.883 149.514 175.795 149.466 175.728 149.395L175.762 149.283ZM177.143 149.534C177.45 149.721 178.062 150.028 178.221 149.73C178.38 149.431 177.568 149.428 177.28 149.428C177.236 149.508 177.174 149.578 177.1 149.631L177.143 149.534ZM176.546 148.928C176.686 148.953 177.015 149.013 176.998 149.18C176.869 149.269 176.717 149.318 176.561 149.322C176.404 149.326 176.25 149.285 176.117 149.204C175.972 149.204 176.328 149.046 176.515 149.027L176.546 148.928ZM176.574 148.776C176.721 147.965 175.252 148.34 175.306 148.546C175.454 148.73 175.642 148.876 175.857 148.973C175.95 148.914 176.055 148.873 176.164 148.855C176.273 148.837 176.384 148.84 176.492 148.866L176.574 148.776ZM177.383 149.08C177.535 149.107 177.918 149.02 177.996 148.877C178.074 148.734 177.724 148.5 177.515 148.423C177.443 148.395 177.365 148.382 177.288 148.384C177.21 148.386 177.134 148.404 177.063 148.436C176.993 148.469 176.929 148.515 176.877 148.572C176.824 148.63 176.784 148.697 176.758 148.77C176.878 148.777 176.993 148.819 177.089 148.889C177.185 148.96 177.259 149.058 177.301 149.17L177.383 149.08ZM277.012 184.789C277.185 184.47 277.469 184.227 277.81 184.105C278.151 183.983 278.525 183.992 278.86 184.129C280.243 184.589 280.778 185.682 279.296 186.054C280.222 186.222 281.191 186.581 280.728 187.401C280.265 188.22 278.936 187.822 278.014 187.275C278.645 188.201 278.419 188.867 277.224 188.886C276.029 188.905 275.498 188.154 275.742 187.098C275.384 187.428 274.913 187.607 274.426 187.597C273.94 187.587 273.476 187.388 273.133 187.044C271.806 185.912 273.102 185.336 274.883 185.554C274.103 185.02 273.267 184.213 274.155 183.864C275.282 183.427 276.998 183.568 277.012 184.789ZM277.177 186.691C276.848 186.723 276.516 186.699 276.196 186.618C276.098 186.849 276.032 187.092 275.999 187.341C275.849 188.165 276.251 188.618 277.224 188.598C277.554 188.658 278.034 188.536 278.069 188.201C278.172 187.631 277.049 186.602 277.221 186.738L277.177 186.691ZM275.323 185.87C274.626 185.743 272.892 185.704 272.855 186.194C272.975 186.488 273.172 186.743 273.425 186.933C273.679 187.123 273.979 187.241 274.294 187.274C274.609 187.307 274.927 187.254 275.215 187.121C275.502 186.987 275.748 186.778 275.926 186.516C275.767 186.479 275.621 186.398 275.506 186.282C275.39 186.166 275.309 186.02 275.272 185.861L275.323 185.87ZM277.53 186.624C278.349 187.231 279.976 188.155 280.49 187.266C281.005 186.378 279.082 186.225 278.172 186.191C278.019 186.409 277.79 186.564 277.53 186.624ZM276.809 185.184C277.671 185.34 278.454 185.862 277.657 186.215C276.859 186.568 275.586 186.153 275.581 185.747C275.576 185.34 276.391 185.252 276.798 185.247L276.809 185.184ZM276.83 185.07C276.896 184.844 276.876 184.602 276.774 184.391C276.672 184.179 276.496 184.012 276.279 183.922C275.895 183.783 275.483 183.738 275.077 183.789C274.671 183.841 274.284 183.988 273.947 184.219C273.873 184.625 274.97 185.361 275.338 185.571C275.635 185.089 276.452 185.132 276.869 185.142L276.83 185.07ZM278.202 185.882C278.674 185.876 279.615 185.811 279.881 185.427C280.148 185.043 279.345 184.413 278.791 184.221C278.619 184.148 278.433 184.111 278.245 184.113C278.058 184.115 277.873 184.156 277.702 184.233C277.364 184.417 277.098 184.71 276.949 185.065C277.494 185.164 278.244 185.431 278.241 185.954L278.202 185.882ZM265.994 180.065C264.338 178.94 267.038 177.989 267.927 178.936C268.09 179.128 268.206 179.355 268.265 179.6C268.608 178.575 270.06 178.944 270.878 179.629C271.502 180.161 270.696 180.631 269.867 180.873C270.5 180.988 271.691 181.427 271.55 182.056C271.399 182.299 271.187 182.498 270.935 182.635C270.684 182.772 270.401 182.841 270.115 182.837C269.828 182.832 269.548 182.754 269.301 182.609C269.054 182.464 268.848 182.258 268.704 182.01C268.52 183.025 267.985 183.451 266.975 183.098C265.965 182.744 265.953 182.166 266.712 181.518C265.785 181.716 264.664 181.762 264.491 180.84C264.318 179.918 265.234 179.993 266.033 180.138L265.994 180.065ZM267.616 181.224C267.332 181.39 267.065 181.582 266.818 181.799C266.296 182.293 266.425 182.592 267.076 182.828C267.727 183.064 267.99 182.915 268.18 182.662C268.397 182.277 268.478 181.83 268.41 181.394C268.155 181.403 267.9 181.37 267.655 181.296L267.616 181.224ZM268.719 181.424C268.767 181.637 268.863 181.836 269 182.007C269.136 182.178 269.31 182.315 269.507 182.409C269.704 182.503 269.92 182.551 270.139 182.549C270.357 182.547 270.572 182.495 270.768 182.398C270.939 182.324 271.254 182.172 271.287 181.995C271.365 181.564 270.035 181.1 269.377 181.046C269.322 181.168 269.236 181.274 269.127 181.353C269.019 181.432 268.892 181.482 268.758 181.497L268.719 181.424ZM266.919 180.521C266.121 180.298 264.595 179.981 264.75 180.782C264.906 181.583 266.456 181.34 267.32 181.052C267.153 180.942 267.026 180.781 266.958 180.594L266.919 180.521ZM269.15 180.926C269.092 181.243 268.379 181.205 268.044 181.105C267.333 180.91 266.797 180.329 267.503 180.116C268.209 179.904 269.307 180.64 269.194 180.973L269.15 180.926ZM275.62 179.403C276.407 178.237 278.55 179.778 277.232 180.259C277.815 180.365 278.298 180.662 278.011 181.16C277.724 181.658 276.953 181.505 276.382 181.191C276.664 181.727 276.487 182.127 275.739 182.135C274.991 182.143 274.622 181.723 274.714 181.072C274.47 181.242 274.175 181.323 273.879 181.3C273.582 181.277 273.302 181.152 273.087 180.947C272.374 180.333 272.736 179.783 274.077 179.896C273.882 179.761 273.713 179.593 273.578 179.399C273.536 179.357 273.507 179.304 273.494 179.247C273.48 179.189 273.483 179.129 273.501 179.073C273.519 179.017 273.553 178.967 273.597 178.929C273.642 178.89 273.697 178.865 273.755 178.855C274.504 178.624 275.602 178.706 275.663 179.45L275.62 179.403ZM269.408 180.803C269.765 180.71 270.791 180.399 270.855 180.044C270.92 179.689 268.474 178.302 268.253 179.951C268.778 180.164 269.355 180.374 269.452 180.85L269.408 180.803ZM268.249 179.977C268.251 179.81 268.219 179.645 268.155 179.491C268.091 179.337 267.995 179.198 267.875 179.083C267.755 178.968 267.612 178.878 267.455 178.821C267.299 178.763 267.132 178.739 266.966 178.749C266.453 178.76 265.611 179 265.735 179.468C265.86 179.936 266.589 180.173 266.971 180.308C267.186 179.915 267.78 179.892 268.242 180.015L268.249 179.977ZM275.73 180.746C275.539 180.766 275.346 180.753 275.16 180.708C275.036 180.963 275.006 181.255 275.076 181.53C275.23 181.912 275.887 181.9 276.125 181.812C276.364 181.725 276.284 181.514 276.154 181.294C276.041 181.098 275.902 180.918 275.74 180.76L275.73 180.746ZM274.517 180.211C274.035 180.124 272.822 180.1 273.151 180.526C273.267 180.696 273.426 180.833 273.613 180.922C273.799 181.011 274.005 181.049 274.211 181.033C274.488 180.971 274.739 180.824 274.929 180.613C274.838 180.59 274.754 180.548 274.681 180.49C274.608 180.431 274.548 180.358 274.506 180.275L274.517 180.211ZM276.084 180.666C276.573 181.003 277.535 181.545 277.834 180.983C278.132 180.422 276.934 180.388 276.425 180.374C276.352 180.522 276.229 180.639 276.077 180.704L276.084 180.666ZM275.51 179.789C275.84 179.849 276.398 180.094 276.164 180.301C275.961 180.406 275.734 180.455 275.506 180.443C275.278 180.432 275.057 180.36 274.866 180.235C274.602 180.03 275.173 179.846 275.503 179.827L275.51 179.789ZM275.531 179.675C275.685 178.826 274.617 178.724 273.88 179.035C273.456 179.207 274.225 179.726 274.58 179.935C274.709 179.826 274.862 179.749 275.026 179.711C275.19 179.672 275.36 179.673 275.524 179.713L275.531 179.675ZM276.475 180.174C276.741 180.222 277.321 180.131 277.478 179.911C277.636 179.691 276.152 178.491 275.647 179.683C275.992 179.733 276.447 179.894 276.468 180.212L276.475 180.174ZM132.294 188.504L132.448 187.655C132.47 187.596 132.478 187.534 132.473 187.472C132.468 187.41 132.45 187.351 132.419 187.297C132.388 187.243 132.346 187.196 132.295 187.16C132.245 187.124 132.187 187.1 132.126 187.089C132.065 187.078 132.002 187.08 131.942 187.096C131.882 187.112 131.826 187.141 131.778 187.18C131.73 187.22 131.692 187.27 131.665 187.326C131.639 187.382 131.625 187.443 131.625 187.505L131.459 188.418C131.453 188.473 131.458 188.528 131.474 188.581C131.49 188.634 131.516 188.683 131.551 188.726C131.586 188.769 131.628 188.804 131.677 188.83C131.725 188.857 131.779 188.873 131.833 188.879C131.888 188.884 131.944 188.879 131.997 188.863C132.049 188.848 132.099 188.822 132.141 188.787C132.184 188.752 132.22 188.709 132.246 188.661C132.272 188.612 132.289 188.559 132.294 188.504ZM124.876 0.494153C124.817 0.601334 124.821 0.575982 124.876 0.494153ZM274.941 116.417C274.948 116.523 274.95 116.511 274.941 116.417ZM101.522 99.7211C101.443 99.5759 101.431 99.5736 101.522 99.7211ZM71.0489 102.845C71.012 102.903 70.9993 102.901 71.0489 102.845ZM220.271 24.2524C220.279 24.4241 220.271 24.3964 220.271 24.2524Z" fill="#090915"/>
</svg>
